<svg width="26" height="26" viewBox="0 0 26 26" fill="none" xmlns="http://www.w3.org/2000/svg">
<path d="M2 3.46667C2 2.65665 2.65665 2 3.46667 2H6.4C7.21002 2 7.86667 2.65665 7.86667 3.46667V6.4C7.86667 7.21002 7.21002 7.86667 6.4 7.86667H3.46667C2.65665 7.86667 2 7.21002 2 6.4V3.46667Z" fill="#1E5193"/>
<path d="M10.0667 3.46667C10.0667 2.65665 10.7233 2 11.5333 2H14.4667C15.2767 2 15.9333 2.65665 15.9333 3.46667V6.4C15.9333 7.21002 15.2767 7.86667 14.4667 7.86667H11.5333C10.7233 7.86667 10.0667 7.21002 10.0667 6.4V3.46667Z" fill="#1E5193"/>
<path d="M2 11.5333C2 10.7233 2.65665 10.0667 3.46667 10.0667H6.4C7.21002 10.0667 7.86667 10.7233 7.86667 11.5333V14.4667C7.86667 15.2767 7.21002 15.9333 6.4 15.9333H3.46667C2.65665 15.9333 2 15.2767 2 14.4667V11.5333Z" fill="#1E5193"/>
<path d="M10.0667 11.5333C10.0667 10.7233 10.7233 10.0667 11.5333 10.0667H14.4667C15.2767 10.0667 15.9333 10.7233 15.9333 11.5333V14.4667C15.9333 15.2767 15.2767 15.9333 14.4667 15.9333H11.5333C10.7233 15.9333 10.0667 15.2767 10.0667 14.4667V11.5333Z" fill="#1E5193"/>
<path d="M2 19.6C2 18.79 2.65665 18.1333 3.46667 18.1333H6.4C7.21002 18.1333 7.86667 18.79 7.86667 19.6V22.5333C7.86667 23.3434 7.21002 24 6.4 24H3.46667C2.65665 24 2 23.3434 2 22.5333V19.6Z" fill="#1E5193"/>
<path d="M10.0667 19.6C10.0667 18.79 10.7233 18.1333 11.5333 18.1333H14.4667C15.2767 18.1333 15.9333 18.79 15.9333 19.6V22.5333C15.9333 23.3434 15.2767 24 14.4667 24H11.5333C10.7233 24 10.0667 23.3434 10.0667 22.5333V19.6Z" fill="#1E5193"/>
<path d="M18.1333 3.46667C18.1333 2.65665 18.79 2 19.6 2H22.5333C23.3434 2 24 2.65665 24 3.46667V6.4C24 7.21002 23.3434 7.86667 22.5333 7.86667H19.6C18.79 7.86667 18.1333 7.21002 18.1333 6.4V3.46667Z" fill="#1E5193"/>
<path d="M18.1333 11.5333C18.1333 10.7233 18.79 10.0667 19.6 10.0667H22.5333C23.3434 10.0667 24 10.7233 24 11.5333V14.4667C24 15.2767 23.3434 15.9333 22.5333 15.9333H19.6C18.79 15.9333 18.1333 15.2767 18.1333 14.4667V11.5333Z" fill="#1E5193"/>
<path d="M18.1333 19.6C18.1333 18.79 18.79 18.1333 19.6 18.1333H22.5333C23.3434 18.1333 24 18.79 24 19.6V22.5333C24 23.3434 23.3434 24 22.5333 24H19.6C18.79 24 18.1333 23.3434 18.1333 22.5333V19.6Z" fill="#1E5193"/>
</svg>
