<svg width="40" height="40" viewBox="0 0 40 40" fill="none" xmlns="http://www.w3.org/2000/svg">
<path d="M31 11.0101C30.0424 11.6855 28.9821 12.2022 27.86 12.5401C27.2577 11.8476 26.4573 11.3567 25.567 11.134C24.6767 10.9112 23.7395 10.9673 22.8821 11.2945C22.0247 11.6218 21.2884 12.2045 20.773 12.9638C20.2575 13.7231 19.9877 14.6224 20 15.5401V16.5401C18.2426 16.5856 16.5013 16.1959 14.931 15.4055C13.3607 14.6151 12.0103 13.9487 11 12.5101C11 12.5101 7 21.0101 16 25.0101C13.9405 26.408 11.4872 27.109 9 27.0101C18 32.0101 29 27.0101 29 15.5101C28.9991 15.2315 28.9723 14.9537 28.92 14.6801C29.9406 13.6735 30.6608 12.4028 31 11.0101Z" fill="black"/>
<path d="M22.3647 10.3438C23.3657 9.96177 24.4598 9.89635 25.4992 10.1564C26.3738 10.3753 27.1741 10.8157 27.8248 11.4316C28.7105 11.1211 29.5496 10.689 30.3178 10.1472C30.5732 9.96698 30.9137 9.96415 31.1721 10.1401C31.4306 10.316 31.5528 10.6338 31.4788 10.9375C31.1373 12.3396 30.4439 13.629 29.4669 14.6851C29.4883 14.8751 29.4994 15.0662 29.5001 15.2576L29.5001 15.2601C29.5001 21.2725 26.6099 25.6601 22.4775 27.8596C18.3633 30.0494 13.0932 30.0309 8.38585 27.4157C8.08224 27.247 7.93415 26.8919 8.02794 26.5575C8.12173 26.2231 8.43284 25.9968 8.77989 26.0106C10.663 26.0856 12.5254 25.6703 14.1885 24.816C12.5132 23.8723 11.3391 22.7431 10.5446 21.5305C9.56643 20.0374 9.19344 18.4635 9.12593 17.0457C9.05862 15.6324 9.29391 14.3635 9.54213 13.4534C9.66672 12.9965 9.79589 12.6253 9.89519 12.3654C9.94488 12.2354 9.98724 12.1328 10.018 12.0611C10.0334 12.0252 10.0459 11.9969 10.055 11.9767L10.066 11.9526L10.0694 11.9451L10.0706 11.9425L10.0711 11.9415C10.1849 11.6997 10.4192 11.5359 10.6855 11.5129C10.9518 11.4898 11.2102 11.6103 11.3638 11.829C12.2494 13.09 13.4231 13.6827 15.0183 14.4856C16.26 15.1106 17.6169 15.4661 19.0001 15.5323V15.2949C18.9868 14.2254 19.3018 13.1775 19.9025 12.2925C20.5043 11.4061 21.3638 10.7259 22.3647 10.3438Z" fill="black"/>
</svg>
