<svg width="40" height="40" viewBox="0 0 40 40" fill="none" xmlns="http://www.w3.org/2000/svg">
<path fill-rule="evenodd" clip-rule="evenodd" d="M20 9.25C20.2855 9.25 20.5462 9.41205 20.6726 9.66803L23.5882 15.5748L30.1085 16.5279C30.3909 16.5692 30.6254 16.7672 30.7135 17.0387C30.8015 17.3102 30.7278 17.6081 30.5233 17.8073L25.8059 22.402L26.9192 28.8932C26.9675 29.1746 26.8518 29.459 26.6208 29.6268C26.3898 29.7946 26.0836 29.8167 25.8309 29.6838L20 26.6174L14.1691 29.6838C13.9164 29.8167 13.6102 29.7946 13.3792 29.6268C13.1482 29.459 13.0326 29.1746 13.0808 28.8932L14.1941 22.402L9.47672 17.8073C9.27226 17.6081 9.19855 17.3102 9.28659 17.0387C9.37462 16.7672 9.60913 16.5692 9.89155 16.5279L16.4118 15.5748L19.3275 9.66803C19.4538 9.41205 19.7146 9.25 20 9.25Z" fill="black"/>
</svg>
