<svg width="40" height="40" viewBox="0 0 40 40" fill="none" xmlns="http://www.w3.org/2000/svg">
<path d="M12.25 15C12.25 12.3766 14.3766 10.25 17 10.25C19.6234 10.25 21.75 12.3766 21.75 15C21.75 17.6234 19.6234 19.75 17 19.75C14.3766 19.75 12.25 17.6234 12.25 15Z" fill="black"/>
<path d="M9.64124 23.6412C10.532 22.7504 11.7402 22.25 13 22.25H21C22.2598 22.25 23.468 22.7504 24.3588 23.6412C25.2496 24.532 25.75 25.7402 25.75 27V29C25.75 29.4142 25.4142 29.75 25 29.75H9C8.58579 29.75 8.25 29.4142 8.25 29V27C8.25 25.7402 8.75045 24.532 9.64124 23.6412Z" fill="black"/>
<path d="M31 29.75H28.163C28.2199 29.5092 28.25 29.2581 28.25 29V27C28.25 25.2493 27.6168 23.5639 26.4772 22.25H27C28.2597 22.25 29.4679 22.7504 30.3587 23.6412C31.2495 24.532 31.75 25.7402 31.75 27V29C31.75 29.4142 31.4142 29.75 31 29.75Z" fill="black"/>
<path d="M23 19.75C22.831 19.75 22.6641 19.7412 22.4996 19.724C23.5902 18.4556 24.25 16.8052 24.25 15C24.25 13.1954 23.5907 11.5449 22.4998 10.276C22.6642 10.2588 22.831 10.25 23 10.25C25.6233 10.25 27.75 12.3766 27.75 15C27.75 17.6234 25.6233 19.75 23 19.75Z" fill="black"/>
</svg>
