<svg width="40" height="40" viewBox="0 0 40 40" fill="none" xmlns="http://www.w3.org/2000/svg">
<path d="M15.3333 9.5H11.8333C11.2145 9.5 10.621 9.74583 10.1834 10.1834C9.74583 10.621 9.5 11.2145 9.5 11.8333V15.3333M30.5 15.3333V11.8333C30.5 11.2145 30.2542 10.621 29.8166 10.1834C29.379 9.74583 28.7855 9.5 28.1667 9.5H24.6667M24.6667 30.5H28.1667C28.7855 30.5 29.379 30.2542 29.8166 29.8166C30.2542 29.379 30.5 28.7855 30.5 28.1667V24.6667M9.5 24.6667V28.1667C9.5 28.7855 9.74583 29.379 10.1834 29.8166C10.621 30.2542 11.2145 30.5 11.8333 30.5H15.3333" stroke="black" stroke-width="1.5" stroke-linecap="round" stroke-linejoin="round"/>
</svg>
