<svg width="28" height="28" viewBox="0 0 28 28" fill="none" xmlns="http://www.w3.org/2000/svg">
<g clip-path="url(#clip0)">
<path d="M7.53856 12.0615C6.46837 12.0615 5.6001 12.9298 5.6001 14C5.6001 15.0702 6.46837 15.9384 7.53856 15.9384C8.60875 15.9384 9.47702 15.0702 9.47702 14C9.47702 12.9298 8.60875 12.0615 7.53856 12.0615ZM14.0001 12.0615C12.9299 12.0615 12.0616 12.9298 12.0616 14C12.0616 15.0702 12.9299 15.9384 14.0001 15.9384C15.0703 15.9384 15.9386 15.0702 15.9386 14C15.9386 12.9298 15.0703 12.0615 14.0001 12.0615ZM20.4616 12.0615C19.3914 12.0615 18.5232 12.9298 18.5232 14C18.5232 15.0702 19.3914 15.9384 20.4616 15.9384C21.5318 15.9384 22.4001 15.0702 22.4001 14C22.4001 12.9298 21.5318 12.0615 20.4616 12.0615Z" fill="#A0A0A0"/>
</g>
<defs>
<clipPath id="clip0">
<rect width="16.8" height="16.8" fill="white" transform="translate(5.6001 5.59998)"/>
</clipPath>
</defs>
</svg>
