<svg width="2em" height="2em" viewBox="0 0 32 26" fill="none" xmlns="http://www.w3.org/2000/svg">
    <path
        d="M12.9231 0C12.0481 0 11.4712 0.35577 11.1923 0.846154L9.61539 3.69231H7.38462C7.38462 3.01442 6.83173 2.46154 6.15385 2.46154H3.69231C3.01442 2.46154 2.46154 3.01442 2.46154 3.69231V3.92308C1.02885 4.43269 0 5.77885 0 7.38461V19.8462C0 23.1587 2.6875 25.8462 6 25.8462H26C29.3125 25.8462 32 23.1587 32 19.8462V9.69231C32 6.37981 29.3125 3.69231 26 3.69231H24.8462L23.2692 0.846154C22.9904 0.35577 22.375 0 21.5385 0H12.9231ZM4.92308 4.30769C5.94231 4.30769 6.76923 5.13461 6.76923 6.15385C6.76923 7.17308 5.94231 8 4.92308 8C3.90385 8 3.07692 7.17308 3.07692 6.15385C3.07692 5.13461 3.90385 4.30769 4.92308 4.30769ZM17.2308 4.84615C22.0288 4.84615 25.9231 8.74039 25.9231 13.5385C25.9231 18.3365 22.0288 22.2308 17.2308 22.2308C12.4327 22.2308 8.53846 18.3413 8.53846 13.5385C8.53846 8.73558 12.4327 4.84615 17.2308 4.84615ZM17.2308 7.61538C13.9615 7.61538 11.3077 10.2692 11.3077 13.5385C11.3077 16.8077 13.9615 19.4615 17.2308 19.4615C20.5 19.4615 23.1538 16.8077 23.1538 13.5385C23.1538 10.2692 20.5 7.61538 17.2308 7.61538Z"
        fill="#a0a0a0"
    />
</svg>