<svg width="20" height="18" viewBox="0 0 20 18" fill="none" xmlns="http://www.w3.org/2000/svg">
<rect x="11.3599" y="3.9834" width="5.44" height="6.4078" fill="#3E2723"/>
<path d="M15.7799 9.93342C15.7799 9.93342 14.7739 9.78735 14.0799 9.78735C13.3858 9.78735 12.3799 9.93342 12.3799 9.93342C12.3799 9.93342 8.63989 10.646 8.63989 14.6001H19.5199C19.5199 10.661 15.7799 9.93342 15.7799 9.93342Z" fill="#2196F3"/>
<path d="M14.0801 11.6834C13.4277 11.6834 12.4934 9.93343 12.4934 9.93343V7.6001H15.6667V9.93343C15.6667 9.93343 14.7324 11.6834 14.0801 11.6834Z" fill="#EF8D3C"/>
<path fill-rule="evenodd" clip-rule="evenodd" d="M14.0801 9.46674C15.7701 9.46674 17.2534 7.9398 17.2534 6.20007V3.40007C17.2534 0.727936 10.9067 1.66034 10.9067 3.40007V6.20007C10.9067 7.9398 12.3896 9.46674 14.0801 9.46674ZM15.6667 9.93341C15.6667 9.93341 15.3952 12.2667 14.0801 12.2667C12.765 12.2667 12.4934 9.93341 12.4934 9.93341C12.4934 9.93341 13.3384 11.3334 14.0801 11.3334C14.8217 11.3334 15.6667 9.93341 15.6667 9.93341Z" fill="#FFAA45"/>
<path d="M14.08 13.2C15.6902 13.2 16.3766 11.3651 16.5475 10.1821C16.1001 9.9987 15.78 9.93337 15.78 9.93337C15.78 9.93337 15.7333 9.92684 15.6667 9.91797V9.93337C15.6667 9.93337 15.3951 12.2667 14.08 12.2667C12.7649 12.2667 12.4933 9.93337 12.4933 9.93337V9.91797C12.4267 9.92684 12.38 9.93337 12.38 9.93337C12.38 9.93337 12.06 9.9973 11.6121 10.1798C11.7825 11.3628 12.4689 13.2 14.08 13.2Z" fill="#0D47A1"/>
<path fill-rule="evenodd" clip-rule="evenodd" d="M12.7199 6.20018C12.4697 6.20018 12.2666 5.99065 12.2666 5.73351C12.2666 5.47638 12.4697 5.26685 12.7199 5.26685C12.9702 5.26685 13.1733 5.47638 13.1733 5.73351C13.1733 5.99065 12.9702 6.20018 12.7199 6.20018ZM15.4399 5.26685C15.1897 5.26685 14.9866 5.47638 14.9866 5.73351C14.9866 5.99065 15.1897 6.20018 15.4399 6.20018C15.6902 6.20018 15.8933 5.99065 15.8933 5.73351C15.8933 5.47638 15.6902 5.26685 15.4399 5.26685Z" fill="#784719"/>
<path d="M14.0799 0.600098C12.0145 0.600098 9.09326 1.57496 9.09326 8.53343L11.3599 10.3908V5.26676L15.4399 2.93343L16.7999 4.8001V10.4001L19.0666 8.06676C19.0666 6.6579 18.951 1.3001 15.4399 1.3001L14.9866 0.600098H14.0799Z" fill="#4E342E"/>
<path fill-rule="evenodd" clip-rule="evenodd" d="M2.97321 8.06665C3.34857 8.06665 3.65321 8.38025 3.65321 8.76665C3.65321 9.15305 3.34857 9.46665 2.97321 9.46665C2.59785 9.46665 2.29321 9.15305 2.29321 8.76665C2.29321 8.38025 2.59785 8.06665 2.97321 8.06665ZM8.86655 9.46665C9.24191 9.46665 9.54655 9.15305 9.54655 8.76665C9.54655 8.38025 9.24191 8.06665 8.86655 8.06665C8.49074 8.06665 8.18655 8.38025 8.18655 8.76665C8.18655 9.15305 8.49074 9.46665 8.86655 9.46665Z" fill="#FFA726"/>
<path d="M7.73336 12.7334C7.73336 12.7334 7.73336 14.6001 5.92002 14.6001C4.10669 14.6001 4.10669 12.7334 4.10669 12.7334" fill="#FF9800"/>
<path d="M7.61998 12.7334L5.91998 13.0927L4.21998 12.7334C4.21998 12.7334 0.47998 13.446 0.47998 17.4001H11.36C11.36 13.4609 7.61998 12.7334 7.61998 12.7334Z" fill="#4FC3F7"/>
<path d="M5.92002 14.6C4.10669 14.6 4.10669 12.7334 4.10669 12.7334V10.8667H7.73336V12.7334C7.73336 12.7334 7.73336 14.6 5.92002 14.6Z" fill="#FF9800"/>
<path d="M9.09325 6.98413C9.09325 4.24059 2.74658 5.19773 2.74658 6.98413V9.03326C2.74658 10.8178 4.16688 12.2668 5.91991 12.2668C7.6725 12.2668 9.09325 10.8178 9.09325 9.03279V6.98413Z" fill="#FFB74D"/>
<path d="M5.92002 15.5334C7.30677 15.5334 8.44872 14.4638 8.61645 13.0834C8.21571 12.8976 7.88976 12.8001 7.73064 12.76C7.71659 13.7778 6.91282 14.6 5.92002 14.6C4.92722 14.6 4.12301 13.7778 4.10941 12.759C3.94938 12.7992 3.62389 12.8958 3.22314 13.0801C3.38906 14.4624 4.53237 15.5334 5.92002 15.5334Z" fill="#01579B"/>
<path d="M5.91988 3.40015C3.71668 3.40015 2.29321 5.41288 2.29321 7.21375V8.06681L3.19988 9.00015V7.13348L7.37055 5.73348L8.63988 7.13348V9.00015L9.54655 8.06681V7.68928C9.54655 6.18755 9.16983 4.51455 7.37055 4.14635L7.00743 3.40015H5.91988Z" fill="#795548"/>
<path fill-rule="evenodd" clip-rule="evenodd" d="M4.56002 8.99999C4.30978 8.99999 4.10669 8.79045 4.10669 8.53332C4.10669 8.27618 4.30978 8.06665 4.56002 8.06665C4.81026 8.06665 5.01336 8.27618 5.01336 8.53332C5.01336 8.79045 4.81026 8.99999 4.56002 8.99999ZM7.28003 8.06665C7.02979 8.06665 6.8267 8.27618 6.8267 8.53332C6.8267 8.79045 7.02979 8.99999 7.28003 8.99999C7.53027 8.99999 7.73337 8.79045 7.73337 8.53332C7.73337 8.27618 7.53027 8.06665 7.28003 8.06665Z" fill="#784719"/>
</svg>
