<svg width="240" height="36" viewBox="0 0 240 36" fill="none" xmlns="http://www.w3.org/2000/svg">
<g clip-path="url(#clip0)">
<mask id="mask0" mask-type="alpha" maskUnits="userSpaceOnUse" x="0" y="0" width="36" height="36">
<path d="M31.212 0H4.00154C1.79155 0 0 1.79155 0 4.00154V31.212C0 33.422 1.79155 35.2136 4.00154 35.2136H31.212C33.422 35.2136 35.2136 33.422 35.2136 31.212V4.00154C35.2136 1.79155 33.422 0 31.212 0Z" fill="white"/>
</mask>
<g mask="url(#mask0)">
<path fill-rule="evenodd" clip-rule="evenodd" d="M0 35.2136L17.6068 17.6068L35.2136 35.2136H0Z" fill="#93B2D3"/>
<path fill-rule="evenodd" clip-rule="evenodd" d="M0 35.2136L17.6068 17.6068L0 0L0 35.2136Z" fill="#1E5193"/>
<path fill-rule="evenodd" clip-rule="evenodd" d="M35.2136 0L17.6068 17.6068L0 0H35.2136Z" fill="#D81E4F"/>
<path fill-rule="evenodd" clip-rule="evenodd" d="M35.2136 0L17.6068 17.6068L35.2136 35.2136V0Z" fill="#FCCE2D"/>
</g>
</g>
<g clip-path="url(#clip1)">
<path fill-rule="evenodd" clip-rule="evenodd" d="M92.232 2.76066C92.3649 2.31526 92.2509 2.02942 92.1317 1.86826C92.0167 1.71293 91.7873 1.52695 91.35 1.52695H87.6039C87.0079 1.52695 86.6 1.82864 86.4907 2.32952L79.1261 26.7956L71.0856 2.30152C70.9995 2.08489 70.8788 1.84185 70.5978 1.6564C70.4293 1.57186 70.2325 1.52695 70.0282 1.52695H66.5598C66.3194 1.52695 66.1135 1.6173 66.0374 1.6564C65.7329 1.80909 65.547 2.04632 65.4955 2.32054L57.42 26.7898L50.187 2.32054C50.0127 1.79377 49.6389 1.52695 49.0766 1.52695H45.3304C44.9629 1.52695 44.6694 1.66115 44.5046 1.90631C44.3434 2.14566 44.3271 2.4595 44.45 2.76594L54.2954 33.9754C54.4351 34.5382 55.0205 34.7949 55.5051 34.7949H59.2056C59.7448 34.7949 60.1758 34.5022 60.3618 34.0029L68.3161 10.5254L76.2184 33.9754C76.3418 34.4732 76.7807 34.7949 77.3362 34.7949H81.0823C81.6221 34.7949 82.0526 34.5022 82.2401 33.9976L92.2305 2.76753C92.231 2.76489 92.2315 2.76277 92.232 2.76066Z" fill="white"/>
<path fill-rule="evenodd" clip-rule="evenodd" d="M109.203 23.0945C109.203 27.1443 106.368 30.1977 102.607 30.1977C98.8464 30.1977 96.0107 27.1443 96.0107 23.0945C96.0107 19.0187 98.8464 15.9448 102.607 15.9448C106.368 15.9448 109.203 19.0187 109.203 23.0945ZM102.607 10.789C95.9057 10.789 90.6564 16.1941 90.6564 23.0945C90.6564 29.9948 95.9057 35.3999 102.607 35.3999C109.308 35.3999 114.558 29.9948 114.558 23.0945C114.558 16.1941 109.308 10.789 102.607 10.789Z" fill="white"/>
<path fill-rule="evenodd" clip-rule="evenodd" d="M128.875 10.789C126.703 10.789 124.843 11.7522 123.447 13.5866L123.341 12.3049C123.272 11.6857 122.876 11.301 122.308 11.301H119.071C118.46 11.301 118.035 11.7295 118.035 12.3429V33.753C118.035 34.3664 118.46 34.7949 119.071 34.7949H122.539C123.149 34.7949 123.574 34.3664 123.574 33.753V20.581C123.574 17.8949 125.473 15.9448 128.089 15.9448C128.898 15.9448 129.361 16.0647 129.872 16.2174C130.358 16.3151 130.891 16.3156 131.179 15.5939L132.239 13.0441C132.49 12.5326 132.404 12.1347 131.954 11.747C131.184 11.1382 130.062 10.789 128.875 10.789Z" fill="white"/>
<path fill-rule="evenodd" clip-rule="evenodd" d="M146.997 21.2093L154.989 12.7128C155.385 12.2695 155.32 11.9213 155.246 11.7527C155.119 11.4659 154.798 11.301 154.366 11.301H150.434C149.956 11.301 149.561 11.4727 149.306 11.7812L140.277 21.4365V1.17241C140.277 0.55899 139.851 0.130493 139.241 0.130493H135.772C135.163 0.130493 134.737 0.55899 134.737 1.17241V33.753C134.737 34.3664 135.163 34.7949 135.772 34.7949H139.241C139.851 34.7949 140.277 34.3664 140.277 33.753V28.304L143.517 24.8333L150.757 34.2317C151.041 34.6316 151.363 34.7949 151.868 34.7949H155.614C156.029 34.7949 156.347 34.6295 156.484 34.3421C156.618 34.0605 156.55 33.7166 156.302 33.4037L146.997 21.2093Z" fill="white"/>
<path fill-rule="evenodd" clip-rule="evenodd" d="M195.709 11.301H192.286C191.747 11.301 191.316 11.5932 191.131 12.0882L185.573 27.8555L179.791 12.0756C179.646 11.711 179.423 11.4875 179.125 11.4114C179.029 11.3676 178.848 11.301 178.642 11.301H175.497C175.291 11.301 175.11 11.3676 175.014 11.4114C174.716 11.4875 174.492 11.7115 174.343 12.0851L168.609 27.8555L163.005 12.0825C162.823 11.5932 162.392 11.301 161.852 11.301H158.477C158.002 11.301 157.767 11.4959 157.653 11.6592C157.54 11.8215 157.44 12.1083 157.601 12.5559L165.557 34.0129C165.739 34.5022 166.17 34.7949 166.709 34.7949H170.224C170.764 34.7949 171.194 34.5022 171.376 34.015L177.071 18.9828L182.807 34.0129C182.99 34.5022 183.421 34.7949 183.961 34.7949H187.429C187.969 34.7949 188.399 34.5022 188.582 34.0129L196.583 12.5569L196.584 12.5532C196.745 12.1083 196.645 11.8215 196.531 11.6592C196.418 11.4959 196.183 11.301 195.709 11.301Z" fill="white"/>
<path fill-rule="evenodd" clip-rule="evenodd" d="M214.797 21.2145H202.623C203.187 17.8785 205.625 15.6657 208.795 15.6657C211.987 15.6657 214.359 17.8796 214.797 21.2145ZM208.749 10.789C202.147 10.789 197.168 16.0795 197.168 23.0945C197.168 30.2246 202.233 35.3999 209.211 35.3999C212.543 35.3999 215.619 34.1233 217.87 31.8081C218.376 31.2993 218.376 30.7609 217.866 30.2479L216.391 28.8091C215.79 28.2053 215.217 28.638 214.972 28.8245C213.303 30.0962 211.669 30.6632 209.674 30.6632C205.985 30.6632 203.4 28.6676 202.685 25.2998H217.999C219.681 25.2998 219.82 23.9261 219.82 22.3965C219.82 15.7788 215.061 10.789 208.749 10.789Z" fill="white"/>
<path fill-rule="evenodd" clip-rule="evenodd" d="M227.803 0.130493H224.333C223.724 0.130493 223.298 0.55899 223.298 1.17241V33.753C223.298 34.3664 223.724 34.7949 224.333 34.7949H227.803C228.412 34.7949 228.838 34.3664 228.838 33.753V1.17241C228.838 0.55899 228.412 0.130493 227.803 0.130493Z" fill="white"/>
<path fill-rule="evenodd" clip-rule="evenodd" d="M237.883 0.130493H234.415C233.805 0.130493 233.379 0.55899 233.379 1.17241V33.753C233.379 34.3664 233.805 34.7949 234.415 34.7949H237.883C238.493 34.7949 238.918 34.3664 238.918 33.753V1.17241C238.918 0.55899 238.493 0.130493 237.883 0.130493Z" fill="white"/>
</g>
<defs>
<clipPath id="clip0">
<rect width="35.2136" height="35.2136" fill="white"/>
</clipPath>
<clipPath id="clip1">
<rect width="195.631" height="35.2136" fill="white" transform="translate(44.3691)"/>
</clipPath>
</defs>
</svg>
