<svg width="40" height="40" viewBox="0 0 40 40" fill="none" xmlns="http://www.w3.org/2000/svg">
<mask id="mask0" mask-type="alpha" maskUnits="userSpaceOnUse" x="0" y="0" width="40" height="40">
<path d="M0 6.66667C0 2.98477 2.98477 0 6.66667 0H33.3333C37.0152 0 40 2.98477 40 6.66667V33.3333C40 37.0152 37.0152 40 33.3333 40H6.66667C2.98477 40 0 37.0152 0 33.3333V6.66667Z" fill="#C4C4C4"/>
</mask>
<g mask="url(#mask0)">
<rect width="40" height="40" fill="#1E5193"/>
<mask id="mask1" mask-type="alpha" maskUnits="userSpaceOnUse" x="0" y="0" width="40" height="40">
<rect width="40" height="40" fill="#1E5193"/>
</mask>
<g mask="url(#mask1)">
</g>
<g clip-path="url(#clip0)">
<path d="M21.8856 10.5719C18.7611 7.44745 13.6964 7.44745 10.5719 10.5719C7.44744 13.6964 7.44744 18.7612 10.5719 21.8856C12.0242 23.3379 13.8957 24.106 15.7966 24.2083C15.8997 26.1093 16.667 27.9807 18.1144 29.4281C21.231 32.5447 26.3115 32.5447 29.4281 29.4281C32.5447 26.3115 32.5447 21.231 29.4281 18.1144C27.9807 16.667 26.1093 15.8997 24.2083 15.7967C24.106 13.8957 23.3379 12.0242 21.8856 10.5719ZM28.171 19.3715C30.6082 21.8086 30.6082 25.7339 28.171 28.171C25.7339 30.6082 21.8086 30.6082 19.3715 28.171C18.2399 27.0394 17.6415 25.5866 17.5607 24.1113C19.1443 23.8452 20.6635 23.1077 21.8856 21.8856C23.1077 20.6635 23.8452 19.1443 24.1113 17.5607C25.5866 17.6415 27.0394 18.2399 28.171 19.3715Z" fill="white"/>
</g>
</g>
<defs>
<clipPath id="clip0">
<rect width="26.6667" height="26.6667" fill="white" transform="translate(20 1.14383) rotate(45)"/>
</clipPath>
</defs>
</svg>
