<svg width="40" height="40" viewBox="0 0 40 40" fill="none" xmlns="http://www.w3.org/2000/svg">
<path fill-rule="evenodd" clip-rule="evenodd" d="M15 11.5C15 10.6716 15.6716 10 16.5 10C17.3284 10 18 10.6716 18 11.5V15H22V11.5C22 10.6716 22.6716 10 23.5 10C24.3284 10 25 10.6716 25 11.5V15H28.5C29.3284 15 30 15.6716 30 16.5C30 17.3284 29.3284 18 28.5 18H25V22H28.5C29.3284 22 30 22.6716 30 23.5C30 24.3284 29.3284 25 28.5 25H25V28.5C25 29.3284 24.3284 30 23.5 30C22.6716 30 22 29.3284 22 28.5V25H18V28.5C18 29.3284 17.3284 30 16.5 30C15.6716 30 15 29.3284 15 28.5V25H11.5C10.6716 25 10 24.3284 10 23.5C10 22.6716 10.6716 22 11.5 22H15V18H11.5C10.6716 18 10 17.3284 10 16.5C10 15.6716 10.6716 15 11.5 15H15V11.5ZM22 22V18H18V22H22Z" fill="#1E5193"/>
</svg>
