<svg width="40" height="40" viewBox="0 0 40 40" fill="none" xmlns="http://www.w3.org/2000/svg">
<path fill-rule="evenodd" clip-rule="evenodd" d="M20 31.6C26.4065 31.6 31.6 26.4065 31.6 20C31.6 13.5935 26.4065 8.40002 20 8.40002C13.5935 8.40002 8.40002 13.5935 8.40002 20C8.40002 26.4065 13.5935 31.6 20 31.6ZM20.2582 16.0243C19.7927 15.9445 19.3139 16.032 18.9067 16.2713C18.4995 16.5106 18.1901 16.8863 18.0334 17.3319C17.8501 17.8529 17.2792 18.1266 16.7582 17.9434C16.2372 17.7601 15.9634 17.1892 16.1467 16.6682C16.4602 15.7771 17.0789 15.0257 17.8933 14.547C18.7077 14.0684 19.6652 13.8934 20.5963 14.0531C21.5273 14.2128 22.3718 14.6969 22.9802 15.4195C23.5884 16.1421 23.9213 17.0565 23.9201 18.0009C23.9196 19.5313 22.785 20.5419 21.9748 21.0821C21.5391 21.3725 21.1106 21.586 20.7949 21.7263C20.6357 21.7971 20.5016 21.8508 20.405 21.8876C20.3566 21.9061 20.3173 21.9204 20.2888 21.9305L20.254 21.9427L20.243 21.9465L20.2391 21.9478L20.2375 21.9483C20.2372 21.9484 20.2363 21.9487 19.9201 21L20.2363 21.9487C19.7123 22.1234 19.146 21.8402 18.9714 21.3162C18.7968 20.7927 19.0795 20.2267 19.6028 20.0517L19.6187 20.0461C19.6341 20.0406 19.6593 20.0315 19.693 20.0187C19.7604 19.993 19.8607 19.9529 19.9827 19.8987C20.2295 19.789 20.551 19.6276 20.8654 19.418C21.555 18.9582 21.9201 18.4692 21.9201 18L21.9201 17.9985C21.9208 17.5262 21.7543 17.0689 21.4501 16.7076C21.1459 16.3462 20.7237 16.1042 20.2582 16.0243ZM19 25C19 24.4477 19.4477 24 20 24H20.01C20.5623 24 21.01 24.4477 21.01 25C21.01 25.5523 20.5623 26 20.01 26H20C19.4477 26 19 25.5523 19 25Z" fill="black"/>
</svg>
