<svg width="40" height="40" viewBox="0 0 40 40" fill="none" xmlns="http://www.w3.org/2000/svg">
<path d="M20 31.6666C26.4433 31.6666 31.6666 26.4433 31.6666 20C31.6666 13.5567 26.4433 8.33331 20 8.33331C13.5567 8.33331 8.33331 13.5567 8.33331 20C8.33331 26.4433 13.5567 31.6666 20 31.6666Z" stroke="black" stroke-width="1.5" stroke-linecap="round" stroke-linejoin="round"/>
<path d="M17.09 17C17.3251 16.3317 17.7892 15.7681 18.4 15.4092C19.0108 15.0502 19.7289 14.919 20.4272 15.0387C21.1255 15.1585 21.7588 15.5215 22.2151 16.0635C22.6714 16.6056 22.9211 17.2915 22.92 18C22.92 20 19.92 21 19.92 21" stroke="black" stroke-width="1.5" stroke-linecap="round" stroke-linejoin="round"/>
<path d="M20 25H20.01" stroke="black" stroke-width="1.5" stroke-linecap="round" stroke-linejoin="round"/>
</svg>
