<svg width="40" height="40" viewBox="0 0 40 40" fill="none" xmlns="http://www.w3.org/2000/svg">
<path fill-rule="evenodd" clip-rule="evenodd" d="M20 31.6C26.4065 31.6 31.6 26.4065 31.6 20C31.6 13.5935 26.4065 8.40002 20 8.40002C13.5935 8.40002 8.40002 13.5935 8.40002 20C8.40002 26.4065 13.5935 31.6 20 31.6ZM22.4569 15.9515C22.9255 15.4829 23.6853 15.4829 24.154 15.9515C24.6226 16.4201 24.6226 17.1799 24.154 17.6485L21.7498 20.0527L24.154 22.4569C24.6226 22.9255 24.6226 23.6853 24.154 24.1539C23.6853 24.6226 22.9255 24.6226 22.4569 24.1539L20.0527 21.7498L17.6486 24.1539C17.1799 24.6225 16.4201 24.6225 15.9515 24.1539C15.4829 23.6853 15.4829 22.9255 15.9515 22.4569L18.3557 20.0527L15.9515 17.6485C15.4829 17.1799 15.4829 16.4201 15.9515 15.9515C16.4202 15.4829 17.18 15.4829 17.6486 15.9515L20.0527 18.3556L22.4569 15.9515Z" fill="black"/>
</svg>
