<svg width="40" height="40" viewBox="0 0 40 40" fill="none" xmlns="http://www.w3.org/2000/svg">
<g clip-path="url(#clip0)">
<path fill-rule="evenodd" clip-rule="evenodd" d="M16.8 9.33331C16.4433 9.33331 16.1103 9.51155 15.9124 9.8083L14.0958 12.5333H10.4C9.55126 12.5333 8.73733 12.8705 8.13721 13.4706C7.53709 14.0707 7.19995 14.8846 7.19995 15.7333V27.4666C7.19995 28.3153 7.53709 29.1293 8.13721 29.7294C8.73733 30.3295 9.55126 30.6666 10.4 30.6666H29.6C30.4486 30.6666 31.2626 30.3295 31.8627 29.7294C32.4628 29.1293 32.7999 28.3153 32.7999 27.4666V15.7333C32.7999 14.8846 32.4628 14.0707 31.8627 13.4706C31.2626 12.8705 30.4486 12.5333 29.6 12.5333H25.9041L24.0875 9.8083C23.8896 9.51155 23.5566 9.33331 23.2 9.33331H16.8ZM24.2666 21.0667C24.2666 23.4231 22.3564 25.3333 20 25.3333C17.6436 25.3333 15.7333 23.4231 15.7333 21.0667C15.7333 18.7102 17.6436 16.8 20 16.8C22.3564 16.8 24.2666 18.7102 24.2666 21.0667Z" fill="black"/>
</g>
<defs>
<clipPath id="clip0">
<rect x="7.19995" y="7.20001" width="25.6" height="25.6" fill="white"/>
</clipPath>
</defs>
</svg>
