<svg width="40" height="40" viewBox="0 0 40 40" fill="none" xmlns="http://www.w3.org/2000/svg">
<path d="M32.8333 28.1667C32.8333 28.7855 32.5875 29.379 32.1499 29.8166C31.7123 30.2542 31.1188 30.5 30.5 30.5H9.49996C8.88112 30.5 8.28763 30.2542 7.85004 29.8166C7.41246 29.379 7.16663 28.7855 7.16663 28.1667V15.3333C7.16663 14.7145 7.41246 14.121 7.85004 13.6834C8.28763 13.2458 8.88112 13 9.49996 13H14.1666L16.5 9.5H23.5L25.8333 13H30.5C31.1188 13 31.7123 13.2458 32.1499 13.6834C32.5875 14.121 32.8333 14.7145 32.8333 15.3333V28.1667Z" stroke="black" stroke-width="1.5" stroke-linecap="round" stroke-linejoin="round"/>
<path d="M20 25.8333C22.5774 25.8333 24.6667 23.744 24.6667 21.1667C24.6667 18.5893 22.5774 16.5 20 16.5C17.4227 16.5 15.3334 18.5893 15.3334 21.1667C15.3334 23.744 17.4227 25.8333 20 25.8333Z" stroke="black" stroke-width="1.5" stroke-linecap="round" stroke-linejoin="round"/>
</svg>
