<svg width="40" height="40" viewBox="0 0 40 40" fill="none" xmlns="http://www.w3.org/2000/svg">
<path fill-rule="evenodd" clip-rule="evenodd" d="M12.0555 10.0555C12.5712 9.53973 13.2707 9.25 14 9.25H22C22.1989 9.25 22.3897 9.32902 22.5303 9.46967L28.5303 15.4697C28.671 15.6103 28.75 15.8011 28.75 16V28C28.75 28.7293 28.4603 29.4288 27.9445 29.9445C27.4288 30.4603 26.7293 30.75 26 30.75H14C13.2707 30.75 12.5712 30.4603 12.0555 29.9445C11.5397 29.4288 11.25 28.7293 11.25 28V12C11.25 11.2707 11.5397 10.5712 12.0555 10.0555ZM22 12V16H26L22 12ZM15.25 17C15.25 16.5858 15.5858 16.25 16 16.25H18C18.4142 16.25 18.75 16.5858 18.75 17C18.75 17.4142 18.4142 17.75 18 17.75H16C15.5858 17.75 15.25 17.4142 15.25 17ZM16 20.25C15.5858 20.25 15.25 20.5858 15.25 21C15.25 21.4142 15.5858 21.75 16 21.75H24C24.4142 21.75 24.75 21.4142 24.75 21C24.75 20.5858 24.4142 20.25 24 20.25H16ZM16 24.25C15.5858 24.25 15.25 24.5858 15.25 25C15.25 25.4142 15.5858 25.75 16 25.75H24C24.4142 25.75 24.75 25.4142 24.75 25C24.75 24.5858 24.4142 24.25 24 24.25H16Z" fill="black"/>
</svg>
