<svg width="40" height="40" viewBox="0 0 40 40" fill="none" xmlns="http://www.w3.org/2000/svg">
<path fill-rule="evenodd" clip-rule="evenodd" d="M11.962 23.6955C12.9622 22.6953 14.3187 22.1334 15.7332 22.1334H24.2666C25.6811 22.1334 27.0376 22.6953 28.0378 23.6955C29.038 24.6957 29.5999 26.0522 29.5999 27.4667V29.6C29.5999 30.1891 29.1223 30.6667 28.5332 30.6667H11.4666C10.8775 30.6667 10.3999 30.1891 10.3999 29.6V27.4667C10.3999 26.0522 10.9618 24.6957 11.962 23.6955Z" fill="black"/>
<path fill-rule="evenodd" clip-rule="evenodd" d="M14.6666 14.6667C14.6666 11.7212 17.0544 9.33337 20 9.33337C22.9455 9.33337 25.3333 11.7212 25.3333 14.6667C25.3333 17.6122 22.9455 20 20 20C17.0544 20 14.6666 17.6122 14.6666 14.6667Z" fill="black"/>
</svg>
