<svg width="100" height="100" viewBox="0 0 100 100" fill="none" xmlns="http://www.w3.org/2000/svg">
<path d="M47.6117 19.5982C51.1901 15.0729 52.9793 12.8102 54.9755 12.2446C56.7166 11.7514 58.5879 12.0112 60.1239 12.9595C61.885 14.0468 62.9737 16.7091 65.151 22.0337L84.1153 68.4105C86.2927 73.7351 87.3814 76.3974 86.879 78.3882C86.4408 80.1247 85.2774 81.5959 83.6781 82.4361C81.8446 83.3993 78.9667 82.9997 73.211 82.2005L23.0789 75.2392C17.3232 74.4399 14.4453 74.0403 12.9515 72.615C11.6485 71.3718 10.9407 69.6408 11.0039 67.8523C11.0764 65.8018 12.8656 63.5391 16.444 59.0137L47.6117 19.5982Z" fill="black"/>
</svg>
