<svg width="40" height="40" viewBox="0 0 40 40" fill="none" xmlns="http://www.w3.org/2000/svg">
<path d="M27 29.5V28.3333C27 27.4493 26.6312 26.6014 25.9749 25.9763C25.3185 25.3512 24.4283 25 23.5 25H16.5C15.5717 25 14.6815 25.3512 14.0251 25.9763C13.3687 26.6014 13 27.4493 13 28.3333V29.5" stroke="black" stroke-width="1.5" stroke-linecap="round" stroke-linejoin="round"/>
<path d="M20 22C22.2091 22 24 20.2091 24 18C24 15.7909 22.2091 14 20 14C17.7909 14 16 15.7909 16 18C16 20.2091 17.7909 22 20 22Z" stroke="black" stroke-width="1.5" stroke-linecap="round" stroke-linejoin="round"/>
<circle cx="20" cy="21" r="11.25" stroke="black" stroke-width="1.5"/>
</svg>
