<svg width="60" height="60" viewBox="0 0 60 60" fill="none" xmlns="http://www.w3.org/2000/svg">
<rect x="22.4069" y="17.5909" width="12.3724" height="4.77273" fill="#FFECB3"/>
<path d="M29.069 46.2273L37.6345 9.95456H46.2" stroke="#64B5F6" stroke-width="3.23077" stroke-linejoin="round"/>
<path d="M33.8276 22.3636C35.9301 22.3636 37.6345 20.6542 37.6345 18.5454C37.6345 16.4367 35.9301 14.7273 33.8276 14.7273C31.7251 14.7273 30.0207 16.4367 30.0207 18.5454C30.0207 20.6542 31.7251 22.3636 33.8276 22.3636Z" fill="#FFECB3"/>
<path d="M24.3104 22.3636C26.4129 22.3636 28.1173 20.6542 28.1173 18.5454C28.1173 16.4367 26.4129 14.7273 24.3104 14.7273C22.2079 14.7273 20.5035 16.4367 20.5035 18.5454C20.5035 20.6542 22.2079 22.3636 24.3104 22.3636Z" fill="#FFECB3"/>
<path d="M27.6414 17.5909C29.4811 17.5909 30.9724 16.0951 30.9724 14.25C30.9724 12.4049 29.4811 10.9091 27.6414 10.9091C25.8017 10.9091 24.3104 12.4049 24.3104 14.25C24.3104 16.0951 25.8017 17.5909 27.6414 17.5909Z" fill="#FFECB3"/>
<path d="M29.069 12.8182C30.1202 12.8182 30.9724 11.9635 30.9724 10.9091C30.9724 9.85473 30.1202 9 29.069 9C28.0177 9 27.1655 9.85473 27.1655 10.9091C27.1655 11.9635 28.0177 12.8182 29.069 12.8182Z" fill="#FFECB3"/>
<path d="M30.4965 17.5909C32.3362 17.5909 33.8276 16.0951 33.8276 14.25C33.8276 12.4049 32.3362 10.9091 30.4965 10.9091C28.6569 10.9091 27.1655 12.4049 27.1655 14.25C27.1655 16.0951 28.6569 17.5909 30.4965 17.5909Z" fill="#FFECB3"/>
<path d="M24.3104 14.7273C24.3104 14.7273 24.4255 14.6356 24.6292 14.5068C24.7424 14.4552 24.8329 14.3407 24.9318 14.2576C25.0251 14.1794 25.1317 14.0429 25.2488 13.934C25.363 13.8224 25.4715 13.6591 25.5961 13.5312C25.7199 13.3823 25.8493 13.2248 25.9844 13.0625C26.2595 12.7418 26.5755 12.3772 26.939 12.0316C27.1246 11.8617 27.315 11.688 27.5262 11.5315C27.7242 11.3692 27.9612 11.2279 28.1791 11.0981C28.419 10.9769 28.6379 10.8604 28.8834 10.7888C29.1147 10.7039 29.3516 10.66 29.5743 10.6418C29.7856 10.6008 29.996 10.6246 30.172 10.6456C30.3452 10.6523 30.4956 10.6991 30.6155 10.7478C30.8535 10.8385 30.9724 10.9091 30.9724 10.9091C30.9724 10.9091 30.8459 11.0007 30.6555 11.1258C30.4623 11.2394 30.2234 11.4436 29.9741 11.6622C29.483 12.1175 28.9434 12.7437 28.2429 13.4205C27.8888 13.7498 27.5043 14.0801 27.0704 14.3521C26.6478 14.6251 26.1748 14.8342 25.7351 14.9105C25.3192 15.0022 24.8662 14.9697 24.6663 14.8829C24.4407 14.795 24.3104 14.7273 24.3104 14.7273Z" fill="#FFD54F"/>
<path d="M20.6148 23.3182C20.6148 23.3182 20.8556 23.2113 21.281 23.0547C21.5085 23.0022 21.7131 22.817 21.9634 22.6939C22.2051 22.5784 22.4688 22.3464 22.7609 22.1546C23.0541 21.9675 23.3348 21.6668 23.6594 21.432C23.9649 21.1533 24.2875 20.8593 24.6216 20.5548C25.2859 19.9162 25.9939 19.2346 26.703 18.554C27.4282 17.8725 28.1829 17.1967 28.95 16.6058C29.7019 16.0073 30.488 15.5033 31.2132 15.1606C31.5682 14.9783 31.9432 14.8743 32.2449 14.7674C32.5799 14.6986 32.8663 14.6614 33.0967 14.6375C33.5877 14.6776 33.8276 14.7273 33.8276 14.7273C33.8276 14.7273 33.5697 14.8456 33.1909 15.006C33.0062 15.1244 32.7959 15.2828 32.557 15.4279C32.3334 15.635 32.0793 15.8279 31.8156 16.0751C31.5577 16.3366 31.276 16.5944 30.9848 16.9017C30.6936 17.2053 30.3861 17.526 30.0692 17.8572C29.7428 18.178 29.4278 18.556 29.0766 18.892C28.7301 19.249 28.3732 19.5945 28.004 19.9467C27.6309 20.2913 27.2569 20.6359 26.861 20.9566C26.4841 21.2907 26.0558 21.5723 25.6665 21.8634C25.2697 22.1517 24.8452 22.3865 24.4512 22.6089C24.0305 22.8094 23.6584 23.0156 23.2568 23.1254C22.8666 23.2504 22.5268 23.3659 22.168 23.3907C21.8282 23.426 21.5399 23.4804 21.321 23.4299C20.8727 23.3697 20.6148 23.3182 20.6148 23.3182Z" fill="#FFD54F"/>
<path d="M21.399 51C21.399 51 24.3789 48.1364 29.069 48.1364C33.7591 48.1364 36.7408 51 36.7408 51H21.399Z" fill="#BBDEFB"/>
<path d="M18.6 18.5455C18.6 41.3782 25.342 43.3637 28.1172 48.1364H30.0207C32.9558 43.5231 39.5379 41.3782 39.5379 18.5455H18.6Z" fill="#BBDEFB"/>
<path d="M27.6557 44.3497C28.4218 45.2489 29.7999 45.2556 30.5775 44.3678C30.5832 44.3621 30.5879 44.3554 30.5937 44.3497C33.4555 41.0823 37.3366 36.6513 37.6183 20.4546L37.6345 18.5455H20.5035L20.5197 20.4546C20.8023 36.3315 24.6235 40.8036 27.4425 44.1015C27.5139 44.1846 27.5853 44.2667 27.6557 44.3497Z" fill="#FF80AB"/>
<path d="M25.2621 20.4546H22.424C22.6972 35.6147 26.2756 39.8013 28.8881 42.8587L29.1023 43.1088L29.1042 43.1069L29.1232 43.1059C26.9856 39.7841 25.5028 33.8134 25.2621 20.4546Z" fill="#FFCDD2"/>
<path d="M20.5206 20.4546C20.5387 21.454 20.5701 22.4066 20.6148 23.3182H37.526C37.5698 22.4066 37.6012 21.453 37.6183 20.4546L37.6345 18.5455H20.5035L20.5206 20.4546Z" fill="#FFD54F"/>
<path d="M25.2621 20.4546V18.5455H22.4069L22.424 20.4546C22.4421 21.4568 22.4754 22.4085 22.5211 23.3182H25.3392C25.3068 22.399 25.2801 21.454 25.2621 20.4546Z" fill="white"/>
</svg>
