<svg width="60" height="60" viewBox="0 0 60 60" fill="none" xmlns="http://www.w3.org/2000/svg">
<rect x="30.9429" y="13.8947" width="18.8571" height="32.2105" fill="#64B5F6"/>
<rect x="10.2" y="13.8947" width="20.7429" height="32.2105" fill="#64B5F6"/>
<rect x="33.7714" y="26.2105" width="1.88572" height="1.89474" fill="#1976D2"/>
<rect x="33.7714" y="30" width="1.88572" height="1.89474" fill="#1976D2"/>
<rect x="33.7714" y="33.7895" width="1.88572" height="1.89473" fill="#1976D2"/>
<rect x="33.7714" y="37.5789" width="1.88572" height="1.89474" fill="#1976D2"/>
<rect x="33.7714" y="41.3684" width="1.88572" height="1.89473" fill="#1976D2"/>
<rect x="38.4857" y="30" width="7.54287" height="1.89474" fill="#1565C0"/>
<rect x="38.4857" y="33.7895" width="7.54287" height="1.89473" fill="#1565C0"/>
<rect x="34.7143" y="18.6316" width="11.3143" height="1.89474" fill="#1565C0"/>
<rect x="34.7143" y="22.4211" width="11.3143" height="1.89474" fill="#1565C0"/>
<rect x="38.4857" y="37.5789" width="7.54287" height="1.89475" fill="#1565C0"/>
<rect x="17.7428" y="30" width="9.42858" height="1.89474" fill="#1565C0"/>
<rect x="17.7428" y="33.7895" width="9.42858" height="1.89473" fill="#1565C0"/>
<rect x="13.9714" y="18.6316" width="13.2" height="1.89474" fill="#1565C0"/>
<rect x="13.9714" y="22.4211" width="13.2" height="1.89474" fill="#1565C0"/>
<rect x="13.9714" y="30" width="1.88571" height="1.89474" fill="#1565C0"/>
<rect x="13.9714" y="33.7895" width="1.88571" height="1.89473" fill="#1565C0"/>
<rect x="20.5714" y="12" width="18.8571" height="36" fill="#BBDEFB"/>
<rect x="28.1143" y="28.1053" width="7.54285" height="1.89474" fill="#42A5F5"/>
<rect x="24.3429" y="16.7368" width="11.3143" height="1.89474" fill="#42A5F5"/>
<rect x="24.3429" y="20.5263" width="11.3143" height="1.89474" fill="#42A5F5"/>
<rect x="28.1143" y="31.8947" width="7.54285" height="1.89474" fill="#42A5F5"/>
<rect x="28.1143" y="35.6842" width="7.54285" height="1.89474" fill="#42A5F5"/>
<rect x="28.1143" y="39.4737" width="7.54285" height="1.89473" fill="#42A5F5"/>
<rect x="24.3429" y="28.1053" width="1.88571" height="1.89474" fill="#42A5F5"/>
<rect x="24.3429" y="31.8947" width="1.88571" height="1.89474" fill="#42A5F5"/>
<rect x="24.3429" y="35.6842" width="1.88571" height="1.89474" fill="#42A5F5"/>
<rect x="24.3429" y="39.4737" width="1.88571" height="1.89473" fill="#42A5F5"/>
</svg>
