<svg width="60" height="60" viewBox="0 0 60 60" fill="none" xmlns="http://www.w3.org/2000/svg">
<rect x="42.3158" y="24.6" width="5.68422" height="22.8" fill="#00BCD4"/>
<rect x="34.7368" y="32.2" width="5.68421" height="15.2" fill="#00BCD4"/>
<rect x="27.1579" y="28.4" width="5.68421" height="19" fill="#00BCD4"/>
<rect x="19.5789" y="37.9" width="5.68421" height="9.49999" fill="#00BCD4"/>
<rect x="12" y="34.1" width="5.68421" height="13.3" fill="#00BCD4"/>
<path fill-rule="evenodd" clip-rule="evenodd" d="M14.8421 25.55C16.4118 25.55 17.6842 24.274 17.6842 22.7C17.6842 21.126 16.4118 19.85 14.8421 19.85C13.2725 19.85 12 21.126 12 22.7C12 24.274 13.2725 25.55 14.8421 25.55Z" fill="#3F51B5"/>
<path fill-rule="evenodd" clip-rule="evenodd" d="M22.4211 27.45C23.9907 27.45 25.2632 26.174 25.2632 24.6C25.2632 23.026 23.9907 21.75 22.4211 21.75C20.8514 21.75 19.5789 23.026 19.5789 24.6C19.5789 26.174 20.8514 27.45 22.4211 27.45Z" fill="#3F51B5"/>
<path fill-rule="evenodd" clip-rule="evenodd" d="M30 20.8C31.5697 20.8 32.8421 19.524 32.8421 17.95C32.8421 16.376 31.5697 15.1 30 15.1C28.4304 15.1 27.1579 16.376 27.1579 17.95C27.1579 19.524 28.4304 20.8 30 20.8Z" fill="#3F51B5"/>
<path fill-rule="evenodd" clip-rule="evenodd" d="M37.5789 22.7C39.1486 22.7 40.421 21.424 40.421 19.85C40.421 18.276 39.1486 17 37.5789 17C36.0093 17 34.7368 18.276 34.7368 19.85C34.7368 21.424 36.0093 22.7 37.5789 22.7Z" fill="#3F51B5"/>
<path fill-rule="evenodd" clip-rule="evenodd" d="M45.1579 18.9C46.7275 18.9 48 17.624 48 16.05C48 14.476 46.7275 13.2 45.1579 13.2C43.5882 13.2 42.3158 14.476 42.3158 16.05C42.3158 17.624 43.5882 18.9 45.1579 18.9Z" fill="#3F51B5"/>
<path fill-rule="evenodd" clip-rule="evenodd" d="M44.3053 14.34L37.3895 17.855L29.5263 15.86L21.9474 22.51L15.3158 20.895L14.3684 24.505L22.8947 26.69L30.4737 20.04L37.7684 21.845L46.0105 17.76L44.3053 14.34Z" fill="#3F51B5"/>
</svg>
