<svg width="60" height="60" viewBox="0 0 60 60" fill="none" xmlns="http://www.w3.org/2000/svg">
<path fill-rule="evenodd" clip-rule="evenodd" d="M26.1429 42.765C26.4857 42.8513 26.8286 42.9375 27.1714 42.9375C28.6286 42.9375 30 41.9888 30.4286 40.4363L32.2286 34.6575C32.4857 33.795 32.4 32.9325 31.9714 32.07C31.5429 31.2075 30.7714 30.6038 29.9143 30.345L25.0286 28.7925C24.1714 28.5338 23.2286 28.62 22.4571 29.0513C21.6 29.4825 21 30.2588 20.7429 31.1213L18.9429 36.9C18.6857 37.7625 18.7714 38.625 19.2 39.4875C19.6286 40.35 20.4 40.9538 21.2571 41.2125L26.1429 42.765ZM23.3143 30.6038C23.5714 30.5175 23.8286 30.4313 24.0857 30.4313C24.1714 30.4313 24.2571 30.4528 24.3428 30.4744C24.4286 30.496 24.5143 30.5175 24.6 30.5175L29.4857 32.07C29.9143 32.2425 30.3428 32.5013 30.5143 32.9325C30.6857 33.3638 30.7714 33.795 30.6 34.2263L28.8 40.005C28.5428 40.8675 27.6 41.385 26.6571 41.1263L21.7714 39.5738C21.3428 39.4013 20.9143 39.1425 20.7428 38.7113C20.5714 38.28 20.4857 37.8488 20.6571 37.4175L22.4571 31.6388C22.6286 31.2075 22.8857 30.7763 23.3143 30.6038Z" fill="#B0BEC5"/>
<path d="M12 25.6875H14.5714V34.3125H12V25.6875Z" fill="#B0BEC5"/>
<path d="M45.4286 16.2H48V43.8H45.4286V16.2Z" fill="#B0BEC5"/>
<path d="M14.5714 26.2913V33.7088L45.4286 42.6788V17.3213L14.5714 26.2913Z" fill="#F44336"/>
<path d="M16.2857 27.6713V29.5688L43.7143 25.17V19.65L16.2857 27.6713Z" fill="#FF8A80"/>
</svg>
