<svg width="60" height="60" viewBox="0 0 60 60" fill="none" xmlns="http://www.w3.org/2000/svg">
<path d="M42 10H32C32 11.1 31.1 12 30 12C28.9 12 28 11.1 28 10H18C15.8 10 14 11.8 14 14V46C14 48.2 15.8 50 18 50H42C44.2 50 46 48.2 46 46V14C46 11.8 44.2 10 42 10Z" fill="#455A64"/>
<path d="M42 47H18C17.4 47 17 46.6 17 46V14C17 13.4 17.4 13 18 13H42C42.6 13 43 13.4 43 14V46C43 46.6 42.6 47 42 47Z" fill="white"/>
<path d="M32 10C32 11.1 31.1 12 30 12C28.9 12 28 11.1 28 10H21V14C21 15.1 21.9 16 23 16H37C38.1 16 39 15.1 39 14V10H32Z" fill="#90A4AE"/>
<path d="M30 6C27.8 6 26 7.8 26 10C26 12.2 27.8 14 30 14C32.2 14 34 12.2 34 10C34 7.8 32.2 6 30 6ZM30 12C28.9 12 28 11.1 28 10C28 8.9 28.9 8 30 8C31.1 8 32 8.9 32 10C32 11.1 31.1 12 30 12Z" fill="#90A4AE"/>
<path d="M38 31C38 35.4 34.4 39 30 39C25.6 39 22 35.4 22 31C22 26.6 25.6 23 30 23C34.4 23 38 26.6 38 31Z" fill="#4CAF50"/>
<path d="M29.117 35.031L25.293 31.207L26.707 29.793L29.133 32.219L33.801 27.66L35.199 29.09L29.117 35.031Z" fill="#E8F5E9"/>
</svg>
