<svg width="60" height="60" viewBox="0 0 60 60" fill="none" xmlns="http://www.w3.org/2000/svg">
<path d="M48 25H12V15C12 13.343 13.343 12 15 12H45C46.657 12 48 13.343 48 15V25Z" fill="#455A64"/>
<path d="M12 22H48V45C48 46.657 46.657 48 45 48H15C13.343 48 12 46.657 12 45V22Z" fill="#BBDEFB"/>
<path d="M17 19C18.1046 19 19 18.1046 19 17C19 15.8954 18.1046 15 17 15C15.8954 15 15 15.8954 15 17C15 18.1046 15.8954 19 17 19Z" fill="#8BC34A"/>
<path d="M23 19C24.1046 19 25 18.1046 25 17C25 15.8954 24.1046 15 23 15C21.8954 15 21 15.8954 21 17C21 18.1046 21.8954 19 23 19Z" fill="#FFEB3B"/>
<path d="M45 18C45 18.553 44.553 19 44 19H29C28.447 19 28 18.553 28 18V16C28 15.447 28.447 15 29 15H44C44.553 15 45 15.447 45 16V18Z" fill="#FAFAFA"/>
</svg>
