<svg width="60" height="60" viewBox="0 0 60 60" fill="none" xmlns="http://www.w3.org/2000/svg">
<path fill-rule="evenodd" clip-rule="evenodd" d="M14.8421 34.1H16.7368H16.8316V26.595C16.8316 25.645 17.3053 24.885 18.0632 24.41L24.7895 20.61L23.8421 18.995L17.1158 22.795C15.6947 23.555 14.8421 24.98 14.8421 26.595V34.1ZM45.1579 34.1H43.2632V26.595C43.2632 25.645 42.7895 24.885 41.9369 24.41L35.2106 20.61L36.1579 18.995L42.8842 22.795C44.3053 23.555 45.1579 25.075 45.1579 26.595V34.1ZM29.9053 47.4C29.1474 47.4 28.4842 47.21 27.8211 46.83L19.1053 42.08L20.0526 40.37L28.7684 45.12C29.5263 45.5 30.4737 45.5 31.2316 45.025L39 40.37L39.9474 41.985L32.179 46.64C31.5158 47.21 30.6632 47.4 29.9053 47.4Z" fill="#CFD8DC"/>
<path fill-rule="evenodd" clip-rule="evenodd" d="M23.3684 17L30 13.2L36.6316 17V24.6L30 28.4L23.3684 24.6V17ZM34.7368 40.75L41.3684 44.55L48 40.75V33.15L41.3684 29.35L34.7368 33.15V40.75ZM18.6316 44.55L12 40.75V33.15L18.6316 29.35L25.2632 33.15V40.75L18.6316 44.55Z" fill="#00BCD4"/>
<path fill-rule="evenodd" clip-rule="evenodd" d="M23.3684 17L30 20.8V28.4L23.3684 24.6V17ZM12 40.75L18.6316 44.55V36.95L12 33.15V40.75ZM41.3684 44.55L34.7368 40.75V33.15L41.3684 36.95V44.55Z" fill="#00ACC1"/>
<path fill-rule="evenodd" clip-rule="evenodd" d="M30 20.8L36.6316 17V24.6L30 28.4V20.8ZM41.3685 44.55L48 40.75V33.15L41.3685 36.95V44.55ZM25.2632 40.75L18.6316 44.55V36.95L25.2632 33.15V40.75Z" fill="#4DD0E1"/>
</svg>
