<svg width="60" height="60" viewBox="0 0 60 60" fill="none" xmlns="http://www.w3.org/2000/svg">
<path d="M50.1666 27.25H9.83331V20.4859C9.83331 15.6551 16.1867 13.5 30.4345 13.5C44.4503 13.5 50.1666 15.524 50.1666 20.4859V27.25Z" fill="#9C27B0"/>
<path d="M50.1666 26.3334H9.83331V30.9167H50.1666V26.3334Z" fill="#EF6C00"/>
<path d="M46.5 26.3269V21.42C46.5 21.1853 46.3991 20.9644 46.2222 20.8113C46.0095 20.6252 44.1606 19 38.6084 19C33.0543 19 31.408 20.6253 31.1944 20.8123C31.0175 20.9653 30.9166 21.1862 30.9166 21.4209V26.3278H46.5V26.3269Z" fill="#F3E5F5"/>
<path d="M29.0833 26.3337V21.4268C29.0833 21.1921 28.9825 20.9712 28.8056 20.8181C28.5929 20.632 26.7092 19.004 21.156 19.004C15.6028 19.004 13.9904 20.632 13.7768 20.8181C13.6008 20.9712 13.5 21.193 13.5 21.4268V26.3337H29.0833Z" fill="#F3E5F5"/>
<path d="M50.1666 46.5H44.6666V44.4494C44.6666 43.31 44.2633 42.8333 43.1221 42.8333H16.8779C15.7366 42.8333 15.3333 43.31 15.3333 44.4494V46.5H9.83331V30.9166H50.1666V46.5Z" fill="#FF9800"/>
</svg>
