<svg width="60" height="60" viewBox="0 0 60 60" fill="none" xmlns="http://www.w3.org/2000/svg">
<path d="M38.4281 19.575L38.6744 18.8341C38.6744 18.8341 38.9174 18.09 39.9818 17.5966C41.0463 17.1 41.2926 16.3591 41.2926 16.3591C41.2926 16.3591 41.7818 17.4292 40.4744 18.6667L38.4281 19.575Z" fill="#6D4C41"/>
<path d="M28.3637 29.475C28.3637 33.6 24.2727 37.725 24.2727 37.725L25.9091 42.675H24.2727L21.8182 37.725C21.8182 37.725 23.1289 33.2716 21.8182 31.95C19.3636 29.475 19.3636 27.825 19.3636 27.825L28.3637 29.475Z" fill="#6D4C41"/>
<path d="M25.9091 42.675L26.7273 44.325H24.2727V43.5L25.0909 42.675H25.9091Z" fill="#37474F"/>
<path d="M18.5455 42.675L17.7273 43.5V44.325H20.1818L19.3637 42.675H18.5455Z" fill="#37474F"/>
<path d="M42.2728 20.4V19.575C41.7802 18.5017 40.6364 17.925 39 17.925C34.0909 17.925 33.2728 22.875 31.6364 23.7C30.6317 24.195 29.505 24.525 28.3637 24.525C25.1229 24.525 23.4546 23.4937 21.7798 23.0276C21.4779 22.9435 21 22.875 20.5909 22.875C18.1364 22.875 16.0909 24.9375 16.0909 27.4125C16.0909 27.5767 16.0909 27.6608 16.0909 27.825C16.0909 27.825 16.0909 28.0733 16.2538 28.4858C16.4166 29.2267 16.8257 29.9716 17.3182 30.4642C17.6439 30.8767 18.0529 31.3733 18.5455 31.95C19.8562 33.2716 17.7273 37.725 17.7273 37.725V42.675H19.3637L20.1819 37.725C20.1819 37.725 22.962 34.9216 23.9471 31.7017C24.8447 32.6108 27.7918 34.425 30.8182 34.425C36.5455 34.425 38.1819 31.125 38.1819 25.35C38.1819 25.35 38.1819 23.7 38.1819 22.875C38.1819 22.875 39 24.525 39.8182 24.525C40.6364 24.525 42.2728 26.175 42.2728 26.175C42.2728 26.175 42.2728 27 43.0909 27C43.9091 27 44.7273 26.175 44.7273 25.35C44.7273 24.525 42.2728 20.4 42.2728 20.4Z" fill="#8D6E63"/>
<path d="M16.9091 36.075C16.9091 39.375 13.6364 39.375 13.6364 39.375C16.9091 36.9 12 35.25 12 30.3C12 25.0216 15.6818 24.525 17.1554 24.525C16.9091 24.7733 16.7463 25.1017 16.5835 25.4341C13.8826 26.0108 16.9091 33.1875 16.9091 36.075Z" fill="#4E342E"/>
<path d="M40.0645 17.1L39 17.925L39.8182 18.75C39.8182 18.75 41.1289 19.2466 42.2727 20.4L43.0909 18.75C43.0909 18.75 42.3562 17.2642 40.0645 17.1Z" fill="#4E342E"/>
<path d="M44.7272 25.5983C44.6438 25.4341 44.481 25.35 44.3182 25.35C44.0719 25.35 43.9091 25.5142 43.9091 25.7625C43.9091 25.9267 43.9091 26.4233 43.9091 26.7516C44.3182 26.5033 44.6438 26.0908 44.7272 25.5983Z" fill="#37474F"/>
<path d="M42.2728 21.6375C42.2728 21.866 42.0903 22.05 41.8637 22.05C41.637 22.05 41.4546 21.866 41.4546 21.6375C41.4546 21.409 41.637 21.225 41.8637 21.225C42.0903 21.225 42.2728 21.409 42.2728 21.6375Z" fill="#263238"/>
<path d="M38.1818 19.575V18.75C38.1818 18.75 38.1818 17.925 38.9999 17.1C39.8181 16.275 39.8181 15.45 39.8181 15.45C39.8181 15.45 40.6363 16.275 39.8181 17.925C39.8181 17.925 39.8181 18.75 40.6363 19.575H38.1818Z" fill="#8D6E63"/>
<path d="M24.7841 22.1531L29.1818 21.225V19.575H24.2727L24.7841 22.1531Z" fill="#388E3C"/>
<path d="M31.2272 13.8C32.3858 13.8 33.2727 14.6943 33.2727 15.8625C33.2727 17.0307 32.3858 17.925 31.2272 17.925C30.0687 17.925 29.1818 17.0307 29.1818 15.8625C29.1818 14.6943 30.0687 13.8 31.2272 13.8Z" fill="#FFB74D"/>
<path d="M26.319 29.475C26.2396 29.475 26.1586 29.4676 26.0776 29.4511C25.4125 29.3174 24.9821 28.6657 25.1146 27.9949L25.8019 24.5291L22.2911 21.0798C21.8059 20.6029 22.269 19.33 22.269 19.33C22.269 19.33 23.5192 18.8308 24.0044 19.3077L27.993 23.2264C28.2908 23.5185 28.4217 23.9442 28.3399 24.355L27.5217 28.48C27.4047 29.0683 26.8926 29.475 26.319 29.475Z" fill="#43A047"/>
<path d="M26.3182 17.1C22.6413 17.1 21.8182 18.7269 21.8182 19.8241C21.8182 20.2366 21.9352 20.7333 22.2911 21.0798C23.1568 21.9238 25.091 20.4 25.091 20.4H29.1819L30.3044 18.7475C30.3044 18.7475 29.5672 17.1 26.3182 17.1Z" fill="#43A047"/>
<path d="M32.4399 21.4749C32.1625 21.9097 31.8803 22.3511 31.6274 22.6456L32.6551 23.9359C33.0666 23.5242 33.4258 22.9797 33.8169 22.3659C34.7864 20.8438 35.8836 19.1509 38.1819 18.8201V18.75C38.1819 18.75 38.1819 17.925 39.0001 17.1C35.2266 17.1 33.5494 19.7317 32.4399 21.4749Z" fill="#4E342E"/>
<path d="M32.8628 25.35C32.5879 25.35 32.3105 25.2576 32.0822 25.0662L29.73 23.1068C29.5876 22.988 29.4731 22.8387 29.3962 22.6696L28.1321 19.8926C27.849 19.2714 28.119 18.5363 28.7351 18.2517C29.3503 17.9671 30.0802 18.2393 30.3624 18.8597L31.5095 21.3801L33.645 23.1588C34.1678 23.5936 34.2414 24.374 33.8094 24.9004C33.5672 25.1965 33.2162 25.35 32.8628 25.35Z" fill="#43A047"/>
<path d="M48 38.55C48 43.0875 44.3182 46.8 39.8182 46.8C35.3182 46.8 31.6364 43.0875 31.6364 38.55C31.6364 34.0125 35.3182 30.3 39.8182 30.3C44.3182 30.3 48 34.0125 48 38.55Z" fill="#FFA000"/>
<path d="M46.3636 35.25C46.3636 34.6131 46.2982 33.9919 46.1836 33.388C45.5086 32.544 44.6749 31.8337 43.7258 31.309C44.3632 32.4821 44.7273 33.8252 44.7273 35.25C44.7273 39.7875 41.0455 43.5 36.5455 43.5C35.1325 43.5 33.8005 43.1329 32.6378 42.4902C33.1582 43.4472 33.8626 44.287 34.6996 44.9685C35.2977 45.084 35.9138 45.15 36.5455 45.15C41.9594 45.15 46.3636 40.709 46.3636 35.25Z" fill="#FF8F00"/>
<path d="M44.7273 35.25C44.7273 39.7875 41.0455 43.5 36.5455 43.5C32.0455 43.5 28.3636 39.7875 28.3636 35.25C28.3636 30.7125 32.0455 27 36.5455 27C41.0455 27 44.7273 30.7125 44.7273 35.25Z" fill="#FFC107"/>
<path fill-rule="evenodd" clip-rule="evenodd" d="M30.8182 35.25C30.8182 32.0341 33.3562 29.475 36.5455 29.475C39.7348 29.475 42.2728 32.0341 42.2728 35.25C42.2728 38.4658 39.7348 41.025 36.5455 41.025C33.3562 41.025 30.8182 38.4658 30.8182 35.25ZM34.091 36.504C34.0779 37.2836 34.6506 38.55 36.5455 38.55C38.348 38.55 39.0001 37.0806 38.9993 36.2268C38.9993 35.7788 38.7595 34.0224 36.9604 34.0224C36.1995 34.0224 35.8485 34.2443 35.666 34.425H35.6472L35.9131 33.0332H38.6425V31.95H34.9509L34.091 35.25H35.7274C35.7274 35.25 35.9188 35.0148 36.5169 35.0148C36.7305 35.0148 37.6607 35.0957 37.6607 36.2268C37.6607 36.6302 37.4153 37.4775 36.5169 37.4775C35.6832 37.4775 35.4655 36.8001 35.4336 36.504H34.091Z" fill="#FFE082"/>
</svg>
