<svg width="60" height="60" viewBox="0 0 60 60" fill="none" xmlns="http://www.w3.org/2000/svg">
<path d="M37.8415 24.1024L27.7569 19.1853C27.7569 19.1853 27.7569 19.1853 27.6692 19.1853C26.3538 18.3951 24.6877 18.7463 23.7231 19.9756L18.1984 26.1219C17.1461 27.439 17.4969 29.3707 18.8123 30.4244C19.2507 30.7756 19.6892 30.9512 20.2154 31.039L26.7046 33.2341L29.0723 39.5561C29.3354 40.2585 30.0369 40.6975 30.7384 40.6975C30.9138 40.6975 31.1769 40.6975 31.3523 40.6097C32.2292 40.2585 32.7554 39.2926 32.4046 38.3268L29.7738 31.3024C29.5984 30.8634 29.2477 30.5122 28.8092 30.3365L24.6877 28.1414C24.6877 28.1414 28.8092 23.4878 28.8092 23.4L36.7892 26.5609C36.9646 26.6487 37.14 26.6487 37.3154 26.6487C37.8415 26.6487 38.28 26.3853 38.5431 25.8585C38.8061 25.1561 38.4554 24.3658 37.8415 24.1024Z" fill="#FFBA57"/>
<path d="M31.1769 12.6C32.8431 12.6 34.2461 14.0049 34.2461 15.6731C34.2461 17.3414 32.8431 18.7463 31.1769 18.7463C29.5107 18.7463 28.1077 17.3414 28.1077 15.6731C28.1077 14.0049 29.5107 12.6 31.1769 12.6Z" fill="#FFBA57"/>
<path d="M41.2615 35.4293C41.2615 35.9561 40.9107 36.3073 40.3846 36.3073C39.8584 36.3073 39.5077 35.9561 39.5077 35.4293C39.5077 34.9024 39.8584 34.5512 40.3846 34.5512C40.9107 34.5512 41.2615 34.9024 41.2615 35.4293Z" fill="#607D8B"/>
<path d="M21.0923 39.8195C21.0923 40.3463 20.7416 40.6975 20.2154 40.6975C19.6893 40.6975 19.3385 40.3463 19.3385 39.8195C19.3385 39.2926 19.6893 38.9414 20.2154 38.9414C20.7416 38.9414 21.0923 39.2926 21.0923 39.8195Z" fill="#607D8B"/>
<path fill-rule="evenodd" clip-rule="evenodd" d="M33.3692 35.4292C33.3692 39.2927 36.5262 42.4536 40.3846 42.4536C44.2431 42.4536 47.4 39.2927 47.4 35.4292C47.4 31.5658 44.2431 28.4048 40.3846 28.4048C36.5262 28.4048 33.3692 31.5658 33.3692 35.4292ZM35.1231 35.4292C35.1231 32.5317 37.4908 30.1609 40.3846 30.1609C43.2785 30.1609 45.6461 32.5317 45.6461 35.4292C45.6461 38.3268 43.2785 40.6975 40.3846 40.6975C37.4908 40.6975 35.1231 38.3268 35.1231 35.4292Z" fill="#B0BEC5"/>
<path fill-rule="evenodd" clip-rule="evenodd" d="M13.2 39.8195C13.2 43.6829 16.3569 46.8439 20.2154 46.8439C24.0738 46.8439 27.2308 43.6829 27.2308 39.8195C27.2308 35.9561 24.0738 32.7951 20.2154 32.7951C16.3569 32.7951 13.2 35.9561 13.2 39.8195ZM14.9538 39.8195C14.9538 36.9219 17.3215 34.5512 20.2154 34.5512C23.1092 34.5512 25.4769 36.9219 25.4769 39.8195C25.4769 42.717 23.1092 45.0878 20.2154 45.0878C17.3215 45.0878 14.9538 42.717 14.9538 39.8195Z" fill="#B0BEC5"/>
<path d="M21.5308 46.756C24.5123 46.756 26.4415 45.2634 28.8969 44.4731C29.5108 44.2975 30.0369 44.2097 30.7385 44.2097C31.44 44.2097 31.9662 45.0877 32.4923 45.0877C36 45.0877 37.0523 42.4536 40.3846 42.4536C41.5246 42.4536 42.4015 43.3317 43.0154 43.3317C44.2431 43.3317 45.4708 38.9414 47.4 38.9414V48.5999H13.2C13.2 48.5999 18.9 46.756 21.5308 46.756Z" fill="#DA985D"/>
<path d="M18.1984 26.1219C17.1461 27.439 17.4969 29.3707 18.8123 30.4243C19.2507 30.7755 19.6892 30.9512 20.2154 31.039L25.4769 32.7951L28.2831 29.9853L24.6877 28.0536L18.1984 26.1219Z" fill="#5C6BC0"/>
<path d="M27.7569 19.1853C27.7569 19.1853 27.6692 19.1853 27.7569 19.1853C26.3538 18.3951 24.6877 18.7463 23.7231 19.9756L18.1984 26.1219L24.6877 28.0536C24.6877 28.0536 28.8092 23.4 28.8092 23.3122L31.1769 24.278L32.9308 21.6439L27.7569 19.1853Z" fill="#5EC08F"/>
</svg>
