<svg width="60" height="60" viewBox="0 0 60 60" fill="none" xmlns="http://www.w3.org/2000/svg">
<rect x="14.25" y="13.5" width="31.5" height="35.7" fill="#E3F2FD"/>
<path d="M42.6 13.5V46.05H17.4V13.5H14.25V46.05V49.2H17.4H42.6H45.75V46.05V13.5H42.6Z" fill="#3F51B5"/>
<path fill-rule="evenodd" clip-rule="evenodd" d="M9 11.4V14.55H51V11.4H9ZM51 18.75H9V15.6H51V18.75ZM9 24H51V27.15H9V24ZM9 31.35H51V28.2H9V31.35ZM51 22.95H9V19.8H51V22.95Z" fill="#BA68C8"/>
<path fill-rule="evenodd" clip-rule="evenodd" d="M48.9 34.5C49.53 34.5 49.95 34.08 49.95 33.45C49.95 32.82 49.53 32.4 48.9 32.4C48.27 32.4 47.85 32.82 47.85 33.45C47.85 34.08 48.27 34.5 48.9 34.5ZM47.85 36.6C47.85 35.97 48.27 35.55 48.9 35.55C49.53 35.55 49.95 35.97 49.95 36.6C49.95 37.23 49.53 37.65 48.9 37.65C48.27 37.65 47.85 37.23 47.85 36.6ZM48.9 38.7C48.27 38.7 47.85 39.12 47.85 39.75C47.85 40.38 48.27 40.8 48.9 40.8C49.53 40.8 49.95 40.38 49.95 39.75C49.95 39.12 49.53 38.7 48.9 38.7ZM51 43.95C51 45.105 50.055 46.05 48.9 46.05C47.745 46.05 46.8 45.105 46.8 43.95C46.8 42.795 47.745 41.85 48.9 41.85C50.055 41.85 51 42.795 51 43.95Z" fill="#9FA8DA"/>
</svg>
