<svg width="60" height="60" viewBox="0 0 60 60" fill="none" xmlns="http://www.w3.org/2000/svg">
<path fill-rule="evenodd" clip-rule="evenodd" d="M46.44 20.8308C46.44 21.4031 46.056 21.7846 45.48 21.7846H14.76C14.184 21.7846 13.8 21.4031 13.8 20.8308V14.1539C13.8 13.5816 14.184 13.2 14.76 13.2H45.48C46.056 13.2 46.44 13.5816 46.44 14.1539V20.8308Z" fill="#3F51B5"/>
<rect x="13.8" y="17.9692" width="32.64" height="27.6615" fill="#BBDEFB"/>
<rect x="24.36" y="26.5538" width="15.36" height="1.90769" fill="#1976D2"/>
<path fill-rule="evenodd" clip-rule="evenodd" d="M37.224 30.3693H24.36V32.277H34.44C35.208 31.5139 36.168 30.8462 37.224 30.3693Z" fill="#1976D2"/>
<rect x="24.36" y="22.7385" width="15.36" height="1.90769" fill="#1976D2"/>
<path fill-rule="evenodd" clip-rule="evenodd" d="M32.808 34.1846H24.36V36.0923H31.848C32.04 35.4246 32.424 34.7569 32.808 34.1846Z" fill="#1976D2"/>
<rect x="20.52" y="22.7385" width="1.92" height="1.90769" fill="#1976D2"/>
<rect x="20.52" y="26.5538" width="1.92" height="1.90769" fill="#1976D2"/>
<rect x="20.52" y="38" width="1.92" height="1.9077" fill="#1976D2"/>
<path fill-rule="evenodd" clip-rule="evenodd" d="M24.36 38V39.9077H31.08C31.08 39.24 31.176 38.5723 31.272 38H24.36Z" fill="#1976D2"/>
<rect x="20.52" y="30.3693" width="1.92" height="1.90769" fill="#1976D2"/>
<rect x="20.52" y="34.1846" width="1.92" height="1.9077" fill="#1976D2"/>
<path fill-rule="evenodd" clip-rule="evenodd" d="M52.2 40.8616C52.2 46.1077 47.88 50.4 42.6 50.4C37.32 50.4 33 46.1077 33 40.8616C33 35.6154 37.32 31.3231 42.6 31.3231C47.88 31.3231 52.2 35.6154 52.2 40.8616Z" fill="#00ACC1"/>
<path fill-rule="evenodd" clip-rule="evenodd" d="M49.32 40.8616C49.32 44.5816 46.344 47.5385 42.6 47.5385C38.856 47.5385 35.88 44.5816 35.88 40.8616C35.88 37.1416 38.856 34.1846 42.6 34.1846C46.344 34.1846 49.32 37.1416 49.32 40.8616Z" fill="#EEEEEE"/>
<path fill-rule="evenodd" clip-rule="evenodd" d="M46.824 43.8185L44.04 41.0523C44.04 40.957 44.04 40.957 44.04 40.8616C44.04 40.48 43.848 40.0985 43.56 39.8123V36.0923H41.64V39.8123C41.352 40.0985 41.16 40.48 41.16 40.8616C41.16 41.6247 41.832 42.2923 42.6 42.2923H42.696L45.48 45.0585L46.824 43.8185Z" fill="black"/>
</svg>
