<svg width="60" height="60" viewBox="0 0 60 60" fill="none" xmlns="http://www.w3.org/2000/svg">
<path fill-rule="evenodd" clip-rule="evenodd" d="M16.08 43.2878V25.7268H44.4V43.2878C44.4 45.2195 42.807 46.8 40.86 46.8H19.62C17.673 46.8 16.08 45.2195 16.08 43.2878Z" fill="#CFD8DC"/>
<path fill-rule="evenodd" clip-rule="evenodd" d="M44.4 22.2146V27.4829H16.08V22.2146C16.08 20.2829 17.673 18.7024 19.62 18.7024H40.86C42.807 18.7024 44.4 20.2829 44.4 22.2146Z" fill="#78909C"/>
<path fill-rule="evenodd" clip-rule="evenodd" d="M38.205 24.8487C39.6713 24.8487 40.86 23.6694 40.86 22.2146C40.86 20.7598 39.6713 19.5804 38.205 19.5804C36.7387 19.5804 35.55 20.7598 35.55 22.2146C35.55 23.6694 36.7387 24.8487 38.205 24.8487Z" fill="#37474F"/>
<path fill-rule="evenodd" clip-rule="evenodd" d="M23.16 24.8487C24.6263 24.8487 25.815 23.6694 25.815 22.2146C25.815 20.7598 24.6263 19.5804 23.16 19.5804C21.6937 19.5804 20.505 20.7598 20.505 22.2146C20.505 23.6694 21.6937 24.8487 23.16 24.8487Z" fill="#37474F"/>
<path fill-rule="evenodd" clip-rule="evenodd" d="M38.205 16.9464C37.2315 16.9464 36.435 17.7366 36.435 18.7024V22.2146C36.435 23.1805 37.2315 23.9707 38.205 23.9707C39.1785 23.9707 39.975 23.1805 39.975 22.2146V18.7024C39.975 17.7366 39.1785 16.9464 38.205 16.9464Z" fill="#B0BEC5"/>
<path fill-rule="evenodd" clip-rule="evenodd" d="M23.16 16.9464C22.1865 16.9464 21.39 17.7366 21.39 18.7024V22.2146C21.39 23.1805 22.1865 23.9707 23.16 23.9707C24.1335 23.9707 24.93 23.1805 24.93 22.2146V18.7024C24.93 17.7366 24.1335 16.9464 23.16 16.9464Z" fill="#B0BEC5"/>
<rect x="33.78" y="38.0195" width="3.54" height="3.5122" fill="#90A4AE"/>
<rect x="28.47" y="38.0195" width="3.54" height="3.5122" fill="#90A4AE"/>
<rect x="23.16" y="38.0195" width="3.54" height="3.5122" fill="#90A4AE"/>
<rect x="33.78" y="32.7512" width="3.54" height="3.5122" fill="#90A4AE"/>
<rect x="28.47" y="32.7512" width="3.54" height="3.5122" fill="#90A4AE"/>
<rect x="23.16" y="32.7512" width="3.54" height="3.5122" fill="#90A4AE"/>
<path fill-rule="evenodd" clip-rule="evenodd" d="M19.62 31.8732C25.4853 31.8732 30.24 27.1558 30.24 21.3366C30.24 15.5174 25.4853 10.8 19.62 10.8C13.7547 10.8 9 15.5174 9 21.3366C9 27.1558 13.7547 31.8732 19.62 31.8732Z" fill="#F44336"/>
<path fill-rule="evenodd" clip-rule="evenodd" d="M19.62 29.239C24.0189 29.239 27.585 25.701 27.585 21.3366C27.585 16.9722 24.0189 13.4341 19.62 13.4341C15.221 13.4341 11.655 16.9722 11.655 21.3366C11.655 25.701 15.221 29.239 19.62 29.239Z" fill="#EEEEEE"/>
<rect x="18.735" y="15.1902" width="1.77" height="6.14635" fill="black"/>
<path fill-rule="evenodd" clip-rule="evenodd" d="M23.6158 24.0599L22.4268 25.2395L19.0475 21.8868L20.2365 20.7072L23.6158 24.0599Z" fill="black"/>
<path fill-rule="evenodd" clip-rule="evenodd" d="M19.62 22.6536C20.3531 22.6536 20.9475 22.0639 20.9475 21.3365C20.9475 20.6091 20.3531 20.0195 19.62 20.0195C18.8868 20.0195 18.2925 20.6091 18.2925 21.3365C18.2925 22.0639 18.8868 22.6536 19.62 22.6536Z" fill="black"/>
</svg>
