<svg width="60" height="60" viewBox="0 0 60 60" fill="none" xmlns="http://www.w3.org/2000/svg">
<path d="M42.88 12.3231L20.8 12.3212C18.7696 12.3212 16.3693 13.3071 16.2147 17.8615H16.2C16.2 17.8615 16.2 36.1606 16.2 43.7077L16.2166 43.6578C16.384 47.0169 18.5598 47.4 19.5185 47.4H41.04C41.213 47.4 41.5 47.4 41.96 47.4C43.8 47.4 43.8 45.5538 43.8 45.5538V40.0172V13.2462C43.8 12.7357 43.3888 12.3231 42.88 12.3231Z" fill="#7E57C2"/>
<path d="M41.04 40.9384H19.5184C18.293 40.9384 18.04 41.9713 18.04 43.2461C18.04 44.5218 18.293 45.5556 19.5184 45.5556L41.04 45.5538V40.9384Z" fill="#FFE0B2"/>
<path d="M19.5184 40.9384C18.4448 40.9384 18.1182 41.7304 18.0529 42.7846H41.04V40.9384H19.5184Z" fill="#E0B990"/>
<rect x="20.8" y="17.8597" width="19.32" height="4.61539" fill="#FFECB3"/>
<path d="M42.88 40.9384H41.04V47.4C41.213 47.4 41.5 47.4 41.96 47.4C43.8 47.4 43.8 45.5538 43.8 45.5538V40.0172C43.8 40.5258 43.3888 40.9384 42.88 40.9384Z" fill="#311B92"/>
</svg>
