<svg width="60" height="60" viewBox="0 0 60 60" fill="none" xmlns="http://www.w3.org/2000/svg">
<path d="M32.7 13.8H27.3C25.77 13.8 24.6 14.97 24.6 16.5V19.2H26.4V16.5C26.4 15.96 26.76 15.6 27.3 15.6H32.7C33.24 15.6 33.6 15.96 33.6 16.5V19.2H35.4V16.5C35.4 14.97 34.23 13.8 32.7 13.8Z" fill="#424242"/>
<path d="M44.4 46.2H15.6C13.62 46.2 12 44.58 12 42.6V21C12 19.02 13.62 17.4 15.6 17.4H44.4C46.38 17.4 48 19.02 48 21V42.6C48 44.58 46.38 46.2 44.4 46.2Z" fill="#E65100"/>
<path d="M44.4 32.7H15.6C13.62 32.7 12 31.08 12 29.1V21C12 19.02 13.62 17.4 15.6 17.4H44.4C46.38 17.4 48 19.02 48 21V29.1C48 31.08 46.38 32.7 44.4 32.7Z" fill="#FF6E40"/>
<path d="M31.8 30.9H28.2C27.66 30.9 27.3 30.54 27.3 30V28.2C27.3 27.66 27.66 27.3 28.2 27.3H31.8C32.34 27.3 32.7 27.66 32.7 28.2V30C32.7 30.54 32.34 30.9 31.8 30.9Z" fill="#FFF3E0"/>
</svg>
