<svg width="60" height="60" viewBox="0 0 60 60" fill="none" xmlns="http://www.w3.org/2000/svg">
<rect x="10.8" y="16.7294" width="38.4" height="25.9412" fill="#D32F2F"/>
<path d="M30 34.8882C32.4096 34.8882 34.3636 37.689 34.3636 40.0765C34.3636 42.4639 32.4096 44.4 30 44.4C27.5904 44.4 25.6364 42.4639 25.6364 40.0765C25.6364 37.689 27.5904 34.8882 30 34.8882Z" fill="#D32F2F"/>
<path d="M30 42.6705C31.446 42.6705 32.6182 41.5091 32.6182 40.0764C32.6182 38.6437 31.446 37.4823 30 37.4823C28.554 37.4823 27.3818 38.6437 27.3818 40.0764C27.3818 41.5091 28.554 42.6705 30 42.6705Z" fill="#4C0808"/>
<path d="M45.7091 15L30.8727 16.7294H29.1273L14.2909 15L12.5455 18.4588V40.9412H47.4546V18.4588L45.7091 15Z" fill="#D7CCC8"/>
<path d="M14.2909 39.2126L29.1273 39.2117H30.8727H45.7091L47.4546 40.9411H12.5455L14.2909 39.2126Z" fill="#BCAAA4"/>
<path d="M14.2909 15C14.2909 15 20.3991 15 23.8909 15C27.3818 15 29.1273 15 29.1273 16.7294C29.1273 19.3235 29.1273 40.9412 29.1273 40.9412C29.1273 39.2118 25.6363 39.2118 23.8909 39.2118C20.4 39.2118 14.2909 39.2118 14.2909 39.2118C14.2909 35.7529 14.2909 15 14.2909 15Z" fill="#EFEBE9"/>
<path d="M45.709 39.2118C45.709 39.2118 39.6 39.2118 36.109 39.2118C34.3636 39.2118 30.8727 39.2118 30.8727 40.9412C30.8727 40.9412 30.8727 19.3235 30.8727 16.7294C30.8727 15 32.6181 15 36.109 15C39.6008 15 45.709 15 45.709 15C45.709 15 45.709 35.7529 45.709 39.2118Z" fill="#EFEBE9"/>
<rect x="29.1273" y="16.7294" width="1.74545" height="24.2118" fill="#BCAAA4"/>
<path d="M38.2831 26.332C38.2831 26.332 36.7986 25.8918 36.7986 24.8836C36.7986 23.7067 37.8031 23.7171 38.0151 23.7171C38.407 23.7171 39.3024 23.9272 39.3024 25.3756H41.3455C41.3455 22.5653 39.127 22.3128 38.4367 22.2108V20.7632H37.2733V22.2272C36.5167 22.3569 34.7538 22.8697 34.7538 24.8767C34.7538 27.0203 36.9033 27.6083 37.0813 27.6818C38.3276 28.1971 39.3024 28.3528 39.3024 29.4587C39.3024 30.5751 38.1801 30.6045 37.9584 30.6045C37.7647 30.6045 36.4093 30.6538 36.4093 28.8344H34.3636C34.3636 31.6767 36.6162 32.0399 37.2724 32.1125V33.4468H38.4358V32.1194C38.8608 32.0796 41.3455 31.777 41.3455 29.444C41.3455 27.201 38.7404 26.5049 38.2831 26.332Z" fill="#2E7D32"/>
<rect x="23.8909" y="30.5647" width="2.61818" height="1.72942" fill="#BCAAA4"/>
<rect x="16.9091" y="25.3765" width="1.74545" height="1.72941" fill="#BCAAA4"/>
<rect x="16.9091" y="21.9177" width="1.74545" height="1.72941" fill="#BCAAA4"/>
<rect x="20.4" y="18.4589" width="6.10909" height="1.72941" fill="#BCAAA4"/>
<rect x="16.9091" y="18.4589" width="1.74545" height="1.72941" fill="#BCAAA4"/>
<rect x="20.4" y="21.9177" width="4.36364" height="1.72941" fill="#BCAAA4"/>
<rect x="20.4" y="25.3765" width="4.36364" height="1.72941" fill="#BCAAA4"/>
<rect x="22.1454" y="34.0236" width="4.36364" height="1.72941" fill="#BCAAA4"/>
<rect x="16.9091" y="34.0236" width="1.74545" height="1.72941" fill="#BCAAA4"/>
</svg>
