<svg width="60" height="60" viewBox="0 0 60 60" fill="none" xmlns="http://www.w3.org/2000/svg">
<path d="M13.8 42.8769V22.9385H46.2V42.8769C46.2 44.7046 44.6652 46.2 42.7895 46.2H17.2105C15.3347 46.2 13.8 44.7046 13.8 42.8769Z" fill="#CFD8DC"/>
<path d="M46.2 19.6154V24.6H13.8V19.6154C13.8 17.7877 15.3347 16.2923 17.2105 16.2923H42.7895C44.6652 16.2923 46.2 17.7877 46.2 19.6154Z" fill="#F44336"/>
<path d="M37.6736 22.1077C39.0863 22.1077 40.2315 20.9918 40.2315 19.6154C40.2315 18.2389 39.0863 17.123 37.6736 17.123C36.2609 17.123 35.1157 18.2389 35.1157 19.6154C35.1157 20.9918 36.2609 22.1077 37.6736 22.1077Z" fill="#B71C1C"/>
<path d="M22.3263 22.1077C23.739 22.1077 24.8842 20.9918 24.8842 19.6154C24.8842 18.2389 23.739 17.123 22.3263 17.123C20.9136 17.123 19.7684 18.2389 19.7684 19.6154C19.7684 20.9918 20.9136 22.1077 22.3263 22.1077Z" fill="#B71C1C"/>
<path d="M37.6736 13.8C36.7358 13.8 35.9684 14.5477 35.9684 15.4615V19.6154C35.9684 20.5292 36.7358 21.2769 37.6736 21.2769C38.6115 21.2769 39.3789 20.5292 39.3789 19.6154V15.4615C39.3789 14.5477 38.6115 13.8 37.6736 13.8Z" fill="#B0BEC5"/>
<path d="M22.3263 13.8C21.3884 13.8 20.621 14.5477 20.621 15.4615V19.6154C20.621 20.5292 21.3884 21.2769 22.3263 21.2769C23.2642 21.2769 24.0316 20.5292 24.0316 19.6154V15.4615C24.0316 14.5477 23.2642 13.8 22.3263 13.8Z" fill="#B0BEC5"/>
<rect x="20.621" y="28.7538" width="5.11579" height="4.98461" fill="#B0BEC5"/>
<path d="M27.4421 28.7538H32.5579V33.7385H27.4421V28.7538Z" fill="#B0BEC5"/>
<path d="M34.2631 28.7538H39.3789V33.7385H34.2631V28.7538Z" fill="#B0BEC5"/>
<rect x="20.621" y="35.4" width="5.11579" height="4.98462" fill="#B0BEC5"/>
<path d="M27.4421 35.4H32.5579V40.3846H27.4421V35.4Z" fill="#B0BEC5"/>
<rect x="34.2632" y="35.4" width="5.11579" height="4.98462" fill="#F44336"/>
</svg>
