<svg width="60" height="60" viewBox="0 0 60 60" fill="none" xmlns="http://www.w3.org/2000/svg">
<path d="M44.4 43.8H15.6C13.62 43.8 12 42.18 12 40.2V20.4C12 18.42 13.62 16.8 15.6 16.8H44.4C46.38 16.8 48 18.42 48 20.4V40.2C48 42.18 46.38 43.8 44.4 43.8Z" fill="#607D8B"/>
<path d="M34.5 41.1C40.4646 41.1 45.2999 36.2647 45.2999 30.3C45.2999 24.3353 40.4646 19.5 34.5 19.5C28.5353 19.5 23.7 24.3353 23.7 30.3C23.7 36.2647 28.5353 41.1 34.5 41.1Z" fill="#455A64"/>
<path d="M34.5 38.4C38.9735 38.4 42.6 34.7735 42.6 30.3C42.6 25.8265 38.9735 22.2 34.5 22.2C30.0265 22.2 26.4 25.8265 26.4 30.3C26.4 34.7735 30.0265 38.4 34.5 38.4Z" fill="#42A5F5"/>
<path d="M38.82 27.6C37.74 26.34 36.12 25.62 34.5 25.62C32.88 25.62 31.26 26.34 30.18 27.6C29.73 28.05 29.82 28.77 30.27 29.22C30.72 29.67 31.44 29.58 31.89 29.13C33.24 27.6 35.76 27.6 37.11 29.13C37.38 29.4 37.65 29.49 38.01 29.49C38.28 29.49 38.55 29.4 38.82 29.22C39.18 28.86 39.27 28.05 38.82 27.6Z" fill="#90CAF9"/>
<rect x="15.6" y="20.4" width="5.4" height="2.7" fill="#ADD8FB"/>
</svg>
