<svg width="60" height="60" viewBox="0 0 60 60" fill="none" xmlns="http://www.w3.org/2000/svg">
<path d="M30.3 45.6C31.729 45.6 32.8875 44.4487 32.8875 43.0286C32.8875 41.6084 31.729 40.4572 30.3 40.4572C28.871 40.4572 27.7125 41.6084 27.7125 43.0286C27.7125 44.4487 28.871 45.6 30.3 45.6Z" fill="#FFB74D"/>
<path d="M9.60001 43.8857V15.6H26.85C28.7553 15.6 30.3 17.1343 30.3 19.0285V43.8857H9.60001Z" fill="#FFC878"/>
<path d="M30.3 43.8857V19.0285C30.3 17.1343 31.8447 15.6 33.75 15.6H51V43.8857H30.3Z" fill="#FFB74D"/>
<rect x="34.6125" y="22.4572" width="8.625" height="1.71429" fill="#EF6C00"/>
<rect x="44.9625" y="22.4572" width="1.725" height="1.71429" fill="#EF6C00"/>
<rect x="34.6125" y="26.7428" width="6.89999" height="1.71429" fill="#EF6C00"/>
<rect x="44.9625" y="26.7428" width="1.725" height="1.71429" fill="#EF6C00"/>
<rect x="34.6125" y="31.0285" width="8.625" height="1.71428" fill="#EF6C00"/>
<rect x="44.9625" y="31.0285" width="1.725" height="1.71428" fill="#EF6C00"/>
<rect x="34.6125" y="35.3143" width="6.89999" height="1.71428" fill="#EF6C00"/>
<rect x="44.9625" y="35.3143" width="1.725" height="1.71428" fill="#EF6C00"/>
<path d="M18.2146 28.2831L17.1874 29.304L23.8847 35.9597C24.1685 36.2417 24.6282 36.2417 24.9119 35.9597C25.1957 35.6777 25.1957 35.2209 24.9119 34.9389L18.2146 28.2831Z" fill="#FB8C00"/>
<path d="M17.0813 31.2394L19.1358 29.1977L14.1066 24.1997L13.7892 24.5151C12.8301 25.4683 12.8301 27.0146 13.7892 27.9686L17.0813 31.2394Z" fill="#FB8C00"/>
<path d="M22.4935 29.5218L21.4663 28.5009L14.988 34.9389C14.7043 35.2209 14.7043 35.6778 14.988 35.9598C15.2718 36.2418 15.7315 36.2418 16.0153 35.9598L22.4935 29.5218Z" fill="#EF6C00"/>
<path d="M25.705 29.0455C27.0068 27.7436 27.2231 25.8493 26.1881 24.8143C25.1532 23.7793 23.2588 23.9956 21.957 25.2974C20.6551 26.5993 20.4388 28.4936 21.4738 29.5286C22.5088 30.5636 24.4032 30.3473 25.705 29.0455Z" fill="#EF6C00"/>
</svg>
