<svg width="60" height="60" viewBox="0 0 60 60" fill="none" xmlns="http://www.w3.org/2000/svg">
<path d="M18.1143 37.36C18.1143 36.8512 17.7056 36.44 17.2 36.44H13.5429C13.0373 36.44 12.6286 36.8512 12.6286 37.36V42.88C12.6286 43.3888 13.0373 43.8 13.5429 43.8H17.2C17.7056 43.8 18.1143 43.3888 18.1143 42.88V37.36Z" fill="#455A64"/>
<path d="M47.3714 37.36C47.3714 36.8512 46.9627 36.44 46.4571 36.44H42.8C42.2944 36.44 41.8857 36.8512 41.8857 37.36V42.88C41.8857 43.3888 42.2944 43.8 42.8 43.8H46.4571C46.9627 43.8 47.3714 43.3888 47.3714 42.88V37.36Z" fill="#455A64"/>
<path d="M48.2857 26.32H43.7143H16.2857H11.7143C11.2087 26.32 10.8 26.7312 10.8 27.24V29.08C10.8 29.5888 11.2087 30 11.7143 30H14.4571H15.3714H44.6286H45.5428H48.2857C48.7913 30 49.2 29.5888 49.2 29.08V27.24C49.2 26.7312 48.7913 26.32 48.2857 26.32Z" fill="#AB47BC"/>
<path d="M45.5429 29.08L43.7143 28.1646C43.4089 28.1619 16.5893 28.16 16.2857 28.16L14.4571 29.08C13.4478 29.08 12.6286 30.8244 12.6286 31.84V39.2C12.6286 39.7088 13.0373 40.12 13.5429 40.12H46.4571C46.9627 40.12 47.3714 39.7088 47.3714 39.2V31.84C47.3714 30.8244 46.5522 29.08 45.5429 29.08Z" fill="#AB47BC"/>
<path d="M44.4329 29.0819C44.3022 28.2649 44.0828 26.9815 43.7143 24.94C42.8 19.88 41.0537 16.2 37.7714 16.2H22.2286C18.9463 16.2 17.1424 20.34 16.2857 24.94C15.9127 26.9419 15.6914 28.2456 15.5607 29.0819H44.4329Z" fill="#AB47BC"/>
<path d="M45.5429 36.44C45.5429 36.9487 45.1342 37.36 44.6286 37.36H15.3714C14.8658 37.36 14.4572 36.9487 14.4572 36.44V33.6799C14.4572 33.1712 14.8658 32.7599 15.3714 32.7599H44.6286C45.1342 32.7599 45.5429 33.1712 45.5429 33.6799V36.44Z" fill="#212121"/>
<path d="M16.7429 36.4401C17.5003 36.4401 18.1143 35.8222 18.1143 35.0601C18.1143 34.2979 17.5003 33.6801 16.7429 33.6801C15.9854 33.6801 15.3714 34.2979 15.3714 35.0601C15.3714 35.8222 15.9854 36.4401 16.7429 36.4401Z" fill="#FFEB3B"/>
<path d="M43.2572 36.4401C44.0146 36.4401 44.6286 35.8222 44.6286 35.0601C44.6286 34.2979 44.0146 33.6801 43.2572 33.6801C42.4998 33.6801 41.8857 34.2979 41.8857 35.0601C41.8857 35.8222 42.4998 36.4401 43.2572 36.4401Z" fill="#FFEB3B"/>
<path d="M41.9149 25.2685C41.1067 20.8 39.9236 18.04 37.7714 18.04H22.2285C20.2281 18.04 18.8594 21.1119 18.0832 25.2795C17.8582 26.4856 17.6909 27.424 17.5657 28.16H42.4251C42.3008 27.4305 42.1353 26.4912 41.9149 25.2685Z" fill="#E3F2FD"/>
<path d="M23.1429 27.24C21.3783 27.24 19.9429 25.7974 19.9429 24.02C19.9429 22.2425 21.3783 20.8 23.1429 20.8C24.9074 20.8 26.3429 22.2425 26.3429 24.02C26.3429 25.7974 24.9074 27.24 23.1429 27.24Z" fill="#FFB74D"/>
<path d="M35.9429 27.24C34.1783 27.24 32.7429 25.7974 32.7429 24.02C32.7429 22.2425 34.1783 20.8 35.9429 20.8C37.7074 20.8 39.1429 22.2425 39.1429 24.02C39.1429 25.7974 37.7074 27.24 35.9429 27.24Z" fill="#FFB74D"/>
<path d="M29.5428 24.02C28.2829 24.02 27.2571 22.9887 27.2571 21.72C27.2571 20.4513 28.2829 19.42 29.5428 19.42C30.8027 19.42 31.8285 20.4513 31.8285 21.72C31.8285 22.9887 30.8027 24.02 29.5428 24.02Z" fill="#FFA726"/>
</svg>
