<svg width="60" height="60" viewBox="0 0 60 60" fill="none" xmlns="http://www.w3.org/2000/svg">
<path d="M17.1097 25.5C17.1097 25.5 17.1097 29.82 18.0194 31.8C18.929 33.78 20.9303 34.5 23.4774 34.5H38.0323C40.5794 34.5 42.5806 33.78 43.4903 31.8C44.4 29.82 44.4 25.5 44.4 25.5H17.1097Z" fill="#F44336"/>
<path d="M44.3091 25.05C43.0355 23.16 42.7626 21.81 42.7626 19.47L42.2168 18.66C40.1246 18.12 38.5781 16.77 37.9413 14.52L37.1226 13.8C34.8484 13.98 32.4833 13.44 30.7549 12V25.5H44.4L44.3091 25.05Z" fill="#F44336"/>
<path d="M23.4775 34.5H38.0323C40.5794 34.5 42.5807 33.78 43.4904 31.8H18.0194C18.9291 33.87 20.9304 34.5 23.4775 34.5Z" fill="#455A64"/>
<path d="M38.0322 42.6C38.0322 44.13 36.8496 45.3 35.3032 45.3H27.1161C27.1161 45.3 27.1161 44.13 27.1161 42.6V41.7H38.0322V42.6Z" fill="#37474F"/>
<path d="M30.7548 26.4C30.6639 26.4 30.5729 26.4 30.4819 26.4C30.1181 26.31 29.8452 25.95 29.8452 25.5V12.9C29.8452 12.36 30.209 12 30.7548 12C31.3006 12 31.6645 12.36 31.6645 12.9V22.17L36.3039 14.25C36.5768 13.8 37.1226 13.71 37.5774 13.89C38.0322 14.16 38.1232 14.7 37.9413 15.15L31.6645 25.95C31.3916 26.22 31.1187 26.4 30.7548 26.4Z" fill="#DD2C00"/>
<path d="M43.4904 26.4H30.7549C30.3 26.4 29.9362 26.13 29.8452 25.68C29.7542 25.32 29.9362 24.87 30.3 24.69L41.3981 18.66C41.8529 18.39 42.3988 18.57 42.6717 19.02C42.9446 19.47 42.7626 20.01 42.3078 20.28L34.3026 24.6H43.4904C44.0362 24.6 44.4 24.96 44.4 25.5C44.4 26.04 44.0362 26.4 43.4904 26.4Z" fill="#DD2C00"/>
<path d="M19.8387 42.6H27.1161V44.4H19.8387V42.6Z" fill="#CFD8DC"/>
<path d="M22.5677 39.9H24.3871V47.1H22.5677V39.9Z" fill="#CFD8DC"/>
<rect x="16.637" y="20.7327" width="1.81934" height="30.9597" transform="rotate(-45 16.637 20.7327)" fill="#B0BEC5"/>
<path d="M26.2065 41.7C26.0246 41.7 25.7517 41.61 25.5697 41.43C25.2058 41.07 25.2058 40.53 25.5697 40.17L31.3917 34.23C31.7555 33.87 32.3013 33.87 32.6652 34.23C33.0291 34.59 33.0291 35.13 32.6652 35.49L26.8433 41.43C26.6613 41.61 26.4794 41.7 26.2065 41.7Z" fill="#B0BEC5"/>
<path d="M40.7613 44.4C40.7613 45.93 39.5787 47.1 38.0322 47.1C36.4858 47.1 35.3032 45.93 35.3032 44.4C35.3032 42.87 36.4858 41.7 38.0322 41.7C39.5787 41.7 40.7613 42.87 40.7613 44.4Z" fill="#CFD8DC"/>
<path fill-rule="evenodd" clip-rule="evenodd" d="M34.3936 44.4C34.3936 46.38 36.031 48 38.0323 48C40.0335 48 41.671 46.38 41.671 44.4C41.671 42.42 40.0335 40.8 38.0323 40.8C36.031 40.8 34.3936 42.42 34.3936 44.4ZM36.2129 44.4C36.2129 43.41 37.0316 42.6 38.0323 42.6C39.0329 42.6 39.8516 43.41 39.8516 44.4C39.8516 45.39 39.0329 46.2 38.0323 46.2C37.0316 46.2 36.2129 45.39 36.2129 44.4Z" fill="#607D8B"/>
<path fill-rule="evenodd" clip-rule="evenodd" d="M18.9291 43.5C18.9291 46.02 20.9304 48 23.4775 48C26.0246 48 28.0259 46.02 28.0259 43.5C28.0259 40.98 26.0246 39 23.4775 39C20.9304 39 18.9291 40.98 18.9291 43.5ZM20.7484 43.5C20.7484 41.97 21.931 40.8 23.4775 40.8C25.0239 40.8 26.2065 41.97 26.2065 43.5C26.2065 45.03 25.0239 46.2 23.4775 46.2C21.931 46.2 20.7484 45.03 20.7484 43.5Z" fill="#607D8B"/>
<path d="M16.4944 20.7568L17.7809 19.4703L20.4537 22.1432L19.1672 23.4296L16.4944 20.7568Z" fill="#455A64"/>
<path d="M18.0194 20.1C18.0194 20.64 17.6555 21 17.1097 21C16.5639 21 16.2 20.64 16.2 20.1C16.2 19.56 16.5639 19.2 17.1097 19.2C17.6555 19.2 18.0194 19.56 18.0194 20.1Z" fill="#455A64"/>
<path d="M38.942 44.4C38.942 44.94 38.5781 45.3 38.0323 45.3C37.4865 45.3 37.1226 44.94 37.1226 44.4C37.1226 43.86 37.4865 43.5 38.0323 43.5C38.5781 43.5 38.942 43.86 38.942 44.4Z" fill="#455A64"/>
<path d="M24.3871 43.5C24.3871 44.04 24.0232 44.4 23.4774 44.4C22.9316 44.4 22.5677 44.04 22.5677 43.5C22.5677 42.96 22.9316 42.6 23.4774 42.6C24.0232 42.6 24.3871 42.96 24.3871 43.5Z" fill="#455A64"/>
</svg>
