<svg width="60" height="60" viewBox="0 0 60 60" fill="none" xmlns="http://www.w3.org/2000/svg">
<rect x="13.8" y="13.8009" width="32.4" height="19.9784" fill="#009688"/>
<path fill-rule="evenodd" clip-rule="evenodd" d="M13.8 15.6162H46.2V33.7784H13.8V15.6162ZM43.5 33.7784V17.4324H16.5V33.7784H43.5Z" fill="#00796B"/>
<path fill-rule="evenodd" clip-rule="evenodd" d="M13.8 13.8H46.2V33.7784H13.8V13.8ZM44.4 32.8703V15.6162H15.6V32.8703H44.4Z" fill="#DD7C12"/>
<path d="M48 36.5027V34.6865C48 33.6839 47.1936 32.8702 46.2 32.8702H14.7C13.7064 32.8702 12.9 33.6839 12.9 34.6865V36.5027H48Z" fill="#773D04"/>
<path d="M39.9 32.8703H33.6V31.0541H39.9L40.8 31.9622L39.9 32.8703Z" fill="white"/>
<path d="M17.4 21.9729C15.4146 21.9729 13.8 20.3429 13.8 18.3405C13.8 16.3372 15.4146 14.7081 17.4 14.7081C19.3854 14.7081 21 16.3372 21 18.3405C21 20.3429 19.3854 21.9729 17.4 21.9729Z" fill="#FFB74D"/>
<path d="M14.7 39.227L12 37.4108V33.7783H14.7V39.227Z" fill="#FFB74D"/>
<path d="M33.6207 23.7891L33.8016 27.0583L30.9207 29.2378L29.3016 27.0583L33.6207 23.7891Z" fill="#FFB74D"/>
<path d="M14.8926 46.4928H21.648L22.3617 31.5943V29.2378L27.1713 32.3499C27.3675 32.4262 28.1784 32.4616 28.6077 32.1329L32.9016 28.5204L30.6831 25.4891L27.471 27.9637C27.471 27.9637 22.62 24.1124 21.7317 23.5767C21.7065 23.5621 20.2404 22.881 18.3702 22.881C18.3549 22.881 18.3459 22.8829 18.3315 22.8829C18.3207 22.8829 18.3108 22.881 18.3 22.881C13.8 22.881 12 24.6973 12 28.3297V35.5946L14.3625 37.1837L14.8926 46.4928Z" fill="#455A64"/>
<path d="M20.1 39.6811C20.1 40.9343 19.0929 41.9514 17.85 41.9514C16.6071 41.9514 15.6 40.9343 15.6 39.6811C15.6 38.427 16.6071 37.4108 17.85 37.4108C19.0929 37.4108 20.1 38.427 20.1 39.6811Z" fill="#FFA726"/>
<path d="M28.2 39.6811C28.2 40.9343 27.1929 41.9514 25.95 41.9514C24.7071 41.9514 23.7 40.9343 23.7 39.6811C23.7 38.427 24.7071 37.4108 25.95 37.4108C27.1929 37.4108 28.2 38.427 28.2 39.6811Z" fill="#FFA726"/>
<path d="M36.3 39.6811C36.3 40.9343 35.2929 41.9514 34.05 41.9514C32.8071 41.9514 31.8 40.9343 31.8 39.6811C31.8 38.427 32.8071 37.4108 34.05 37.4108C35.2929 37.4108 36.3 38.427 36.3 39.6811Z" fill="#FFA726"/>
<path d="M44.4 39.6811C44.4 40.9343 43.392 41.9514 42.15 41.9514C40.908 41.9514 39.9 40.9343 39.9 39.6811C39.9 38.427 40.908 37.4108 42.15 37.4108C43.392 37.4108 44.4 38.427 44.4 39.6811Z" fill="#FFA726"/>
<path d="M21.9 45.5838C21.9 45.5838 20.7786 42.8594 17.85 42.8594C14.9214 42.8594 13.8 45.5838 13.8 45.5838V46.4919H21.9V45.5838Z" fill="#607D8B"/>
<path d="M30 45.5838C30 45.5838 28.8786 42.8594 25.95 42.8594C23.0214 42.8594 21.9 45.5838 21.9 45.5838V46.4919H30V45.5838Z" fill="#607D8B"/>
<path d="M38.1 45.5838C38.1 45.5838 36.9786 42.8594 34.05 42.8594C31.1214 42.8594 30 45.5838 30 45.5838V46.4919H38.1V45.5838Z" fill="#607D8B"/>
<path d="M46.2 45.5838C46.2 45.5838 45.0795 42.8594 42.15 42.8594C39.2214 42.8594 38.1 45.5838 38.1 45.5838V46.4919H46.2V45.5838Z" fill="#607D8B"/>
</svg>
