<svg width="60" height="60" viewBox="0 0 60 60" fill="none" xmlns="http://www.w3.org/2000/svg">
<path d="M45.375 39.1667H15.225V15.8333C15.225 15.3708 15.6011 15 16.0625 15H44.5375C45.0024 15 45.375 15.3708 45.375 15.8333V39.1667Z" fill="#455A64"/>
<path d="M16.9 16.6667H43.7V33.3334H16.9V16.6667Z" fill="#BBDEFB"/>
<path d="M10.2 43.3333H50.4V45H10.2V43.3333Z" fill="#B0BEC5"/>
<path d="M45.375 35H15.225L10.2 43.3333H50.4L45.375 35Z" fill="#CFD8DC"/>
<path d="M16.9 36.6667H43.7L46.2125 41.6667H14.3875L16.9 36.6667Z" fill="#546E7A"/>
<path d="M24.0564 41.6667L23.6 43.3334H37L36.5435 41.6667H24.0564Z" fill="#90A4AE"/>
<path d="M33.6501 25C33.6501 23.5416 34.4876 23.3333 34.4876 23.3333H38.6751C38.0285 21.8633 36.2036 20.8333 34.4876 20.8333C32.7715 20.8333 31.3 21.8633 30.6535 23.3333H23.6C22.6746 23.3333 21.925 24.0791 21.925 25C21.925 25.9208 22.6746 26.6666 23.6 26.6666H30.6535C31.3 28.1366 32.7715 29.1666 34.4876 29.1666C36.2036 29.1666 38.0285 28.1366 38.6751 26.6666H34.4876C34.4876 26.6666 33.6501 26.4583 33.6501 25Z" fill="#1976D2"/>
</svg>
