<svg width="60" height="60" viewBox="0 0 60 60" fill="none" xmlns="http://www.w3.org/2000/svg">
<path d="M48 30C48 39.9414 39.9414 48 30 48C20.0586 48 12 39.9414 12 30C12 20.0586 20.0586 12 30 12C39.9414 12 48 20.0586 48 30Z" fill="#2196F3"/>
<path d="M44.4 30C44.4 37.9533 37.9533 44.4 30 44.4C22.0467 44.4 15.6 37.9533 15.6 30C15.6 22.0467 22.0467 15.6 30 15.6C37.9533 15.6 44.4 22.0467 44.4 30Z" fill="#EEEEEE"/>
<path d="M30 17.4L28.2 30L30 42.6L31.8 30L30 17.4Z" fill="#90A4AE"/>
<path d="M21.0909 21.0909L28.7274 31.2726L38.9091 38.9091L31.2726 28.7274L21.0909 21.0909Z" fill="#90A4AE"/>
<path d="M17.4 30L30 31.8L42.6 30L30.0009 28.2L17.4 30Z" fill="#90A4AE"/>
<path d="M21.0909 38.9091L31.9089 31.9089L28.0911 28.0911L21.0909 38.9091Z" fill="#3F51B5"/>
<path d="M28.0911 28.0911L31.9089 31.9089L38.9091 21.0909L28.0911 28.0911Z" fill="#FF3D00"/>
<path d="M31.35 30C31.35 30.7461 30.7461 31.35 30 31.35C29.2539 31.35 28.65 30.7461 28.65 30C28.65 29.2539 29.2548 28.65 30 28.65C30.7461 28.65 31.35 29.2539 31.35 30Z" fill="white"/>
</svg>
