<svg width="60" height="60" viewBox="0 0 60 60" fill="none" xmlns="http://www.w3.org/2000/svg">
<path fill-rule="evenodd" clip-rule="evenodd" d="M13.5652 41.4C13.5652 41.4 22.2522 39.8143 26.087 35.0572V25.5429C20.5304 20.0722 13.5652 19.2 13.5652 19.2C13.5652 19.2 12 21.1822 12 30.3C12 39.4179 13.5652 41.4 13.5652 41.4ZM46.4348 41.4C46.4348 41.4 37.7478 39.8143 33.9131 35.0572V25.5429C39.4696 20.0722 46.4348 19.2 46.4348 19.2C46.4348 19.2 48 21.1822 48 30.3C48 39.4179 46.4348 41.4 46.4348 41.4Z" fill="#673AB7"/>
<path fill-rule="evenodd" clip-rule="evenodd" d="M19.357 28.7143H25.3049C25.3049 28.7143 21.157 25.9393 20.2962 25.6221C19.4353 25.305 18.6527 25.7807 18.3396 26.6529C18.0266 27.525 18.4962 28.4764 19.357 28.7143ZM18.3391 34.0264C18.0261 33.1543 18.4957 32.2029 19.2783 31.8857H25.2261C25.2261 31.8857 21.0783 34.6607 20.2957 34.9779C19.5131 35.295 18.6522 34.8986 18.3391 34.0264ZM34.6957 28.7143H40.6435C41.5044 28.4764 41.9739 27.525 41.6609 26.6529C41.4261 25.7807 40.5652 25.305 39.7044 25.6221C38.8435 25.9393 34.6957 28.7143 34.6957 28.7143ZM39.6261 34.9779C38.8435 34.6607 34.6957 31.8857 34.6957 31.8857H40.6435C41.4261 32.2029 41.8957 33.2336 41.5826 34.0264C41.3478 34.8193 40.4087 35.295 39.6261 34.9779Z" fill="#311B92"/>
<path d="M26.0869 35.0571H33.913C33.913 35.0571 34.7739 33.7886 34.7739 30.3C34.7739 26.8114 33.913 25.5428 33.913 25.5428H26.0869C26.0869 25.5428 25.3043 26.8907 25.3043 30.3C25.3043 33.7093 26.0869 35.0571 26.0869 35.0571Z" fill="#9575CD"/>
</svg>
