<svg width="60" height="60" viewBox="0 0 60 60" fill="none" xmlns="http://www.w3.org/2000/svg">
<path d="M43.92 16.8H17.04C14.9194 16.8 13.2 18.5067 13.2 20.6118V36.8118C13.2 38.9168 14.9194 40.6235 17.04 40.6235H43.92C46.0407 40.6235 47.76 38.9168 47.76 36.8118V20.6118C47.76 18.5067 46.0407 16.8 43.92 16.8Z" fill="#CFD8DC"/>
<path d="M14.2445 18.0131C13.8019 18.481 13.4813 19.0594 13.3219 19.7026L30.48 32.047L47.6381 19.7036C47.4787 19.0594 47.1581 18.4819 46.7155 18.014L30.48 29.6933L14.2445 18.0131Z" fill="#78909C"/>
<path d="M51.6 39.6705C51.6 44.9336 47.3021 49.1999 42 49.1999C36.6979 49.1999 32.4 44.9336 32.4 39.6705C32.4 34.4074 36.6979 30.1411 42 30.1411C47.3021 30.1411 51.6 34.4074 51.6 39.6705Z" fill="#43A047"/>
<path d="M46.3123 35.2394L40.8499 40.6712L38.231 38.0792L36.1929 40.1071L40.8537 44.7212L48.3542 37.2625L46.3123 35.2394Z" fill="#DCEDC8"/>
</svg>
