<svg width="60" height="60" viewBox="0 0 60 60" fill="none" xmlns="http://www.w3.org/2000/svg">
<rect x="26.16" y="36.3938" width="7.68" height="7.65" fill="#607D8B"/>
<rect x="10.8" y="14.4" width="38.4" height="25.8188" fill="#90A4AE"/>
<rect x="12.72" y="16.3125" width="34.56" height="21.9938" fill="#BBDEFB"/>
<rect x="21.36" y="43.0875" width="17.28" height="1.9125" fill="#90A4AE"/>
<path fill-rule="evenodd" clip-rule="evenodd" d="M23.28 35.4375H36.72V35.4251C36.72 32.2637 34.1462 29.7 30.9724 29.7H29.0284C25.8537 29.7 23.28 32.2637 23.28 35.4251V35.4375Z" fill="#64B5F6"/>
<path fill-rule="evenodd" clip-rule="evenodd" d="M31.9209 27.7875H28.0809V30.6563C28.0809 30.6563 28.3958 31.6125 29.9616 31.6125C31.5273 31.6125 31.9209 30.6563 31.9209 30.6563V27.7875Z" fill="#FF9800"/>
<path fill-rule="evenodd" clip-rule="evenodd" d="M33.36 26.8313C34.1553 26.8313 34.8 26.1891 34.8 25.3969C34.8 24.6047 34.1553 23.9625 33.36 23.9625C32.5647 23.9625 31.92 24.6047 31.92 25.3969C31.92 26.1891 32.5647 26.8313 33.36 26.8313Z" fill="#FF9800"/>
<path fill-rule="evenodd" clip-rule="evenodd" d="M26.64 26.8313C27.4353 26.8313 28.08 26.1891 28.08 25.3969C28.08 24.6047 27.4353 23.9625 26.64 23.9625C25.8447 23.9625 25.2 24.6047 25.2 25.3969C25.2 26.1891 25.8447 26.8313 26.64 26.8313Z" fill="#FF9800"/>
<path fill-rule="evenodd" clip-rule="evenodd" d="M33.84 22.2566C33.84 20.1471 32.1177 20.1375 30 20.1375C27.8822 20.1375 26.16 20.1471 26.16 22.2566C26.16 22.5884 26.16 25.5422 26.16 25.875C26.16 27.9845 27.8822 29.7 30 29.7C32.1177 29.7 33.84 27.9845 33.84 25.875C33.84 25.5432 33.84 22.5893 33.84 22.2566Z" fill="#FFB74D"/>
<path fill-rule="evenodd" clip-rule="evenodd" d="M29.7898 18.225C27.4503 18.4345 25.2 20.0706 25.2 23.5552V24.9188L26.16 25.875V23.0063L32.2176 20.9016L33.84 23.0063V25.875L34.8 24.9188V23.7684C34.8 21.46 34.6704 19.7474 31.92 19.1813L31.4544 18.225H29.7898Z" fill="#424242"/>
<rect x="23.28" y="33.525" width="5.76" height="3.825" fill="#3F51B5"/>
<rect x="30.96" y="33.525" width="5.76" height="3.825" fill="#3F51B5"/>
<rect x="15.6" y="33.525" width="5.76" height="3.825" fill="#3F51B5"/>
<rect x="38.64" y="33.525" width="5.76" height="3.825" fill="#3F51B5"/>
</svg>
