<svg width="60" height="60" viewBox="0 0 60 60" fill="none" xmlns="http://www.w3.org/2000/svg">
<path fill-rule="evenodd" clip-rule="evenodd" d="M31.2496 20.5993L33.3002 22.6633L26.4649 29.5432L24.4143 27.4792L31.2496 20.5993Z" fill="#FFC107"/>
<path fill-rule="evenodd" clip-rule="evenodd" d="M37.4014 26.7911L39.452 28.8551L32.6167 35.735L30.5661 33.671L37.4014 26.7911Z" fill="#FFC107"/>
<path fill-rule="evenodd" clip-rule="evenodd" d="M41.2491 29.8002L45.4667 25.6719V20.3838L39.6667 14.546H34.4119L30.3113 18.792L41.2491 29.8002Z" fill="#90A4AE"/>
<path fill-rule="evenodd" clip-rule="evenodd" d="M44.667 12.5996L47.4007 15.352L41.9174 20.8695L39.1836 18.1172L44.667 12.5996Z" fill="#90A4AE"/>
<path fill-rule="evenodd" clip-rule="evenodd" d="M29.6887 41.435L25.5872 45.6811H20.3333L14.5333 39.8433V34.5542L18.7519 30.4268L29.6887 41.435Z" fill="#90A4AE"/>
<path fill-rule="evenodd" clip-rule="evenodd" d="M18.485 38.9539L21.2187 41.7062L15.3341 47.6276L12.6003 44.8752L18.485 38.9539Z" fill="#90A4AE"/>
<path fill-rule="evenodd" clip-rule="evenodd" d="M28.9443 17.415L42.6149 31.1748L39.8801 33.9275L26.2095 20.1677L28.9443 17.415Z" fill="#546E7A"/>
<path fill-rule="evenodd" clip-rule="evenodd" d="M20.1189 26.2991L33.7888 40.0582L31.0547 42.8101L17.3848 29.051L20.1189 26.2991Z" fill="#546E7A"/>
</svg>
