<svg width="60" height="60" viewBox="0 0 60 60" fill="none" xmlns="http://www.w3.org/2000/svg">
<path d="M42.6 51H13.2V13.2H34.2L42.6 21.6V51Z" fill="#42A5F5"/>
<path d="M46.8 46.8H17.4V9H38.4L46.8 17.4V46.8Z" fill="#90CAF9"/>
<path d="M45.225 18.45H37.35V10.575L45.225 18.45Z" fill="#E1F5FE"/>
<path fill-rule="evenodd" clip-rule="evenodd" d="M32.778 29.6472C31.729 30.6168 30.525 31.7298 30.525 34.515V34.62H33.15C33.15 32.913 34.1184 31.9195 35.101 30.9114C36.1129 29.8732 37.14 28.8195 37.14 26.955C37.14 26.22 37.035 22.44 32.205 22.44C27.48 22.44 27.165 26.115 27.165 26.85H30C30 26.43 30.105 24.75 32.205 24.75C34.095 24.75 34.305 26.22 34.305 26.955C34.305 28.2357 33.5877 28.8988 32.778 29.6472ZM31.89 36.615C30.315 36.615 30.315 37.98 30.315 38.19C30.315 38.61 30.525 39.66 31.89 39.66C33.255 39.66 33.465 38.61 33.465 38.19C33.465 37.98 33.36 36.615 31.89 36.615Z" fill="#1976D2"/>
</svg>
