<svg width="60" height="60" viewBox="0 0 60 60" fill="none" xmlns="http://www.w3.org/2000/svg">
<path d="M30 10.8L33.9325 15.1889L39.6 13.4182L40.8785 19.1214L46.5818 20.4L44.8364 26.0675L49.2 30L44.8364 33.9325L46.5818 39.6L40.8785 40.8785L39.6 46.5818L33.9325 44.811L30 49.2L26.0675 44.811L20.4 46.5818L19.1215 40.8785L13.4182 39.6L15.1636 33.9325L10.8 30L15.1636 26.0675L13.4182 20.4L19.1215 19.1214L20.4 13.4182L26.0675 15.1889L30 10.8Z" fill="#F44336"/>
<path d="M26.5091 37.2444L25.0263 36.3717L33.4909 22.7554L34.9737 23.6282L26.5091 37.2444Z" fill="white"/>
<path fill-rule="evenodd" clip-rule="evenodd" d="M22.1455 24.7636C22.1455 22.2345 24.0646 21.2727 25.6364 21.2727C27.6445 21.2727 29.1273 22.5818 29.1273 24.7636V25.6363C29.1273 27.9072 27.4709 29.1273 25.6364 29.1273C23.1072 29.1273 22.1455 27.2081 22.1455 25.6363V24.7636ZM25.6364 27.3818C26.5982 27.3818 27.2082 26.7718 27.2082 25.6363V24.7636C27.2082 24.0646 26.8565 22.9291 25.6364 22.9291C24.8518 22.9291 24.0646 23.5435 24.0646 24.7636V25.6363C24.0646 26.8564 24.8527 27.3818 25.6364 27.3818Z" fill="white"/>
<path fill-rule="evenodd" clip-rule="evenodd" d="M37.8546 35.2363C37.8546 37.7655 35.9355 38.7272 34.3637 38.7272C32.3555 38.7272 30.8728 37.4181 30.8728 35.2363V34.3636C30.8728 32.0928 32.5292 30.8727 34.3637 30.8727C36.8928 30.8727 37.8546 32.7918 37.8546 34.3636V35.2363ZM34.3637 32.6181C33.402 32.6181 32.7919 33.2282 32.7919 34.3636V35.2363C32.7919 35.9354 33.1436 37.0708 34.3637 37.0708C35.1483 37.0708 35.9355 36.4564 35.9355 35.2363V34.3636C35.9355 33.1435 35.1474 32.6181 34.3637 32.6181Z" fill="white"/>
</svg>
