<svg width="60" height="60" viewBox="0 0 60 60" fill="none" xmlns="http://www.w3.org/2000/svg">
<path fill-rule="evenodd" clip-rule="evenodd" d="M12.209 29.2417C12.209 15.1788 22.039 10.2 30.639 10.2C43.756 10.2 47.999 18.2722 47.999 22.1806C48.044 28.7519 44.5706 31.2368 42.0338 33.0517L42.031 33.0537C39.791 34.6557 38.838 35.4557 39.702 37.6415C39.791 37.8747 39.888 38.1048 39.99 38.339L39.9947 38.35C40.3715 39.2347 40.799 40.2382 40.799 41.3962C40.799 47.4674 36.079 50.3206 31.694 50.4H31.519C19.842 50.4 12.209 39.4536 12.209 29.2417ZM27.198 41.557C27.198 43.8072 28.958 45.576 31.199 45.576C33.438 45.576 35.197 43.8072 35.197 41.557C35.197 39.3048 33.437 37.536 31.199 37.536C28.958 37.536 27.198 39.3048 27.198 41.557Z" fill="#FFC107"/>
<path fill-rule="evenodd" clip-rule="evenodd" d="M40.5 26.2801C42.433 26.2801 44 24.7052 44 22.7626C44 20.8199 42.433 19.2451 40.5 19.2451C38.567 19.2451 37 20.8199 37 22.7626C37 24.7052 38.567 26.2801 40.5 26.2801Z" fill="#9C27B0"/>
<path fill-rule="evenodd" clip-rule="evenodd" d="M31.5 20.25C33.433 20.25 35 18.6752 35 16.7325C35 14.7899 33.433 13.215 31.5 13.215C29.567 13.215 28 14.7899 28 16.7325C28 18.6752 29.567 20.25 31.5 20.25Z" fill="#2196F3"/>
<path fill-rule="evenodd" clip-rule="evenodd" d="M21.5 25.275C23.433 25.275 25 23.7002 25 21.7575C25 19.8148 23.433 18.24 21.5 18.24C19.567 18.24 18 19.8148 18 21.7575C18 23.7002 19.567 25.275 21.5 25.275Z" fill="#4CAF50"/>
<path fill-rule="evenodd" clip-rule="evenodd" d="M20.5 36.33C22.433 36.33 24 34.7552 24 32.8125C24 30.8699 22.433 29.295 20.5 29.295C18.567 29.295 17 30.8699 17 32.8125C17 34.7552 18.567 36.33 20.5 36.33Z" fill="#FF3D00"/>
</svg>
