<svg width="60" height="60" viewBox="0 0 60 60" fill="none" xmlns="http://www.w3.org/2000/svg">
<rect x="9" y="9" width="42" height="42" rx="15" fill="#F6F6F7"/>
<path d="M26.0553 35.9447L24.6113 40L42 18L26.0553 35.9447Z" fill="#2196F3"/>
<path d="M34 42L18 30L42 18L34 42Z" fill="#90CAF9"/>
<path d="M26.0553 35.9446L24.6113 39.9999L23.0227 33.7666L40 20.0006L26.0553 35.9446Z" fill="#1565C0"/>
<path d="M55.2 11.4C55.2 14.7138 52.5138 17.4 49.2 17.4C45.8862 17.4 43.2 14.7138 43.2 11.4C43.2 8.08622 45.8862 5.40002 49.2 5.40002C52.5138 5.40002 55.2 8.08622 55.2 11.4Z" fill="#F44336"/>
<rect x="48.3" y="7.20007" width="1.8" height="5.4" fill="white"/>
<rect x="48.3" y="13.8" width="1.8" height="1.8" fill="white"/>
</svg>
