<svg width="60" height="60" viewBox="0 0 60 60" fill="none" xmlns="http://www.w3.org/2000/svg">
<path fill-rule="evenodd" clip-rule="evenodd" d="M44.9012 37.0463C46.5109 34.9526 47.3935 32.1251 47.5477 28.5628C47.7 24.8752 47.1497 21.6413 45.8938 18.859C44.6379 16.0766 42.7484 13.9378 40.2264 12.4435C37.7033 10.9481 34.6906 10.2 31.1924 10.2C27.7488 10.2 24.6569 11.0323 21.9188 12.696C19.1777 14.3555 17.0136 16.7109 15.4255 19.758C13.8343 22.8031 12.9559 26.2454 12.7892 30.0869C12.6226 34.0905 13.177 37.539 14.4524 40.426C15.7279 43.314 17.6626 45.497 20.2556 46.979C22.8487 48.4579 25.9848 49.2 29.666 49.2C31.1297 49.2 32.5841 49.0316 34.0251 48.6888C35.4703 48.3481 36.6161 47.8986 37.4667 47.3413L36.6716 44.1289C35.7531 44.559 34.6567 44.9038 33.3895 45.1614C32.1202 45.42 30.9075 45.5473 29.7504 45.5473C25.3584 45.5473 22.0608 44.2018 19.8586 41.5098C17.6554 38.8188 16.6659 35.0101 16.8881 30.0858C17.0413 26.8437 17.7253 23.968 18.9391 21.4586C20.1507 18.9472 21.8108 17.0096 23.9163 15.6456C26.0208 14.2816 28.4184 13.6001 31.1101 13.6001C35.4168 13.6001 38.6691 14.9056 40.8661 17.5135C43.0611 20.1193 44.0393 23.852 43.8027 28.7075C43.7184 31.1306 43.2442 33.0868 42.3802 34.5811C41.5162 36.0775 40.4424 36.8257 39.1597 36.8257C38.3235 36.8257 37.7136 36.5342 37.3309 35.9492C36.9463 35.3662 36.8249 34.5236 36.9648 33.4255L38.0304 21.3652L36.7128 20.4693C35.3047 19.5497 33.6034 19.0899 31.61 19.0899C29.9921 19.0899 28.4863 19.5702 27.0925 20.5298C25.6988 21.4894 24.5448 22.8647 23.6324 24.6505C22.7191 26.4383 22.1359 28.4817 21.8849 30.7766C21.6061 33.5866 22.0258 35.8455 23.1408 37.5574C24.2547 39.2683 25.8305 40.1253 27.866 40.1253C30.1104 40.1253 31.9309 39.1503 33.3247 37.2033C33.7721 38.1619 34.4293 38.9019 35.3005 39.414C36.1728 39.9282 37.2075 40.1858 38.4079 40.1858C41.1253 40.1858 43.2915 39.14 44.9012 37.0463ZM27.0103 34.9578C26.5361 34.0054 26.3746 32.6106 26.5289 30.7745C26.7932 28.1605 27.3682 26.1695 28.2548 24.8065C29.1394 23.4436 30.384 22.7621 31.9875 22.7621C32.5584 22.7621 33.1179 22.8514 33.66 23.033L32.7816 32.9031C32.3784 34.031 31.8682 34.8921 31.2552 35.4905C30.6411 36.0898 29.9931 36.3895 29.3101 36.3895C28.2507 36.3895 27.4824 35.9112 27.0103 34.9578Z" fill="#2196F3"/>
</svg>
