<svg width="60" height="60" viewBox="0 0 60 60" fill="none" xmlns="http://www.w3.org/2000/svg">
<path d="M44.9143 15.6H15.6571C13.6375 15.6 12 17.2408 12 19.2666V37.6C12 39.624 13.6375 41.2666 15.6571 41.2666H44.9143C46.9339 41.2666 48.5714 39.624 48.5714 37.6V19.2666C48.5714 17.2408 46.9339 15.6 44.9143 15.6Z" fill="#CFD8DC"/>
<path d="M30.2857 30.7515L12.352 17.7211C12.1317 18.1914 12 18.712 12 19.2657V19.7286L30.2857 33.0166L48.5714 19.7286V19.2666C48.5714 18.712 48.4398 18.1914 48.2194 17.7202L30.2857 30.7515Z" fill="#78909C"/>
<path d="M50.4 41.2666L42.1714 33.9332V48.5999L50.4 41.2666Z" fill="#2196F3"/>
<rect x="31.2" y="38.5167" width="11.8857" height="5.5" fill="#2196F3"/>
</svg>
