<svg width="60" height="60" viewBox="0 0 60 60" fill="none" xmlns="http://www.w3.org/2000/svg">
<path d="M30 48C39.9411 48 48 39.9411 48 30C48 20.0589 39.9411 12 30 12C20.0589 12 12 20.0589 12 30C12 39.9411 20.0589 48 30 48Z" fill="#FFCA28"/>
<path d="M33.6 39.45C33.6 39.9837 33.5658 40.4292 33.4902 40.8H26.5089C26.4342 40.4292 26.4 39.9837 26.4 39.45C26.4 36.7158 28.0119 34.5 30 34.5C31.9881 34.5 33.6 36.7158 33.6 39.45Z" fill="#5D4037"/>
<path d="M30 39.9C28.5357 39.9 27.3036 40.3194 26.5125 40.8C26.9625 42.6 28.3818 42.6 30 42.6C31.6182 42.6 33.0375 42.6 33.4875 40.8C32.6964 40.3194 31.4643 39.9 30 39.9Z" fill="#E53935"/>
<path d="M27.3 29.1L20.1 30C20.1 27.7221 21.2475 26.085 22.8 25.6287L23.7 26.4L25.5027 25.9833C26.5773 26.6061 27.3 27.75 27.3 29.1Z" fill="#6D4C41"/>
<path d="M24.15 27.3C24.8799 27.3 25.4703 26.7204 25.4955 25.9968C24.9654 25.689 24.357 25.5 23.7 25.5C23.403 25.5 23.1186 25.5522 22.8423 25.6296C22.8171 25.7331 22.8 25.8393 22.8 25.95C22.8 26.6952 23.4048 27.3 24.15 27.3Z" fill="white"/>
<path d="M32.7 29.1L39.9 30C39.9 27.7221 38.7525 26.085 37.2 25.6287L36.3 26.4L34.4973 25.9833C33.4227 26.6061 32.7 27.75 32.7 29.1Z" fill="#6D4C41"/>
<path d="M35.85 27.3C35.1201 27.3 34.5297 26.7204 34.5045 25.9968C35.0346 25.689 35.643 25.5 36.3 25.5C36.597 25.5 36.8814 25.5522 37.1577 25.6296C37.1829 25.7331 37.2 25.8393 37.2 25.95C37.2 26.6961 36.5952 27.3 35.85 27.3Z" fill="white"/>
</svg>
