<svg width="60" height="60" viewBox="0 0 60 60" fill="none" xmlns="http://www.w3.org/2000/svg">
<path d="M48 30C48 39.9 39.9 48 30 48C20.1 48 12 39.9 12 30C12 20.1 20.1 12 30 12C39.9 12 48 20.1 48 30Z" fill="#FFCA28"/>
<path d="M34.5 37.2C34.5 39.72 32.52 41.7 30 41.7C27.48 41.7 25.5 39.72 25.5 37.2H34.5Z" fill="#C62828"/>
<path d="M20.82 30.54L19.38 29.46C19.47 29.37 21 27.3 23.7 27.3C26.4 27.3 27.93 29.37 28.02 29.46L26.58 30.54C26.58 30.54 25.41 29.1 23.7 29.1C21.99 29.1 20.82 30.54 20.82 30.54Z" fill="#B76C09"/>
<path d="M33.42 30.54L31.98 29.46C32.07 29.37 33.6 27.3 36.3 27.3C39 27.3 40.53 29.37 40.62 29.46L39.18 30.54C39.18 30.54 38.01 29.1 36.3 29.1C34.59 29.1 33.42 30.54 33.42 30.54Z" fill="#B76C09"/>
</svg>
