<svg width="60" height="60" viewBox="0 0 60 60" fill="none" xmlns="http://www.w3.org/2000/svg">
<path d="M12.6 17.4333C12.6 14.7266 14.7405 12.6 17.4648 12.6H42.7621C45.4865 12.6 47.627 14.7266 47.627 17.4333V42.5666C47.627 45.2733 45.4865 47.4 42.7621 47.4H17.4648C14.7405 47.4 12.6 45.2733 12.6 42.5666V17.4333Z" fill="#B3E5FC"/>
<path d="M47.627 22.2666H45.6811V17.6266C45.6811 15.9833 44.2216 14.5333 42.5676 14.5333H37.8973V12.6H42.5676C45.3892 12.6 47.7243 14.92 47.7243 17.7233V22.2666H47.627Z" fill="#03A9F4"/>
<path d="M14.5459 22.2666H12.6V17.6266C12.6 14.92 14.9351 12.6 17.7567 12.6H22.3297V14.5333H17.6594C16.0054 14.5333 14.5459 15.9833 14.5459 17.7233V22.2666Z" fill="#03A9F4"/>
<path d="M22.3297 47.3999H17.6594C14.9351 47.3999 12.6 45.0799 12.6 42.3733V36.7666H14.5459V42.3733C14.5459 44.1133 16.0054 45.5633 17.7567 45.5633H22.3297V47.3999Z" fill="#03A9F4"/>
<path d="M42.5676 47.3999H37.8973V45.4666H42.5676C44.3189 45.4666 45.7784 44.0166 45.7784 42.2766V36.7666H47.7243V42.3733C47.627 45.0799 45.2919 47.3999 42.5676 47.3999Z" fill="#03A9F4"/>
<path d="M29.1405 33.8666H27.1946V31.9333H29.1405C29.7243 31.9333 30.1135 31.5466 30.1135 30.9666V23.2333H32.0594V30.9666C32.0594 32.6099 30.7946 33.8666 29.1405 33.8666Z" fill="#03A9F4"/>
<rect x="21.3568" y="23.2333" width="1.94594" height="4.83333" fill="#03A9F4"/>
<rect x="36.9243" y="23.2333" width="1.94595" height="4.83333" fill="#03A9F4"/>
<path d="M30.1135 39.6667C26.6108 39.6667 24.9567 38.7 24.7621 38.5067L23.9838 38.0233L25.054 36.38L25.8324 36.8633C25.9297 36.8633 27.2919 37.7333 30.2108 37.7333C33.1297 37.7333 34.5892 36.96 34.5892 36.8633L35.4648 36.38L36.4378 38.0233L35.6594 38.5067C35.2702 38.7 33.6162 39.6667 30.1135 39.6667Z" fill="#03A9F4"/>
</svg>
