<svg width="60" height="60" viewBox="0 0 60 60" fill="none" xmlns="http://www.w3.org/2000/svg">
<path d="M21.9 43.8001H42.6L48 49.2001V30.3001C48 28.3201 46.38 26.7001 44.4 26.7001H21.9C19.92 26.7001 18.3 28.3201 18.3 30.3001V40.2001C18.3 42.1801 19.92 43.8001 21.9 43.8001Z" fill="#558B2F"/>
<path fill-rule="evenodd" clip-rule="evenodd" d="M31.08 37.32H34.32L34.86 39.21H36.84L33.51 30.21H31.8L28.47 39.21H30.45L31.08 37.32ZM33.78 35.88H31.53L32.7 32.46L33.78 35.88Z" fill="#1B5E20"/>
<path d="M38.1 30.3H17.4L12 35.7V15C12 13.02 13.62 11.4 15.6 11.4H38.1C40.08 11.4 41.7 13.02 41.7 15V26.7C41.7 28.68 40.08 30.3 38.1 30.3Z" fill="#8BC34A"/>
<path fill-rule="evenodd" clip-rule="evenodd" d="M30.81 22.8299C31.08 22.1999 31.26 21.4799 31.26 20.5799V20.3099C31.26 19.5899 31.17 18.9599 30.99 18.4199C30.81 17.8799 30.54 17.3399 30.18 16.9799C29.82 16.6199 29.37 16.2599 28.92 16.0799C28.38 15.8999 27.84 15.8099 27.3 15.8099C26.67 15.8099 26.13 15.8999 25.68 16.0799C25.14 16.2599 24.78 16.6199 24.42 16.9799C24.06 17.3399 23.79 17.8799 23.61 18.4199C23.43 18.9599 23.34 19.5899 23.34 20.3099V20.6699C23.34 21.3899 23.43 22.0199 23.61 22.5599C23.79 23.0999 24.06 23.6399 24.42 23.9999C24.78 24.3599 25.23 24.7199 25.68 24.8999C26.22 25.0799 26.76 25.1699 27.3 25.1699C27.4486 25.1699 27.5972 25.1427 27.7309 25.1181C27.84 25.0981 27.9391 25.0799 28.02 25.0799L30 26.6099L31.17 25.5299L29.64 24.3599C30.18 23.9999 30.54 23.4599 30.81 22.8299ZM28.7399 17.97C29.0999 18.42 29.2799 19.14 29.2799 20.13V20.49C29.2799 21.48 29.0999 22.2 28.7399 22.74C28.4699 23.19 27.9299 23.46 27.2999 23.46C27.0299 23.46 26.7599 23.37 26.4899 23.28C26.2199 23.19 26.0399 23.01 25.8599 22.74C25.6799 22.56 25.5899 22.2 25.4999 21.84C25.4099 21.48 25.3199 21.03 25.3199 20.58V20.13C25.3199 19.23 25.4999 18.51 25.8599 17.97C26.1299 17.52 26.6699 17.25 27.2999 17.25C27.9299 17.25 28.3799 17.43 28.7399 17.97Z" fill="white"/>
</svg>
