<svg width="60" height="60" viewBox="0 0 60 60" fill="none" xmlns="http://www.w3.org/2000/svg">
<path d="M24.2 47C22.1 47 19.8 46.3 17.4 44.4C14.8 42.4 13.4 40 13 37.3C12.4 32.8 15.3 29 15.4 28.9L27.4 13.7C28.1 12.8 29.3 12.7 30.2 13.4C31.1 14.1 31.2 15.3 30.5 16.2L18.7 31.4C18.3 32 14.5 37.1 19.9 41.3C25.3 45.5 29.4 40.6 29.9 40L44.2 21.7C44.8 20.9 46.4 18.3 43.5 16C40.4 13.6 38 16.4 37.7 16.7L23.5 35C22.9 35.8 23.4 36.3 23.7 36.5C23.9 36.7 24.5 37.1 25.2 36.3L37.9 19.9C38.6 19 39.8 18.9 40.7 19.5C41.6 20.2 41.7 21.4 41.1 22.3L28.3 38.8C27.1 40.4 24.1 41.9 21.2 39.7C19.6 38.5 18.9 36.8 19.3 34.9C19.5 33.7 20.2 32.8 20.3 32.6L34.5 14.2C36.5 11.6 41.2 9.2 45.9 12.8C48.5 14.8 49.5 17.5 49 20.4C48.6 22.5 47.5 23.9 47.4 24.1L33 42.5C31.5 44.5 28.2 47 24.2 47Z" fill="#3F51B5"/>
</svg>
