<svg width="60" height="60" viewBox="0 0 60 60" fill="none" xmlns="http://www.w3.org/2000/svg">
<path d="M18.3333 24.1678H25.3333V33.5012H18.3333V24.1678Z" fill="#E69329"/>
<path d="M24.1667 31.1666H30V41.0833C30 42.6945 28.6945 44 27.0834 44C25.4722 44 24.1667 42.6945 24.1667 41.0833V31.1666ZM30 30H35.8334V39.9166C35.8334 41.5278 34.5279 42.8333 32.9167 42.8333C31.3055 42.8333 30 41.5278 30 39.9166V30ZM35.8334 27.6666H41.6667V37.5833C41.6667 39.1945 40.3612 40.5 38.75 40.5C37.1389 40.5 35.8334 39.1945 35.8334 37.5833V27.6666Z" fill="#E69329"/>
<path d="M21.8333 32.3334C21.8333 34.2654 23.4001 35.8334 25.3333 35.8334H47.5C49.4331 35.8334 51 34.2654 51 32.3334V18.3334C51 16.4014 49.4331 14.8334 47.5 14.8334H25.3333C23.4001 14.8334 21.8333 16.4014 21.8333 18.3334V32.3334Z" fill="#64B5F6"/>
<path d="M21.8333 19.5H51V24.1667H21.8333V19.5Z" fill="#37474F"/>
<path d="M24.1667 25.3334H48.6667V30H24.1667V25.3334Z" fill="#E3F2FD"/>
<path d="M34.6282 27.4146C35.9068 28.9966 35.3072 31.0371 33.9772 32.2504L23 41.6666C22.3362 42.2744 19.157 42.8333 18.4313 42.8333C14.9313 42.8333 9 42.8333 9 42.8333L17.5213 30.6848L23 31.1666L29.0958 27.2268C31.2402 25.5701 33.2993 25.8256 34.6282 27.4146Z" fill="#FFB74D"/>
<path d="M21.8333 25.989V17.1666C20.9817 17.1666 20.1265 17.1655 19.5572 17.4513L9 26.5V42.8333C27.6667 41.6666 19.5 32.3333 19.5 32.3333L21.8333 25.989Z" fill="#FFB74D"/>
<path d="M33.2795 30.9964C34.095 30.1634 34.0833 28.8287 33.2527 28.0109C32.4197 27.1954 31.0838 27.2082 30.2672 28.0389C29.4493 28.8707 32.4617 31.8282 33.2795 30.9964Z" fill="#FFCDD2"/>
</svg>
