<svg width="60" height="60" viewBox="0 0 60 60" fill="none" xmlns="http://www.w3.org/2000/svg">
<path d="M38.2429 24.4754C38.2429 24.4754 26.3804 16.439 24.1269 16.2303C21.8723 16.0239 19.5136 16.9325 19.5136 16.9325L28.9134 26.996L38.2429 24.4754Z" fill="#7986CB"/>
<path d="M4.79999 21.8089L11.8614 31.8948L18.3105 27.2249L8.19544 20.6871L4.79999 21.8089Z" fill="#3F51B5"/>
<path d="M15.5421 27.7353C15.5421 27.7353 35.2267 20.6972 40.63 19.0258C47.1142 17.0223 53.1026 19.7381 53.4693 20.9014C53.8055 21.9705 52.0828 23.7092 45.1505 25.8541C38.2181 27.9978 24.3861 33.2275 24.3861 33.2275C24.3861 33.2275 14.4386 36.3236 5.93182 31.9049C11.9531 29.0635 15.5421 27.7353 15.5421 27.7353Z" fill="#9FA8DA"/>
<path d="M38.9809 28.0483C38.7024 29.6098 32.5159 41.3021 30.6609 42.5899C28.807 43.8766 26.3045 44.2445 26.3045 44.2445C29.1805 32.6465 29.2246 32.6554 29.6162 30.4388C29.8935 28.8761 39.2593 26.4868 38.9809 28.0483Z" fill="#9FA8DA"/>
<path d="M51.5407 19.5093C50.6658 19.1256 49.5249 18.7801 48.2222 18.5569L48.7756 20.3495L51.5407 19.5093Z" fill="#283593"/>
<path d="M44.8714 19.1918L47.037 18.5285L47.6944 20.6748L45.5289 21.3382L44.8714 19.1918Z" fill="#283593"/>
<path d="M25.8133 29.3944C26.4384 29.3944 26.9452 28.8922 26.9452 28.2726C26.9452 27.6531 26.4384 27.1508 25.8133 27.1508C25.1883 27.1508 24.6815 27.6531 24.6815 28.2726C24.6815 28.8922 25.1883 29.3944 25.8133 29.3944Z" fill="#283593"/>
<path d="M30.0893 27.9237C30.7144 27.9237 31.2212 27.4215 31.2212 26.802C31.2212 26.1824 30.7144 25.6802 30.0893 25.6802C29.4643 25.6802 28.9575 26.1824 28.9575 26.802C28.9575 27.4215 29.4643 27.9237 30.0893 27.9237Z" fill="#283593"/>
<path d="M35.435 24.9611C35.6421 25.5478 35.3274 26.1861 34.74 26.3914C34.1492 26.5922 33.5041 26.2837 33.297 25.697C33.0944 25.1126 33.4056 24.472 33.9942 24.269C34.5884 24.0693 35.2324 24.3767 35.435 24.9611Z" fill="#283593"/>
<path d="M38.6448 24.9802C39.2698 24.9802 39.7766 24.478 39.7766 23.8584C39.7766 23.2389 39.2698 22.7366 38.6448 22.7366C38.0197 22.7366 37.5129 23.2389 37.5129 23.8584C37.5129 24.478 38.0197 24.9802 38.6448 24.9802Z" fill="#283593"/>
</svg>
