<svg width="60" height="60" viewBox="0 0 60 60" fill="none" xmlns="http://www.w3.org/2000/svg">
<path d="M41.55 20.1H28.35L25.05 16.8H16.8C14.985 16.8 13.5 18.285 13.5 20.1V39.9C13.5 41.715 14.985 43.2 16.8 43.2H42.375C43.7775 43.2 44.85 42.1275 44.85 40.725V23.4C44.85 21.585 43.365 20.1 41.55 20.1Z" fill="#FFA000"/>
<path d="M45.015 25.05H22.8225C21.255 25.05 19.8525 26.205 19.605 27.7725L16.8 43.2H42.9525C44.52 43.2 45.9225 42.045 46.17 40.4775L48.2325 28.9275C48.645 26.9475 47.0775 25.05 45.015 25.05Z" fill="#FFCA28"/>
</svg>
