<svg width="60" height="60" viewBox="0 0 60 60" fill="none" xmlns="http://www.w3.org/2000/svg">
<path fill-rule="evenodd" clip-rule="evenodd" d="M16.9091 31.9333C19.9211 31.9333 22.3636 29.4964 22.3636 26.4889C22.3636 23.4814 19.9211 21.0444 16.9091 21.0444C13.8949 21.0444 11.4545 23.4814 11.4545 26.4889C11.4545 29.4964 13.8949 31.9333 16.9091 31.9333ZM16.9091 34.1111C9.01964 34.1111 6 40.6444 6 40.6444V45H27.8182V40.6444C27.8182 40.6444 24.7975 34.1111 16.9091 34.1111ZM43.0909 34.1111C50.9793 34.1111 54 40.6444 54 40.6444V45H32.1818V40.6444C32.1818 40.6444 35.2015 34.1111 43.0909 34.1111ZM48.5454 26.4889C48.5454 29.4964 46.104 31.9333 43.0909 31.9333C40.0778 31.9333 37.6364 29.4964 37.6364 26.4889C37.6364 23.4814 40.0778 21.0444 43.0909 21.0444C46.104 21.0444 48.5454 23.4814 48.5454 26.4889Z" fill="#CFD8DC"/>
<path d="M36.5454 22.1333C36.5454 25.743 33.6153 28.6666 30 28.6666C26.3847 28.6666 23.4545 25.743 23.4545 22.1333C23.4545 18.5236 26.3847 15.6 30 15.6C33.6142 15.6 36.5454 18.5247 36.5454 22.1333Z" fill="#FFB74D"/>
<path d="M43.0909 39.5556C43.0909 39.5556 39.468 31.9333 30 31.9333C20.5309 31.9333 16.9091 39.5556 16.9091 39.5556V45H43.0909V39.5556Z" fill="#546E7A"/>
</svg>
