<svg width="60" height="60" viewBox="0 0 60 60" fill="none" xmlns="http://www.w3.org/2000/svg">
<path d="M39.4737 45C38.2105 45 37.1842 43.8947 37.1842 42.6315L37.8948 24.4736H41.0527L41.7632 42.6315C41.7632 43.8947 40.7369 45 39.4737 45Z" fill="#3F51B5"/>
<path d="M43.421 15H41.8421V23.6842C41.8421 24.1579 41.5263 24.4737 41.0526 24.4737C40.5789 24.4737 40.2632 24.1579 40.2632 23.6842V15H38.6842V23.6842C38.6842 24.1579 38.3684 24.4737 37.8947 24.4737C37.421 24.4737 37.1053 24.1579 37.1053 23.6842V15H35.5263C35.5263 15 33.9474 21.3947 33.9474 24.4737C33.9474 27.5526 36.3947 30 39.4737 30C42.5526 30 45 27.5526 45 24.4737C45 21.3947 43.421 15 43.421 15Z" fill="#3F51B5"/>
<path d="M25.2632 36C29.3684 34.9737 32.3684 31.2632 32.3684 26.8421C32.3684 22.8947 30.7895 15 30.7895 15H16.5789C16.5789 15 15 22.8947 15 26.8421C15 31.2632 18 34.9737 22.1053 36V40.8158C22.1053 42 21.3158 43.0263 20.1316 43.2632L16.5789 44.2105V45H30.7895V44.2105L27.2368 43.3421C26.0526 43.0263 25.2632 42 25.2632 40.8158V36Z" fill="#90CAF9"/>
<path d="M20.3684 31.6579C20.2105 31.6579 20.0526 31.5789 19.9737 31.5C18.3158 30.4737 17.3684 28.7368 17.3684 26.8421L18.1579 18.0789C18.2368 17.6842 18.5526 17.3684 19.0263 17.3684C19.5 17.4474 19.8158 17.7631 19.7368 18.2368L18.9474 26.921C18.9474 28.1842 19.6579 29.4474 20.7631 30.2368C21.1579 30.4737 21.2368 30.9474 21 31.3421C20.8421 31.5 20.6053 31.6579 20.3684 31.6579Z" fill="#BBDEFB"/>
</svg>
