<svg width="60" height="60" viewBox="0 0 60 60" fill="none" xmlns="http://www.w3.org/2000/svg">
<path fill-rule="evenodd" clip-rule="evenodd" d="M33.9075 24.7622C35.175 28.3622 31.275 36.5352 27.765 37.8L19.575 15.0325C26.6925 12.5027 30.105 13.9622 30.105 13.9622L33.9075 24.7622Z" fill="#FF8F00"/>
<path fill-rule="evenodd" clip-rule="evenodd" d="M14.7 31.7676C15.9675 35.3676 24.255 39.1622 27.765 37.8973L19.575 15.0325C12.4575 17.5622 10.8 20.8703 10.8 20.8703L14.7 31.7676Z" fill="#FFA000"/>
<path fill-rule="evenodd" clip-rule="evenodd" d="M29.2275 23.1081C29.2275 23.1081 27.0825 21.5514 24.1575 22.2324C24.1575 22.2324 24.45 20.1892 26.1075 20.1892C28.4475 20.0919 29.2275 23.1081 29.2275 23.1081Z" fill="#693D14"/>
<path fill-rule="evenodd" clip-rule="evenodd" d="M24.9375 29.8216C28.2525 28.654 30.3975 29.8216 30.3975 29.8216C30.3975 29.8216 27.6675 26.3189 24.1575 27.5837C20.6475 28.8486 20.745 33.227 20.745 33.227C20.745 33.227 21.6225 30.9891 24.9375 29.8216Z" fill="#693D14"/>
<path fill-rule="evenodd" clip-rule="evenodd" d="M17.235 27.3892C17.235 27.3892 17.82 24.7622 20.55 23.4973C20.55 23.4973 18.99 22.1351 17.7225 23.2054C15.9675 24.5676 17.235 27.3892 17.235 27.3892Z" fill="#693D14"/>
<path fill-rule="evenodd" clip-rule="evenodd" d="M46.29 40.719C45.12 44.8055 36.345 49.573 32.3475 48.4055L39.7575 22.719C47.7525 25.0541 49.8 28.5568 49.8 28.5568L46.29 40.719Z" fill="#FFB300"/>
<path fill-rule="evenodd" clip-rule="evenodd" d="M24.645 34.4919C23.475 38.5784 28.35 47.3351 32.3475 48.4054L39.7575 22.7189C31.7625 20.4811 28.155 22.3297 28.155 22.3297L24.645 34.4919Z" fill="#FFC107"/>
<path fill-rule="evenodd" clip-rule="evenodd" d="M44.2425 35.0757C44.2425 35.0757 42.78 33.0325 39.075 32.546C39.075 32.546 40.5375 31.0866 42.2925 31.573C44.34 32.1568 44.2425 35.0757 44.2425 35.0757Z" fill="#694A14"/>
<path fill-rule="evenodd" clip-rule="evenodd" d="M29.4225 30.7946C29.4225 30.7946 31.7625 29.8217 35.0775 31.3784C35.0775 31.3784 34.59 29.3352 32.835 28.8487C30.885 28.2649 29.4225 30.7946 29.4225 30.7946Z" fill="#694A14"/>
<path fill-rule="evenodd" clip-rule="evenodd" d="M35.0775 38.8703C30.885 37.7027 29.6175 34.8811 29.6175 34.8811C29.6175 34.8811 29.8125 40.3298 34.2975 41.5946C38.7825 42.8595 41.805 38.3838 41.805 38.3838C41.805 38.3838 39.27 40.1352 35.0775 38.8703Z" fill="#694A14"/>
</svg>
