<svg width="60" height="60" viewBox="0 0 60 60" fill="none" xmlns="http://www.w3.org/2000/svg">
<path fill-rule="evenodd" clip-rule="evenodd" d="M51 30.3C51 37.4245 45.277 43.2 38.2174 43.2C31.1577 43.2 25.4348 37.4245 25.4348 30.3C25.4348 23.1755 31.1577 17.4 38.2174 17.4C45.277 17.4 51 23.1755 51 30.3Z" fill="#006064"/>
<path fill-rule="evenodd" clip-rule="evenodd" d="M45.5217 30.3C45.5217 37.4245 39.7988 43.2 32.7391 43.2C25.6795 43.2 19.9565 37.4245 19.9565 30.3C19.9565 23.1755 25.6795 17.4 32.7391 17.4C39.7988 17.4 45.5217 23.1755 45.5217 30.3Z" fill="#00838F"/>
<path fill-rule="evenodd" clip-rule="evenodd" d="M40.0435 30.3C40.0435 37.4245 34.3205 43.2 27.2609 43.2C20.2012 43.2 14.4782 37.4245 14.4782 30.3C14.4782 23.1755 20.2012 17.4 27.2609 17.4C34.3205 17.4 40.0435 23.1755 40.0435 30.3Z" fill="#0097A7"/>
<path fill-rule="evenodd" clip-rule="evenodd" d="M34.5652 30.3C34.5652 37.4245 28.8423 43.2 21.7826 43.2C14.723 43.2 9 37.4245 9 30.3C9 23.1755 14.723 17.4 21.7826 17.4C28.8423 17.4 34.5652 23.1755 34.5652 30.3Z" fill="#00ACC1"/>
<path fill-rule="evenodd" clip-rule="evenodd" d="M41.1556 20.6075C43.8271 22.9719 45.5218 26.4328 45.5218 30.3001C45.5218 34.1673 43.8271 37.6282 41.1556 39.9935C45.2688 38.7247 48.2609 34.8657 48.2609 30.3001C48.2609 25.7344 45.2688 21.8754 41.1556 20.6075Z" fill="#EEEEEE"/>
<path fill-rule="evenodd" clip-rule="evenodd" d="M35.6773 20.6075C38.3489 22.9719 40.0435 26.4328 40.0435 30.3001C40.0435 34.1673 38.3489 37.6282 35.6773 39.9935C39.7906 38.7247 42.7826 34.8657 42.7826 30.3001C42.7826 25.7344 39.7906 21.8754 35.6773 20.6075Z" fill="#EEEEEE"/>
<path fill-rule="evenodd" clip-rule="evenodd" d="M30.1991 20.6075C32.8706 22.9719 34.5652 26.4328 34.5652 30.3001C34.5652 34.1673 32.8706 37.6282 30.1991 39.9935C34.3123 38.7247 37.3044 34.8657 37.3044 30.3001C37.3044 25.7344 34.3123 21.8754 30.1991 20.6075Z" fill="#EEEEEE"/>
<path fill-rule="evenodd" clip-rule="evenodd" d="M11.7391 30.3C11.7391 24.7023 16.2359 20.1643 21.7826 20.1643C27.3294 20.1643 31.8261 24.7023 31.8261 30.3C31.8261 35.8977 27.3294 40.4357 21.7826 40.4357C16.2359 40.4357 11.7391 35.8977 11.7391 30.3ZM20.8696 30.3C20.8696 30.8087 21.2786 31.2215 21.7826 31.2215C22.2866 31.2215 22.6957 30.8087 22.6957 30.3C22.6957 29.7914 22.2866 29.3786 21.7826 29.3786C21.2786 29.3786 20.8696 29.7914 20.8696 30.3Z" fill="#EEEEEE"/>
<path fill-rule="evenodd" clip-rule="evenodd" d="M20.8696 29.1768H22.6957V22.0072H20.8696V29.1768ZM26.9541 33.925L25.3754 35.5181L21.7817 31.8932L23.3603 30.301L26.9541 33.925Z" fill="black"/>
<path fill-rule="evenodd" clip-rule="evenodd" d="M19.9565 30.3C19.9565 29.2818 20.7737 28.4572 21.7826 28.4572C22.7915 28.4572 23.6087 29.2818 23.6087 30.3C23.6087 31.3182 22.7915 32.1429 21.7826 32.1429C20.7737 32.1429 19.9565 31.3182 19.9565 30.3ZM20.8696 30.3C20.8696 30.8086 21.2786 31.2214 21.7826 31.2214C22.2866 31.2214 22.6957 30.8086 22.6957 30.3C22.6957 29.7914 22.2866 29.3786 21.7826 29.3786C21.2786 29.3786 20.8696 29.7914 20.8696 30.3Z" fill="black"/>
</svg>
