<svg width="60" height="60" viewBox="0 0 60 60" fill="none" xmlns="http://www.w3.org/2000/svg">
<path d="M28.975 29H12V12H29L28.975 29Z" fill="#FFC107"/>
<path d="M29 31H12V48H29V31Z" fill="#7CB342"/>
<path d="M47.975 29H31V12H48L47.975 29Z" fill="#2196F3"/>
<path d="M48 31H31V48H48V31Z" fill="#1565C0"/>
<path d="M23 17C23 18.105 23.895 19 24.998 19C26.105 19 27 18.105 27 17C27 15.895 26.105 15 24.998 15C23.895 15 23 15.895 23 17Z" fill="#FFF9C4"/>
<path d="M19 18L13 26H25L19 18Z" fill="#D85700"/>
<path d="M24 21L19.875 26H28L24 21Z" fill="#EF7E03"/>
<path d="M18.487 35.518C18.487 34.413 19.386 33.52 20.5 33.52C21.614 33.52 22.514 34.413 22.514 35.518C22.514 36.625 20.5 39.52 20.5 39.52C20.5 39.52 18.487 36.625 18.487 35.518Z" fill="white"/>
<path d="M22.514 43.519C22.514 44.627 21.614 45.52 20.5 45.52C19.386 45.52 18.487 44.627 18.487 43.519C18.487 42.414 20.5 39.52 20.5 39.52C20.5 39.52 22.514 42.413 22.514 43.519Z" fill="white"/>
<path d="M16.008 39.252C15.045 38.697 14.715 37.476 15.27 36.518C15.825 35.561 17.057 35.233 18.021 35.789C18.984 36.342 20.5 39.52 20.5 39.52C20.5 39.52 16.971 39.803 16.008 39.252Z" fill="white"/>
<path d="M24.993 39.786C25.956 40.339 26.286 41.563 25.73 42.517C25.174 43.475 23.943 43.804 22.979 43.251C22.016 42.698 20.5 39.52 20.5 39.52C20.5 39.52 24.029 39.234 24.993 39.786Z" fill="white"/>
<path d="M24.993 39.252C25.956 38.697 26.286 37.476 25.73 36.518C25.174 35.561 23.943 35.233 22.979 35.789C22.016 36.341 20.5 39.52 20.5 39.52C20.5 39.52 24.029 39.803 24.993 39.252Z" fill="white"/>
<path d="M16.008 39.786C15.045 40.339 14.715 41.563 15.27 42.517C15.825 43.475 17.057 43.804 18.021 43.251C18.984 42.697 20.5 39.519 20.5 39.519C20.5 39.519 16.971 39.234 16.008 39.786Z" fill="white"/>
<path d="M22.5 39.597C22.5 40.7 21.605 41.593 20.5 41.593C19.395 41.593 18.5 40.699 18.5 39.597C18.5 38.488 19.395 37.593 20.5 37.593C21.605 37.593 22.5 38.487 22.5 39.597Z" fill="#FFC107"/>
<path d="M44 35H35V44H44V35Z" fill="#FFC107"/>
<path d="M45.8643 39.5042L39.5004 33.1394L33.1363 39.5026L39.5002 45.8674L45.8643 39.5042Z" fill="#FFC107"/>
<path d="M37 39.5C37 40.881 38.121 42 39.5 42C40.881 42 42 40.881 42 39.5C42 38.119 40.881 37 39.5 37C38.121 37 37 38.119 37 39.5Z" fill="#FFF8E1"/>
<path d="M33 16C33 17.106 33.895 18 34.999 18C36.105 18 37 17.106 37 16C37 14.895 36.105 14 34.999 14C33.895 14 33 14.895 33 16Z" fill="#FFF59D"/>
<path d="M42 24C43.6569 24 45 22.6569 45 21C45 19.3431 43.6569 18 42 18C40.3431 18 39 19.3431 39 21C39 22.6569 40.3431 24 42 24Z" fill="#E3F2FD"/>
<path d="M38 24.5C39.3807 24.5 40.5 23.3807 40.5 22C40.5 20.6193 39.3807 19.5 38 19.5C36.6193 19.5 35.5 20.6193 35.5 22C35.5 23.3807 36.6193 24.5 38 24.5Z" fill="#E3F2FD"/>
<path d="M40.4 25.9999C39.239 25.9999 42.74 21.8459 43.9 21.8459C45.059 21.8459 46 22.7759 46 23.9239C46 25.0709 45.06 25.9999 43.9 25.9999C42.74 25.9999 41.801 25.9999 40.4 25.9999Z" fill="#E3F2FD"/>
<path d="M32.965 23.9239C32.965 22.7759 33.905 21.8459 35.066 21.8459C38.565 21.8459 39.726 25.9999 38.565 25.9999C37.165 25.9999 36.225 25.9999 35.066 25.9999C33.905 25.9999 32.965 25.0709 32.965 23.9239Z" fill="#E3F2FD"/>
<path d="M43.399 25.9999H35V23.2299L43.399 21.8459V25.9999Z" fill="#E3F2FD"/>
</svg>
