<svg width="60" height="60" viewBox="0 0 60 60" fill="none" xmlns="http://www.w3.org/2000/svg">
<path d="M12 39L19 43.941V35.941L12 31V39Z" fill="#FF5722"/>
<path d="M12 20V28L19 32.941V24.941L12 20Z" fill="#29B6F6"/>
<path d="M21 45.353L29 51V43L21 37.353V45.353Z" fill="#FFD300"/>
<path d="M21 26.353V34.353L29 40V32L21 26.353Z" fill="#AB47BC"/>
<path d="M48 39L41 43.941V35.941L48 31V39Z" fill="#29B6F6"/>
<path d="M48 20V28L41 32.941V24.941L48 20Z" fill="#AB47BC"/>
<path d="M39 45.353L31 51V43L39 37.353V45.353Z" fill="#FF5722"/>
<path d="M39 26.353V34.353L31 40V32L39 26.353Z" fill="#FFD300"/>
<path d="M28.37 18.615L21.739 14.195C21.419 13.982 21.006 13.971 20.675 14.166L13.346 18.5L20.62 23.592L28.37 18.615Z" fill="#29B6F6"/>
<path d="M30.206 17.436L37.229 12.926L31.15 9.33C30.801 9.111 30.403 9.002 30.005 9.001V9C30.004 9 30.003 9 30.002 9C30.001 9 30.001 9 30 9V9.001C29.602 9.002 29.203 9.111 28.855 9.33L23.127 12.716L30.206 17.436Z" fill="#AB47BC"/>
<path d="M32.023 18.647L39.412 23.573L46.657 18.502L39.687 14.38C39.362 14.188 38.956 14.195 38.638 14.399L32.023 18.647Z" fill="#FFD300"/>
<path d="M29.636 20.18L22.392 24.832L30 30.157V30.16L30.003 30.158L30.006 30.16V30.157L37.654 24.803L30.732 20.188C30.4 19.968 29.97 19.965 29.636 20.18Z" fill="#FF5722"/>
</svg>
