<svg width="60" height="60" viewBox="0 0 60 60" fill="none" xmlns="http://www.w3.org/2000/svg">
<path d="M29.0572 20.621C28.9629 15.5052 32.7343 15.1263 35.7514 14.7473C39.3343 14.3684 41.3143 13.9894 41.3143 10.2H43.2C43.2 15.8842 39.0514 16.3578 35.94 16.6421C32.64 17.021 30.8486 17.3052 30.9429 20.5263L29.0572 20.621Z" fill="#546E7A"/>
<path d="M49.8 41.463C49.8 44.5894 47.9143 46.1999 45.0857 46.1999C42.2572 46.1999 39.4286 38.6209 35.6572 38.6209C31.8857 38.6209 29.0572 38.6209 25.2857 38.6209C21.5143 38.6209 17.7429 46.1999 14.9143 46.1999C12.0857 46.1999 10.2 44.5894 10.2 41.463C10.2 41.463 10.2 18.7262 18.6857 18.7262C22.4572 18.7262 23.4943 20.6209 25.2857 20.6209C29.1514 20.6209 29.9057 20.6209 33.7714 20.6209C35.5629 20.6209 37.5429 18.7262 41.3143 18.7262C49.8 18.7262 49.8 41.463 49.8 41.463Z" fill="#CFD8DC"/>
<path d="M46.1229 27.821C46.8772 28.5789 46.8772 29.7157 46.1229 30.4736L40.7486 35.8736C39.9943 36.6315 38.8629 36.6315 38.1086 35.8736L32.7343 30.4736C31.98 29.7157 31.98 28.5789 32.7343 27.821L38.1086 22.421C38.8629 21.6631 39.9943 21.6631 40.7486 22.421L46.1229 27.821Z" fill="white"/>
<path d="M41.3143 25.3579C41.3143 26.4 40.4657 27.2526 39.4286 27.2526C38.3914 27.2526 37.5429 26.4 37.5429 25.3579C37.5429 24.3158 38.3914 23.4631 39.4286 23.4631C40.4657 23.4631 41.3143 24.3158 41.3143 25.3579Z" fill="#FFC107"/>
<path d="M41.3143 32.9368C41.3143 33.979 40.4657 34.8316 39.4286 34.8316C38.3914 34.8316 37.5429 33.979 37.5429 32.9368C37.5429 31.8947 38.3914 31.0421 39.4286 31.0421C40.4657 31.0421 41.3143 31.8947 41.3143 32.9368Z" fill="#8BC34A"/>
<path d="M41.3143 29.1473C41.3143 28.1052 42.1628 27.2526 43.2 27.2526C44.2371 27.2526 45.0857 28.1052 45.0857 29.1473C45.0857 30.1894 44.2371 31.042 43.2 31.042C42.1628 31.042 41.3143 30.1894 41.3143 29.1473Z" fill="#F44336"/>
<path d="M37.5429 29.1473C37.5429 30.1894 36.6943 31.042 35.6571 31.042C34.62 31.042 33.7714 30.1894 33.7714 29.1473C33.7714 28.1052 34.62 27.2526 35.6571 27.2526C36.6943 27.2526 37.5429 28.1052 37.5429 29.1473Z" fill="#2196F3"/>
<path d="M18.6857 24.4105H22.4572V28.2H18.6857V24.4105Z" fill="#78909C"/>
<path d="M22.4572 28.2H26.2286V31.9894H22.4572V28.2Z" fill="#78909C"/>
<path d="M14.9143 28.2H18.6857V31.9894H14.9143V28.2Z" fill="#78909C"/>
<path d="M18.6857 31.9894H22.4572V35.7789H18.6857V31.9894Z" fill="#78909C"/>
</svg>
