<svg width="60" height="60" viewBox="0 0 60 60" fill="none" xmlns="http://www.w3.org/2000/svg">
<rect x="32.9142" y="19.25" width="11.6571" height="13.731" fill="#3E2723"/>
<path d="M42.3857 32C42.3857 32 40.2301 31.687 38.7428 31.687C37.2556 31.687 35.1 32 35.1 32C35.1 32 27.0857 33.527 27.0857 42H50.4C50.4 33.559 42.3857 32 42.3857 32Z" fill="#2196F3"/>
<path d="M38.7428 35.75C37.3449 35.75 35.3428 32 35.3428 32V27H42.1428V32C42.1428 32 40.1407 35.75 38.7428 35.75Z" fill="#EF8D3C"/>
<path fill-rule="evenodd" clip-rule="evenodd" d="M38.7429 31C42.3644 31 45.5429 27.728 45.5429 24V18C45.5429 12.274 31.9429 14.272 31.9429 18V24C31.9429 27.728 35.1204 31 38.7429 31ZM42.1429 32C42.1429 32 41.561 37 38.7429 37C35.9248 37 35.3429 32 35.3429 32C35.3429 32 37.1536 35 38.7429 35C40.3321 35 42.1429 32 42.1429 32Z" fill="#FFAA45"/>
<path d="M38.7429 39C42.1934 39 43.6641 35.068 44.0303 32.533C43.0716 32.14 42.3857 32 42.3857 32C42.3857 32 42.2857 31.986 42.1429 31.967V32C42.1429 32 41.561 37 38.7429 37C35.9247 37 35.3429 32 35.3429 32V31.967C35.2001 31.986 35.1 32 35.1 32C35.1 32 34.4142 32.137 33.4544 32.528C33.8197 35.063 35.2904 39 38.7429 39Z" fill="#0D47A1"/>
<path fill-rule="evenodd" clip-rule="evenodd" d="M35.8285 24C35.2923 24 34.8571 23.551 34.8571 23C34.8571 22.449 35.2923 22 35.8285 22C36.3648 22 36.8 22.449 36.8 23C36.8 23.551 36.3648 24 35.8285 24ZM41.6571 22C41.1209 22 40.6857 22.449 40.6857 23C40.6857 23.551 41.1209 24 41.6571 24C42.1934 24 42.6286 23.551 42.6286 23C42.6286 22.449 42.1934 22 41.6571 22Z" fill="#784719"/>
<path d="M38.7428 12C34.317 12 28.0571 14.089 28.0571 29L32.9143 32.98V22L41.6571 17L44.5714 21V33L49.4286 28C49.4286 24.981 49.1808 13.5 41.6571 13.5L40.6857 12H38.7428Z" fill="#4E342E"/>
<path fill-rule="evenodd" clip-rule="evenodd" d="M14.9429 28C15.7472 28 16.4 28.672 16.4 29.5C16.4 30.328 15.7472 31 14.9429 31C14.1385 31 13.4857 30.328 13.4857 29.5C13.4857 28.672 14.1385 28 14.9429 28ZM27.5714 31C28.3758 31 29.0286 30.328 29.0286 29.5C29.0286 28.672 28.3758 28 27.5714 28C26.7661 28 26.1143 28.672 26.1143 29.5C26.1143 30.328 26.7661 31 27.5714 31Z" fill="#FFA726"/>
<path d="M25.1428 38C25.1428 38 25.1428 42 21.2571 42C17.3714 42 17.3714 38 17.3714 38" fill="#FF9800"/>
<path d="M24.9 38L21.2571 38.77L17.6143 38C17.6143 38 9.59998 39.527 9.59998 48H32.9143C32.9143 39.559 24.9 38 24.9 38Z" fill="#4FC3F7"/>
<path d="M21.2571 42C17.3714 42 17.3714 38 17.3714 38V34H25.1428V38C25.1428 38 25.1428 42 21.2571 42Z" fill="#FF9800"/>
<path d="M28.0572 25.68C28.0572 19.801 14.4572 21.852 14.4572 25.68V30.071C14.4572 33.895 17.5006 37 21.2572 37C25.0127 37 28.0572 33.895 28.0572 30.07V25.68Z" fill="#FFB74D"/>
<path d="M21.2571 43.9999C24.2287 43.9999 26.6757 41.7079 27.0352 38.7499C26.1764 38.3519 25.478 38.1429 25.137 38.0569C25.1069 40.2379 23.3845 41.9999 21.2571 41.9999C19.1297 41.9999 17.4064 40.2379 17.3772 38.0549C17.0343 38.1409 16.3368 38.3479 15.4781 38.7429C15.8336 41.7049 18.2836 43.9999 21.2571 43.9999Z" fill="#01579B"/>
<path d="M21.2571 18C16.536 18 13.4857 22.313 13.4857 26.172V28L15.4286 30V26L24.3657 23L27.0857 26V30L29.0286 28V27.191C29.0286 23.973 28.2213 20.388 24.3657 19.599L23.5876 18H21.2571Z" fill="#795548"/>
<path fill-rule="evenodd" clip-rule="evenodd" d="M18.3428 30C17.8066 30 17.3714 29.551 17.3714 29C17.3714 28.449 17.8066 28 18.3428 28C18.8791 28 19.3143 28.449 19.3143 29C19.3143 29.551 18.8791 30 18.3428 30ZM24.1714 28C23.6352 28 23.2 28.449 23.2 29C23.2 29.551 23.6352 30 24.1714 30C24.7076 30 25.1428 29.551 25.1428 29C25.1428 28.449 24.7076 28 24.1714 28Z" fill="#784719"/>
</svg>
