<svg width="60" height="60" viewBox="0 0 60 60" fill="none" xmlns="http://www.w3.org/2000/svg">
<rect x="9.59998" y="16.7648" width="41.4" height="28.6588" fill="#1976D2"/>
<path d="M30.3 47.4001C33.0219 47.4001 35.2285 45.1878 35.2285 42.4589C35.2285 39.7299 33.0219 37.5177 30.3 37.5177C27.578 37.5177 25.3714 39.7299 25.3714 42.4589C25.3714 45.1878 27.578 47.4001 30.3 47.4001Z" fill="#1976D2"/>
<path d="M30.3 45.4236C31.9332 45.4236 33.2571 44.0962 33.2571 42.4588C33.2571 40.8215 31.9332 39.4941 30.3 39.4941C28.6668 39.4941 27.3428 40.8215 27.3428 42.4588C27.3428 44.0962 28.6668 45.4236 30.3 45.4236Z" fill="#263238"/>
<path d="M46.0714 13.8L31.2857 16.7648H29.3143L14.5286 13.8L12.5571 18.7412V42.4589H48.0428V18.7412L46.0714 13.8Z" fill="#CFD8DC"/>
<path fill-rule="evenodd" clip-rule="evenodd" d="M29.3143 16.7648H31.2857V42.4589H29.3143L29.3143 42.4589H12.5571L14.5286 39.4942H29.3143L29.3143 16.7648ZM46.0714 39.4942H31.2857V42.4589H48.0428L46.0714 39.4942Z" fill="#B0BEC5"/>
<path fill-rule="evenodd" clip-rule="evenodd" d="M29.3143 42.4589C29.3143 39.4942 14.5286 39.4942 14.5286 39.4942V13.8C14.5286 13.8 29.3143 13.8 29.3143 16.7648V42.4589ZM31.2857 42.4589C31.2857 39.4942 46.0714 39.4942 46.0714 39.4942V13.8C46.0714 13.8 31.2857 13.8 31.2857 16.7648V42.4589Z" fill="#ECEFF1"/>
<path fill-rule="evenodd" clip-rule="evenodd" d="M38.6785 18.7412C39.4671 18.7412 40.1571 19.433 40.1571 20.2236C40.1571 21.0142 39.4671 21.7059 38.6785 21.7059C37.89 21.7059 37.2 21.0142 37.2 20.2236C37.2 19.433 37.89 18.7412 38.6785 18.7412ZM37.2985 34.553H40.0585V23.6824H37.2985V34.553Z" fill="#2196F3"/>
</svg>
