<svg width="60" height="60" viewBox="0 0 60 60" fill="none" xmlns="http://www.w3.org/2000/svg">
<path d="M15.5289 43.9712L44.6973 14.8028L45.921 16.0265L16.7526 45.1949L15.5289 43.9712Z" fill="#607D8B"/>
<path d="M24.0364 35.496L27.6829 31.8504L28.9065 33.0743L25.2599 36.7198L24.0364 35.496Z" fill="#90A4AE"/>
<path d="M32.5436 26.9269L36.1897 23.2797L37.4142 24.5038L33.768 28.151L32.5436 26.9269Z" fill="#90A4AE"/>
<path d="M33.1556 14.0896L31.9401 15.3136C31.6039 15.6522 31.6039 16.1991 31.9401 16.5368L44.0939 28.7768C44.4293 29.1153 44.9731 29.1153 45.3094 28.7768L46.5248 27.5528C46.861 27.2142 46.861 26.6656 46.5248 26.3288L34.3711 14.0896C34.0366 13.7511 33.4918 13.7511 33.1556 14.0896Z" fill="#5F6EC4"/>
<path d="M28.2947 45.9111L29.5101 44.6871C29.8447 44.3486 29.8447 43.8017 29.5101 43.4631L17.3564 31.224C17.021 30.8863 16.4771 30.8863 16.1409 31.224L14.9255 32.448C14.5901 32.7857 14.5901 33.3351 14.9255 33.672L27.0784 45.9111C27.4146 46.2488 27.9593 46.2488 28.2947 45.9111Z" fill="#606FC4"/>
<path d="M36.1951 12.2545L34.9788 13.4768C34.6435 13.8145 34.6435 14.364 34.9788 14.7025L45.9171 25.7185C46.2525 26.0554 46.7972 26.0554 47.1326 25.7185L48.348 24.4928C48.6834 24.1551 48.6834 23.6065 48.348 23.2688L37.4106 12.2545C37.0744 11.916 36.5296 11.916 36.1951 12.2545Z" fill="#FFB74D"/>
<path d="M25.256 47.7455L26.4723 46.5232C26.8077 46.1846 26.8077 45.636 26.4723 45.2975L15.5332 34.2823C15.1978 33.9454 14.6531 33.9454 14.3177 34.2823L13.1023 35.508C12.766 35.8457 12.766 36.3934 13.1023 36.732L24.0405 47.7463C24.3768 48.084 24.9215 48.084 25.256 47.7455Z" fill="#FFB74D"/>
<path d="M38.6252 12.2545C38.289 12.5914 38.289 13.14 38.6252 13.4768L47.1326 22.0448C47.4671 22.3834 48.0127 22.3834 48.348 22.0448C48.6834 21.7063 48.6834 21.1577 48.348 20.8208L39.8407 12.2545C39.5053 11.916 38.9606 11.916 38.6252 12.2545Z" fill="#5EC08F"/>
<path d="M22.8259 47.7454C23.1613 47.4085 23.1613 46.86 22.8259 46.5231L14.3186 37.9551C13.9841 37.6165 13.4385 37.6165 13.1031 37.9551C12.7669 38.2937 12.7669 38.8422 13.1031 39.1782L21.6105 47.7454C21.9458 48.084 22.4897 48.084 22.8259 47.7454Z" fill="#5EC08F"/>
</svg>
