<svg width="60" height="60" viewBox="0 0 60 60" fill="none" xmlns="http://www.w3.org/2000/svg">
<path d="M42.8 34.2L31.5 22.9L34 21L32 19H18.5L10 17V33L15.9 34L27.9 46.2C28.7 47 29.9 47 30.7 46.2C31.5 45.4 31.5 44.2 30.7 43.4L30.6 43.3C30.4 43.1 30.4 42.8 30.6 42.6C30.8 42.4 31.1 42.4 31.3 42.6L32.1 43.4C32.9 44.2 34.1 44.2 34.9 43.4C35.7 42.6 35.7 41.4 34.9 40.6L34.6 40.3C34.4 40.1 34.4 39.8 34.6 39.6C34.8 39.4 35.1 39.4 35.3 39.6L36.3 40.6C37.1 41.4 38.3 41.4 39.1 40.6C39.9 39.8 39.9 38.6 39.1 37.8L38.8 37.5C38.6 37.3 38.6 37 38.8 36.8C39 36.6 39.3 36.6 39.5 36.8L39.8 37.1C40.6 37.9 41.8 37.9 42.6 37.1C43.6 36.3 43.6 35 42.8 34.2Z" fill="#FFB74D"/>
<path d="M33.4 24.9L28.7 26.7C25.9 27.8 22.8 27.1 20.8 24.9C20.4 24.5 20.5 23.8 21.1 23.5L34.4 17C36 16.2 37.9 16.4 39.3 17.4L39.7 17.7C40.8 18.5 42.3 18.7 43.6 18.4L50 17V33L44.1 34L43.3 34.8L33.4 24.9Z" fill="#C77600"/>
<path d="M24 45C24.8 45.8 26 45.8 26.8 45L27.5 44.3C28.3 43.5 28.3 42.3 27.5 41.5C26.7 40.7 25.5 40.7 24.7 41.5L24 42.2C23.2 43 23.2 44.2 24 45Z" fill="#C77600"/>
<path d="M21.1 42.2C21.9 43 23.1 43 23.9 42.2L24.6 41.5C25.4 40.7 25.4 39.5 24.6 38.7C23.8 37.9 22.6 37.9 21.8 38.7L21.1 39.4C20.4 40.1 20.4 41.4 21.1 42.2Z" fill="#C77600"/>
<path d="M18.3 39.4C19.1 40.2 20.3 40.2 21.1 39.4L21.8 38.7C22.6 37.9 22.6 36.7 21.8 35.9C21 35.1 19.8 35.1 19 35.9L18.3 36.6C17.5 37.3 17.5 38.6 18.3 39.4Z" fill="#C77600"/>
<path d="M15.5 36.5C16.3 37.3 17.5 37.3 18.3 36.5L19 35.8C19.8 35 19.8 33.8 19 33C18.2 32.2 17 32.2 16.2 33L15.5 33.7C14.7 34.5 14.7 35.7 15.5 36.5Z" fill="#C77600"/>
<path d="M26.5 43.9L25 42.5L25.4 42.1C25.8 41.7 26.3 41.7 26.7 42.1L26.8 42.2C27.2 42.6 27.2 43.1 26.8 43.5L26.5 43.9Z" fill="#EBAE55"/>
<path d="M23.6 41.1L22.2 39.7L22.6 39.3C23 38.9 23.5 38.9 23.9 39.3L24 39.4C24.4 39.8 24.4 40.3 24 40.7L23.6 41.1Z" fill="#EBAE55"/>
<path d="M20.8 38.3L19.4 36.9L19.8 36.5C20.2 36.1 20.7 36.1 21.1 36.5L21.2 36.6C21.6 37 21.6 37.5 21.2 37.9L20.8 38.3Z" fill="#EBAE55"/>
<path d="M18 35.5L16.6 34L17 33.6C17.4 33.2 17.9 33.2 18.3 33.6L18.4 33.7C18.8 34.1 18.8 34.6 18.4 35L18 35.5Z" fill="#EBAE55"/>
</svg>
