<svg width="60" height="60" viewBox="0 0 60 60" fill="none" xmlns="http://www.w3.org/2000/svg">
<path d="M40.875 14.2909H32.0625C32.0625 15.2544 31.2729 16.0363 30.3 16.0363C29.3271 16.0363 28.5375 15.2544 28.5375 14.2909H19.725C17.7783 14.2909 16.2 15.8539 16.2 17.7818V45.7091C16.2 47.6369 17.7783 49.2 19.725 49.2H40.875C42.8217 49.2 44.4 47.6369 44.4 45.7091V17.7818C44.4 15.8539 42.8217 14.2909 40.875 14.2909Z" fill="#455A64"/>
<path d="M40.875 46.5819H19.725C19.2386 46.5819 18.8438 46.1909 18.8438 45.7092V17.7819C18.8438 17.3002 19.2386 16.9092 19.725 16.9092H40.875C41.3615 16.9092 41.7563 17.3002 41.7563 17.7819V45.7092C41.7563 46.1909 41.3615 46.5819 40.875 46.5819Z" fill="white"/>
<path d="M32.0625 14.2909C32.0625 15.2553 31.2738 16.0363 30.3 16.0363C29.3262 16.0363 28.5375 15.2553 28.5375 14.2909H22.3688V17.7818C22.3688 18.7462 23.1575 19.5273 24.1313 19.5273H36.4688C37.4426 19.5273 38.2313 18.7462 38.2313 17.7818V14.2909H32.0625Z" fill="#90A4AE"/>
<path fill-rule="evenodd" clip-rule="evenodd" d="M26.775 14.291C26.775 12.3657 28.356 10.8 30.3 10.8C32.2441 10.8 33.825 12.3657 33.825 14.291C33.825 16.2162 32.2441 17.7819 30.3 17.7819C28.356 17.7819 26.775 16.2162 26.775 14.291ZM28.5375 14.291C28.5375 15.2545 29.3271 16.0364 30.3 16.0364C31.2729 16.0364 32.0625 15.2545 32.0625 14.291C32.0625 13.3275 31.2729 12.5455 30.3 12.5455C29.3271 12.5455 28.5375 13.3275 28.5375 14.291Z" fill="#90A4AE"/>
<rect x="32.9438" y="26.509" width="5.2875" height="1.74546" fill="#CFD8DC"/>
<rect x="32.9438" y="23.0182" width="5.2875" height="1.74545" fill="#CFD8DC"/>
<rect x="32.9438" y="30" width="5.2875" height="1.74546" fill="#CFD8DC"/>
<rect x="22.3688" y="33.4908" width="15.8625" height="1.74546" fill="#CFD8DC"/>
<rect x="22.3688" y="36.9818" width="15.8625" height="1.74546" fill="#CFD8DC"/>
<rect x="22.3688" y="40.4728" width="15.8625" height="1.74545" fill="#CFD8DC"/>
<rect x="22.3688" y="25.6364" width="8.8125" height="3.49091" fill="#F44336"/>
<rect x="25.0125" y="23.0182" width="3.525" height="8.72728" fill="#F44336"/>
</svg>
