<svg width="60" height="60" viewBox="0 0 60 60" fill="none" xmlns="http://www.w3.org/2000/svg">
<path fill-rule="evenodd" clip-rule="evenodd" d="M14.88 45.12C16.5 46.74 18.84 47.55 22.26 47.55C23.7 47.55 25.41 47.37 27.3 47.1H32.61C39.27 48 43.14 47.46 45.39 45.21C47.64 43.05 48.09 39.27 47.1 32.61V27.48C48 20.37 47.46 16.5 45.3 14.34C42.87 11.91 38.46 12 32.61 12.9C32.359 12.9627 30.883 12.938 29.6461 12.9172C29.109 12.9082 28.617 12.9 28.29 12.9H27.39C20.01 12 16.14 12.45 14.07 14.61C11.82 16.95 11.91 20.91 12.9 27.39V32.16V32.61C11.91 39 12.54 42.87 14.88 45.12ZM32.79 45.3H27.21C21.45 46.2 17.94 45.75 16.14 43.86C14.25 41.97 13.8 38.46 14.7 32.79V32.16V27.12C13.8 21.18 13.62 17.67 15.33 15.87C16.95 14.25 20.46 13.89 27.21 14.7H27.3H28.2C30.9 14.79 32.43 14.79 32.79 14.61C39.18 13.62 42.33 13.89 44.04 15.51C45.75 17.22 46.11 20.82 45.3 27.12C45.21 27.48 45.21 32.34 45.3 32.79C46.2 38.73 45.84 42.24 44.13 43.95C42.33 45.75 38.82 46.2 32.79 45.3Z" fill="#607D8B"/>
<path fill-rule="evenodd" clip-rule="evenodd" d="M14.7 30C14.7 21.54 21.54 14.7 30 14.7C38.46 14.7 45.3 21.54 45.3 30C45.3 38.4599 38.46 45.2999 30 45.2999C21.54 45.2999 14.7 38.4599 14.7 30ZM21.9 30C21.9 34.5 25.5 38.0999 30 38.0999C34.5 38.0999 38.1 34.5 38.1 30C38.1 25.5 34.5 21.9 30 21.9C25.5 21.9 21.9 25.5 21.9 30Z" fill="#90CAF9"/>
<path fill-rule="evenodd" clip-rule="evenodd" d="M27.3 22.35V14.97C28.2 14.79 29.1 14.7 30 14.7C30.9 14.7 31.8 14.79 32.7 14.97V22.35C31.89 22.08 30.9 21.9 30 21.9C29.1 21.9 28.11 22.08 27.3 22.35ZM14.97 32.7H22.35C22.08 31.89 21.9 30.9 21.9 30C21.9 29.1 22.08 28.11 22.35 27.3H14.97C14.79 28.2 14.7 29.1 14.7 30C14.7 30.9 14.79 31.8 14.97 32.7ZM37.65 32.7C37.92 31.89 38.1 30.9 38.1 30C38.1 29.1 37.92 28.11 37.65 27.3H45.03C45.21 28.2 45.3 29.1 45.3 30C45.3 30.9 45.21 31.8 45.03 32.7H37.65ZM32.7 45.03V37.65C31.89 37.92 30.9 38.1 30 38.1C29.1 38.1 28.11 37.92 27.3 37.65V45.03C28.2 45.2099 29.1 45.2999 30 45.2999C30.9 45.2999 31.8 45.2099 32.7 45.03Z" fill="#F44336"/>
<path d="M27.3 12.9H32.7V19.2H27.3V12.9Z" fill="#F44336"/>
<path d="M41.7 27.3H47.1V32.7H41.7V27.3Z" fill="#F44336"/>
<path d="M12.9 27.3H17.4V32.7H12.9V27.3Z" fill="#F44336"/>
<path d="M27.3 42.6H32.7V47.1H27.3V42.6Z" fill="#F44336"/>
</svg>
