<svg width="60" height="60" viewBox="0 0 60 60" fill="none" xmlns="http://www.w3.org/2000/svg">
<path d="M30 49.2C38.4831 49.2 45.36 48.1254 45.36 46.8C45.36 45.4745 38.4831 44.4 30 44.4C21.5169 44.4 14.64 45.4745 14.64 46.8C14.64 48.1254 21.5169 49.2 30 49.2Z" fill="#E2A305"/>
<path d="M18.48 28.08C18.48 30.2016 16.7616 31.92 14.64 31.92C12.5184 31.92 10.8 30.2016 10.8 28.08C10.8 25.9584 12.5184 24.24 14.64 24.24C16.7616 24.24 18.48 25.9584 18.48 28.08Z" fill="#2E7D32"/>
<path d="M33.8573 28.08C33.8573 30.2016 32.1389 31.92 30.0173 31.92C27.8957 31.92 26.1773 30.2016 26.1773 28.08C26.1773 25.9584 27.8957 24.24 30.0173 24.24C32.1389 24.24 33.8573 25.9584 33.8573 28.08Z" fill="#2E7D32"/>
<path d="M49.2 28.08C49.2 30.2016 47.4816 31.92 45.36 31.92C43.2384 31.92 41.52 30.2016 41.52 28.08C41.52 25.9584 43.2384 24.24 45.36 24.24C47.4816 24.24 49.2 25.9584 49.2 28.08Z" fill="#2E7D32"/>
<path d="M41.52 28.08C41.52 30.2016 39.8016 31.92 37.68 31.92C35.5584 31.92 33.84 30.2016 33.84 28.08C33.84 25.9584 35.5584 24.24 37.68 24.24C39.8016 24.24 41.52 25.9584 41.52 28.08Z" fill="#FFA000"/>
<path d="M26.1773 28.08C26.1773 25.9584 24.4589 24.24 22.3373 24.24C20.2157 24.24 18.4973 25.9584 18.4973 28.08C18.4973 30.2016 20.2157 31.92 22.3373 31.92C24.4589 31.92 26.1773 30.2016 26.1773 28.08Z" fill="#FFA000"/>
<path d="M30 12.7152C30 12.7152 29.9309 12.72 29.8099 12.72C11.76 12.72 10.8 28.08 10.8 28.08H49.2C49.2 28.08 48.24 12.7152 30 12.7152Z" fill="#4CAF50"/>
<path d="M30.0173 12.7152C30.0173 12.7152 26.1773 16.56 26.1773 28.08H18.4973C18.4973 28.08 17.5373 16.5552 30.0173 12.7152Z" fill="#FDD835"/>
<path d="M30 12.7152C30 12.7152 33.84 16.56 33.84 28.08H41.52C41.52 28.08 42.48 16.5552 30 12.7152Z" fill="#FDD835"/>
<path d="M30.96 12.72C30.96 13.2509 29.04 13.2509 29.04 12.72V11.76C29.04 11.2291 29.4691 10.8 30 10.8C30.5309 10.8 30.96 11.2291 30.96 11.76V12.72Z" fill="#455A64"/>
<path d="M30 31.92C29.6659 31.92 29.3482 31.8634 29.04 31.7837V45.36C29.04 45.36 29.04 46.32 30 46.32C30.96 46.32 30.96 45.36 30.96 45.36V31.7837C30.6518 31.8634 30.3341 31.92 30 31.92Z" fill="#455A64"/>
</svg>
