<svg width="60" height="60" viewBox="0 0 60 60" fill="none" xmlns="http://www.w3.org/2000/svg">
<path fill-rule="evenodd" clip-rule="evenodd" d="M48.6 39.6V24.24C48.6 19.9987 45.1715 16.56 40.9428 16.56H20.8428C16.6142 16.56 13.1857 19.9987 13.1857 24.24V39.6H48.6Z" fill="#2196F3"/>
<path fill-rule="evenodd" clip-rule="evenodd" d="M16.0571 38.64C16.0571 39.1699 15.6283 39.6 15.1 39.6H9.35714C8.82879 39.6 8.39999 39.1699 8.39999 38.64C8.39999 38.1101 8.82879 37.68 9.35714 37.68H15.1C15.6283 37.68 16.0571 38.1101 16.0571 38.64Z" fill="#2196F3"/>
<path fill-rule="evenodd" clip-rule="evenodd" d="M20.8429 18.48C17.6757 18.48 15.1 21.0633 15.1 24.24V37.68H26.5857V24.24C26.5857 21.0633 24.01 18.48 20.8429 18.48Z" fill="#0D47A1"/>
<rect x="32.3286" y="10.8" width="5.74286" height="3.84" fill="#FF3D00"/>
<rect x="32.3286" y="12.72" width="1.91428" height="10.56" fill="#FF3D00"/>
<path fill-rule="evenodd" clip-rule="evenodd" d="M33.2857 26.16C34.3429 26.16 35.2 25.3004 35.2 24.24C35.2 23.1796 34.3429 22.32 33.2857 22.32C32.2285 22.32 31.3714 23.1796 31.3714 24.24C31.3714 25.3004 32.2285 26.16 33.2857 26.16Z" fill="#FF3D00"/>
<path fill-rule="evenodd" clip-rule="evenodd" d="M33.2857 25.2C33.8143 25.2 34.2428 24.7702 34.2428 24.24C34.2428 23.7098 33.8143 23.28 33.2857 23.28C32.7571 23.28 32.3286 23.7098 32.3286 24.24C32.3286 24.7702 32.7571 25.2 33.2857 25.2Z" fill="#DD2C00"/>
<rect x="29.4572" y="39.6" width="4.78572" height="9.6" fill="#FFCC80"/>
<rect x="29.4572" y="39.6" width="4.78572" height="1.92" fill="#FFA726"/>
<path fill-rule="evenodd" clip-rule="evenodd" d="M17.9714 27.12V35.76C17.9714 36.744 18.9046 37.68 19.8857 37.68H26.5857V25.2H19.8857C18.9046 25.2 17.9714 26.136 17.9714 27.12Z" fill="#CFD8DC"/>
<path fill-rule="evenodd" clip-rule="evenodd" d="M17.9714 27.12V28.08L26.5857 34.8V32.88L18.1801 26.3223C18.0508 26.5728 17.9714 26.8426 17.9714 27.12Z" fill="#78909C"/>
</svg>
