<svg width="60" height="60" viewBox="0 0 60 60" fill="none" xmlns="http://www.w3.org/2000/svg">
<rect x="18.339" y="31.4581" width="2.13322" height="15.8925" transform="rotate(-19.6527 18.339 31.4581)" fill="#1565C0"/>
<path fill-rule="evenodd" clip-rule="evenodd" d="M45.04 46.32L39.7067 31.6L30 16.9867L20.2934 31.6L14.96 46.32L13.04 45.68L18.48 30.4267L30 13.1467L41.6267 30.7467L46.96 45.68L45.04 46.32Z" fill="#1565C0"/>
<rect x="34.3419" y="45.61" width="15.8929" height="2.13328" transform="rotate(-70.3601 34.3419 45.61)" fill="#1565C0"/>
<path fill-rule="evenodd" clip-rule="evenodd" d="M34.2667 15.0667C34.2667 17.4133 32.3467 19.3333 30 19.3333C27.6533 19.3333 25.7333 17.4133 25.7333 15.0667C25.7333 12.72 27.6533 10.8 30 10.8C32.3467 10.8 34.2667 12.72 34.2667 15.0667Z" fill="#1E88E5"/>
<path fill-rule="evenodd" clip-rule="evenodd" d="M23.6 31.0666C23.6 33.4133 21.68 35.3333 19.3333 35.3333C16.9867 35.3333 15.0667 33.4133 15.0667 31.0666C15.0667 28.7199 16.9867 26.7999 19.3333 26.7999C21.68 26.7999 23.6 28.7199 23.6 31.0666Z" fill="#1E88E5"/>
<path fill-rule="evenodd" clip-rule="evenodd" d="M44.9334 31.0666C44.9334 33.4133 43.0134 35.3333 40.6667 35.3333C38.32 35.3333 36.4 33.4133 36.4 31.0666C36.4 28.7199 38.32 26.7999 40.6667 26.7999C43.0134 26.7999 44.9334 28.7199 44.9334 31.0666Z" fill="#1E88E5"/>
<path fill-rule="evenodd" clip-rule="evenodd" d="M17.2 46C17.2 47.8134 15.8133 49.2 14 49.2C12.1867 49.2 10.8 47.8134 10.8 46C10.8 44.1867 12.1867 42.8 14 42.8C15.8133 42.8 17.2 44.1867 17.2 46Z" fill="#1E88E5"/>
<path fill-rule="evenodd" clip-rule="evenodd" d="M27.8666 46C27.8666 47.8134 26.48 49.2 24.6666 49.2C22.8533 49.2 21.4666 47.8134 21.4666 46C21.4666 44.1867 22.8533 42.8 24.6666 42.8C26.48 42.8 27.8666 44.1867 27.8666 46Z" fill="#1E88E5"/>
<path fill-rule="evenodd" clip-rule="evenodd" d="M38.5333 46C38.5333 47.8134 37.1467 49.2 35.3333 49.2C33.52 49.2 32.1333 47.8134 32.1333 46C32.1333 44.1867 33.52 42.8 35.3333 42.8C37.1467 42.8 38.5333 44.1867 38.5333 46Z" fill="#1E88E5"/>
<path fill-rule="evenodd" clip-rule="evenodd" d="M49.2 46C49.2 47.8134 47.8133 49.2 46 49.2C44.1867 49.2 42.8 47.8134 42.8 46C42.8 44.1867 44.1867 42.8 46 42.8C47.8133 42.8 49.2 44.1867 49.2 46Z" fill="#1E88E5"/>
</svg>
