<svg width="60" height="60" viewBox="0 0 60 60" fill="none" xmlns="http://www.w3.org/2000/svg">
<path fill-rule="evenodd" clip-rule="evenodd" d="M47.6477 41.385L29.8741 23.707L22.7649 30.778L28.0161 36H32.1081V40H36.1297V44H40.1514V48H46.6463L49.0693 45.628L47.6477 41.385Z" fill="#FFA000"/>
<path fill-rule="evenodd" clip-rule="evenodd" d="M14.9449 30.072C11.0187 26.165 11.0187 19.835 14.9449 15.929C18.872 12.023 25.2362 12.023 29.1643 15.929C33.0904 19.836 33.0904 26.166 29.1643 30.072C25.2362 33.977 18.872 33.977 14.9449 30.072ZM16.9044 22.121C18.0827 23.292 19.993 23.292 21.1703 22.121C22.3476 20.95 22.3476 19.05 21.1703 17.878C19.993 16.707 18.0827 16.707 16.9044 17.878C15.727 19.05 15.727 20.95 16.9044 22.121Z" fill="#FFA000"/>
<path fill-rule="evenodd" clip-rule="evenodd" d="M29.8738 29.3646L31.2956 27.9504L49.0687 45.6279L47.6469 47.0421L29.8738 29.3646Z" fill="#D67C05"/>
<path fill-rule="evenodd" clip-rule="evenodd" d="M33.3539 27.167L31.7593 25.582C31.3189 27.226 30.4593 28.781 29.1633 30.071C27.8663 31.361 26.3019 32.216 24.6501 32.653L26.2497 34.243C27.8573 33.651 29.3363 32.727 30.586 31.485C31.8548 30.223 32.7687 28.743 33.3539 27.167Z" fill="#D67C05"/>
</svg>
