<svg width="60" height="60" viewBox="0 0 60 60" fill="none" xmlns="http://www.w3.org/2000/svg">
<path d="M30 33.05L39.1429 23.8833L48.2857 33.05L39.1429 42.2166L30 33.05Z" fill="#FF9800"/>
<path d="M32.7429 26.6334H45.5429V39.4667H32.7429V26.6334Z" fill="#FF9800"/>
<path d="M34.5714 33.0499C34.5714 35.5818 36.6176 37.6333 39.1429 37.6333C41.6681 37.6333 43.7143 35.5818 43.7143 33.0499C43.7143 30.5144 41.6681 28.4666 39.1429 28.4666C36.6176 28.4666 34.5714 30.5144 34.5714 33.0499Z" fill="#FFEB3B"/>
<rect x="22.6857" y="30.3" width="2.74286" height="6.41667" fill="#795548"/>
<path d="M27.2572 20.675C27.2572 21.94 26.2332 22.9666 24.9714 22.9666C23.7097 22.9666 22.6857 21.94 22.6857 20.675C22.6857 19.41 23.7097 18.3833 24.9714 18.3833C26.2332 18.3833 27.2572 19.41 27.2572 20.675Z" fill="#689F38"/>
<path d="M30 28.4667C30 29.9856 28.7721 31.2167 27.2571 31.2167C25.7422 31.2167 24.5143 29.9856 24.5143 28.4667C24.5143 26.9478 25.7422 25.7167 27.2571 25.7167C28.7721 25.7167 30 26.9478 30 28.4667Z" fill="#689F38"/>
<path d="M30.9143 25.7166C30.9143 26.7295 30.096 27.5499 29.0857 27.5499C28.0755 27.5499 27.2572 26.7295 27.2572 25.7166C27.2572 24.7037 28.0755 23.8832 29.0857 23.8832C30.096 23.8832 30.9143 24.7037 30.9143 25.7166Z" fill="#689F38"/>
<path d="M30 22.5083C30 23.7751 28.9778 24.7999 27.7143 24.7999C26.4508 24.7999 25.4286 23.7751 25.4286 22.5083C25.4286 21.2414 26.4508 20.2166 27.7143 20.2166C28.9778 20.2166 30 21.2414 30 22.5083Z" fill="#689F38"/>
<path d="M26.3428 29.8416C26.3428 31.1066 25.3189 32.1333 24.0571 32.1333C22.7954 32.1333 21.7714 31.1066 21.7714 29.8416C21.7714 28.5766 22.7954 27.5499 24.0571 27.5499C25.3189 27.5499 26.3428 28.5766 26.3428 29.8416Z" fill="#689F38"/>
<path d="M28.1714 25.0622C28.1714 22.8934 26.3282 21.1334 24.0572 21.1334C21.7861 21.1334 19.9429 22.8934 19.9429 25.0622C19.9429 27.231 21.7861 28.991 24.0572 28.991C26.3282 28.991 28.1714 27.231 28.1714 25.0622Z" fill="#689F38"/>
<path d="M24.5143 28.4667C24.5143 29.9847 23.2855 31.2167 21.7714 31.2167C20.2574 31.2167 19.0286 29.9847 19.0286 28.4667C19.0286 26.9487 20.2574 25.7167 21.7714 25.7167C23.2855 25.7167 24.5143 26.9487 24.5143 28.4667Z" fill="#689F38"/>
<rect x="17.2" y="28.4667" width="2.74286" height="7.33334" fill="#795548"/>
<path d="M20.8571 16.55C20.8571 18.068 19.6283 19.3 18.1143 19.3C16.6002 19.3 15.3714 18.068 15.3714 16.55C15.3714 15.032 16.6002 13.8 18.1143 13.8C19.6283 13.8 20.8571 15.032 20.8571 16.55Z" fill="#8BC34A"/>
<path d="M17.2 18.3833C17.2 19.9013 15.9712 21.1333 14.4571 21.1333C12.9431 21.1333 11.7143 19.9013 11.7143 18.3833C11.7143 16.8653 12.9431 15.6333 14.4571 15.6333C15.9712 15.6333 17.2 16.8653 17.2 18.3833Z" fill="#8BC34A"/>
<path d="M24.5143 18.3833C24.5143 19.9013 23.2855 21.1333 21.7714 21.1333C20.2574 21.1333 19.0286 19.9013 19.0286 18.3833C19.0286 16.8653 20.2574 15.6333 21.7714 15.6333C23.2855 15.6333 24.5143 16.8653 24.5143 18.3833Z" fill="#8BC34A"/>
<path d="M16.2857 22.9667C16.2857 24.4847 15.0569 25.7167 13.5428 25.7167C12.0288 25.7167 10.8 24.4847 10.8 22.9667C10.8 21.4487 12.0288 20.2167 13.5428 20.2167C15.0569 20.2167 16.2857 21.4487 16.2857 22.9667Z" fill="#8BC34A"/>
<path d="M26.3428 22.0499C26.3428 23.5679 25.114 24.7999 23.6 24.7999C22.0859 24.7999 20.8571 23.5679 20.8571 22.0499C20.8571 20.5319 22.0859 19.2999 23.6 19.2999C25.114 19.2999 26.3428 20.5319 26.3428 22.0499Z" fill="#8BC34A"/>
<path d="M17.2 26.6333C17.2 28.1513 15.9712 29.3833 14.4571 29.3833C12.9431 29.3833 11.7143 28.1513 11.7143 26.6333C11.7143 25.1153 12.9431 23.8833 14.4571 23.8833C15.9712 23.8833 17.2 25.1153 17.2 26.6333Z" fill="#8BC34A"/>
<path d="M25.4286 26.1749C25.4286 27.9487 23.9977 29.3833 22.2286 29.3833C20.4594 29.3833 19.0286 27.9487 19.0286 26.1749C19.0286 24.4012 20.4594 22.9666 22.2286 22.9666C23.9977 22.9666 25.4286 24.4012 25.4286 26.1749Z" fill="#8BC34A"/>
<path d="M20.8571 28.4667C20.8571 29.9865 19.6302 31.2167 18.1143 31.2167C16.5984 31.2167 15.3714 29.9865 15.3714 28.4667C15.3714 26.9468 16.5984 25.7167 18.1143 25.7167C19.6302 25.7167 20.8571 26.9468 20.8571 28.4667Z" fill="#8BC34A"/>
<path d="M23.6 22.5084C23.6 25.802 21.5557 28.4667 19.0286 28.4667C16.5015 28.4667 14.4572 25.802 14.4572 22.5084C14.4572 19.2148 16.5015 16.55 19.0286 16.55C21.5557 16.55 23.6 19.2148 23.6 22.5084Z" fill="#8BC34A"/>
<path d="M49.2 44.05V36.9917C46.5906 35.0694 42.4955 33.9667 37.8765 33.9667C29.9917 33.9667 23.6 37.5783 23.6 42.0333C23.6 42.7309 23.7737 43.4047 24.0681 44.05H49.2Z" fill="#689F38"/>
<path d="M10.8 38.55H49.2V44.05H10.8V38.55Z" fill="#80D8FF"/>
<path d="M49.2 42.2166C49.2 42.2166 46.4571 42.2166 40.0571 42.2166C32.7428 42.2166 29.0857 34.8833 20.8571 34.8833C15.3714 34.8833 12.7145 36.8312 10.8 38.55V46.8H49.2V42.2166Z" fill="#7CB342"/>
<path d="M49.2 46.8V37.197C42.0759 40.3329 37.0108 44.8805 31.0414 46.8H49.2Z" fill="#9CCC65"/>
</svg>
