<svg width="60" height="60" viewBox="0 0 60 60" fill="none" xmlns="http://www.w3.org/2000/svg">
<path d="M29.24 51H31.36L34.54 47.85H26.06" fill="#263238"/>
<path d="M32.42 48.9H28.18C25.848 48.9 23.94 47.01 23.94 44.7V40.5H36.66V44.7C36.66 47.01 34.752 48.9 32.42 48.9Z" fill="#9FA8DA"/>
<path d="M36.66 44.7L24.364 46.38C24.682 47.115 25.318 47.85 26.06 48.27L36.024 46.905C36.448 46.275 36.66 45.54 36.66 44.7Z" fill="#5C6BC0"/>
<path d="M23.94 42.285V44.385L36.66 42.6V40.5L23.94 42.285Z" fill="#5C6BC0"/>
<path d="M23.94 40.5C20.76 38.505 14.4 32.1 14.4 24.75C14.4 16.035 21.502 9 30.3 9C39.098 9 46.2 16.035 46.2 24.75C46.2 32.1 39.84 38.505 36.66 40.5H23.94Z" fill="#FFC107"/>
<path d="M37.296 22.86L34.116 20.76C33.798 20.55 33.268 20.55 32.95 20.76L30.3 22.44L27.756 20.76C27.438 20.55 26.908 20.55 26.59 20.76L23.41 22.86C23.198 23.07 22.986 23.28 22.986 23.595C22.986 23.91 22.986 24.225 23.198 24.435L27.226 29.37V40.5H29.346V28.95C29.346 28.74 29.24 28.53 29.134 28.32L25.636 24.015L27.226 22.965L29.77 24.645C30.088 24.855 30.618 24.855 30.936 24.645L33.48 22.965L35.07 24.015L31.572 28.32C31.466 28.53 31.36 28.74 31.36 28.95V40.5H33.48V29.37L37.508 24.435C37.72 24.225 37.826 23.91 37.72 23.595C37.614 23.28 37.508 22.965 37.296 22.86Z" fill="#FFF176"/>
</svg>
