<svg width="60" height="60" viewBox="0 0 60 60" fill="none" xmlns="http://www.w3.org/2000/svg">
<path d="M42.25 21.25H39.625C34.8003 21.25 30.875 25.1753 30.875 30C30.875 34.8247 34.8003 38.75 39.625 38.75H42.25C47.0747 38.75 51 34.8247 51 30C51 25.1753 47.0747 21.25 42.25 21.25ZM42.25 35.25H39.625C36.7296 35.25 34.375 32.8954 34.375 30C34.375 27.1046 36.7296 24.75 39.625 24.75H42.25C45.1454 24.75 47.5 27.1046 47.5 30C47.5 32.8954 45.1454 35.25 42.25 35.25Z" fill="#1976D2"/>
<path d="M20.375 21.25H17.75C12.9253 21.25 9 25.1753 9 30C9 34.8247 12.9253 38.75 17.75 38.75H20.375C25.1997 38.75 29.125 34.8247 29.125 30C29.125 25.1753 25.1997 21.25 20.375 21.25ZM20.375 35.25H17.75C14.8546 35.25 12.5 32.8954 12.5 30C12.5 27.1046 14.8546 24.75 17.75 24.75H20.375C23.2704 24.75 25.625 27.1046 25.625 30C25.625 32.8954 23.2704 35.25 20.375 35.25Z" fill="#1976D2"/>
<path d="M37.875 28.25H22.125C21.159 28.25 20.375 29.034 20.375 30C20.375 30.966 21.159 31.75 22.125 31.75H37.875C38.841 31.75 39.625 30.966 39.625 30C39.625 29.034 38.841 28.25 37.875 28.25Z" fill="#42A5F5"/>
</svg>
