<svg width="60" height="60" viewBox="0 0 60 60" fill="none" xmlns="http://www.w3.org/2000/svg">
<path d="M16 28H12V32H16V28Z" fill="#2196F3"/>
<path d="M16 20H12V24H16V20Z" fill="#2196F3"/>
<path d="M16 36H12V40H16V36Z" fill="#2196F3"/>
<path d="M16 12H12V16H16V12Z" fill="#2196F3"/>
<path d="M16 44H12V48H16V44Z" fill="#2196F3"/>
<path d="M48 28H20V32H48V28Z" fill="#2196F3"/>
<path d="M48 20H20V24H48V20Z" fill="#2196F3"/>
<path d="M48 36H20V40H48V36Z" fill="#2196F3"/>
<path d="M48 12H20V16H48V12Z" fill="#2196F3"/>
<path d="M48 44H20V48H48V44Z" fill="#2196F3"/>
</svg>
