<svg width="60" height="60" viewBox="0 0 60 60" fill="none" xmlns="http://www.w3.org/2000/svg">
<path d="M30 33.6C28.0146 33.6 26.4 31.9845 26.4 30C26.4 28.0155 28.0146 26.4 30 26.4C31.9854 26.4 33.6 28.0155 33.6 30C33.6 31.9845 31.9854 33.6 30 33.6Z" fill="#7B1FA2"/>
<path d="M36.8751 38.5958L34.1733 36.2171L35.3622 34.8662C36.5475 33.5198 37.2 31.7918 37.2 29.9999C37.2 28.1954 36.5457 26.4629 35.3586 25.1228L34.1652 23.7755L36.8598 21.3887L38.0532 22.736C39.8244 24.7349 40.8 27.3152 40.8 29.9999C40.8 32.6684 39.828 35.2406 38.064 37.2449L36.8751 38.5958Z" fill="#9C27B0"/>
<path d="M23.2104 38.6246L22.0053 37.2881C20.1963 35.2784 19.2 32.6765 19.2 29.9585C19.2 27.2963 20.1666 24.7277 21.9216 22.7279L23.1087 21.3752L25.8141 23.7494L24.627 25.103C23.4489 26.4458 22.8 28.1702 22.8 29.9585C22.8 31.7846 23.4678 33.5324 24.6801 34.8779L25.8843 36.2153L23.2104 38.6246Z" fill="#9C27B0"/>
<path d="M42.0303 43.8168L39.3492 41.4147L40.5498 40.0737C43.032 37.3026 44.4 33.7251 44.4 30C44.4 26.2731 43.0392 22.6992 40.5696 19.9326L39.3708 18.5907L42.0564 16.1922L43.2552 17.535C46.3152 20.9613 48 25.3884 48 30C48 34.6125 46.3071 39.0432 43.2318 42.4758L42.0303 43.8168Z" fill="#CE93D8"/>
<path d="M17.9634 43.8105L16.7628 42.4695C13.6911 39.0405 12 34.6071 12 29.9838C12 25.3839 13.6848 20.9622 16.7439 17.5332L17.9427 16.1904L20.6283 18.588L19.4295 19.9308C16.9599 22.6992 15.6 26.2686 15.6 29.9838C15.6 33.7179 16.9653 37.2999 19.4439 40.0674L20.6445 41.4075L17.9634 43.8105Z" fill="#CE93D8"/>
</svg>
