<svg width="60" height="60" viewBox="0 0 60 60" fill="none" xmlns="http://www.w3.org/2000/svg">
<path fill-rule="evenodd" clip-rule="evenodd" d="M30 48C39.9411 48 48 45.0899 48 41.5C48 37.9101 39.9411 35 30 35C20.0589 35 12 37.9101 12 41.5C12 45.0899 20.0589 48 30 48Z" fill="#90CAF9"/>
<path fill-rule="evenodd" clip-rule="evenodd" d="M19 22.85C19 16.858 23.925 12 30 12C36.075 12 41 16.858 41 22.85C41 28.843 30 43 30 43C30 43 19 28.843 19 22.85ZM25 23C25 25.761 27.238 28 30 28C32.762 28 35 25.761 35 23C35 20.239 32.761 18 30 18C27.239 18 25 20.239 25 23Z" fill="#FF3D00"/>
</svg>
