<svg width="60" height="60" viewBox="0 0 60 60" fill="none" xmlns="http://www.w3.org/2000/svg">
<path d="M30 11.4C24.8438 11.4 20.625 15.6525 20.625 20.85V24.63H24.375V20.85C24.375 17.7315 26.9063 15.18 30 15.18C33.0938 15.18 35.625 17.7315 35.625 20.85V24.63H39.375V20.85C39.375 15.6525 35.1563 11.4 30 11.4Z" fill="#424242"/>
<path d="M41.25 49.2H18.75C16.6875 49.2 15 47.499 15 45.42V28.41C15 26.331 16.6875 24.63 18.75 24.63H41.25C43.3125 24.63 45 26.331 45 28.41V45.42C45 47.499 43.3125 49.2 41.25 49.2Z" fill="#FB8C00"/>
<path d="M30 39.75C31.5533 39.75 32.8125 38.4807 32.8125 36.915C32.8125 35.3493 31.5533 34.08 30 34.08C28.4467 34.08 27.1875 35.3493 27.1875 36.915C27.1875 38.4807 28.4467 39.75 30 39.75Z" fill="#C76E00"/>
</svg>
