<svg width="60" height="60" viewBox="0 0 60 60" fill="none" xmlns="http://www.w3.org/2000/svg">
<path d="M35.6 16.9333L24.4 13.2L13.2 16.9333V46.8L24.4 43.0667L35.6 46.8L46.8 43.0667V13.2L35.6 16.9333Z" fill="#FFECB3"/>
<path d="M24.4 13.2V43.0667L35.6 46.8V16.9333L24.4 13.2Z" fill="#FFE082"/>
<path d="M18.9148 40.7622C20.2035 40.7622 21.2482 39.7176 21.2482 38.4289C21.2482 37.1402 20.2035 36.0956 18.9148 36.0956C17.6262 36.0956 16.5815 37.1402 16.5815 38.4289C16.5815 39.7176 17.6262 40.7622 18.9148 40.7622Z" fill="#1565C0"/>
<path d="M41.0852 37.9913C42.3739 37.9913 43.4186 36.9466 43.4186 35.6579C43.4186 34.3693 42.3739 33.3246 41.0852 33.3246C39.7966 33.3246 38.7519 34.3693 38.7519 35.6579C38.7519 36.9466 39.7966 37.9913 41.0852 37.9913Z" fill="#1565C0"/>
<path d="M25.843 25.5191C27.1316 25.5191 28.1763 24.4744 28.1763 23.1857C28.1763 21.8971 27.1316 20.8524 25.843 20.8524C24.5543 20.8524 23.5096 21.8971 23.5096 23.1857C23.5096 24.4744 24.5543 25.5191 25.843 25.5191Z" fill="#1565C0"/>
<path d="M31.3851 23.1867C32.1506 23.1867 32.7711 22.5661 32.7711 21.8007C32.7711 21.0352 32.1506 20.4147 31.3851 20.4147C30.6196 20.4147 29.9991 21.0352 29.9991 21.8007C29.9991 22.5661 30.6196 23.1867 31.3851 23.1867Z" fill="#8D6E63"/>
<path d="M35.5421 23.1867C36.3076 23.1867 36.9281 22.5661 36.9281 21.8007C36.9281 21.0352 36.3076 20.4147 35.5421 20.4147C34.7767 20.4147 34.1561 21.0352 34.1561 21.8007C34.1561 22.5661 34.7767 23.1867 35.5421 23.1867Z" fill="#8D6E63"/>
<path d="M39.7001 24.5718C40.4651 24.5718 41.0852 23.9517 41.0852 23.1867C41.0852 22.4218 40.4651 21.8016 39.7001 21.8016C38.9352 21.8016 38.3151 22.4218 38.3151 23.1867C38.3151 23.9517 38.9352 24.5718 39.7001 24.5718Z" fill="#8D6E63"/>
<path d="M42.4703 27.3428C43.2352 27.3428 43.8553 26.7226 43.8553 25.9577C43.8553 25.1927 43.2352 24.5726 42.4703 24.5726C41.7053 24.5726 41.0852 25.1927 41.0852 25.9577C41.0852 26.7226 41.7053 27.3428 42.4703 27.3428Z" fill="#8D6E63"/>
<path d="M42.4703 31.5008C43.2357 31.5008 43.8563 30.8802 43.8563 30.1148C43.8563 29.3493 43.2357 28.7288 42.4703 28.7288C41.7048 28.7288 41.0843 29.3493 41.0843 30.1148C41.0843 30.8802 41.7048 31.5008 42.4703 31.5008Z" fill="#8D6E63"/>
<path d="M35.5421 38.428C36.3071 38.428 36.9272 37.8079 36.9272 37.043C36.9272 36.278 36.3071 35.6579 35.5421 35.6579C34.7772 35.6579 34.157 36.278 34.157 37.043C34.157 37.8079 34.7772 38.428 35.5421 38.428Z" fill="#8D6E63"/>
<path d="M31.3851 37.0429C32.15 37.0429 32.7701 36.4228 32.7701 35.6578C32.7701 34.8929 32.15 34.2728 31.3851 34.2728C30.6201 34.2728 30 34.8929 30 35.6578C30 36.4228 30.6201 37.0429 31.3851 37.0429Z" fill="#8D6E63"/>
<path d="M28.614 34.2719C29.3794 34.2719 30 33.6513 30 32.8859C30 32.1204 29.3794 31.4999 28.614 31.4999C27.8485 31.4999 27.228 32.1204 27.228 32.8859C27.228 33.6513 27.8485 34.2719 28.614 34.2719Z" fill="#8D6E63"/>
<path d="M24.9684 33.6475C25.7333 33.6475 26.3534 33.0274 26.3534 32.2624C26.3534 31.4975 25.7333 30.8774 24.9684 30.8774C24.2034 30.8774 23.5833 31.4975 23.5833 32.2624C23.5833 33.0274 24.2034 33.6475 24.9684 33.6475Z" fill="#8D6E63"/>
<path d="M21.6858 35.657C22.4508 35.657 23.0709 35.0369 23.0709 34.2719C23.0709 33.507 22.4508 32.8868 21.6858 32.8868C20.9209 32.8868 20.3008 33.507 20.3008 34.2719C20.3008 35.0369 20.9209 35.657 21.6858 35.657Z" fill="#8D6E63"/>
<path d="M20.2999 25.9578C21.0648 25.9578 21.6849 25.3376 21.6849 24.5727C21.6849 23.8077 21.0648 23.1876 20.2999 23.1876C19.5349 23.1876 18.9148 23.8077 18.9148 24.5727C18.9148 25.3376 19.5349 25.9578 20.2999 25.9578Z" fill="#8D6E63"/>
</svg>
