<svg width="60" height="60" viewBox="0 0 60 60" fill="none" xmlns="http://www.w3.org/2000/svg">
<rect x="13.7143" y="25.45" width="32.5714" height="16.15" fill="#CFD8DC"/>
<rect x="13.7143" y="41.6" width="32.5714" height="3.40001" fill="#B0BEC5"/>
<rect x="19.7143" y="29.7" width="20.5714" height="15.3" fill="#E3F2FD"/>
<rect x="20.5714" y="30.55" width="18.8571" height="14.45" fill="#2196F3"/>
<path d="M39.4286 45H20.5714V39.05L39.4286 30.55V45Z" fill="#64B5F6"/>
<path d="M32.5714 25.45C32.5714 26.8576 31.4203 28 30 28C28.5797 28 27.4286 26.8576 27.4286 25.45C27.4286 24.0424 28.5797 22.9 30 22.9C31.4203 22.9 32.5714 24.0424 32.5714 25.45Z" fill="#D84315"/>
<path d="M42.8571 25.45C42.8571 26.8576 41.706 28 40.2857 28C38.8654 28 37.7143 26.8576 37.7143 25.45C37.7143 24.0424 38.8654 22.9 40.2857 22.9C41.706 22.9 42.8571 24.0424 42.8571 25.45Z" fill="#D84315"/>
<path d="M17.1429 25.45C17.1429 26.8576 18.294 28 19.7143 28C21.1346 28 22.2857 26.8576 22.2857 25.45C22.2857 24.0424 21.1346 22.9 19.7143 22.9C18.294 22.9 17.1429 24.0424 17.1429 25.45Z" fill="#D84315"/>
<path d="M43.7143 14.4H16.2857C15.3386 14.4 14.5714 15.1608 14.5714 16.1V18.65H45.4286V16.1C45.4286 15.1608 44.6606 14.4 43.7143 14.4Z" fill="#FF5722"/>
<rect x="27.4285" y="18.65" width="5.14286" height="6.8" fill="#FF5722"/>
<path d="M41.1428 18.65H36.8571L37.7143 25.45H42.8571L41.1428 18.65Z" fill="#FF5722"/>
<path d="M18.8571 18.65H23.1428L22.2857 25.45H17.1428L18.8571 18.65Z" fill="#FF5722"/>
<path d="M37.7143 25.45C37.7143 26.8576 36.5631 28 35.1428 28C33.7226 28 32.5714 26.8576 32.5714 25.45C32.5714 24.0424 33.7226 22.9 35.1428 22.9C36.5631 22.9 37.7143 24.0424 37.7143 25.45Z" fill="#FFA000"/>
<path d="M48 25.45C48 26.8576 46.8488 28 45.4285 28C44.0083 28 42.8571 26.8576 42.8571 25.45C42.8571 24.0424 44.0083 22.9 45.4285 22.9L48 25.45Z" fill="#FFA000"/>
<path d="M22.2857 25.45C22.2857 26.8576 23.4368 28 24.8571 28C26.2774 28 27.4286 26.8576 27.4286 25.45C27.4286 24.0424 26.2774 22.9 24.8571 22.9C23.4368 22.9 22.2857 24.0424 22.2857 25.45Z" fill="#FFA000"/>
<path d="M12 25.45C12 26.8576 13.1511 28 14.5714 28C15.9917 28 17.1429 26.8576 17.1429 25.45C17.1429 24.0424 15.9917 22.9 14.5714 22.9L12 25.45Z" fill="#FFA000"/>
<path d="M36.8571 18.65H32.5714V25.45H37.7143L36.8571 18.65Z" fill="#FFC107"/>
<path d="M45.4286 18.65H41.1429L42.8572 25.45H48L45.4286 18.65Z" fill="#FFC107"/>
<path d="M23.1428 18.65H27.4286V25.45H22.2857L23.1428 18.65Z" fill="#FFC107"/>
<path d="M14.5714 18.65H18.8571L17.1429 25.45H12L14.5714 18.65Z" fill="#FFC107"/>
<rect x="29.1429" y="30.55" width="1.71428" height="14.45" fill="#1976D2"/>
<path d="M29.1429 35.1859V45H30.8572V34.4141L29.1429 35.1859Z" fill="#1E88E5"/>
<path d="M33.4286 39.05C33.9019 39.05 34.2857 38.6695 34.2857 38.2C34.2857 37.7306 33.9019 37.35 33.4286 37.35C32.9552 37.35 32.5714 37.7306 32.5714 38.2C32.5714 38.6695 32.9552 39.05 33.4286 39.05Z" fill="#1E88E5"/>
<path d="M26.5714 39.05C27.0448 39.05 27.4286 38.6695 27.4286 38.2C27.4286 37.7306 27.0448 37.35 26.5714 37.35C26.0981 37.35 25.7143 37.7306 25.7143 38.2C25.7143 38.6695 26.0981 39.05 26.5714 39.05Z" fill="#1E88E5"/>
</svg>
