<svg width="60" height="60" viewBox="0 0 60 60" fill="none" xmlns="http://www.w3.org/2000/svg">
<path d="M48 50.625H12C9.525 50.625 7.5 48.5625 7.5 46.0417V13.9583C7.5 11.4375 9.525 9.375 12 9.375H48C50.475 9.375 52.5 11.4375 52.5 13.9583V46.0417C52.5 48.5625 50.475 50.625 48 50.625Z" fill="#BBDEFB"/>
<path d="M23.25 24.6146H36.75V40.0833H23.25V24.6146Z" fill="#3E2723"/>
<path d="M34.5 39.1667C34.5 39.1667 31.35 38.4792 30 38.4792C28.65 38.4792 25.5 39.1667 25.5 39.1667C25.5 39.1667 16.5 41.1146 16.5 50.625H30H43.5C43.5 41.1146 34.5 39.1667 34.5 39.1667Z" fill="#FF1744"/>
<path d="M30 43.5208C28.425 43.5208 26.0625 39.1667 26.0625 39.1667V33.4375H33.9375V39.1667C33.9375 39.1667 31.575 43.5208 30 43.5208Z" fill="#FF9800"/>
<path d="M37.875 23.125C37.875 16.5937 22.125 18.8854 22.125 23.125V30C22.125 34.2396 25.8375 38.0208 30 38.0208C34.1625 38.0208 37.875 34.2396 37.875 30V23.125Z" fill="#FFB74D"/>
<path d="M30 16.25C24.825 16.25 17.625 18.6563 17.625 35.7292L23.25 40.3125V27.7083L33.375 21.9792L36.75 26.5625V40.3125L42.375 34.5833C42.375 31.1458 42.0375 17.9688 33.375 17.9688L32.25 16.25H30Z" fill="#795548"/>
<path d="M30 44.8958C26.7375 44.8958 26.0625 39.1666 26.0625 39.1666C26.0625 39.1666 28.2 42.6041 30 42.6041C31.8 42.6041 33.9375 39.1666 33.9375 39.1666C33.9375 39.1666 33.2625 44.8958 30 44.8958Z" fill="#FFB74D"/>
<path fill-rule="evenodd" clip-rule="evenodd" d="M26.625 30C25.95 30 25.5 29.5416 25.5 28.8541C25.5 28.1666 25.95 27.7083 26.625 27.7083C27.3 27.7083 27.75 28.1666 27.75 28.8541C27.75 29.5416 27.3 30 26.625 30ZM33.375 27.7083C32.7 27.7083 32.25 28.1666 32.25 28.8541C32.25 29.5416 32.7 30 33.375 30C34.05 30 34.5 29.5416 34.5 28.8541C34.5 28.1666 34.05 27.7083 33.375 27.7083Z" fill="#784719"/>
</svg>
