<svg width="60" height="60" viewBox="0 0 60 60" fill="none" xmlns="http://www.w3.org/2000/svg">
<path d="M19 30.7H17C17 20.5 23.9 14.7 36 14.7V16.7C25 16.7 19 21.6 19 30.7Z" fill="#B0BEC5"/>
<path d="M36 36.7C35.5 36.7 24.6 36.6 17.4 31.5L18.6 29.9C25.3 34.7 35.9 34.7 36 34.7V36.7Z" fill="#B0BEC5"/>
<path d="M36 11.5V19.6L40.1 15.5L36 11.5Z" fill="#B0BEC5"/>
<path d="M36 31.7V39.8L40.1 35.7L36 31.7Z" fill="#B0BEC5"/>
<path d="M48 15.7C48 17.9 46.2 19.7 44 19.7C41.8 19.7 40 17.9 40 15.7C40 13.5 41.8 11.7 44 11.7C46.2 11.7 48 13.4 48 15.7Z" fill="#00BCD4"/>
<path d="M48 35.7C48 37.9 46.2 39.7 44 39.7C41.8 39.7 40 37.9 40 35.7C40 33.5 41.8 31.7 44 31.7C46.2 31.7 48 33.4 48 35.7Z" fill="#00BCD4"/>
<path d="M48 25.7C48 27.9 46.2 29.7 44 29.7C41.8 29.7 40 27.9 40 25.7C40 23.5 41.8 21.7 44 21.7C46.2 21.7 48 23.4 48 25.7Z" fill="#80DEEA"/>
<path d="M48 45.7C48 47.9 46.2 49.7 44 49.7C41.8 49.7 40 47.9 40 45.7C40 43.5 41.8 41.7 44 41.7C46.2 41.7 48 43.4 48 45.7Z" fill="#80DEEA"/>
<path d="M24 30.7C24 34 21.3 36.7 18 36.7C14.7 36.7 12 34 12 30.7C12 27.4 14.7 24.7 18 24.7C21.3 24.7 24 27.3 24 30.7Z" fill="#0097A7"/>
</svg>
