<svg width="60" height="60" viewBox="0 0 60 60" fill="none" xmlns="http://www.w3.org/2000/svg">
<path d="M30 12L33.6867 16.1146L39 14.4545L40.1986 19.8014L45.5455 21L43.9091 26.3133L48 30L43.9091 33.6867L45.5455 39L40.1986 40.1986L39 45.5455L33.6867 43.8854L30 48L26.3133 43.8854L21 45.5455L19.8014 40.1986L14.4545 39L16.0909 33.6867L12 30L16.0909 26.3133L14.4545 21L19.8014 19.8014L21 14.4545L26.3133 16.1146L30 12Z" fill="#AA00FF"/>
<path d="M24.9281 34.0909H23.2917L20.8372 28.6893V34.0909H19.2008V25.9091H20.8372L23.2917 31.3108V25.9091H24.9281V34.0909Z" fill="white"/>
<path d="M31.0645 30.5719H28.5265V32.7802H31.5529V34.0909H26.8901V25.9091H31.5529V27.2992H28.5265V29.1818H31.0645V30.5719Z" fill="white"/>
<path d="M38.3447 31.0645L39.0835 25.9091H40.7198L39.2463 34.0909H37.6099L36.6289 29.2653L35.8107 34.0909H34.1744L32.7008 25.9091H34.3372L35.0719 31.0645L36.0529 25.9091H37.4463L38.3447 31.0645Z" fill="white"/>
</svg>
