<svg width="60" height="60" viewBox="0 0 60 60" fill="none" xmlns="http://www.w3.org/2000/svg">
<path d="M36.3267 22.6831V47.5558H16.758C14.8011 47.5558 13.2 45.9569 13.2 44.0026V22.6831H36.3267Z" fill="#2196F3"/>
<path d="M20.3159 13.8V44.0026C20.3159 45.9569 18.7148 47.5558 16.758 47.5558H42.5531C44.51 47.5558 46.1111 45.9569 46.1111 44.0026V13.8H20.3159Z" fill="#BBDEFB"/>
<rect x="25.6528" y="18.2416" width="16.0108" height="3.55325" fill="#64B5F6"/>
<rect x="25.6528" y="24.4598" width="7.1159" height="1.77662" fill="#64B5F6"/>
<rect x="34.5477" y="24.4598" width="7.11591" height="1.77662" fill="#64B5F6"/>
<rect x="25.6528" y="28.0131" width="7.1159" height="1.77662" fill="#64B5F6"/>
<rect x="34.5477" y="28.0131" width="7.11591" height="1.77662" fill="#64B5F6"/>
<rect x="25.6528" y="31.5663" width="7.1159" height="1.77663" fill="#64B5F6"/>
<rect x="34.5477" y="31.5663" width="7.11591" height="1.77663" fill="#64B5F6"/>
<rect x="25.6528" y="35.1195" width="7.1159" height="1.77662" fill="#64B5F6"/>
<rect x="34.5477" y="35.1195" width="7.11591" height="1.77662" fill="#64B5F6"/>
<rect x="25.6528" y="38.6727" width="7.1159" height="1.77662" fill="#64B5F6"/>
<rect x="34.5477" y="38.6727" width="7.11591" height="1.77662" fill="#64B5F6"/>
<rect x="25.6528" y="42.226" width="7.1159" height="1.77663" fill="#64B5F6"/>
<rect x="34.5477" y="42.226" width="7.11591" height="1.77663" fill="#64B5F6"/>
</svg>
