<svg width="60" height="60" viewBox="0 0 60 60" fill="none" xmlns="http://www.w3.org/2000/svg">
<path fill-rule="evenodd" clip-rule="evenodd" d="M30 47.0536C32.1051 47.0536 33.8117 45.357 33.8117 43.2641C33.8117 41.1713 32.1051 39.4747 30 39.4747C27.8948 39.4747 26.1882 41.1713 26.1882 43.2641C26.1882 45.357 27.8948 47.0536 30 47.0536Z" fill="#DB8509"/>
<path fill-rule="evenodd" clip-rule="evenodd" d="M31.9058 17.6842C31.9058 18.7301 31.052 19.5789 29.9999 19.5789C28.9479 19.5789 28.0941 18.7301 28.0941 17.6842V13.8947C28.0941 12.8488 28.9479 12 29.9999 12C31.052 12 31.9058 12.8488 31.9058 13.8947V17.6842Z" fill="#DB8509"/>
<path fill-rule="evenodd" clip-rule="evenodd" d="M33.704 44.1253C33.7688 43.8477 33.8117 43.5606 33.8117 43.2641C33.8117 42.9013 33.745 42.5574 33.6478 42.2249C32.4862 42.2826 31.2702 42.3158 30 42.3158C28.7297 42.3158 27.5137 42.2826 26.3512 42.2249C26.2559 42.5574 26.1882 42.9013 26.1882 43.2641C26.1882 43.5606 26.2311 43.8477 26.2959 44.1253C27.6977 44.1906 28.9765 44.2105 30 44.2105C31.0234 44.2105 32.3023 44.1906 33.704 44.1253Z" fill="#BC6F0A"/>
<path fill-rule="evenodd" clip-rule="evenodd" d="M38.5764 38.5263V23.1799C38.5764 18.4715 34.737 14.6536 30 14.6536C25.2629 14.6536 21.4235 18.4715 21.4235 23.1799V38.5263H38.5764Z" fill="#FFC107"/>
<path fill-rule="evenodd" clip-rule="evenodd" d="M46.2 38.5263C46.2 40.619 39.4732 42.3158 30 42.3158C20.5268 42.3158 13.8 40.619 13.8 38.5263C13.8 36.4336 20.5268 34.7368 30 34.7368C39.4732 34.7368 46.2 36.4336 46.2 38.5263Z" fill="#FFC107"/>
<path fill-rule="evenodd" clip-rule="evenodd" d="M13.8 38.5263C13.8 36.6325 21.4235 29.999 21.4235 27.1579C21.4235 24.3167 38.5765 24.3148 38.5765 27.1579C38.5765 30.0009 46.2 36.6306 46.2 38.5263C46.2 40.422 13.8 40.4201 13.8 38.5263Z" fill="#FFC107"/>
<path fill-rule="evenodd" clip-rule="evenodd" d="M15.9679 35.1385C15.5 35.7003 15.0826 36.2242 14.7339 36.7017C16.2795 37.3222 22.5003 39.6025 30.5165 39.6025C35.0391 39.6025 40.1307 38.8636 45.2642 36.6998C44.9192 36.2271 44.5056 35.7089 44.0435 35.1537C31.619 40.1596 19.2298 36.3284 15.9679 35.1385Z" fill="#FFE082"/>
</svg>
