<svg width="60" height="60" viewBox="0 0 60 60" fill="none" xmlns="http://www.w3.org/2000/svg">
<path d="M49.8596 30.4509L45.3545 29.0625L41.4676 17.6475C40.9812 16.0734 39.5228 15 37.8705 15H13.3636C11.2851 15 9.59998 16.6791 9.59998 18.75V38.4375C9.59998 39.4734 10.4421 40.3125 11.4818 40.3125H40.65H42.5318H46.2954H49.3684C50.2689 40.3125 51 39.585 51 38.6869V32.1741C51 31.4241 50.5512 30.7463 49.8596 30.4509Z" fill="#FF7043"/>
<path d="M49.8596 30.4509L45.3545 29.0625L41.8769 18.75H9.59998V33.75H51V32.1741C51 31.4241 50.5512 30.7463 49.8596 30.4509Z" fill="#F4511E"/>
<rect x="12.4227" y="21.5625" width="16.9364" height="10.3125" fill="#263238"/>
<path d="M49.8596 30.451L47.2363 29.6419V32.8125C47.2363 33.331 47.6569 33.75 48.1772 33.75H51V32.1741C51 31.4241 50.5512 30.7463 49.8596 30.451Z" fill="#FFD600"/>
<path d="M13.3636 26.25C14.4033 26.25 15.2454 25.4109 15.2454 24.375V22.5L11.4818 23.4375V24.375C11.4818 25.4109 12.3239 26.25 13.3636 26.25Z" fill="#FFAB00"/>
<path d="M24.6545 26.25C25.6942 26.25 26.5363 25.4109 26.5363 24.375V22.5H22.7727V24.375C22.7727 25.4109 23.6148 26.25 24.6545 26.25Z" fill="#FFAB00"/>
<path d="M20.8909 26.25C21.9306 26.25 22.7727 25.4109 22.7727 24.375V22.5H19.0091V24.375C19.0091 25.4109 19.8512 26.25 20.8909 26.25Z" fill="#FFAB00"/>
<path d="M17.1272 26.25C18.1669 26.25 19.0091 25.4109 19.0091 24.375V22.5H15.2454V24.375C15.2454 25.4109 16.0875 26.25 17.1272 26.25Z" fill="#FFAB00"/>
<path d="M28.4181 26.25C29.4578 26.25 30.3 25.4109 30.3 24.375V23.4375L26.5363 22.5V24.375C26.5363 25.4109 27.3784 26.25 28.4181 26.25Z" fill="#FFAB00"/>
<path d="M30.3 23.4375H11.4818L12.4227 20.625H29.3591L30.3 23.4375Z" fill="#FFD600"/>
<rect x="11.4818" y="31.875" width="18.8182" height="1.875" fill="#EFEBE9"/>
<path d="M32.1818 29.0625H45.3546V40.3125H32.1818V29.0625Z" fill="#F4511E"/>
<path d="M41.877 18.75H32.1818V33.75H45.3546V29.0625L41.877 18.75Z" fill="#DD2C00"/>
<path d="M46.2954 40.3125C46.2954 42.9009 44.1897 45 41.5909 45C38.9921 45 36.8864 42.9009 36.8864 40.3125C36.8864 37.7241 38.9921 35.625 41.5909 35.625C44.1897 35.625 46.2954 37.7241 46.2954 40.3125Z" fill="#5D4037"/>
<path d="M23.7136 40.3125C23.7136 42.9009 21.6069 45 19.009 45C16.4112 45 14.3045 42.9009 14.3045 40.3125C14.3045 37.7241 16.4112 35.625 19.009 35.625C21.6069 35.625 23.7136 37.7241 23.7136 40.3125Z" fill="#5D4037"/>
<path d="M43.4727 40.3125C43.4727 41.3484 42.6306 42.1875 41.5909 42.1875C40.5512 42.1875 39.7091 41.3484 39.7091 40.3125C39.7091 39.2766 40.5512 38.4375 41.5909 38.4375C42.6306 38.4375 43.4727 39.2766 43.4727 40.3125Z" fill="#BCAAA4"/>
<path d="M20.8909 40.3125C20.8909 41.3484 20.0488 42.1875 19.0091 42.1875C17.9694 42.1875 17.1273 41.3484 17.1273 40.3125C17.1273 39.2766 17.9694 38.4375 19.0091 38.4375C20.0488 38.4375 20.8909 39.2766 20.8909 40.3125Z" fill="#BCAAA4"/>
<path d="M34.0636 20.625V29.0625H43.3485L40.5662 20.625H34.0636Z" fill="#263238"/>
</svg>
