<svg width="60" height="60" viewBox="0 0 60 60" fill="none" xmlns="http://www.w3.org/2000/svg">
<path d="M51.6001 40.68C51.6001 40.68 49.2741 34.2 43.2001 34.2C37.1252 34.2 34.8 40.68 34.8 40.68V45H51.6001V40.68Z" fill="#546E7A"/>
<path d="M25.2 40.68C25.2 40.68 22.8741 34.2 16.8 34.2C10.7251 34.2 8.40002 40.68 8.40002 40.68V45H25.2V40.68Z" fill="#546E7A"/>
<path d="M16.9092 31.9332C19.9212 31.9332 22.3637 29.4963 22.3637 26.4888C22.3637 23.4812 19.9212 21.0443 16.9092 21.0443C13.895 21.0443 11.4547 23.4812 11.4547 26.4888C11.4547 29.4963 13.895 31.9332 16.9092 31.9332Z" fill="#FFB74D"/>
<path d="M43.0909 31.9332C46.104 31.9332 48.5454 29.4963 48.5454 26.4888C48.5454 23.4812 46.104 21.0443 43.0909 21.0443C40.0778 21.0443 37.6364 23.4812 37.6364 26.4888C37.6364 29.4963 40.0778 31.9332 43.0909 31.9332Z" fill="#FFB74D"/>
<path d="M36.5455 22.1333C36.5455 25.743 33.6153 28.6666 30 28.6666C26.3848 28.6666 23.4546 25.743 23.4546 22.1333C23.4546 18.5236 26.3848 15.6 30 15.6C33.6142 15.6 36.5455 18.5247 36.5455 22.1333Z" fill="#FFB74D"/>
<path d="M43.0909 39.5556C43.0909 39.5556 39.468 31.9333 30 31.9333C20.5309 31.9333 16.9091 39.5556 16.9091 39.5556V45H43.0909V39.5556Z" fill="#546E7A"/>
</svg>
