<svg width="60" height="60" viewBox="0 0 60 60" fill="none" xmlns="http://www.w3.org/2000/svg">
<path d="M12 25.9579V45.1579C12 47.38 13.83 49.2 16.0667 49.2H44.5333C46.77 49.2 48.6 47.38 48.6 45.1579V25.9579C48.6 23.7357 46.77 21.9158 44.5333 21.9158H16.0667C13.83 21.9158 12 23.7357 12 25.9579Z" fill="#78909C"/>
<path d="M40.4667 36.0631C40.4667 41.621 35.8917 46.1684 30.3 46.1684C24.7084 46.1684 20.1334 41.621 20.1334 36.0631C20.1334 30.5053 24.7084 25.9579 30.3 25.9579C35.8917 25.9579 40.4667 30.5053 40.4667 36.0631Z" fill="#FFD740"/>
<path d="M37.4167 36.0632C37.4167 40.0042 34.265 43.1369 30.3 43.1369C26.335 43.1369 23.1833 40.0042 23.1833 36.0632C23.1833 32.1221 26.335 28.9895 30.3 28.9895C34.265 28.9895 37.4167 32.1221 37.4167 36.0632Z" fill="white"/>
<path d="M34.7733 39.1958L31.825 36.2652C31.825 36.1642 31.825 36.1642 31.825 36.0631C31.825 35.6589 31.6216 35.2547 31.3166 34.9515V31.0105H29.2833V34.9515C28.9783 35.2547 28.775 35.6589 28.775 36.0631C28.775 36.8715 29.4866 37.5789 30.3 37.5789H30.4016L33.35 40.5094L34.7733 39.1958Z" fill="black"/>
<rect x="19.1167" y="10.8" width="22.3667" height="11.1158" fill="#90CAF9"/>
<path d="M17.0834 21.9158C17.0834 23.0324 17.9933 23.9368 19.1167 23.9368H41.4834C42.6068 23.9368 43.5167 23.0324 43.5167 21.9158H17.0834Z" fill="#37474F"/>
<rect x="23.1833" y="13.8315" width="2.03333" height="2.02105" fill="#42A5F5"/>
<rect x="27.25" y="13.8315" width="10.1667" height="2.02105" fill="#42A5F5"/>
<rect x="23.1833" y="17.8737" width="2.03333" height="2.02105" fill="#42A5F5"/>
<rect x="27.25" y="17.8737" width="10.1667" height="2.02105" fill="#42A5F5"/>
</svg>
