<svg width="60" height="60" viewBox="0 0 60 60" fill="none" xmlns="http://www.w3.org/2000/svg">
<path d="M43.8 48H16.2V12H35.175L43.8 20.5714V48Z" fill="#90CAF9"/>
<path d="M42.5062 21.4286H34.3125V13.2857L42.5062 21.4286Z" fill="#E1F5FE"/>
<rect x="21.375" y="17.1428" width="9.4875" height="4.28571" fill="#1565C0"/>
<path fill-rule="evenodd" clip-rule="evenodd" d="M23.1 28.2856H21.375V26.5714H23.1V28.2856ZM24.825 26.5714H38.625V28.2856H24.825V26.5714ZM24.825 31.7142H38.625V29.9999H24.825V31.7142ZM38.625 36.8571H24.825V38.5714H38.625V36.8571ZM24.825 40.2856H38.625V41.9999H24.825V40.2856ZM38.625 33.4285H24.825V35.1428H38.625V33.4285ZM21.375 31.7142H23.1V29.9999H21.375V31.7142ZM23.1 41.9999H21.375V40.2856H23.1V41.9999ZM21.375 35.1428H23.1V33.4285H21.375V35.1428ZM23.1 38.5714H21.375V36.8571H23.1V38.5714Z" fill="#1565C0"/>
</svg>
