<svg width="60" height="60" viewBox="0 0 60 60" fill="none" xmlns="http://www.w3.org/2000/svg">
<path d="M41.86 25.6557C41.1287 26.3836 39.9407 26.3836 39.2074 25.6557L33.9012 20.3877C33.1679 19.6607 33.1679 18.4812 33.9012 17.7542L35.8907 15.779C37.882 13.802 39.8706 18.4116 43.8495 13.1446L46.5031 15.779C41.1969 19.7284 45.8399 21.7035 43.8495 23.6796L41.86 25.6557Z" fill="#FFC107"/>
<path d="M45.1768 16.3255C46.2128 16.3255 47.0526 15.4917 47.0526 14.4632C47.0526 13.4347 46.2128 12.601 45.1768 12.601C44.1408 12.601 43.301 13.4347 43.301 14.4632C43.301 15.4917 44.1408 16.3255 45.1768 16.3255Z" fill="#FFC107"/>
<path d="M39.6347 34.4488C41.7786 32.3213 40.7962 29.0171 38.9725 27.2066L35.6567 23.9138L32.339 20.6209C30.5153 18.8104 27.1872 17.8351 25.0443 19.9635C23.718 21.2793 22.3916 25.2315 20.4012 27.2066C18.4117 29.1817 16.4223 28.5234 13.7696 31.1569C9.78974 35.1081 13.7696 39.0593 13.7696 39.0593L17.0845 42.3512L20.4003 45.6431C20.4003 45.6431 24.3811 49.5943 28.3601 45.6431C31.0127 43.0086 30.3505 41.0344 32.339 39.0593C34.3285 37.0832 38.3093 35.7665 39.6347 34.4488Z" fill="#BBDEFB"/>
<path d="M40.5337 29.6078L29.9222 19.0718L31.9127 17.0948C32.644 16.3687 33.833 16.3687 34.5643 17.0948L42.5241 24.9972C43.2555 25.7224 43.2555 26.9037 42.5241 27.6317L40.5337 29.6078Z" fill="#42A5F5"/>
<path d="M30.5502 24.942L31.8906 26.2814L19.9229 38.2575L18.5826 36.9181L30.5502 24.942Z" fill="#64B5F6"/>
<rect width="6.63152" height="1.88106" transform="matrix(0.707107 0.707106 -0.707107 0.707106 30.5929 24.9306)" fill="#64B5F6"/>
<rect x="27.9106" y="27.5984" width="4.73713" height="1.8812" transform="rotate(44.9878 27.9106 27.5984)" fill="#64B5F6"/>
<path d="M25.2312 30.2557L28.58 33.6045L27.2505 34.9339L23.9018 31.5852L25.2312 30.2557Z" fill="#64B5F6"/>
<path d="M22.5521 32.9156L25.9008 36.2643L24.5707 37.5944L21.222 34.2457L22.5521 32.9156Z" fill="#64B5F6"/>
<rect x="19.8713" y="35.5701" width="6.63246" height="1.88106" transform="rotate(45.0081 19.8713 35.5701)" fill="#64B5F6"/>
</svg>
