<svg width="60" height="60" viewBox="0 0 60 60" fill="none" xmlns="http://www.w3.org/2000/svg">
<path d="M47.4 44.4C47.4 47.0515 45.2366 49.2 42.5666 49.2H17.4333C14.7643 49.2 12.6 47.0515 12.6 44.4V15.6C12.6 12.9485 14.7643 10.8 17.4333 10.8H42.5666C45.2366 10.8 47.4 12.9485 47.4 15.6V44.4Z" fill="#3F51B5"/>
<path fill-rule="evenodd" clip-rule="evenodd" d="M22.344 19.44H31.567C36.96 19.44 38.7 22.7232 38.7 25.8326C38.7 29.9798 35.917 31.92 31.567 31.92H26.1333V40.56H22.2667L22.344 19.44ZM26.1333 29.04H31.391C32.785 29.04 35.046 28.5974 35.045 25.8326C35.045 23.4153 33.654 22.32 31.391 22.32H26.1333V29.04Z" fill="white"/>
</svg>
