<svg width="60" height="60" viewBox="0 0 60 60" fill="none" xmlns="http://www.w3.org/2000/svg">
<path d="M29.9246 49.2381L24.9507 35.9385L26.64 35.2829L29.8307 43.7122V32.9415H31.7077V42.682L34.523 33.5971L36.4 34.159L31.7077 49.1444L30.7692 48.8634L29.9246 49.2381Z" fill="#B0BEC5"/>
<path d="M32.6462 35.7512H31.7077L30.7692 36.6878L29.8308 35.7512H28.8923L29.8308 32.1922H31.7077L32.6462 35.7512Z" fill="#FFA000"/>
<path d="M28.5169 37.4371L27.6723 37.8117L27.1092 39.0293L25.8892 38.4673L25.0446 38.842L24.5754 35.1893L26.3585 34.44L28.5169 37.4371Z" fill="#558B2F"/>
<path d="M28.8923 22.0771C30.7692 26.3854 30.1123 34.44 25.8892 36.3132C21.6662 38.1864 15.4723 33.1288 13.5954 28.8205C11.7185 24.5122 13.6892 19.5483 17.9123 17.6751C22.1354 15.8956 27.0154 17.7688 28.8923 22.0771Z" fill="#7CB342"/>
<path d="M35.0862 32.3795L36.8693 33.1288L36.4 36.6878L35.5554 36.3132L34.3354 36.8751L33.7723 35.6576L32.9277 35.2829L35.0862 32.3795Z" fill="#DD2C00"/>
<path d="M31.8015 18.6117C29.8308 23.1073 30.4877 31.5366 34.8985 33.5034C39.3092 35.4702 45.8784 30.1317 47.8492 25.7297C49.82 21.3278 47.7554 15.9893 43.3446 14.0224C38.9338 12.0556 33.7723 14.1161 31.8015 18.6117Z" fill="#FF3D00"/>
<path d="M27.5785 35.002C27.9539 34.5337 28.3293 33.9718 28.6108 33.4098C24.4816 31.6303 21.3847 25.1679 21.3847 20.7659C21.3847 19.4547 21.6662 18.2371 22.1354 17.1132C21.9477 17.1132 21.8539 17.1132 21.6662 17.1132C21.1031 17.1132 20.6339 17.1132 20.0708 17.2069C19.6954 18.2371 19.5077 19.4547 19.5077 20.7659C19.5077 25.7298 22.7924 32.7542 27.5785 35.002Z" fill="#558B2F"/>
<path d="M16.5985 29.7571C14.8154 25.8235 16.6924 21.1405 20.7277 19.361C21.197 19.1737 21.6662 18.9864 22.1354 18.8927C21.0093 18.7991 19.7893 18.8927 18.6631 19.4547C15.1908 20.9532 13.6893 24.8869 15.1908 28.3522C15.6601 29.4761 16.4108 30.4127 17.3493 31.0683C17.0677 30.6937 16.7862 30.2254 16.5985 29.7571Z" fill="#F1F8E9"/>
<path d="M40.1538 20.7659C40.1538 25.9171 35.9307 33.8781 30.7692 33.8781C25.6077 33.8781 21.3846 25.9171 21.3846 20.7659C21.3846 15.6147 25.6077 11.4 30.7692 11.4C35.9307 11.4 40.1538 15.6147 40.1538 20.7659Z" fill="#FFC107"/>
<path d="M42.0307 20.7659C42.0307 17.8625 40.9046 15.3337 39.1215 13.2732C38.3707 13.3669 37.62 13.4605 36.963 13.7415C38.9338 15.521 40.1538 17.9561 40.1538 20.7659C40.1538 24.7932 37.5261 30.6 33.96 32.8478C34.2415 33.1288 34.6169 33.3161 34.8984 33.4098C35.18 33.5034 35.5553 33.6908 35.9307 33.6908C39.6846 30.7873 42.0307 25.0742 42.0307 20.7659Z" fill="#DD2C00"/>
<path d="M24.2 22.92C24.2 18.0498 28.1416 14.1161 33.0216 14.1161C33.5847 14.2098 34.0539 14.2098 34.617 14.3034C33.4908 13.6478 32.2708 13.2732 30.8631 13.2732C26.7339 13.2732 23.3554 16.6449 23.3554 20.7659C23.3554 22.0771 23.7308 23.3883 24.3877 24.5122C24.2939 24.0439 24.2 23.482 24.2 22.92Z" fill="#FFFDE7"/>
</svg>
