<svg width="60" height="60" viewBox="0 0 60 60" fill="none" xmlns="http://www.w3.org/2000/svg">
<path d="M19.6003 51C17.3927 51 15.6 49.2363 15.6 47.0566V13.5433C15.6 11.3636 17.3927 9.59998 19.6003 9.59998H41.6007C43.8114 9.59998 45.6 11.3636 45.6 13.5433V47.0566C45.6 49.2363 43.8114 51 41.5996 51H19.6003Z" fill="#3BA3F8"/>
<rect x="22.8414" y="34.44" width="15.5172" height="2.07" fill="#ECEFF1"/>
<rect x="22.8414" y="38.58" width="15.5172" height="2.07" fill="#ECEFF1"/>
<rect x="22.8414" y="42.72" width="10.3448" height="2.07" fill="#ECEFF1"/>
<rect x="22.8414" y="15.81" width="15.5172" height="15.525" fill="#B9DDFC"/>
<path d="M30.603 29.176C28.8692 29.176 28.7927 26.6247 28.7927 26.6247V24.4543H32.4134V26.6257C32.4134 26.6247 32.3347 29.176 30.603 29.176Z" fill="#FF9900"/>
<path d="M33.8586 23.0022C34.258 23.0022 34.5817 22.6783 34.5817 22.2787C34.5817 21.8791 34.258 21.5552 33.8586 21.5552C33.4592 21.5552 33.1355 21.8791 33.1355 22.2787C33.1355 22.6783 33.4592 23.0022 33.8586 23.0022Z" fill="#FFA800"/>
<path d="M27.3414 23.0022C27.7408 23.0022 28.0645 22.6783 28.0645 22.2787C28.0645 21.8791 27.7408 21.5552 27.3414 21.5552C26.942 21.5552 26.6183 21.8791 26.6183 22.2787C26.6183 22.6783 26.942 23.0022 27.3414 23.0022Z" fill="#FFA800"/>
<path d="M33.8587 20.1032C33.8587 17.3376 27.3404 18.3043 27.3404 20.1032C27.3404 20.4871 27.3404 22.258 27.3404 22.642C27.3404 24.4408 28.799 25.9002 30.6011 25.9002C32.399 25.9002 33.8576 24.4408 33.8576 22.642C33.8587 22.258 33.8587 20.4882 33.8587 20.1032Z" fill="#FFB840"/>
<path d="M30.6031 16.845C28.4006 16.845 26.9824 18.6283 26.9824 20.8318C26.9824 21.1226 26.9824 21.6567 26.9824 21.6567L27.7055 22.2787V20.4675L32.0493 19.0205L33.4955 20.4675V22.2787L34.2227 21.6484C34.2227 21.6484 34.2227 21.1226 34.2227 20.8318C34.2227 19.3724 33.8472 17.9286 32.0482 17.5695L31.6851 16.845H30.6031Z" fill="#424242"/>
<path d="M32.0483 22.6431C32.2494 22.6431 32.4124 22.48 32.4124 22.2787C32.4124 22.0775 32.2494 21.9144 32.0483 21.9144C31.8472 21.9144 31.6841 22.0775 31.6841 22.2787C31.6841 22.48 31.8472 22.6431 32.0483 22.6431Z" fill="#7A4712"/>
<path d="M29.1528 22.6431C29.3527 22.6431 29.5148 22.48 29.5148 22.2787C29.5148 22.0775 29.3527 21.9144 29.1528 21.9144C28.9528 21.9144 28.7907 22.0775 28.7907 22.2787C28.7907 22.48 28.9528 22.6431 29.1528 22.6431Z" fill="#7A4712"/>
<path d="M32.4134 26.6247C32.4134 26.6247 31.7752 27.3482 30.6031 27.3482C29.4269 27.3482 28.7927 26.6247 28.7927 26.6247C28.7927 26.6247 24.8069 27.3451 24.8069 31.335H36.3931C36.3931 27.3606 32.4134 26.6247 32.4134 26.6247Z" fill="#C33400"/>
</svg>
