<svg width="60" height="60" viewBox="0 0 60 60" fill="none" xmlns="http://www.w3.org/2000/svg">
<path d="M14.7 13.8V22.8H23.7L14.7 13.8Z" fill="#2196F3"/>
<path d="M38.631 41.5074L40.7838 44.3766C39.4995 45.3459 38.0784 46.1343 36.561 46.7373L35.2524 43.3965C36.4692 42.9195 37.6014 42.2805 38.631 41.5074Z" fill="#2196F3"/>
<path d="M43.401 35.2434L46.749 36.5538C46.1271 38.1342 45.2838 39.603 44.2623 40.9314L41.4183 38.7498C42.2337 37.6869 42.9042 36.5106 43.401 35.2434Z" fill="#2196F3"/>
<path d="M30 44.4C30.5814 44.4 31.1511 44.3559 31.7136 44.2884L32.142 47.8587C31.4391 47.9406 30.729 48 30 48C29.6184 48 29.2413 47.9667 28.8678 47.9406L29.0928 44.3541C29.3943 44.373 29.694 44.4 30 44.4Z" fill="#2196F3"/>
<path d="M44.4 30C44.4 22.0467 37.9533 15.6 30 15.6C25.1526 15.6 20.874 18.003 18.264 21.675L15.3309 19.605C18.5943 15.0123 23.9457 12 30 12C39.9252 12 48 20.0748 48 30C48 30.5031 47.9667 31.0026 47.9262 31.4913L44.3397 31.1961C44.3721 30.801 44.4 30.4041 44.4 30Z" fill="#2196F3"/>
<path d="M25.6494 43.7277L24.564 47.1567C23.6496 46.8678 22.7694 46.5051 21.9252 46.0839L23.5461 42.8601C24.2202 43.1985 24.9195 43.4964 25.6494 43.7277Z" fill="#2196F3"/>
<path d="M17.2029 36.5835L14.0016 38.2188C13.5579 37.3602 13.1799 36.4575 12.8802 35.5251L16.2984 34.4217C16.5405 35.1723 16.8465 35.8923 17.2029 36.5835Z" fill="#2196F3"/>
<path d="M12.063 28.8192L15.6477 29.0514C15.627 29.3664 15.6 29.6796 15.6 30C15.6 30.4086 15.6279 30.8109 15.6612 31.2114L12.0702 31.521C12.0297 31.0179 12 30.5103 12 30C12 29.6004 12.0333 29.2116 12.063 28.8192Z" fill="#2196F3"/>
<path d="M20.6291 40.9197L18.2909 43.644C17.5619 43.0221 16.8842 42.3417 16.2668 41.6127L19.0163 39.3006C19.5095 39.8829 20.0504 40.4229 20.6291 40.9197Z" fill="#2196F3"/>
</svg>
