<svg width="60" height="60" viewBox="0 0 60 60" fill="none" xmlns="http://www.w3.org/2000/svg">
<path d="M48 32.0307V27.3569C48 26.1169 47.4316 24.8769 46.3895 24.2092L30 14.8615L13.6105 24.2092C12.5684 24.9723 12 26.1169 12 27.3569V32.0307L30 44.4307L48 32.0307Z" fill="#78909C"/>
<rect x="19.5789" y="12" width="20.8421" height="31.4769" fill="#A5D6A7"/>
<path fill-rule="evenodd" clip-rule="evenodd" d="M40.421 12V42.5231H19.5789V12H40.421ZM21.4736 40.6154H38.5263V13.9077H21.4736V40.6154Z" fill="#388E3C"/>
<path d="M30 21.5385C31.0465 21.5385 31.8948 20.6844 31.8948 19.6308C31.8948 18.5772 31.0465 17.7231 30 17.7231C28.9536 17.7231 28.1053 18.5772 28.1053 19.6308C28.1053 20.6844 28.9536 21.5385 30 21.5385Z" fill="#388E3C"/>
<path d="M20.5264 12.9539V16.98C21.0304 17.4369 21.6897 17.7231 22.4211 17.7231C23.9909 17.7231 25.2632 16.4421 25.2632 14.8615C25.2632 14.1252 24.979 13.4613 24.5252 12.9539H20.5264Z" fill="#388E3C"/>
<path d="M39.4737 12.9539H35.4748C35.021 13.4613 34.7368 14.1252 34.7368 14.8615C34.7368 16.4421 36.0091 17.7231 37.5789 17.7231C38.3103 17.7231 38.9697 17.4369 39.4737 16.98V12.9539Z" fill="#388E3C"/>
<path d="M30 36.8C33.1393 36.8 35.6842 34.2377 35.6842 31.0769C35.6842 27.9161 33.1393 25.3538 30 25.3538C26.8607 25.3538 24.3158 27.9161 24.3158 31.0769C24.3158 34.2377 26.8607 36.8 30 36.8Z" fill="#388E3C"/>
<path d="M38.5263 30.4245L30 35.8462L21.4736 30.4245V45.3846H38.5263V30.4245Z" fill="#66BB6A"/>
<path d="M30 36.8C32.7151 36.8 34.9822 34.8818 35.5459 32.3198L30 35.8461L24.4541 32.3198C25.0178 34.8818 27.2848 36.8 30 36.8Z" fill="#2E7D32"/>
<path d="M38.5264 30.4245V45.3846H40.4211V29.2198L38.5264 30.4245Z" fill="#2E7D32"/>
<path d="M19.5789 29.2198V45.3846H21.4737V30.4245L19.5789 29.2198Z" fill="#2E7D32"/>
<path d="M44.2105 49.2H15.7895C13.7053 49.2 12 47.4831 12 45.3846V28.2154L30 39.6615L48 28.2154V45.3846C48 47.4831 46.2947 49.2 44.2105 49.2Z" fill="#CFD8DC"/>
</svg>
