<svg width="60" height="60" viewBox="0 0 60 60" fill="none" xmlns="http://www.w3.org/2000/svg">
<path fill-rule="evenodd" clip-rule="evenodd" d="M12 46.9901C12.0559 46.8329 17.5393 31.0904 19.0929 23.305L19.2199 22.6674H19.8688C26.8945 22.6674 30.3051 21.6253 33.3821 18.5387L33.9429 17.9779L41.9548 26.0087L41.394 26.5696C38.3151 29.6561 37.2767 33.0742 37.2767 40.117V40.7678L36.6392 40.8957C28.8726 42.4494 13.1653 47.9441 13.008 48L12 46.9901Z" fill="#FFC107"/>
<path fill-rule="evenodd" clip-rule="evenodd" d="M27.5501 32.4158C27.2403 32.106 26.7401 32.106 26.4303 32.4158L12.0597 46.8195C12.0265 46.9181 12.0028 46.9806 12 46.9901L13.008 48C13.0175 47.9971 13.0809 47.9763 13.1785 47.9403L27.5501 33.5355C27.8589 33.2267 27.8589 32.7255 27.5501 32.4158Z" fill="#C6820A"/>
<path fill-rule="evenodd" clip-rule="evenodd" d="M28.5202 33.5545C29.7204 33.5545 30.6934 32.5789 30.6934 31.3755C30.6934 30.1721 29.7204 29.1966 28.5202 29.1966C27.3199 29.1966 26.3469 30.1721 26.3469 31.3755C26.3469 32.5789 27.3199 33.5545 28.5202 33.5545Z" fill="#C6820A"/>
<path fill-rule="evenodd" clip-rule="evenodd" d="M41.9085 27.7481L32.287 18.1048L36.3484 12L48 23.6773L41.9085 27.7481Z" fill="#E91E63"/>
</svg>
