<svg width="60" height="60" viewBox="0 0 60 60" fill="none" xmlns="http://www.w3.org/2000/svg">
<path d="M43.0667 48H18.8V11.4H43.0667C45.1201 11.4 46.8001 13.047 46.8001 15.06V44.34C46.8001 46.353 45.1201 48 43.0667 48Z" fill="#FF7043"/>
<path d="M16.9333 11.4H18.8V48H16.9333C14.88 48 13.2 46.353 13.2 44.34V15.06C13.2 13.047 14.88 11.4 16.9333 11.4Z" fill="#BF360C"/>
<path d="M31.8667 29.7C33.9285 29.7 35.6 28.0614 35.6 26.04C35.6 24.0186 33.9285 22.38 31.8667 22.38C29.8048 22.38 28.1333 24.0186 28.1333 26.04C28.1333 28.0614 29.8048 29.7 31.8667 29.7Z" fill="#AB300B"/>
<path d="M38.4 35.19C38.4 35.19 36.6267 31.53 31.8667 31.53C27.1067 31.53 25.3334 35.19 25.3334 35.19V37.02H38.4V35.19Z" fill="#AB300B"/>
</svg>
