<svg width="60" height="60" viewBox="0 0 60 60" fill="none" xmlns="http://www.w3.org/2000/svg">
<path d="M48.6 31.8C42.68 39.64 37.8 38.2 30.2 38.2C18.6 38.2 17.4 34.2 17.4 27.8C17.4 17.72 30.28 18.2 31 18.2C44.6 18.2 43.8 27.8 47 28.6" fill="#F48FB1"/>
<path d="M17.4 26.2C17.4 33.4 19 35.8 19 35.8L17.4 37.4V43.8H20.6C20.6 42.2 20.6 39.8 20.6 39.8C20.6 39.8 26.2 39 27 35.8V26.2H17.4Z" fill="#F48FB1"/>
<path d="M38.2 33.4L36.6 41.4V42.2H33.4L32.6 35L38.2 33.4Z" fill="#F48FB1"/>
<rect x="17.4" y="24.6" width="2.4" height="1.6" fill="#F48FB1"/>
<path d="M17.8 26.2H17.72H17.48C17.32 26.2 17.24 26.2 17.16 26.12C16.92 26.04 16.76 25.96 16.6 25.88C16.28 25.72 15.96 25.48 15.72 25.24C15.24 24.76 14.84 24.2 14.6 23.48C14.52 23.16 14.36 22.76 14.44 22.36C14.44 21.96 14.6 21.56 14.84 21.24C15.08 20.92 15.32 20.6 15.8 20.52C16.28 20.44 16.76 20.6 17 20.92C17.24 21.24 17.4 21.64 17.4 22.04C17.4 22.44 17.32 22.76 17.16 23.08C17 23.4 16.76 23.64 16.52 23.88C16.28 24.12 15.96 24.2 15.64 24.28C15 24.36 14.36 24.28 13.8 24.04C13.24 23.8 12.76 23.32 12.6 22.76C12.84 23.32 13.32 23.72 13.88 23.88C14.44 24.04 15 24.12 15.56 23.96C16.12 23.8 16.44 23.4 16.6 22.92C16.84 22.44 16.76 21.96 16.44 21.72C16.04 21.48 15.88 21.64 15.64 21.96C15.48 22.36 15.48 22.76 15.72 23.16C15.96 23.56 16.28 24.04 16.68 24.28C17.08 24.6 17.48 24.76 17.72 24.6L17.8 26.2Z" fill="#F48FB1"/>
<path d="M43 28.6C43 29.08 42.68 29.4 42.2 29.4C41.72 29.4 41.4 29.08 41.4 28.6C41.4 28.12 41.72 27.8 42.2 27.8C42.68 27.8 43 28.12 43 28.6Z" fill="black"/>
<path d="M48.6 31C48.6 29.64 47.72 28.6 46.6 28.6C45.48 28.6 44.6 29.64 44.6 31C44.6 32.36 45.48 33.4 46.6 33.4C47.72 33.4 48.6 32.36 48.6 31Z" fill="#EC407A"/>
<path d="M46.2 31C46.2 30.52 46.04 30.2 45.8 30.2C45.56 30.2 45.4 30.52 45.4 31C45.4 31.48 45.56 31.8 45.8 31.8C46.04 31.8 46.2 31.48 46.2 31Z" fill="#880E4F"/>
<path d="M47.8 31C47.8 30.52 47.64 30.2 47.4 30.2C47.16 30.2 47 30.52 47 31C47 31.48 47.16 31.8 47.4 31.8C47.64 31.8 47.8 31.48 47.8 31Z" fill="#880E4F"/>
<path d="M44.12 24.92C45.32 24.28 47 22.68 47 19C45.08 19.96 42.68 20.04 41 21.16C42.44 22.28 43.4 23.72 44.12 24.92Z" fill="#F06292"/>
<path d="M25.48 37.8801C24.2 38.8401 22.44 39.4001 21.4 39.6401V43.8001H24.6C24.6 42.2001 24.6 39.8001 24.6 39.8001C24.6 39.8001 27.16 39.4001 29.08 38.2001C27.72 38.1201 26.52 38.0401 25.48 37.8801Z" fill="#F06292"/>
<path d="M37.24 38.28L36.6 41.4V42.2H39V41.4L39.72 37.96C38.92 38.12 38.04 38.2 37.24 38.28Z" fill="#F06292"/>
<path d="M37.8 24.04C37.8 24.04 41.8 23.24 41.8 17.64C38.6 19.24 33.8 18.44 33.8 24.04C33.8 24.04 34.68 23.48 37.8 24.04Z" fill="#F06292"/>
<path d="M35.8 42.2L39 41.4L39.8 43.8H35.8V42.2Z" fill="#5D4037"/>
<path d="M21.4 42.2L24.6 41.4L25.4 43.8H21.4V42.2Z" fill="#5D4037"/>
<path d="M17.4 42.2L20.6 41.4L21.4 43.8H17.4V42.2Z" fill="#795548"/>
<path d="M33.4 42.2L36.6 41.4L37.4 43.8H33.4V42.2Z" fill="#795548"/>
</svg>
