<svg width="60" height="60" viewBox="0 0 60 60" fill="none" xmlns="http://www.w3.org/2000/svg">
<path d="M34.6544 35.175H14.8699C13.6167 35.175 12.6 34.1561 12.6 32.9003V13.0747C12.6 11.8189 13.6167 10.8 14.8699 10.8H34.6534C35.9075 10.8 36.9243 11.8189 36.9243 13.0747V32.8993C36.9243 34.1561 35.9075 35.175 34.6544 35.175Z" fill="#616161"/>
<path d="M31.0865 35.175V19.575C28.946 19.575 27.1946 21.33 27.1946 23.475V35.175H31.0865Z" fill="#424242"/>
<path d="M19.4108 18.6H16.4919C15.9568 18.6 15.5189 18.1612 15.5189 17.625V14.7C15.5189 14.1637 15.9568 13.725 16.4919 13.725H19.4108C19.9459 13.725 20.3838 14.1637 20.3838 14.7V17.625C20.3838 18.1612 19.9459 18.6 19.4108 18.6Z" fill="#E0E0E0"/>
<path d="M26.2215 18.6H23.3026C22.7675 18.6 22.3297 18.1612 22.3297 17.625V14.7C22.3297 14.1637 22.7675 13.725 23.3026 13.725H26.2215C26.7567 13.725 27.1945 14.1637 27.1945 14.7V17.625C27.1945 18.1612 26.7567 18.6 26.2215 18.6Z" fill="#E0E0E0"/>
<path d="M33.0324 18.6H30.1135C29.5783 18.6 29.1405 18.1612 29.1405 17.625V14.7C29.1405 14.1637 29.5783 13.725 30.1135 13.725H33.0324C33.5675 13.725 34.0054 14.1637 34.0054 14.7V17.625C34.0054 18.1612 33.5675 18.6 33.0324 18.6Z" fill="#E0E0E0"/>
<path d="M19.4108 25.425H16.4919C15.9568 25.425 15.5189 24.9862 15.5189 24.45V21.525C15.5189 20.9887 15.9568 20.55 16.4919 20.55H19.4108C19.9459 20.55 20.3838 20.9887 20.3838 21.525V24.45C20.3838 24.9862 19.9459 25.425 19.4108 25.425Z" fill="#E0E0E0"/>
<path d="M26.2215 25.425H23.3026C22.7675 25.425 22.3297 24.9862 22.3297 24.45V21.525C22.3297 20.9887 22.7675 20.55 23.3026 20.55H26.2215C26.7567 20.55 27.1945 20.9887 27.1945 21.525V24.45C27.1945 24.9862 26.7567 25.425 26.2215 25.425Z" fill="#E0E0E0"/>
<path d="M19.4108 32.25H16.4919C15.9568 32.25 15.5189 31.8112 15.5189 31.275V28.35C15.5189 27.8137 15.9568 27.375 16.4919 27.375H19.4108C19.9459 27.375 20.3838 27.8137 20.3838 28.35V31.275C20.3838 31.8112 19.9459 32.25 19.4108 32.25Z" fill="#E0E0E0"/>
<path d="M26.2215 32.25H23.3026C22.7675 32.25 22.3297 31.8112 22.3297 31.275V28.35C22.3297 27.8137 22.7675 27.375 23.3026 27.375H26.2215C26.7567 27.375 27.1945 27.8137 27.1945 28.35V31.275C27.1945 31.8112 26.7567 32.25 26.2215 32.25Z" fill="#E0E0E0"/>
<path d="M42.7621 34.2V32.25H32.0594L29.1405 34.2C29.1405 34.2 26.9338 35.5865 25.9433 36.8033C25.0618 37.7987 24.9499 39.0487 25.9433 40.3776C25.9433 40.3776 30.1134 49.8 34.9783 49.8H41.9137C45.5555 49.8 48.5902 46.8409 48.5902 43.1944C48.5902 43.1944 48.5999 38.5037 48.5999 34.2H42.7621Z" fill="#FFCC80"/>
<path d="M29.1405 37.8563C29.1405 39.1589 30.237 40.2255 31.5729 40.2255C32.9137 40.2255 34.0054 39.1589 34.0054 37.8563L33.9956 21.9404C33.9956 20.6417 32.9137 19.575 31.5729 19.575C30.237 19.575 29.1405 20.6417 29.1405 21.9404V37.8563Z" fill="#FFCC80"/>
<path d="M34.0053 39.9817C34.0053 41.2843 35.1019 42.351 36.4377 42.351C37.7785 42.351 38.8702 41.2843 38.8702 39.9817V31.8658C38.8702 30.5671 37.7785 29.5005 36.4377 29.5005C35.1019 29.5005 34.0053 30.5671 34.0053 31.8658V39.9817Z" fill="#FFCC80"/>
<path d="M38.8703 39.9817C38.8703 41.2843 39.9668 42.351 41.3027 42.351C42.6435 42.351 43.7352 41.2843 43.7352 39.9817V31.8658C43.7352 30.5671 42.6435 29.5005 41.3027 29.5005C39.9668 29.5005 38.8703 30.5671 38.8703 31.8658V39.9817Z" fill="#FFCC80"/>
<path d="M43.7253 40.9567C43.7253 42.2593 44.8219 43.326 46.1578 43.326C47.4985 43.326 48.5902 42.2593 48.5902 40.9567V32.8408C48.5902 31.5421 47.4985 30.4755 46.1578 30.4755C44.8219 30.4755 43.7253 31.5421 43.7253 32.8408V40.9567Z" fill="#FFCC80"/>
<path d="M30.1135 22.0885C30.1232 21.327 30.78 20.7157 31.5885 20.7255C32.3932 20.7333 33.0402 21.3592 33.0324 22.1178C33.0207 22.8812 30.1047 22.85 30.1135 22.0885Z" fill="#FFEBEE"/>
<path d="M27.1712 35.6264C28.1315 34.8377 29.1405 34.2 29.1405 34.2V40.2255L27.1712 35.6264Z" fill="#F2A25A"/>
</svg>
