<svg width="60" height="60" viewBox="0 0 60 60" fill="none" xmlns="http://www.w3.org/2000/svg">
<path d="M30 30.9999C29.4 30.9999 29 30.4999 29 29.9999C29 29.8999 29.1 24.3999 25.7 22.2999C25.2 21.9999 25.1 21.3999 25.4 20.8999C25.7 20.3999 26.3 20.2999 26.8 20.5999C31.2 23.3999 31.1 29.7999 31.1 30.0999C31 30.5999 30.5 30.9999 30 30.9999Z" fill="#8BC34A"/>
<path d="M26.2 13C21.4 10.6 13.9 13.3 12 14C14.8 15.7 14.4 24.9 19.5 26.6C23.1 27.8 25.9 26.4 26.2 21.4C30.2 19.1 29.6 14.7 26.2 13Z" fill="#8BC34A"/>
<path d="M30 33.9999C29.4 33.9999 29 33.5999 29 32.9999V29.9999C29 22.1999 34.8 20.9999 34.8 20.9999C35.3 20.8999 35.9 21.2999 36 21.7999C36.1 22.2999 35.7 22.8999 35.2 22.9999C35 22.9999 31 23.8999 31 29.9999V32.9999C31 33.5999 30.6 33.9999 30 33.9999Z" fill="#8BC34A"/>
<path d="M36.2 14.2999C40.6 12.8999 46.6 16.9999 48 17.9999C45.4 18.9999 43.7 27.2999 39.1 27.8999C35.9 28.2999 34.2 26.5999 35 21.9999C31.4 19.1999 33.1 15.1999 36.2 14.2999Z" fill="#8BC34A"/>
<path d="M19.5 26.6C14.4 24.9 14.8 15.7 12 14C14.5 14.2 18.1 16.4 26.2 21.4C25.9 26.4 23.2 27.8 19.5 26.6Z" fill="#689F38"/>
<path d="M39.2 27.8999C43.7 27.2999 45.4 18.9999 48.1 17.9999C46 17.6999 42.7 18.8999 35.1 21.9999C33.4 26.4999 35.9 28.3999 39.2 27.8999Z" fill="#689F38"/>
<path d="M19 33L22 48H38L41 33H19Z" fill="#E64A19"/>
<path d="M41 36H19C18.4 36 18 35.5 18 35V31H42V35C42 35.5 41.5 36 41 36Z" fill="#BF360C"/>
</svg>
