<svg width="60" height="60" viewBox="0 0 60 60" fill="none" xmlns="http://www.w3.org/2000/svg">
<path d="M45 12H15C13.343 12 12 13.343 12 15V48L20.556 40H45C46.656 40 48 38.656 48 37V15C48 13.343 46.656 12 45 12Z" fill="#2196F3"/>
<path fill-rule="evenodd" clip-rule="evenodd" d="M27.219 22.597L30 17L32.781 22.598L39 23.495L34.5 27.85L35.563 34L30 31.097L24.438 34L25.5 27.849L21 23.494L27.219 22.597ZM30.99 23.487L30 21.494L29.01 23.488L28.543 24.427L27.504 24.577L25.319 24.892L26.891 26.413L27.651 27.148L27.471 28.19L27.097 30.356L29.074 29.324L30 28.841L30.926 29.323L32.904 30.355L32.53 28.189L32.35 27.147L33.11 26.412L34.681 24.891L32.495 24.576L31.457 24.426L30.99 23.487Z" fill="#E3F2FD"/>
</svg>
