<svg width="60" height="60" viewBox="0 0 60 60" fill="none" xmlns="http://www.w3.org/2000/svg">
<path fill-rule="evenodd" clip-rule="evenodd" d="M49.2 40.72C49.2 42.7513 47.5625 44.4 45.5428 44.4H14.4571C12.4375 44.4 10.8 42.7513 10.8 40.72V20.48C10.8 18.4468 12.4375 16.8 14.4571 16.8H45.5428C47.5625 16.8 49.2 18.4468 49.2 20.48V40.72Z" fill="#03A9F4"/>
<path fill-rule="evenodd" clip-rule="evenodd" d="M25.4285 27.84C25.4285 29.8713 23.791 31.52 21.7714 31.52C19.7517 31.52 18.1142 29.8713 18.1142 27.84C18.1142 25.8077 19.7517 24.16 21.7714 24.16C23.791 24.16 25.4285 25.8077 25.4285 27.84ZM28.1714 36.12C28.1714 36.12 26.3995 33.36 21.7714 33.36C17.1415 33.36 15.3714 36.12 15.3714 36.12V37.96H28.1714V36.12ZM30.9142 25.08H44.6285V26.92H30.9142V25.08ZM44.6285 29.68H30.9142V31.52H44.6285V29.68ZM30.9142 34.28H38.2285V36.12H30.9142V34.28Z" fill="#E3F2FD"/>
</svg>
