<svg width="60" height="60" viewBox="0 0 60 60" fill="none" xmlns="http://www.w3.org/2000/svg">
<rect x="13.85" y="37.65" width="5.1" height="2.55" fill="#546E7A"/>
<rect x="41.05" y="37.65" width="5.1" height="2.55" fill="#546E7A"/>
<path fill-rule="evenodd" clip-rule="evenodd" d="M47 38.5H13C11.13 38.5 9.59998 36.97 9.59998 35.1V23.2C9.59998 21.33 11.13 19.8 13 19.8H47C48.87 19.8 50.4 21.33 50.4 23.2V35.1C50.4 36.97 48.87 38.5 47 38.5Z" fill="#78909C"/>
<rect x="13.85" y="24.9" width="1.7" height="1.7" fill="#37474F"/>
<rect x="13.85" y="28.3" width="1.7" height="1.7" fill="#37474F"/>
<rect x="13.85" y="31.7" width="1.7" height="1.7" fill="#37474F"/>
<rect x="17.25" y="24.9" width="1.7" height="1.7" fill="#37474F"/>
<rect x="17.25" y="28.3" width="1.7" height="1.7" fill="#37474F"/>
<rect x="17.25" y="31.7" width="1.7" height="1.7" fill="#37474F"/>
<rect x="20.6501" y="24.9" width="1.7" height="1.7" fill="#37474F"/>
<rect x="20.6501" y="28.3" width="1.7" height="1.7" fill="#37474F"/>
<rect x="20.6501" y="31.7" width="1.7" height="1.7" fill="#37474F"/>
<rect x="24.05" y="24.9" width="1.7" height="1.7" fill="#37474F"/>
<rect x="24.05" y="28.3" width="1.7" height="1.7" fill="#37474F"/>
<rect x="24.05" y="31.7" width="1.7" height="1.7" fill="#37474F"/>
<rect x="27.45" y="24.9" width="1.7" height="1.7" fill="#37474F"/>
<rect x="27.45" y="28.3" width="1.7" height="1.7" fill="#37474F"/>
<rect x="27.45" y="31.7" width="1.7" height="1.7" fill="#37474F"/>
<path fill-rule="evenodd" clip-rule="evenodd" d="M41.05 35.95C44.8055 35.95 47.85 32.9055 47.85 29.15C47.85 25.3944 44.8055 22.35 41.05 22.35C37.2945 22.35 34.25 25.3944 34.25 29.15C34.25 32.9055 37.2945 35.95 41.05 35.95Z" fill="#37474F"/>
<path fill-rule="evenodd" clip-rule="evenodd" d="M41.05 34.25C43.8666 34.25 46.15 31.9666 46.15 29.15C46.15 26.3333 43.8666 24.05 41.05 24.05C38.2333 24.05 35.95 26.3333 35.95 29.15C35.95 31.9666 38.2333 34.25 41.05 34.25Z" fill="#AA00FF"/>
<path fill-rule="evenodd" clip-rule="evenodd" d="M44.195 27.195C43.345 26.26 42.24 25.75 41.05 25.75C39.86 25.75 38.67 26.26 37.905 27.195C37.565 27.535 37.65 28.045 37.99 28.385C38.33 28.725 38.84 28.64 39.18 28.3C40.2 27.195 41.985 27.195 43.005 28.3C43.175 28.47 43.43 28.555 43.6 28.555C43.77 28.555 44.025 28.47 44.195 28.3C44.535 28.045 44.535 27.535 44.195 27.195Z" fill="#EA80FC"/>
</svg>
