<svg width="60" height="60" viewBox="0 0 60 60" fill="none" xmlns="http://www.w3.org/2000/svg">
<path fill-rule="evenodd" clip-rule="evenodd" d="M51.6 42.6C51.6 44.257 50.2814 45.6 48.6546 45.6H11.3455C9.71861 45.6 8.40002 44.257 8.40002 42.6V18.6C8.40002 16.943 9.71861 15.6 11.3455 15.6H48.6546C50.2814 15.6 51.6 16.943 51.6 18.6V42.6Z" fill="#FF5252"/>
<path fill-rule="evenodd" clip-rule="evenodd" d="M24.5873 21.6C25.6359 21.6 26.4734 21.966 27.0988 22.697C27.7232 23.428 28.0364 24.414 28.0364 25.655V26.625C28.0364 27.822 27.7262 28.783 27.1047 29.51C26.4842 30.237 25.6536 30.6 24.6128 30.6C23.5809 30.6 22.7474 30.237 22.1141 29.51C21.4798 28.783 21.1637 27.795 21.1637 26.545V25.601C21.1637 24.423 21.472 23.462 22.0886 22.717C22.7052 21.972 23.5377 21.6 24.5873 21.6ZM25.4121 27.875C25.6084 27.547 25.7076 27.117 25.7076 26.585H25.7086V25.602C25.7086 25.088 25.6074 24.664 25.4062 24.332C25.2049 23.999 24.9319 23.833 24.5883 23.833C24.2515 23.833 23.9835 24 23.7822 24.332C23.581 24.664 23.4798 25.101 23.4798 25.641V26.625C23.4798 27.157 23.5869 27.581 23.8009 27.895C24.0149 28.21 24.2859 28.367 24.6129 28.367C24.9477 28.367 25.2147 28.203 25.4121 27.875Z" fill="white"/>
<path fill-rule="evenodd" clip-rule="evenodd" d="M26.0727 40.6L24.274 39.561L34.0785 20.561L35.8909 21.6L26.0727 40.6Z" fill="white"/>
<path fill-rule="evenodd" clip-rule="evenodd" d="M35.3941 30.6C36.4319 30.6 37.2654 30.961 37.8938 31.683C38.5222 32.406 38.8364 33.396 38.8364 34.655V35.625C38.8364 36.813 38.53 37.772 37.9193 38.503C37.3077 39.234 36.4741 39.6 35.4186 39.6C34.3553 39.6 33.5129 39.233 32.8934 38.497C32.2729 37.761 31.9636 36.786 31.9636 35.572V34.588C31.9636 33.392 32.2778 32.428 32.9062 31.697C33.5345 30.966 34.3642 30.6 35.3941 30.6ZM35.4196 37.38C36.1147 37.38 36.479 36.853 36.5123 35.798V34.588C36.5123 34.065 36.4093 33.642 36.2041 33.318C35.9989 32.995 35.7289 32.833 35.3941 32.833C34.6567 32.833 34.2885 33.511 34.2885 34.867V35.625C34.2885 36.122 34.3995 36.538 34.6214 36.875C34.8433 37.212 35.1093 37.38 35.4196 37.38Z" fill="white"/>
</svg>
