<svg width="60" height="60" viewBox="0 0 60 60" fill="none" xmlns="http://www.w3.org/2000/svg">
<path d="M45 12H15C13.343 12 12 13.343 12 15V48L20.556 40H45C46.656 40 48 38.656 48 37V15C48 13.343 46.656 12 45 12Z" fill="#2196F3"/>
<path fill-rule="evenodd" clip-rule="evenodd" d="M29.102 26.7601C28.8251 27.4289 28.6871 28.3295 28.687 29.4591H31.812L31.861 28.7211C31.951 27.9291 32.305 27.2401 32.924 26.6501L33.912 25.7181C34.685 24.9751 35.226 24.2991 35.536 23.6891C35.846 23.0801 36 22.4331 36 21.7461C36 20.2361 35.523 19.0691 34.573 18.2421C33.619 17.4141 32.281 17.0001 30.555 17.0001C28.845 17.0001 27.496 17.4371 26.507 18.3071C25.519 19.1801 25.016 20.3871 25 21.9281H28.542C28.558 21.2821 28.747 20.7751 29.11 20.4071C29.472 20.0401 29.953 19.8561 30.556 19.8561C31.825 19.8561 32.46 20.5381 32.46 21.9031C32.46 22.3561 32.339 22.7861 32.095 23.1941C31.85 23.6021 31.359 24.1321 30.623 24.7801C29.886 25.4301 29.379 26.0901 29.102 26.7601ZM28.889 31.834C28.519 32.186 28.333 32.629 28.333 33.167C28.333 33.697 28.514 34.136 28.876 34.48C29.239 34.826 29.716 35 30.311 35C30.906 35 31.384 34.826 31.746 34.48C32.108 34.136 32.29 33.697 32.29 33.167C32.29 32.629 32.104 32.186 31.733 31.834C31.363 31.486 30.889 31.31 30.311 31.31C29.733 31.31 29.26 31.485 28.889 31.834Z" fill="#E3F2FD"/>
</svg>
