<svg width="60" height="60" viewBox="0 0 60 60" fill="none" xmlns="http://www.w3.org/2000/svg">
<path d="M49.9999 30C49.9999 41.044 41.0439 50 29.9999 50C18.9559 50 9.99994 41.044 9.99994 30C9.99994 18.956 18.9559 10 29.9999 10C41.0439 10 49.9999 18.956 49.9999 30Z" fill="#2196F3"/>
<path d="M29.7579 37.1449C29.0309 37.1449 28.4299 37.3789 27.9609 37.8559C27.4919 38.3289 27.2579 38.9299 27.2579 39.6609C27.2579 40.3799 27.4879 40.9739 27.9459 41.4419C28.4069 41.9109 29.0089 42.1449 29.7619 42.1449C30.5119 42.1449 31.1139 41.9109 31.5749 41.4419C32.0319 40.9729 32.2629 40.3789 32.2629 39.6609C32.2629 38.9309 32.0289 38.3289 31.5599 37.8559C31.0939 37.3869 30.4799 37.1449 29.7579 37.1449Z" fill="#E3F2FD"/>
<path d="M35.1839 20.586C33.9689 19.527 32.2659 19 30.0699 19C27.8939 19 26.1749 19.559 24.9179 20.672C23.7269 21.727 23.0939 23.176 23.0159 25H22.9999V26H27.4999L27.5079 25.297C27.5279 24.473 27.7699 23.824 28.2309 23.356C28.6879 22.883 29.3049 22.649 30.0709 22.649C31.6879 22.649 32.4929 23.52 32.4929 25.266C32.4929 25.844 32.3409 26.395 32.0279 26.914C31.7189 27.434 31.0939 28.109 30.1569 28.941C29.2189 29.769 28.5749 30.613 28.2229 31.468C27.8679 32.323 27.6919 33.554 27.6919 34.999H31.6719L31.7349 33.976C31.8479 32.964 32.2979 32.085 33.0869 31.331L34.3489 30.14C35.3289 29.191 36.0209 28.327 36.4119 27.55C36.8069 26.769 37.0059 25.941 37.0059 25.066C36.9999 23.137 36.3949 21.645 35.1839 20.586Z" fill="#E3F2FD"/>
</svg>
