<svg width="60" height="60" viewBox="0 0 60 60" fill="none" xmlns="http://www.w3.org/2000/svg">
<path d="M21.7582 33.6791L31.7822 43.1699L49.0264 25.2949L39.0014 15.8042L21.7582 33.6791Z" fill="#1B5E20"/>
<path d="M23.452 35.3879L36.1957 13.6878L48.3232 20.8099L35.5794 42.51L23.452 35.3879Z" fill="#A5D6A7"/>
<path fill-rule="evenodd" clip-rule="evenodd" d="M48.7074 20.361L35.6355 42.4099L23.3951 35.2877L36.4669 13.2388L48.7074 20.361ZM46.9409 20.8159L36.926 14.9888L25.1614 34.8329L35.1763 40.66L46.9409 20.8159Z" fill="#388E3C"/>
<path d="M41.0745 21.8556C41.4355 21.241 41.2345 20.4529 40.6256 20.0953C40.0167 19.7377 39.2305 19.9461 38.8695 20.5607C38.5086 21.1753 38.7096 21.9634 39.3185 22.321C39.9274 22.6786 40.7136 22.4702 41.0745 21.8556Z" fill="#388E3C"/>
<path d="M39.9093 30.089C41.1726 27.9378 40.4691 25.1794 38.3379 23.9279C36.2068 22.6763 33.4551 23.4056 32.1918 25.5568C30.9285 27.7079 31.632 30.4664 33.7631 31.7179C35.8942 32.9694 38.646 32.2401 39.9093 30.089Z" fill="#388E3C"/>
<path d="M35.3167 16.4401C35.4561 16.876 35.7457 17.2671 36.1748 17.5169C37.0964 18.0536 38.2826 17.7476 38.8244 16.8346C39.0765 16.4095 39.1375 15.9282 39.0448 15.48L36.6957 14.1129L35.3167 16.4401Z" fill="#388E3C"/>
<path d="M36.7859 39.2077C36.6465 38.7719 36.3569 38.3807 35.9278 38.131C35.0062 37.5942 33.8199 37.9002 33.2782 38.8133C33.0261 39.2383 32.9651 39.7197 33.0578 40.1679L35.4069 41.5349L36.7859 39.2077Z" fill="#388E3C"/>
<path d="M47.8242 20.5885L45.4751 19.2214C45.0351 19.3595 44.6403 19.6465 44.3882 20.0716C43.8464 20.9846 44.1553 22.1598 45.0769 22.6965C45.506 22.9463 45.9918 23.0066 46.4443 22.9148L47.8242 20.5885Z" fill="#388E3C"/>
<path d="M36.7759 29.0397C35.9028 28.2093 34.5412 28.1556 33.6038 28.914L29.141 32.48H27.2962L26.2894 30.4051L29.9382 24.2422L24.8402 25.7531C24.2267 25.9351 23.6991 26.3279 23.351 26.8605L17.9583 35.114L15.6301 35.836L18.2379 44.2831L26.4305 42.5083C28.1485 42.1362 29.6836 41.1859 30.7747 39.8189L36.9972 32.2237C37.7627 31.2643 37.6667 29.8857 36.7759 29.0397Z" fill="#FFB74D"/>
<path d="M10.8008 35.9419L17.1794 34.1679L20.8173 45.6261L14.4379 47.4001L10.8008 35.9419Z" fill="#7986CB"/>
<path d="M33.6012 30.0933C33.6012 30.0933 33.8541 31.0336 34.2974 31.4727C34.7407 31.9119 35.8159 32.2253 35.8159 32.2253C35.8159 32.2253 37.2008 30.8343 36.1264 29.7542C35.0111 28.632 33.6012 30.0933 33.6012 30.0933Z" fill="#FFE0B2"/>
</svg>
