<svg width="60" height="60" viewBox="0 0 60 60" fill="none" xmlns="http://www.w3.org/2000/svg">
<path d="M24.72 31.92C29.2266 31.92 32.88 28.2666 32.88 23.76C32.88 19.2534 29.2266 15.6 24.72 15.6C20.2134 15.6 16.56 19.2534 16.56 23.76C16.56 28.2666 20.2134 31.92 24.72 31.92Z" fill="#BBDEFB"/>
<path d="M25.2 44.4C28.9113 44.4 31.92 41.3914 31.92 37.68C31.92 33.9687 28.9113 30.96 25.2 30.96C21.4886 30.96 18.48 33.9687 18.48 37.68C18.48 41.3914 21.4886 44.4 25.2 44.4Z" fill="#BBDEFB"/>
<path d="M17.52 38.64C21.2313 38.64 24.24 35.6314 24.24 31.92C24.24 28.2087 21.2313 25.2 17.52 25.2C13.8086 25.2 10.8 28.2087 10.8 31.92C10.8 35.6314 13.8086 38.64 17.52 38.64Z" fill="#BBDEFB"/>
<path d="M43.44 36.72C46.6212 36.72 49.2 34.1412 49.2 30.96C49.2 27.7789 46.6212 25.2 43.44 25.2C40.2588 25.2 37.68 27.7789 37.68 30.96C37.68 34.1412 40.2588 36.72 43.44 36.72Z" fill="#BBDEFB"/>
<path d="M35.76 41.52C38.9412 41.52 41.52 38.9412 41.52 35.76C41.52 32.5788 38.9412 30 35.76 30C32.5788 30 30 32.5788 30 35.76C30 38.9412 32.5788 41.52 35.76 41.52Z" fill="#BBDEFB"/>
<path d="M36.24 30.96C39.6863 30.96 42.48 28.1663 42.48 24.72C42.48 21.2738 39.6863 18.48 36.24 18.48C32.7937 18.48 30 21.2738 30 24.72C30 28.1663 32.7937 30.96 36.24 30.96Z" fill="#BBDEFB"/>
<path d="M29.04 36.72C32.7514 36.72 35.76 33.7114 35.76 30C35.76 26.2886 32.7514 23.28 29.04 23.28C25.3287 23.28 22.32 26.2886 22.32 30C22.32 33.7114 25.3287 36.72 29.04 36.72Z" fill="#BBDEFB"/>
<rect x="24.2726" y="28.08" width="11.4874" height="3.84" fill="#3F51B5"/>
<path d="M18.9005 30L25.7731 24.24V35.76L18.9005 30Z" fill="#3F51B5"/>
<path d="M41.1331 30L34.2604 24.24V35.76L41.1331 30Z" fill="#3F51B5"/>
</svg>
