<svg width="60" height="60" viewBox="0 0 60 60" fill="none" xmlns="http://www.w3.org/2000/svg">
<path d="M38.4 46.6465C38.4 47.7248 37.5339 48.6 36.4667 48.6H22.9333C21.8661 48.6 21 47.7248 21 46.6465V17.3442C21 16.2658 21.8661 15.3907 22.9333 15.3907H36.4667C37.5339 15.3907 38.4 16.2658 38.4 17.3442V46.6465Z" fill="#455A64"/>
<path d="M32.5585 13.5759C32.0432 13.0162 30.9441 12.4517 29.6527 12.4517H29.6517C28.9103 12.4526 27.8469 12.647 26.9924 13.5759L25.5772 12.2446C26.6135 11.1194 28.0606 10.4991 29.6517 10.4982H29.6527C31.325 10.4982 32.9809 11.1682 33.9746 12.2446L32.5585 13.5759Z" fill="#80DEEA"/>
<path d="M24.1243 11.0705L22.7091 9.73923C24.5738 7.71542 27.0562 6.59998 29.7 6.59998C32.3439 6.59998 34.8263 7.71542 36.691 9.74021L35.2748 11.0696C33.7813 9.44718 31.8016 8.55346 29.7 8.55346C27.5995 8.55249 25.6188 9.44718 24.1243 11.0705Z" fill="#80DEEA"/>
<path d="M26.3166 38.8325C27.6513 38.8325 28.7333 37.7393 28.7333 36.3907C28.7333 35.042 27.6513 33.9488 26.3166 33.9488C24.982 33.9488 23.9 35.042 23.9 36.3907C23.9 37.7393 24.982 38.8325 26.3166 38.8325Z" fill="#CFD8DC"/>
<path d="M33.0833 38.8325C34.418 38.8325 35.5 37.7393 35.5 36.3907C35.5 35.042 34.418 33.9488 33.0833 33.9488C31.7486 33.9488 30.6666 35.042 30.6666 36.3907C30.6666 37.7393 31.7486 38.8325 33.0833 38.8325Z" fill="#CFD8DC"/>
<path d="M26.3166 45.6697C27.6513 45.6697 28.7333 44.5765 28.7333 43.2279C28.7333 41.8793 27.6513 40.786 26.3166 40.786C24.982 40.786 23.9 41.8793 23.9 43.2279C23.9 44.5765 24.982 45.6697 26.3166 45.6697Z" fill="#CFD8DC"/>
<path d="M33.0833 45.6697C34.418 45.6697 35.5 44.5765 35.5 43.2279C35.5 41.8793 34.418 40.786 33.0833 40.786C31.7486 40.786 30.6666 41.8793 30.6666 43.2279C30.6666 44.5765 31.7486 45.6697 33.0833 45.6697Z" fill="#CFD8DC"/>
<path fill-rule="evenodd" clip-rule="evenodd" d="M22.9333 25.1581C22.9333 21.382 25.9629 18.3209 29.7 18.3209C33.4371 18.3209 36.4667 21.382 36.4667 25.1581C36.4667 28.9342 33.4371 31.9953 29.7 31.9953C25.9629 31.9953 22.9333 28.9342 22.9333 25.1581ZM26.8 25.1581C26.8 26.7766 28.0982 28.0884 29.7 28.0884C31.3008 28.0884 32.6 26.7766 32.6 25.1581C32.6 23.5397 31.3008 22.2279 29.7 22.2279C28.0982 22.2279 26.8 23.5397 26.8 25.1581Z" fill="#64B5F6"/>
</svg>
