<svg width="60" height="60" viewBox="0 0 60 60" fill="none" xmlns="http://www.w3.org/2000/svg">
<path fill-rule="evenodd" clip-rule="evenodd" d="M44.64 15.6H16.08C13.8268 15.6 12 17.4015 12 19.6235V36.7235C12 38.9455 13.8268 40.747 16.08 40.747H44.64C46.8932 40.747 48.72 38.9455 48.72 36.7235V19.6235C48.72 17.4015 46.8932 15.6 44.64 15.6Z" fill="#CFD8DC"/>
<path fill-rule="evenodd" clip-rule="evenodd" d="M13.1097 16.8804C12.6395 17.3743 12.2988 17.9849 12.1295 18.6639L30.36 31.6941L48.5904 18.6649C48.4211 17.9849 48.0804 17.3753 47.6102 16.8814L30.36 29.2095L13.1097 16.8804Z" fill="#78909C"/>
<path fill-rule="evenodd" clip-rule="evenodd" d="M52.8 39.7411C52.8 45.2966 48.2335 49.8 42.6 49.8C36.9665 49.8 32.4 45.2966 32.4 39.7411C32.4 34.1856 36.9665 29.6823 42.6 29.6823C48.2335 29.6823 52.8 34.1856 52.8 39.7411Z" fill="#F44336"/>
<rect x="41.07" y="32.7" width="3.06" height="9.05294" fill="white"/>
<rect x="41.07" y="43.7646" width="3.06" height="3.01765" fill="white"/>
</svg>
