<svg width="60" height="60" viewBox="0 0 60 60" fill="none" xmlns="http://www.w3.org/2000/svg">
<path d="M51 30C51 41.5962 41.5962 51 30 51C18.4038 51 9 41.5962 9 30C9 18.4038 18.4038 9 30 9C41.5962 9 51 18.4038 51 30Z" fill="#64B5F6"/>
<path d="M37.35 31.05C37.35 30.2216 36.7431 30 35.775 30H36.3C35.3319 30 34.2 30.2216 34.2 31.05V44.2485C34.2 45.077 34.9833 45.75 35.9514 45.75H36.6528C37.6167 45.75 38.4 45.077 38.4 44.2485L37.35 31.05Z" fill="#0D47A1"/>
<path d="M27.1986 27.5273H24.3972L23.7 44.027C23.7 44.8554 24.3279 45.5285 25.0986 45.5285H26.4972C27.2721 45.5285 27.9 44.8554 27.9 44.027L27.1986 27.5273Z" fill="#0D47A1"/>
<path d="M37.35 31.05H34.2V14.25C35.7467 14.25 41.2098 17.1701 37.35 31.05Z" fill="#E0F7FA"/>
<path d="M27.9 14.25V23.7H26.85V14.25H24.75V23.7H23.7V14.25H22.3014L21.6 24.75L24.4014 27.5273H27.2028L30 24.75L29.3028 14.25H27.9Z" fill="#E0F7FA"/>
</svg>
