<svg width="60" height="60" viewBox="0 0 60 60" fill="none" xmlns="http://www.w3.org/2000/svg">
<path d="M36.72 20.3333H49.2V16.4666C49.2 14.3313 47.4807 12.6 45.36 12.6H36.72V20.3333Z" fill="#64B5F6"/>
<path d="M45.36 12.6H20.4C18.2794 12.6 16.56 14.3313 16.56 16.4666V43.5333C16.56 45.6687 18.2794 47.4 20.4 47.4H37.68C39.8006 47.4 41.52 45.6687 41.52 43.5333V16.4666C41.52 14.3313 43.2394 12.6 45.36 12.6Z" fill="#BBDEFB"/>
<path d="M37.68 47.4H14.64C12.5193 47.4 10.8 45.6687 10.8 43.5333V40.6333H33.84V43.5333C33.84 45.6687 35.5593 47.4 37.68 47.4Z" fill="#64B5F6"/>
<rect x="22.32" y="20.3333" width="13.44" height="1.93334" fill="#64B5F6"/>
<rect x="22.32" y="25.1666" width="9.6" height="1.93333" fill="#64B5F6"/>
<rect x="22.32" y="30" width="13.44" height="1.93333" fill="#64B5F6"/>
<rect x="22.32" y="34.8333" width="9.6" height="1.93333" fill="#64B5F6"/>
</svg>
