<svg width="60" height="60" viewBox="0 0 60 60" fill="none" xmlns="http://www.w3.org/2000/svg">
<rect x="34.71" y="37.1763" width="3.51216" height="14.9267" transform="rotate(-45 34.71 37.1763)" fill="#616161"/>
<path d="M26.6488 40.6975C34.4077 40.6975 40.6975 34.4077 40.6975 26.6488C40.6975 18.8898 34.4077 12.6 26.6488 12.6C18.8898 12.6 12.6 18.8898 12.6 26.6488C12.6 34.4077 18.8898 40.6975 26.6488 40.6975Z" fill="#616161"/>
<rect x="37.5854" y="40.1182" width="3.51216" height="10.7999" transform="rotate(-45 37.5854 40.1182)" fill="#37474F"/>
<path d="M26.6488 38.0634C32.9529 38.0634 38.0634 32.9529 38.0634 26.6488C38.0634 20.3446 32.9529 15.2341 26.6488 15.2341C20.3446 15.2341 15.2341 20.3446 15.2341 26.6488C15.2341 32.9529 20.3446 38.0634 26.6488 38.0634Z" fill="#64B5F6"/>
<path d="M32.7073 21.5561C31.2146 19.8 29.0195 18.7463 26.6488 18.7463C24.278 18.7463 22.0829 19.8 20.5902 21.5561C20.239 21.9073 20.3268 22.5219 20.678 22.7854C21.0292 23.1366 21.6439 23.0488 21.9073 22.6976C23.1366 21.2927 24.8049 20.5024 26.6488 20.5024C28.4927 20.5024 30.161 21.2927 31.3902 22.6976C31.5658 22.8732 31.8292 23.0488 32.0927 23.0488C32.2683 23.0488 32.5317 22.961 32.6195 22.8732C32.9707 22.5219 32.9707 21.9073 32.7073 21.5561Z" fill="#BBDEFB"/>
</svg>
