<svg width="60" height="60" viewBox="0 0 60 60" fill="none" xmlns="http://www.w3.org/2000/svg">
<path fill-rule="evenodd" clip-rule="evenodd" d="M44.3143 16.2H15.0572C13.0375 16.2 11.4 17.8408 11.4 19.8667V38.2C11.4 40.224 13.0375 41.8667 15.0572 41.8667H44.3143C46.334 41.8667 47.9715 40.224 47.9715 38.2V19.8667C47.9715 17.8408 46.334 16.2 44.3143 16.2Z" fill="#CFD8DC"/>
<path fill-rule="evenodd" clip-rule="evenodd" d="M29.6857 31.3516L11.752 18.3212C11.5317 18.7915 11.4 19.3121 11.4 19.8658V20.3287L29.6857 33.6167L47.9715 20.3287V19.8667C47.9715 19.3121 47.8398 18.7915 47.6194 18.3203L29.6857 31.3516Z" fill="#78909C"/>
<path fill-rule="evenodd" clip-rule="evenodd" d="M49.8 41.8667L41.5714 34.5333V49.2L49.8 41.8667Z" fill="#2196F3"/>
<rect x="30.6" y="39.1167" width="11.8857" height="5.5" fill="#2196F3"/>
</svg>
