<svg width="60" height="60" viewBox="0 0 60 60" fill="none" xmlns="http://www.w3.org/2000/svg">
<path d="M34.8162 48.6V44.561L37.093 45C39.6324 45.5269 41.9967 43.683 42.1719 41.1366L42.6973 35.4293L45.2367 34.3757C46.1124 34.0244 46.4627 32.9708 45.9373 32.0927L42.6973 26.6488C42.1719 19.9757 38.4065 13.4781 28.6865 13.4781C18.7038 13.4781 13.8 20.8537 13.8 28.4049C13.8 31.6537 14.9384 34.4635 16.6897 36.8342C18.2659 39.0293 19.054 41.6635 19.054 44.2976V48.5122H34.8162V48.6Z" fill="#FFB74D"/>
<path d="M34.8162 48.6V44.561L28.6865 43.3317V48.6H34.8162Z" fill="#FF9800"/>
<path d="M38.7568 31.0391C39.4822 31.0391 40.0703 30.4494 40.0703 29.722C40.0703 28.9946 39.4822 28.4049 38.7568 28.4049C38.0313 28.4049 37.4432 28.9946 37.4432 29.722C37.4432 30.4494 38.0313 31.0391 38.7568 31.0391Z" fill="#784719"/>
<path d="M28.1611 13.4781C20.1924 13.4781 13.8 19.8878 13.8 27.8781C13.8 37.6244 19.054 37.8878 19.054 44.2098L21.3308 43.4196C23.1697 42.8049 24.7459 41.4 25.4465 39.5561L27.8984 33.5854L33.0649 31.0391V25.7708C33.0649 25.7708 39.1946 22.4342 39.1946 16.7269C36.5676 14.5317 31.9265 13.4781 28.1611 13.4781Z" fill="#FF5722"/>
<path d="M27.8108 12.6878C27.2854 12.6878 26.9351 13.039 26.9351 13.5659V25.7707C26.9351 26.2976 27.2854 26.6488 27.8108 26.6488C28.3362 26.6488 28.6865 26.2976 28.6865 25.7707V13.5659C28.6865 13.039 28.3362 12.6878 27.8108 12.6878Z" fill="#546E7A"/>
<path d="M41.7341 38.8536C34.8162 38.8536 32.7146 34.5512 32.627 34.3756C32.4519 33.9366 31.9265 33.7609 31.4887 33.9366C31.0508 34.1122 30.8757 34.639 31.0508 35.078C31.1384 35.3414 33.6778 40.6097 41.7341 40.6097C42.2595 40.6097 42.6097 40.2585 42.6097 39.7317C42.6097 39.2048 42.1719 38.8536 41.7341 38.8536Z" fill="#546E7A"/>
<path d="M41.8216 41.5756C42.7888 41.5756 43.573 40.7894 43.573 39.8195C43.573 38.8496 42.7888 38.0634 41.8216 38.0634C40.8544 38.0634 40.0703 38.8496 40.0703 39.8195C40.0703 40.7894 40.8544 41.5756 41.8216 41.5756Z" fill="#37474F"/>
<path d="M27.8108 37.1854C31.1962 37.1854 33.9406 34.4336 33.9406 31.039C33.9406 27.6445 31.1962 24.8927 27.8108 24.8927C24.4255 24.8927 21.6811 27.6445 21.6811 31.039C21.6811 34.4336 24.4255 37.1854 27.8108 37.1854Z" fill="#37474F"/>
<path d="M27.8108 34.5512C29.7453 34.5512 31.3135 32.9788 31.3135 31.0391C31.3135 29.0993 29.7453 27.5269 27.8108 27.5269C25.8763 27.5269 24.3081 29.0993 24.3081 31.0391C24.3081 32.9788 25.8763 34.5512 27.8108 34.5512Z" fill="#546E7A"/>
</svg>
