<svg width="60" height="60" viewBox="0 0 60 60" fill="none" xmlns="http://www.w3.org/2000/svg">
<path d="M42 10H19V50H42V10Z" fill="#2196F3"/>
<path d="M40 12H21V16H40V12Z" fill="#37474F"/>
<path d="M40 18H21V22H40V18Z" fill="#37474F"/>
<path d="M40 24H21V28H40V24Z" fill="#37474F"/>
<path d="M40 30H21V34H40V30Z" fill="#37474F"/>
<path d="M31 46C32.1046 46 33 45.1046 33 44C33 42.8954 32.1046 42 31 42C29.8954 42 29 42.8954 29 44C29 45.1046 29.8954 46 31 46Z" fill="#BBDEFB"/>
<path d="M37 15C37.5523 15 38 14.5523 38 14C38 13.4477 37.5523 13 37 13C36.4477 13 36 13.4477 36 14C36 14.5523 36.4477 15 37 15Z" fill="#76FF03"/>
<path d="M37 21C37.5523 21 38 20.5523 38 20C38 19.4477 37.5523 19 37 19C36.4477 19 36 19.4477 36 20C36 20.5523 36.4477 21 37 21Z" fill="#76FF03"/>
<path d="M37 27C37.5523 27 38 26.5523 38 26C38 25.4477 37.5523 25 37 25C36.4477 25 36 25.4477 36 26C36 26.5523 36.4477 27 37 27Z" fill="#76FF03"/>
<path d="M37 33C37.5523 33 38 32.5523 38 32C38 31.4477 37.5523 31 37 31C36.4477 31 36 31.4477 36 32C36 32.5523 36.4477 33 37 33Z" fill="#76FF03"/>
</svg>
