<svg width="60" height="60" viewBox="0 0 60 60" fill="none" xmlns="http://www.w3.org/2000/svg">
<path fill-rule="evenodd" clip-rule="evenodd" d="M43.3714 31.8857L43.3714 31.8858L46.9714 34.6286C47.3143 34.8858 47.4857 35.4 47.2286 35.8286L43.5429 42.1715C43.3714 42.5143 42.8571 42.6858 42.4286 42.5143L38.1429 40.5429C37.2 41.3143 36.0857 41.9143 34.8857 42.4286L34.4571 47.1429C34.4571 47.5715 34.0286 47.9143 33.6 47.9143H26.2286C25.8 47.9143 25.4571 47.5715 25.3714 47.1429L24.9429 42.4286C23.7429 41.9143 22.7143 41.3143 21.6857 40.5429L17.4 42.5143C16.9714 42.7715 16.5429 42.6 16.2857 42.1715L12.6 35.8286C12.3429 35.4 12.5143 34.8858 12.8571 34.6286L16.8857 31.8858C16.8 31.2858 16.7143 30.6858 16.7143 30C16.7143 29.3143 16.8 28.7143 16.8857 28.1143L13.0286 25.3715C12.6857 25.1143 12.5143 24.6 12.7714 24.1715L16.4571 17.8286C16.6286 17.4858 17.1429 17.3143 17.5714 17.4858L21.8571 19.4572C22.8 18.6858 23.9143 18.0858 25.1143 17.5715L25.5429 12.8572C25.5429 12.4286 25.9714 12.0858 26.4 12.0858H33.7714C34.2 12.0858 34.5429 12.4286 34.6286 12.8572L35.0571 17.5715C36.2571 18.0858 37.2857 18.6858 38.3143 19.4572L42.6 17.4858C43.0286 17.2286 43.4571 17.4 43.7143 17.8286L47.4857 24.1715C47.7429 24.6 47.5714 25.1143 47.2286 25.3715L43.3714 28.1143L43.3714 28.1144C43.4571 28.7143 43.5429 29.3143 43.5429 30C43.5429 30.6857 43.4571 31.2857 43.3714 31.8857ZM21.4286 30C21.4286 34.7143 25.2857 38.5715 30 38.5715C34.7143 38.5715 38.5714 34.7143 38.5714 30C38.5714 25.2858 34.7143 21.4286 30 21.4286C25.2857 21.4286 21.4286 25.2858 21.4286 30Z" fill="#607D8B"/>
<path fill-rule="evenodd" clip-rule="evenodd" d="M19.7143 30.0001C19.7143 24.3429 24.3429 19.7144 30 19.7144C35.6572 19.7144 40.2857 24.3429 40.2857 30.0001C40.2857 35.6572 35.6572 40.2858 30 40.2858C24.3429 40.2858 19.7143 35.6572 19.7143 30.0001ZM25.7143 30.0001C25.7143 32.4001 27.6 34.2858 30 34.2858C32.4 34.2858 34.2857 32.4001 34.2857 30.0001C34.2857 27.6001 32.4 25.7144 30 25.7144C27.6 25.7144 25.7143 27.6001 25.7143 30.0001Z" fill="#455A64"/>
</svg>
