<svg width="60" height="60" viewBox="0 0 60 60" fill="none" xmlns="http://www.w3.org/2000/svg">
<path d="M25.3029 45.8211L16.7229 20.4316C16.1572 18.7263 17.1 16.9263 18.7972 16.3579L31.0543 12.1895C32.7514 11.6211 34.6372 12.5684 35.2029 14.179L43.7829 39.5684C44.3486 41.2737 43.4057 43.0737 41.7086 43.6421L29.4514 47.8105C27.66 48.379 25.8686 47.5263 25.3029 45.8211Z" fill="#E38939"/>
<path d="M40.7436 18.1415C40.473 17.3205 39.588 16.8744 38.7671 17.1451C37.9461 17.4157 37.5 18.3007 37.7706 19.1217L40.7436 18.1415ZM42.7677 34.2796C43.0384 35.1005 43.9234 35.5467 44.7443 35.276C45.5653 35.0054 46.0114 34.1204 45.7408 33.2994L42.7677 34.2796ZM19.8661 41.8872C20.1526 42.7028 21.046 43.1317 21.8616 42.8452C22.6772 42.5587 23.1061 41.6653 22.8196 40.8497L19.8661 41.8872ZM17.1625 24.7444C16.876 23.9289 15.9826 23.4999 15.167 23.7864C14.3514 24.0729 13.9225 24.9663 14.209 25.7819L17.1625 24.7444ZM45.03 30.4884C45.2998 31.3097 46.1842 31.7568 47.0055 31.4871C47.8268 31.2174 48.2739 30.3329 48.0042 29.5116L45.03 30.4884ZM44.8928 20.038C44.623 19.2167 43.7386 18.7695 42.9173 19.0393C42.096 19.309 41.6489 20.1935 41.9186 21.0147L44.8928 20.038ZM15.7208 40.0016C16.0123 40.8154 16.9084 41.2388 17.7222 40.9472C18.536 40.6556 18.9593 39.7595 18.6678 38.9458L15.7208 40.0016ZM15.2735 29.4721C14.9819 28.6583 14.0858 28.2349 13.2721 28.5265C12.4583 28.8181 12.0349 29.7141 12.3265 30.5279L15.2735 29.4721ZM37.7706 19.1217L42.7677 34.2796L45.7408 33.2994L40.7436 18.1415L37.7706 19.1217ZM22.8196 40.8497L17.1625 24.7444L14.209 25.7819L19.8661 41.8872L22.8196 40.8497ZM48.0042 29.5116L44.8928 20.038L41.9186 21.0147L45.03 30.4884L48.0042 29.5116ZM18.6678 38.9458L15.2735 29.4721L12.3265 30.5279L15.7208 40.0016L18.6678 38.9458Z" fill="#42A5F5"/>
<path d="M31.8086 14.4632L19.5514 18.6316C19.1743 18.8211 18.8914 19.2 19.08 19.6737L26.8114 42.7895C27 43.1684 27.3771 43.4526 27.8486 43.2632L40.1057 39.0947C40.4828 38.9053 40.7657 38.5263 40.5771 38.0526L32.8457 14.9369C32.7514 14.5579 32.28 14.3684 31.8086 14.4632Z" fill="#FFF3E0"/>
<path d="M35.8629 43.0737C36.0514 43.7369 35.7686 44.4 35.1086 44.5895C34.4486 44.779 33.7886 44.4948 33.6 43.8316C33.4114 43.1684 33.6943 42.5053 34.3543 42.3158C35.0143 42.0316 35.6743 42.4105 35.8629 43.0737Z" fill="#A6642A"/>
</svg>
