<svg width="60" height="60" viewBox="0 0 60 60" fill="none" xmlns="http://www.w3.org/2000/svg">
<path d="M45 22V29H39V22H37V29H31V22H29V29H22V31H29V37H22V39H29V45H22V47H47V22H45ZM45 31V37H39V31H45ZM31 31H37V37H31V31ZM31 39H37V45H31V39ZM39 45V39H45V45H39Z" fill="#90CAF9"/>
<path d="M46 14H14V46H22V22H46V14Z" fill="#00BCD4"/>
<path d="M13 13V47H23V23H47V13H13ZM15 29V23H21V29H15ZM21 31V37H15V31H21ZM23 15H29V21H23V15ZM31 15H37V21H31V15ZM21 15V21H15V15H21ZM15 45V39H21V45H15ZM45 21H39V15H45V21Z" fill="#0097A7"/>
</svg>
