<svg width="60" height="60" viewBox="0 0 60 60" fill="none" xmlns="http://www.w3.org/2000/svg">
<path d="M45 45.1H15C13.3 45.1 12 43.8 12 42.1V15C12 13.3 13.3 12 15 12H45C46.7 12 48 13.3 48 15V42.1C48 43.7 46.7 45.1 45 45.1Z" fill="#FF8F00"/>
<path d="M45 48H15C13.3 48 12 46.7 12 45V20C12 18.3 13.3 17 15 17H45C46.7 17 48 18.3 48 20V45C48 46.7 46.7 48 45 48Z" fill="#DD2C00"/>
<path d="M21 25C22.1046 25 23 24.1046 23 23C23 21.8954 22.1046 21 21 21C19.8954 21 19 21.8954 19 23C19 24.1046 19.8954 25 21 25Z" fill="#B71C1C"/>
<path d="M39 25C40.1046 25 41 24.1046 41 23C41 21.8954 40.1046 21 39 21C37.8954 21 37 21.8954 37 23C37 24.1046 37.8954 25 39 25Z" fill="#B71C1C"/>
<path d="M30 33C24.5 33 20 28.5 20 23C20 22.4 20.4 22 21 22C21.6 22 22 22.4 22 23C22 27.4 25.6 31 30 31C34.4 31 38 27.4 38 23C38 22.4 38.4 22 39 22C39.6 22 40 22.4 40 23C40 28.5 35.5 33 30 33Z" fill="white"/>
</svg>
