<svg width="60" height="60" viewBox="0 0 60 60" fill="none" xmlns="http://www.w3.org/2000/svg">
<path fill-rule="evenodd" clip-rule="evenodd" d="M42.6389 29.07C42.9502 29.69 43.4692 30 44.0919 30C44.7146 30 45.2335 29.69 45.5448 29.1734C45.6634 28.8783 45.891 28.366 46.1819 27.7113C47.419 24.9272 49.8 19.5685 49.8 17.3934C49.8 14.0867 47.2054 11.4 44.0919 11.4C40.9784 11.4 38.3838 14.0867 38.3838 17.29C38.3838 19.9767 41.9124 27.52 42.6389 29.07ZM41.4973 17.3934C41.4973 15.74 42.6389 14.5 44.0919 14.5C45.5448 14.5 46.6865 15.74 46.6865 17.3934C46.6865 18.4267 45.4411 21.7334 44.0919 24.73C42.7427 21.7334 41.4973 18.4267 41.4973 17.3934Z" fill="#388E3C"/>
<path d="M30.6 35.1667C29.7697 35.1667 29.0432 34.4434 29.0432 33.6167V19.5634C29.0432 18.7367 29.7697 18.0134 30.6 18.0134C31.4303 18.0134 32.1568 18.6334 32.1568 19.5634V33.6167C32.1568 34.4434 31.4303 35.1667 30.6 35.1667Z" fill="#388E3C"/>
<path d="M37.3459 42.4C32.7795 42.4 29.0432 38.68 29.0432 34.1334C29.0432 33.3067 29.7697 32.5834 30.6 32.5834C31.4303 32.5834 32.1568 33.3067 32.1568 34.1334C32.1568 37.0267 34.44 39.3 37.3459 39.3C40.2519 39.3 42.5351 37.0267 42.5351 34.1334C42.5351 33.3067 43.2616 32.5834 44.0919 32.5834C44.9222 32.5834 45.6487 33.3067 45.6487 34.1334C45.6487 38.68 41.9124 42.4 37.3459 42.4Z" fill="#388E3C"/>
<path d="M17.1081 37.75C16.2778 37.75 15.5513 37.0267 15.5513 36.2V20.08C15.5513 19.2534 16.2778 18.53 17.1081 18.53C17.9384 18.53 18.6648 19.2534 18.6648 20.08V36.2C18.6648 37.0267 17.9384 37.75 17.1081 37.75Z" fill="#388E3C"/>
<path d="M30.6 21.2167C29.7697 21.2167 29.0432 20.4934 29.0432 19.6667C29.0432 16.7734 26.76 14.5 23.854 14.5C20.9481 14.5 18.6648 16.7734 18.6648 19.6667C18.6648 20.4934 17.9384 21.2167 17.1081 21.2167C16.2778 21.2167 15.5513 20.4934 15.5513 19.6667C15.5513 15.12 19.2875 11.4 23.854 11.4C28.4205 11.4 32.1567 15.12 32.1567 19.6667C32.1567 20.4934 31.4303 21.2167 30.6 21.2167Z" fill="#388E3C"/>
<path d="M44.0919 35.6834C43.2616 35.6834 42.5351 34.96 42.5351 34.1334V28.5534C42.5351 27.7267 43.2616 27.0034 44.0919 27.0034C44.9222 27.0034 45.6487 27.7267 45.6487 28.5534V34.1334C45.6487 34.96 44.9222 35.6834 44.0919 35.6834Z" fill="#388E3C"/>
<path d="M45.2335 22.0433C44.9222 22.87 44.507 23.8 44.0919 24.73L45.6487 28.9667C45.96 28.3467 46.3751 27.3133 46.7903 26.28L45.2335 22.0433Z" fill="#1B5E20"/>
<path fill-rule="evenodd" clip-rule="evenodd" d="M11.4 42.9167C11.4 46.0167 13.9946 48.6 17.1081 48.6C20.2216 48.6 22.8162 46.0167 22.8162 42.9167C22.8162 39.8167 20.2216 37.2333 17.1081 37.2333C13.9946 37.2333 11.4 39.8167 11.4 42.9167ZM14.5135 42.9167C14.5135 41.47 15.6551 40.3334 17.1081 40.3334C18.5611 40.3334 19.7027 41.47 19.7027 42.9167C19.7027 44.3634 18.5611 45.5 17.1081 45.5C15.6551 45.5 14.5135 44.3634 14.5135 42.9167Z" fill="#795548"/>
<path d="M17.1081 40.85C16.2778 40.85 15.5513 40.1267 15.5513 39.3V36.2C15.5513 35.3734 18.6648 35.3734 18.6648 36.2V39.3C18.6648 40.1267 17.9384 40.85 17.1081 40.85Z" fill="#DD9F05"/>
<path d="M45.6487 33.1H42.5352C42.5352 33.1 41.4973 32.0667 41.4973 31.0333C41.4973 30 42.5352 28.9667 42.5352 28.9667H45.6487C45.6487 28.9667 46.6865 30 46.6865 31.0333C46.6865 32.0667 45.6487 33.1 45.6487 33.1Z" fill="#455A64"/>
<path d="M18.6649 37.2334H15.5513C14.9286 37.2334 14.5135 36.82 14.5135 36.2C14.5135 35.58 14.9286 35.1667 15.5513 35.1667H18.6649C19.2876 35.1667 19.7027 35.58 19.7027 36.2C19.7027 36.82 19.2876 37.2334 18.6649 37.2334Z" fill="#FFC107"/>
</svg>
