<svg width="60" height="60" viewBox="0 0 60 60" fill="none" xmlns="http://www.w3.org/2000/svg">
<path d="M44.5 50C43.4 50 42.3 49.7 41.6 49.4L10.5 31.5C9.99999 31.2 9.89999 30.6 10.1 30.1C10.4 29.6 11 29.5 11.5 29.7L42.6 47.5C42.6 47.5 45.6 48.8 47.2 46.6C47.5 46.2 48.2 46.1 48.6 46.4C49 46.7 49.1 47.4 48.8 47.8C47.6 49.5 46 50 44.5 50Z" fill="#455A64"/>
<path d="M44.5 10C46.4 10 48 11.6 48 13.5C48 15.4 46.4 17 44.5 17C42.6 17 41 15.4 41 13.5C41 11.6 42.6 10 44.5 10Z" fill="#FFB74D"/>
<path d="M26.5 28C26.1 28 25.8 27.9 25.4 27.8C23.6 27.2 22.6 25.2 23.2 23.4C25.8 15.7 34.6 14.2 35 14.1C36.9 13.6 38.8 14.8 39.2 16.6L38 21C36.3 21.4 30.9 22.2 29.8 25.6C29.3 27.1 28 28 26.5 28Z" fill="#5EC08F"/>
<path d="M30 40.1C29.6 40.1 29.2 40 28.8 39.7C27.9 39.1 27.7 37.8 28.3 36.9L32.2 32.4L24.4 27.3L27 22L36.2 30.4C37 31.1 37.2 32.3 36.6 33.1L31.6 39.2C31.2 39.8 30.6 40.1 30 40.1Z" fill="#5EC08F"/>
<path d="M35 14.1C34.7 14.2 30.5 14.9 27.1 17.8L33.4 22.4C35.2 21.6 37.1 21.3 38 21.1L39.2 16.8C38.8 14.8 36.9 13.6 35 14.1Z" fill="#FF754C"/>
<path d="M36 21.5V19L34.4 21.9C35 21.8 35.5 21.6 36 21.5Z" fill="#1976D2"/>
<path d="M30.2 24.9C31.3 22.9 34 22 36 21.5V19C31.3 20 29.3 22.2 28.5 23.3L30.2 24.9Z" fill="#E64A19"/>
<path d="M24.6 20.4L30.1 24.8C30.6 24 31.3 23.4 32.1 22.9L26 18.7C25.5 19.2 25.1 19.8 24.6 20.4Z" fill="#338E5C"/>
<path d="M21.5793 13.1845L20.4371 14.8263L43.4223 30.8171L44.5645 29.1753L21.5793 13.1845Z" fill="#B0BEC5"/>
<path d="M21.3 15.4L19.5 14.2L18 12L20.6 12.5L22.4 13.7L21.3 15.4Z" fill="#546E7A"/>
<path d="M43.5 30.8C43.3 30.8 43 30.7 42.8 30.6L36.8 26.8C36.3 26.5 36 26 36 25.5V17.5C36 16.7 36 14 36 14C39 14 40 15 40 17L39 24.6L44.2 28C44.9 28.4 45.2 29.3 44.9 30C44.6 30.5 44.1 30.8 43.5 30.8Z" fill="#FF754C"/>
<path d="M18 16.3C18 16.3 20.8 16.4 22 14.7C23.2 13 22 10.3 22 10.3" fill="#78909C"/>
</svg>
