<svg width="60" height="60" viewBox="0 0 60 60" fill="none" xmlns="http://www.w3.org/2000/svg">
<path d="M31 17.9H29V42.1H31V17.9Z" fill="#1565C0"/>
<path d="M19.6619 23.0778L18.6863 24.8236L40.247 36.8723L41.2226 35.1265L19.6619 23.0778Z" fill="#1565C0"/>
<path d="M40.2504 23.1246L18.6897 35.1782L19.6657 36.924L41.2264 24.8704L40.2504 23.1246Z" fill="#1565C0"/>
<path d="M30 42.5L25.3 38L18.8 36.3L20.5 30L18.8 23.7L25.3 22L30 17.5L34.7 22L41.2 23.7L39.4 30L41.1 36.3L34.6 38L30 42.5ZM21.3 34.8L26.3 36.1L30 39.7L33.7 36.1L38.7 34.8L37.3 30L38.6 25.2L33.6 23.9L30 20.3L26.3 23.9L21.3 25.2L22.6 30L21.3 34.8Z" fill="#1565C0"/>
<path d="M31 41H29V50H31V41Z" fill="#2196F3"/>
<path d="M31 10H29V19H31V10Z" fill="#2196F3"/>
<path d="M40.2223 34.504L39.2345 36.243L47.4078 40.8857L48.3956 39.1467L40.2223 34.504Z" fill="#2196F3"/>
<path d="M12.6308 19.1269L11.655 20.8727L19.5984 25.3126L20.5742 23.5668L12.6308 19.1269Z" fill="#2196F3"/>
<path d="M19.8277 34.5566L11.6225 39.1428L12.5983 40.8886L20.8035 36.3024L19.8277 34.5566Z" fill="#2196F3"/>
<path d="M47.3339 19.1807L39.2159 23.7181L40.1917 25.4639L48.3097 20.9265L47.3339 19.1807Z" fill="#2196F3"/>
<path d="M30 20.3L23.7 14.2L25.1 12.8L30 17.5L34.9 12.8L36.3 14.2L30 20.3Z" fill="#2196F3"/>
<path d="M34.9 47.2L30 42.5L25.1 47.2L23.7 45.7999L30 39.7L36.3 45.7999L34.9 47.2Z" fill="#2196F3"/>
<path d="M12.7 27.4L12.2 25.5L18.8 23.7L17.1 17.3L19 16.7L21.3 25.2L12.7 27.4Z" fill="#2196F3"/>
<path d="M41 43.3L38.7 34.8L47.3 32.6L47.8 34.5L41.2 36.3L42.9 42.7L41 43.3Z" fill="#2196F3"/>
<path d="M47.3 27.4L38.7 25.2L41 16.7L42.9 17.3L41.2 23.7L47.8 25.5L47.3 27.4Z" fill="#2196F3"/>
<path d="M19 43.3L17.1 42.7L18.8 36.3L12.2 34.5L12.7 32.6L21.3 34.8L19 43.3Z" fill="#2196F3"/>
</svg>
