<svg width="60" height="60" viewBox="0 0 60 60" fill="none" xmlns="http://www.w3.org/2000/svg">
<path fill-rule="evenodd" clip-rule="evenodd" d="M34.8 15.6C34.8 13.6119 36.4119 12 38.4 12C40.3881 12 42 13.6119 42 15.6C42 17.5872 40.3881 19.2 38.4 19.2C36.4119 19.2 34.8 17.5872 34.8 15.6ZM45.1509 30C45.8961 30 46.5009 29.3952 46.5009 28.65C46.5009 27.9048 45.8961 27.3 45.1509 27.3H40.2L37.8411 21.3699C37.7763 21.2178 37.6773 21.0873 37.5639 20.9694C37.4847 20.8821 37.3965 20.8047 37.2939 20.7435L33 18.3C32.7912 18.1731 32.55 18.1065 32.3061 18.1065L32.2953 18.1056L26.5488 17.4C26.2824 17.4 26.0214 17.4792 25.8 17.6268L21.0012 21.2268C20.3811 21.6399 20.2128 22.4787 20.6268 23.0988C21.0399 23.7198 21.8778 23.8863 22.4988 23.4732L26.9574 20.1L30.5646 21.1746L26.7 28.0263L26.7396 28.0506L22.0884 35.4H15C14.0064 35.4 13.2 36.2046 13.2 37.2C13.2 38.1945 14.0064 39 15 39H23.1C23.7282 39 24.3114 38.6733 24.6372 38.136L28.2714 34.0122L33.3735 38.5824L29.6268 45.3252C29.1426 46.1955 29.4567 47.2899 30.3252 47.7732C30.6024 47.9253 30.903 48 31.1982 48C31.8309 48 32.4447 47.6661 32.7732 47.0748L37.2732 38.9748C37.7061 38.1945 37.5045 37.2171 36.7989 36.6735L32.1045 31.2645L35.7891 24.7305L38.0688 29.181C38.2821 29.6787 38.7699 30 39.3099 30H45.1509Z" fill="#FFBA57"/>
<path d="M26.7396 28.0506L22.0884 35.4L24.6372 38.1351L31.1757 30.7164L26.7396 28.0506Z" fill="#2D4C5C"/>
<path d="M37.2939 20.7435L33 18.3C32.7912 18.1731 32.55 18.1065 32.3061 18.1065L32.2953 18.1056L26.7 28.0263L32.1 31.2708L37.7583 21.2376C37.644 21.0387 37.4928 20.8623 37.2939 20.7435Z" fill="#00ACC1"/>
<path d="M32.1 31.2717L26.7 28.0272L27.6108 26.4126L26.2473 28.83C25.3725 30.2871 25.8216 32.16 27.231 33.0807L33.3726 38.5824L36.798 36.6744L32.1036 31.2654L32.1 31.2717Z" fill="#546E7A"/>
</svg>
