<svg width="60" height="60" viewBox="0 0 60 60" fill="none" xmlns="http://www.w3.org/2000/svg">
<path d="M41.6526 39.4737H18.3474L12 34.7369C12 34.7369 15.15 28.1053 30 28.1053C44.85 28.1053 48 34.7369 48 34.7369L41.6526 39.4737Z" fill="#455A64"/>
<path d="M41.7739 38.5264H18.2261L14.8421 45.1579L30 48L45.1579 45.1579L41.7739 38.5264Z" fill="#455A64"/>
<path d="M30 47.0526C30 47.0526 22.4211 44.1991 22.4211 40.421C22.4211 39.467 22.4211 33.6398 22.4211 33.6398H37.5789C37.5789 33.6398 37.5789 39.4936 37.5789 40.421C37.5789 44.238 30 47.0526 30 47.0526Z" fill="#263238"/>
<path d="M21 33.7895C22.3081 33.7895 23.3684 32.7291 23.3684 31.421C23.3684 30.113 22.3081 29.0526 21 29.0526C19.692 29.0526 18.6316 30.113 18.6316 31.421C18.6316 32.7291 19.692 33.7895 21 33.7895Z" fill="#FFA726"/>
<path d="M39 33.7895C40.3081 33.7895 41.3684 32.7291 41.3684 31.421C41.3684 30.113 40.3081 29.0526 39 29.0526C37.692 29.0526 36.6316 30.113 36.6316 31.421C36.6316 32.7291 37.692 33.7895 39 33.7895Z" fill="#FFA726"/>
<path d="M39.4737 27.3682C39.4737 19.3317 20.5263 22.1359 20.5263 27.3682C20.5263 28.4776 20.5263 33.6275 20.5263 34.7368C20.5263 39.9692 24.7677 44.2105 30 44.2105C35.2323 44.2105 39.4737 39.9692 39.4737 34.7368C39.4737 33.6275 39.4737 28.4776 39.4737 27.3682Z" fill="#FFB74D"/>
<path d="M39.4737 24.3158H42.3158V29.5841L39.4737 32.8421V24.3158Z" fill="#424242"/>
<path d="M20.5263 24.3158H17.6842V29.5841L20.5263 32.8421V24.3158Z" fill="#424242"/>
<path d="M32.179 31.5092C31.8644 31.5414 30.6073 31.8948 30 31.8948C29.3927 31.8948 28.1356 31.5414 27.8211 31.5092L21.4737 30.9474L22.1747 34.0728C22.3623 34.9074 22.9118 35.6103 23.6754 35.995C24.3338 36.3265 25.212 36.6316 26.2191 36.6316C28.4236 36.6316 29.0526 34.6289 29.0526 33.8122V33.7895C29.0526 33.2665 29.4771 32.8421 30 32.8421C30.523 32.8421 30.9474 33.2665 30.9474 33.7895V33.8122C30.9474 34.6289 31.5764 36.6316 33.781 36.6316C34.7871 36.6316 35.6662 36.3265 36.3246 35.995C37.0882 35.6103 37.6377 34.9074 37.8253 34.0728L38.5263 30.9474L32.179 31.5092Z" fill="#263238"/>
<path d="M22.4211 32.8421L18.6316 30V28.1053L22.4211 30.9474L23.3684 31.8076L22.4211 32.8421Z" fill="#263238"/>
<path d="M37.579 32.8421L41.3684 30V28.1053L37.579 30.9474L36.6316 31.9431L37.579 32.8421Z" fill="#263238"/>
<path d="M30 31.8948C39.9411 31.8948 48 29.3499 48 26.2106C48 23.0713 39.9411 20.5264 30 20.5264C20.0589 20.5264 12 23.0713 12 26.2106C12 29.3499 20.0589 31.8948 30 31.8948Z" fill="#546E7A"/>
<path d="M34.4289 12C32.7351 12 31.8237 12.9474 30 12.9474C28.1763 12.9474 27.3947 12 25.5711 12C22.314 12 20.7518 18.4857 19.5789 23.7332C19.5789 26.9391 26.1148 27.1579 30 27.1579C33.8852 27.1579 40.4211 27.0849 40.4211 23.7332C38.9877 18.1939 37.6851 12 34.4289 12Z" fill="#607D8B"/>
</svg>
