<svg width="60" height="60" viewBox="0 0 60 60" fill="none" xmlns="http://www.w3.org/2000/svg">
<path d="M37.351 28.5H27.2567H26.5371V15.8901C26.5371 14.8947 25.6286 13.2 23.8114 13.2C21.9943 13.2 21.0857 14.9901 21.0857 15.8901C21.0857 16.7901 21.0857 37.4928 21.0857 37.4928L17.1107 33.8739C15.8478 32.6211 13.978 32.5077 12.715 34.0377C11.593 35.2905 11.8719 37.2372 12.9967 38.3478L18.1683 43.4706C20.9976 46.5009 25.2297 47.4 28.0308 47.4H34.2809C38.9146 47.4 42.7897 43.7496 42.7897 39.1614C42.7897 39.1614 42.8024 34.8144 42.8024 29.4L37.351 28.5Z" fill="#FFCC80"/>
<path d="M26.5372 32.1774C26.5372 33.6201 27.7637 34.8 29.2629 34.8C30.7629 34.8 31.9886 33.6201 31.9886 32.1774V14.0208C31.9886 12.579 30.7629 11.4 29.2629 11.4C27.7637 11.4 26.5372 12.579 26.5372 14.0208V32.1774Z" fill="#FFCC80"/>
<path d="M37.44 35.7774C37.44 37.2201 38.6666 38.4 40.1657 38.4C41.6658 38.4 42.8914 37.2201 42.8914 35.7774L42.9051 19.4208C42.9051 17.9781 41.6794 16.8 40.1793 16.8C38.6802 16.8 37.4536 17.979 37.4536 19.4208L37.44 35.7774Z" fill="#FFCC80"/>
<path d="M31.9886 33.9774C31.9886 35.4201 33.2152 36.6 34.7143 36.6C36.2143 36.6 37.44 35.4201 37.44 33.9774V15.8208C37.44 14.379 36.2143 13.2 34.7143 13.2C33.2152 13.2 31.9886 14.379 31.9886 15.8208V33.9774Z" fill="#FFCC80"/>
<path d="M26.5444 15.9C26.5426 15.9072 26.5372 15.9261 26.5372 15.9261L26.5444 28.5063C26.5444 29.0031 26.9506 29.4063 27.453 29.4063C27.9554 29.4063 28.3616 29.0031 28.3616 28.5063L26.5444 15.9Z" fill="#F2A25A"/>
<path d="M32.0358 15.3726C32.0168 15.4797 32.0077 15.5877 32.0022 15.6975V15.6993L31.9886 29.4C31.9886 29.8968 32.3947 30.3 32.8972 30.3C33.3996 30.3 33.8057 29.8968 33.8057 29.4L32.0358 15.3726Z" fill="#F2A25A"/>
<path d="M37.4737 18.6458C37.4546 18.7529 37.4455 18.8609 37.4401 18.9707V18.9725V30.2999C37.4401 30.7967 37.8462 31.1999 38.3486 31.1999C38.8511 31.1999 39.2572 30.7967 39.2572 30.2999L37.4737 18.6458Z" fill="#F2A25A"/>
<path d="M29.2629 39.3C30.7683 39.3 31.9886 38.0912 31.9886 36.6C31.9886 35.1089 30.7683 33.9 29.2629 33.9C27.7575 33.9 26.5372 35.1089 26.5372 36.6C26.5372 38.0912 27.7575 39.3 29.2629 39.3Z" fill="#F44336"/>
<path d="M34.7143 39.3C36.2197 39.3 37.44 38.0912 37.44 36.6C37.44 35.1089 36.2197 33.9 34.7143 33.9C33.2089 33.9 31.9886 35.1089 31.9886 36.6C31.9886 38.0912 33.2089 39.3 34.7143 39.3Z" fill="#F44336"/>
<path d="M31.9131 42.9L36.7431 38.4L31.9885 36.6L26.9532 38.0292L31.9131 42.9Z" fill="#F44336"/>
</svg>
