<svg width="60" height="60" viewBox="0 0 60 60" fill="none" xmlns="http://www.w3.org/2000/svg">
<path fill-rule="evenodd" clip-rule="evenodd" d="M17.5986 33.2424L31.9845 18.8927H43.5845C45.7199 18.8927 47.3999 20.6196 47.3999 22.7503V34.3212L33.0652 48.67C31.5563 50.1767 29.1077 50.1767 27.5968 48.67L17.5986 38.6956C16.0886 37.1889 16.0886 34.7482 17.5986 33.2424ZM39.6666 24.6878C39.6666 25.7541 40.5327 26.6196 41.5999 26.6196C42.6671 26.6196 43.5333 25.7541 43.5333 24.6878C43.5333 23.6196 42.6671 22.7561 41.5999 22.7561C40.5327 22.7561 39.6666 23.6196 39.6666 24.6878Z" fill="#DD2C00"/>
<path fill-rule="evenodd" clip-rule="evenodd" d="M13.73 24.5487L28.0918 10.2H39.6724C41.8049 10.2 43.5333 11.926 43.5333 14.0567V25.6295L29.1706 39.9773C27.6645 41.484 25.2198 41.484 23.7118 39.9773L13.73 30.0029C12.223 28.4962 12.223 26.0555 13.73 24.5487ZM35.8251 15.9613C35.8251 17.0228 36.6912 17.8853 37.7584 17.8853L37.742 17.9017C38.8102 17.9017 39.6918 17.0238 39.6918 15.9613C39.6918 14.8979 38.8256 14.0383 37.7584 14.0383C36.6912 14.0383 35.8251 14.8969 35.8251 15.9613Z" fill="#FF5722"/>
</svg>
