<svg width="60" height="60" viewBox="0 0 60 60" fill="none" xmlns="http://www.w3.org/2000/svg">
<path d="M9 39.68C9 36.2779 12.1343 33.52 16 33.52C19.8658 33.52 23 36.2779 23 39.68H9Z" fill="#2196F3"/>
<path d="M37 39.68C37 36.2779 40.1342 33.52 44 33.52C47.8657 33.52 51 36.2779 51 39.68H37Z" fill="#2196F3"/>
<path d="M45.7509 31.76H42.2509V34.4C42.2509 34.4 42.5379 35.28 43.965 35.28C45.3922 35.28 45.7509 34.4 45.7509 34.4V31.76Z" fill="#EF8D3C"/>
<path d="M47.0625 30.88C47.7874 30.88 48.375 30.289 48.375 29.56C48.375 28.831 47.7874 28.24 47.0625 28.24C46.3376 28.24 45.75 28.831 45.75 29.56C45.75 30.289 46.3376 30.88 47.0625 30.88Z" fill="#EF8D3C"/>
<path d="M40.9375 30.88C41.6624 30.88 42.25 30.289 42.25 29.56C42.25 28.831 41.6624 28.24 40.9375 28.24C40.2126 28.24 39.625 28.831 39.625 29.56C39.625 30.289 40.2126 30.88 40.9375 30.88Z" fill="#EF8D3C"/>
<path d="M47.5 26.6701C47.5 24.7288 45.9302 24.72 44 24.72C42.0697 24.72 40.5 24.7288 40.5 26.6701C40.5 26.9755 40.5 29.6938 40.5 30C40.5 31.9413 42.0697 33.52 44 33.52C45.9302 33.52 47.5 31.9413 47.5 30C47.5 29.6947 47.5 26.9764 47.5 26.6701Z" fill="#FFB74D"/>
<path d="M43.8084 22.96C41.676 23.1527 39.625 24.6584 39.625 27.8651V29.12L40.5 30V27.36L46.0213 25.4231L47.5 27.36V30L48.375 29.12V28.0614C48.375 25.9371 48.2569 24.361 45.75 23.84L45.3256 22.96H43.8084Z" fill="#424242"/>
<path d="M17.7509 31.76H14.2509V34.4C14.2509 34.4 14.5379 35.28 15.965 35.28C17.3921 35.28 17.7509 34.4 17.7509 34.4V31.76Z" fill="#EF8D3C"/>
<path d="M19.0625 30.88C19.7874 30.88 20.375 30.289 20.375 29.56C20.375 28.831 19.7874 28.24 19.0625 28.24C18.3376 28.24 17.75 28.831 17.75 29.56C17.75 30.289 18.3376 30.88 19.0625 30.88Z" fill="#EF8D3C"/>
<path d="M12.9375 30.88C13.6624 30.88 14.25 30.289 14.25 29.56C14.25 28.831 13.6624 28.24 12.9375 28.24C12.2126 28.24 11.625 28.831 11.625 29.56C11.625 30.289 12.2126 30.88 12.9375 30.88Z" fill="#EF8D3C"/>
<path d="M19.5 26.6701C19.5 24.7288 17.9302 24.72 16 24.72C14.0697 24.72 12.5 24.7288 12.5 26.6701C12.5 26.9755 12.5 29.6938 12.5 30C12.5 31.9413 14.0697 33.52 16 33.52C17.9302 33.52 19.5 31.9413 19.5 30C19.5 29.6947 19.5 26.9764 19.5 26.6701Z" fill="#FFB74D"/>
<path d="M15.8084 22.96C13.676 23.1527 11.625 24.6584 11.625 27.8651V29.12L12.5 30V27.36L18.0213 25.4231L19.5 27.36V30L20.375 29.12V28.0614C20.375 25.9371 20.2569 24.361 17.75 23.84L17.3256 22.96H15.8084Z" fill="#424242"/>
<path fill-rule="evenodd" clip-rule="evenodd" d="M24.3125 25.6C25.037 25.6 25.625 26.1913 25.625 26.92C25.625 27.6486 25.037 28.24 24.3125 28.24C23.588 28.24 23 27.6486 23 26.92C23 26.1913 23.588 25.6 24.3125 25.6ZM35.6875 28.24C36.412 28.24 37 27.6486 37 26.92C37 26.1913 36.412 25.6 35.6875 25.6C34.9621 25.6 34.375 26.1913 34.375 26.92C34.375 27.6486 34.9621 28.24 35.6875 28.24Z" fill="#FFA726"/>
<path d="M33.5 34.4C33.5 34.4 33.5 37.92 30 37.92C26.5 37.92 26.5 34.4 26.5 34.4" fill="#FF9800"/>
<path d="M33.2813 34.4L30 35.0776L26.7188 34.4C26.7188 34.4 19.5 35.7438 19.5 43.2H40.5C40.5 35.7719 33.2813 34.4 33.2813 34.4Z" fill="#4FC3F7"/>
<path d="M30 37.92C26.5 37.92 26.5 34.4 26.5 34.4V30.88H33.5V34.4C33.5 34.4 33.5 37.92 30 37.92Z" fill="#FF9800"/>
<path d="M36.125 23.5584C36.125 18.3849 23.875 20.1897 23.875 23.5584V27.4224C23.875 30.7876 26.6164 33.52 30 33.52C33.3828 33.52 36.125 30.7876 36.125 27.4216V23.5584Z" fill="#FFB74D"/>
<path d="M30 39.68C32.6766 39.68 34.8807 37.663 35.2045 35.06C34.431 34.7097 33.8019 34.5258 33.4947 34.4501C33.4676 36.3694 31.9162 37.92 30 37.92C28.0837 37.92 26.5315 36.3694 26.5052 34.4484C26.1964 34.524 25.5681 34.7062 24.7946 35.0538C25.1149 37.6604 27.3216 39.68 30 39.68Z" fill="#01579B"/>
<path d="M30 16.8C25.7475 16.8 23 20.5954 23 23.9914V25.6L24.75 27.36V23.84L32.8 21.2L35.25 23.84V27.36L37 25.6V24.8881C37 22.0562 36.2729 18.9014 32.8 18.2071L32.0991 16.8H30Z" fill="#795548"/>
<path fill-rule="evenodd" clip-rule="evenodd" d="M27.375 27.36C26.892 27.36 26.5 26.9649 26.5 26.48C26.5 25.9951 26.892 25.6 27.375 25.6C27.858 25.6 28.25 25.9951 28.25 26.48C28.25 26.9649 27.858 27.36 27.375 27.36ZM32.625 25.6C32.142 25.6 31.75 25.9951 31.75 26.48C31.75 26.9649 32.142 27.36 32.625 27.36C33.108 27.36 33.5 26.9649 33.5 26.48C33.5 25.9951 33.108 25.6 32.625 25.6Z" fill="#784719"/>
</svg>
