<svg width="60" height="60" viewBox="0 0 60 60" fill="none" xmlns="http://www.w3.org/2000/svg">
<path d="M25.4666 25.2273V36.6818C25.4666 38.7904 27.1979 40.5 29.3333 40.5C31.4686 40.5 33.1999 38.7904 33.1999 36.6818V25.2273H25.4666Z" fill="#FF3D00"/>
<path d="M29.3333 51C33.6043 51 37.0666 47.5811 37.0666 43.3637C37.0666 39.1462 33.6043 35.7273 29.3333 35.7273C25.0623 35.7273 21.6 39.1462 21.6 43.3637C21.6 47.5811 25.0623 51 29.3333 51Z" fill="#FF3D00"/>
<rect x="35.1333" y="25.2273" width="3.86667" height="1.90909" fill="#1565C0"/>
<rect x="35.1333" y="29.0455" width="3.86667" height="1.90909" fill="#1565C0"/>
<rect x="35.1333" y="32.8636" width="3.86667" height="1.90909" fill="#1565C0"/>
<path d="M33.1999 25.2273V12.8182C33.1999 10.7096 31.4686 9 29.3333 9C27.1979 9 25.4666 10.7096 25.4666 12.8182V25.2273H33.1999Z" fill="#CFD8DC"/>
<rect x="35.1333" y="21.4091" width="3.86667" height="1.90909" fill="#FF3D00"/>
<rect x="35.1333" y="17.5909" width="3.86667" height="1.90909" fill="#FF3D00"/>
<rect x="35.1333" y="13.7727" width="3.86667" height="1.90909" fill="#FF3D00"/>
</svg>
