<svg width="60" height="60" viewBox="0 0 60 60" fill="none" xmlns="http://www.w3.org/2000/svg">
<path d="M12 33H48V24C48 22.0119 46.3881 20.4 44.4 20.4H15.6C13.6119 20.4 12 22.0119 12 24V33Z" fill="#616161"/>
<rect x="16.5" y="17.7" width="27" height="2.7" fill="#424242"/>
<path d="M15.6 43.8H44.4C46.3881 43.8 48 42.1881 48 40.2V33H12V40.2C12 42.1881 13.6119 43.8 15.6 43.8Z" fill="#424242"/>
<path d="M42.15 39.3H17.85C17.1048 39.3 16.5 38.6952 16.5 37.95C16.5 37.2048 17.1048 36.6 17.85 36.6H42.15C42.8952 36.6 43.5 37.2048 43.5 37.95C43.5 38.6952 42.8952 39.3 42.15 39.3Z" fill="#242424"/>
<rect x="18.3" y="13.2" width="23.4" height="7.2" fill="#90CAF9"/>
<rect x="18.3" y="39.3" width="23.4" height="8.1" fill="#90CAF9"/>
<rect x="18.3" y="37.5" width="23.4" height="1.8" fill="#42A5F5"/>
<path d="M30 34.8C33.4794 34.8 36.3 31.9794 36.3 28.5C36.3 25.0206 33.4794 22.2 30 22.2C26.5206 22.2 23.7 25.0206 23.7 28.5C23.7 31.9794 26.5206 34.8 30 34.8Z" fill="#FFD600"/>
<path d="M28.8327 32.334C28.8327 32.1756 28.8633 32.0271 28.9182 31.8903C28.9776 31.7526 29.055 31.6338 29.1594 31.533C29.2638 31.4304 29.3916 31.3521 29.5374 31.299C29.685 31.2396 29.8461 31.2126 30.0324 31.2126C30.2133 31.2126 30.3807 31.2387 30.5283 31.299C30.6768 31.3521 30.8046 31.4304 30.909 31.533C31.0125 31.6338 31.0899 31.7526 31.1502 31.8903C31.2051 32.0271 31.2357 32.1756 31.2357 32.334C31.2357 32.4987 31.2051 32.6472 31.1502 32.7777C31.0908 32.9118 31.0134 33.0288 30.909 33.1341C30.8046 33.2304 30.6768 33.3078 30.5283 33.3663C30.3807 33.4212 30.2133 33.4509 30.0324 33.4509C29.8461 33.4509 29.685 33.4212 29.5374 33.3663C29.3916 33.3087 29.2638 33.2313 29.1594 33.1341C29.0559 33.0297 28.9785 32.9127 28.9182 32.7777C28.8633 32.6463 28.8327 32.4978 28.8327 32.334Z" fill="#934E09"/>
<path d="M30.891 30.3H29.1072L28.8552 24H31.1439L30.891 30.3Z" fill="#934E09"/>
</svg>
