<svg width="60" height="57" viewBox="0 0 60 57" fill="none" xmlns="http://www.w3.org/2000/svg">
<path fill-rule="evenodd" clip-rule="evenodd" d="M49.2 28.2841C49.2 38.2799 40.6022 46.3859 30 46.3859C19.3977 46.3859 10.8 38.2799 10.8 28.2841C10.8 18.2883 19.3977 10.1823 30 10.1823C40.6022 10.1823 49.2 18.2883 49.2 28.2841Z" fill="#00ACC1"/>
<path fill-rule="evenodd" clip-rule="evenodd" d="M45.36 28.2841C45.36 36.2833 38.4845 42.7656 30 42.7656C21.5155 42.7656 14.64 36.2833 14.64 28.2841C14.64 20.2849 21.5165 13.8026 30 13.8026C38.4835 13.8026 45.36 20.2858 45.36 28.2841Z" fill="#EEEEEE"/>
<rect x="29.04" y="16.5179" width="1.92" height="11.7662" fill="black"/>
<rect x="30" y="29.2679" width="2.11517" height="8.82423" transform="rotate(-90 30 29.2679)" fill="black"/>
<path fill-rule="evenodd" clip-rule="evenodd" d="M32.88 28.2841C32.88 29.7838 31.5898 30.9994 30 30.9994C28.4093 30.9994 27.12 29.7838 27.12 28.2841C27.12 26.7844 28.4093 25.5688 30 25.5688C31.5898 25.5688 32.88 26.7844 32.88 28.2841Z" fill="black"/>
<path fill-rule="evenodd" clip-rule="evenodd" d="M30.96 28.2841C30.96 28.7828 30.53 29.1892 30 29.1892C29.4701 29.1892 29.04 28.7828 29.04 28.2841C29.04 27.7836 29.4701 27.379 30 27.379C30.53 27.379 30.96 27.7836 30.96 28.2841Z" fill="#00ACC1"/>
</svg>
