<svg width="60" height="57" viewBox="0 0 60 57" fill="none" xmlns="http://www.w3.org/2000/svg">
<path fill-rule="evenodd" clip-rule="evenodd" d="M32.28 28.2841C34.75 25.9309 38.55 22.039 38.55 19.0522C38.55 14.5267 34.75 11.9019 30 11.9019C25.25 11.9019 21.45 14.5267 21.45 19.0522C21.45 22.039 25.25 26.0214 27.72 28.3746C25.25 30.6373 21.45 34.5292 21.45 37.6065C21.45 42.132 25.25 44.7567 30 44.7567C34.75 44.7567 38.55 42.132 38.55 37.6065C38.55 34.5292 34.75 30.6373 32.28 28.2841Z" fill="#BBDEFB"/>
<path fill-rule="evenodd" clip-rule="evenodd" d="M33.99 42.6751C33.99 42.6751 33.99 42.6751 34.085 42.5845C34.18 42.494 34.275 42.313 34.275 42.2225C34.465 41.8605 34.655 41.4079 34.845 40.8649C34.94 40.5934 35.035 40.3218 35.13 39.9598C35.225 39.5978 35.225 39.2357 35.32 38.9642C35.32 38.6022 35.415 38.2401 35.32 37.8781C35.32 37.516 35.225 37.154 35.13 36.792C35.035 36.4299 34.94 36.0679 34.845 35.7059C34.75 35.3438 34.56 35.0723 34.37 34.7103C34.18 34.4387 33.99 34.1672 33.8 33.8957C33.61 33.6242 33.42 33.4431 33.23 33.2621C32.85 32.8096 32.47 32.538 32.28 32.357C31.995 31.995 31.9 31.9045 31.9 31.9045C31.9 31.9045 31.995 32.0855 32.185 32.2665C32.375 32.538 32.66 32.8096 32.85 33.3526C32.945 33.6242 33.135 33.8052 33.23 34.0767C33.325 34.3482 33.42 34.6198 33.515 34.8913C33.61 35.1628 33.705 35.5248 33.705 35.7964C33.705 36.0679 33.8 36.4299 33.705 36.7015C33.705 36.973 33.705 37.335 33.61 37.6066C33.61 37.8781 33.42 38.1496 33.42 38.4211C33.325 38.6927 33.23 38.9642 33.04 39.1452C32.945 39.4167 32.755 39.5978 32.66 39.7788C32.375 40.1408 32.185 40.4123 31.995 40.5934C31.9 40.8649 31.805 40.9554 31.805 40.9554C31.71 41.0459 31.71 41.0459 31.71 41.0459L33.99 42.6751Z" fill="white"/>
<path fill-rule="evenodd" clip-rule="evenodd" d="M37.6 10.1823C38.17 10.1823 38.55 10.5443 38.55 11.0874V14.7077C38.55 15.2508 38.17 15.6128 37.6 15.6128H22.4C21.83 15.6128 21.45 15.2508 21.45 14.7077V11.0874C21.45 10.5443 21.83 10.1823 22.4 10.1823H37.6ZM37.6 46.3859C38.17 46.3859 38.55 46.0239 38.55 45.4808V41.8605C38.55 41.3174 38.17 40.9554 37.6 40.9554H22.4C21.83 40.9554 21.45 41.3174 21.45 41.8605V45.4808C21.45 46.0239 21.83 46.3859 22.4 46.3859H37.6Z" fill="#6D4C41"/>
<path fill-rule="evenodd" clip-rule="evenodd" d="M40.45 10.1823C41.02 10.1823 41.4 10.5443 41.4 11.0874V11.9925C41.4 12.5355 41.02 12.8976 40.45 12.8976H19.55C18.98 12.8976 18.6 12.5355 18.6 11.9925V11.0874C18.6 10.5443 18.98 10.1823 19.55 10.1823H40.45ZM40.45 46.3859C41.02 46.3859 41.4 46.0239 41.4 45.4808V44.5757C41.4 44.0327 41.02 43.6706 40.45 43.6706H19.55C18.98 43.6706 18.6 44.0327 18.6 44.5757V45.4808C18.6 46.0239 18.98 46.3859 19.55 46.3859H40.45Z" fill="#8D6E63"/>
<path fill-rule="evenodd" clip-rule="evenodd" d="M23.3499 19.2332C23.5399 21.4959 26.9599 25.2068 29.9999 27.8316C32.9449 25.2973 36.3649 21.4959 36.6499 19.2332H23.3499Z" fill="#FF9800"/>
</svg>
