<svg width="60" height="60" viewBox="0 0 60 60" fill="none" xmlns="http://www.w3.org/2000/svg">
<path d="M46.1747 42.5775C46.1747 44.564 44.5641 46.1747 42.5775 46.1747H17.3972C15.4106 46.1747 13.8 44.564 13.8 42.5775V17.3972C13.8 15.4106 15.4106 13.8 17.3972 13.8H42.5775C44.5641 13.8 46.1747 15.4106 46.1747 17.3972V42.5775Z" fill="#1976D2"/>
<rect x="18.2965" y="24.5916" width="4.49648" height="4.49648" fill="white"/>
<rect x="24.5916" y="24.5916" width="4.49648" height="4.49648" fill="white"/>
<rect x="30.8866" y="24.5916" width="4.49648" height="4.49648" fill="white"/>
<rect x="37.1818" y="24.5916" width="4.49648" height="4.49648" fill="white"/>
<rect x="37.1818" y="30.8866" width="4.49648" height="4.49648" fill="white"/>
<rect x="18.2965" y="30.8866" width="4.49648" height="4.49648" fill="white"/>
<rect x="18.2965" y="37.1817" width="4.49648" height="4.49648" fill="white"/>
<rect x="24.5916" y="30.8866" width="4.49648" height="4.49648" fill="white"/>
<rect x="30.8866" y="30.8866" width="4.49648" height="4.49648" fill="white"/>
<rect x="24.5916" y="37.1817" width="4.49648" height="4.49648" fill="white"/>
<rect x="30.8866" y="37.1817" width="4.49648" height="4.49648" fill="white"/>
<rect x="37.1818" y="37.1817" width="4.49648" height="4.49648" fill="white"/>
<rect x="18.2965" y="18.2964" width="4.49648" height="4.49648" fill="#87C5F8"/>
<rect x="24.5916" y="18.2964" width="4.49648" height="4.49648" fill="#87C5F8"/>
<rect x="30.8866" y="18.2964" width="4.49648" height="4.49648" fill="#87C5F8"/>
<rect x="37.1818" y="18.2964" width="4.49648" height="4.49648" fill="#87C5F8"/>
<path d="M41.6782 35.3832V31.8309C40.0487 31.9658 38.5253 32.4631 37.1818 33.241V35.3832H41.6782Z" fill="#1976D2"/>
<path d="M35.3831 37.1817H33.241C32.4631 38.5253 31.9658 40.0487 31.8309 41.6782H35.3831V37.1817Z" fill="#1976D2"/>
<path d="M51.5705 42.5775C51.5705 47.5236 47.5237 51.5705 42.5776 51.5705C37.6314 51.5705 33.5846 47.5236 33.5846 42.5775C33.5846 37.6314 37.6314 33.5845 42.5776 33.5845C47.5237 33.5845 51.5705 37.6314 51.5705 42.5775Z" fill="#F44336"/>
<path d="M48.8726 42.5776C48.8726 46.0848 46.0848 48.8726 42.5775 48.8726C39.0703 48.8726 36.2824 46.0848 36.2824 42.5776C36.2824 39.0703 39.0703 36.2825 42.5775 36.2825C46.0848 36.2825 48.8726 39.0703 48.8726 42.5776Z" fill="#EEEEEE"/>
<path d="M46.5344 45.3654L43.9264 42.7574C43.9264 42.6675 43.9264 42.6675 43.9264 42.5775C43.9264 42.2178 43.7466 41.8581 43.4768 41.5883V38.0811H41.6782V41.5883C41.4084 41.8581 41.2285 42.2178 41.2285 42.5775C41.2285 43.297 41.8581 43.9265 42.5775 43.9265H42.6674L45.2754 46.5344L46.5344 45.3654Z" fill="black"/>
</svg>
