<svg width="60" height="60" viewBox="0 0 60 60" fill="none" xmlns="http://www.w3.org/2000/svg">
<path fill-rule="evenodd" clip-rule="evenodd" d="M49.2 30C49.2 40.6022 40.6022 49.2 30 49.2C19.3977 49.2 10.8 40.6022 10.8 30C10.8 19.3977 19.3977 10.8 30 10.8C40.6022 10.8 49.2 19.3977 49.2 30Z" fill="#00ACC1"/>
<path fill-rule="evenodd" clip-rule="evenodd" d="M45.36 30C45.36 38.4844 38.4845 45.36 30 45.36C21.5155 45.36 14.64 38.4844 14.64 30C14.64 21.5155 21.5165 14.64 30 14.64C38.4835 14.64 45.36 21.5164 45.36 30Z" fill="#EEEEEE"/>
<rect x="29.04" y="17.52" width="1.92" height="12.48" fill="black"/>
<rect x="29.2072" y="30.7929" width="2.2435" height="8.82423" transform="rotate(-45 29.2072 30.7929)" fill="black"/>
<path fill-rule="evenodd" clip-rule="evenodd" d="M32.88 30C32.88 31.5907 31.5898 32.88 30 32.88C28.4093 32.88 27.12 31.5907 27.12 30C27.12 28.4093 28.4093 27.12 30 27.12C31.5898 27.12 32.88 28.4093 32.88 30Z" fill="black"/>
<path fill-rule="evenodd" clip-rule="evenodd" d="M30.96 30C30.96 30.5289 30.53 30.96 30 30.96C29.4701 30.96 29.04 30.5289 29.04 30C29.04 29.4691 29.4701 29.04 30 29.04C30.53 29.04 30.96 29.4691 30.96 30Z" fill="#00ACC1"/>
</svg>
