<svg width="60" height="60" viewBox="0 0 60 60" fill="none" xmlns="http://www.w3.org/2000/svg">
<path d="M12 30.1152C12 32.7441 12.3312 34.635 13.0746 36.246C13.1889 36.4926 13.4328 36.6384 13.6884 36.6384C13.7829 36.6384 13.8792 36.6186 13.971 36.5763C14.3094 36.4197 14.457 36.0192 14.3013 35.6799C13.9026 34.8159 13.6389 33.8403 13.4931 32.6676C12.8244 31.1295 12.3726 29.4789 12.1566 27.7527C12.0549 28.533 12 29.3223 12 30.1152Z" fill="#C62828"/>
<path d="M15.1644 39.9864C15.0879 40.3509 15.321 40.7091 15.6864 40.7856C15.7323 40.7955 15.78 40.8 15.8259 40.8C16.1382 40.8 16.419 40.5822 16.4856 40.2636C16.6845 39.3177 16.7835 38.4933 16.8231 37.7337C16.3407 37.2144 15.8898 36.6672 15.4704 36.0939C15.5397 37.2189 15.4938 38.4231 15.1644 39.9864Z" fill="#C62828"/>
<path d="M41.3994 39.4275C41.3481 40.5417 41.2671 41.7216 41.1411 42.9834C41.1033 43.3542 41.3742 43.6854 41.745 43.7223C41.7675 43.725 41.7909 43.7259 41.8134 43.7259C42.1554 43.7259 42.4497 43.4658 42.4839 43.1184C42.6639 41.3175 42.7593 39.666 42.7953 38.154C42.3525 38.6013 41.8872 39.027 41.3994 39.4275Z" fill="#C62828"/>
<path d="M17.3199 42.2805C17.2056 42.636 17.4009 43.0158 17.7555 43.1301C17.8248 43.1517 17.8941 43.1625 17.9625 43.1625C18.2478 43.1625 18.5124 42.9807 18.6051 42.6945C18.9282 41.6919 19.1649 40.7973 19.3404 39.9801C18.9318 39.6786 18.5358 39.3636 18.1542 39.0297C17.985 39.9711 17.7213 41.034 17.3199 42.2805Z" fill="#C62828"/>
<path d="M37.5663 45.3315C37.4592 45.6879 37.6617 46.0641 38.019 46.1721C38.0829 46.191 38.1486 46.2 38.2125 46.2C38.5023 46.2 38.7714 46.0119 38.8587 45.7185C39.3501 44.0796 39.6606 42.3192 39.8424 40.5597C39.3681 40.8702 38.8794 41.16 38.3754 41.4255C38.1972 42.7683 37.9371 44.0931 37.5663 45.3315Z" fill="#C62828"/>
<path d="M33.9006 46.767C33.7791 47.1198 33.9663 47.5041 34.3182 47.6256C34.3911 47.6508 34.4658 47.6625 34.5387 47.6625C34.8186 47.6625 35.0805 47.487 35.1768 47.208C35.7159 45.6447 36.129 44.0022 36.4287 42.2976C35.949 42.4812 35.4621 42.6486 34.9635 42.7917C34.6908 44.1651 34.3398 45.4944 33.9006 46.767Z" fill="#C62828"/>
<path d="M22.1294 45.4629C21.971 45.8004 22.115 46.2027 22.4525 46.3611C22.5452 46.4043 22.6433 46.425 22.7396 46.425C22.9925 46.425 23.2355 46.2819 23.3507 46.0371C23.8979 44.8752 24.311 43.7565 24.6269 42.6828C24.1931 42.5469 23.7719 42.3831 23.3525 42.2166C23.0537 43.257 22.6586 44.3388 22.1294 45.4629Z" fill="#C62828"/>
<path d="M24.7647 46.4826C24.6108 46.8219 24.7602 47.2224 25.0995 47.3763C25.1904 47.4177 25.2849 47.4366 25.3785 47.4366C25.635 47.4366 25.8807 47.2899 25.9932 47.0415C26.5836 45.7446 27.0354 44.4909 27.3819 43.2876C26.931 43.2219 26.4828 43.1472 26.0427 43.0491C25.7196 44.1525 25.3029 45.3 24.7647 46.4826Z" fill="#C62828"/>
<path d="M30.8163 47.0721C30.6768 47.4177 30.8433 47.811 31.1889 47.9514C31.2726 47.9838 31.3581 48 31.4418 48C31.7091 48 31.962 47.8407 32.0682 47.5779C32.7108 45.9876 33.1338 44.454 33.4137 43.167C32.9403 43.2579 32.4615 43.3335 31.9755 43.3866C31.7118 44.5026 31.3419 45.7725 30.8163 47.0721Z" fill="#C62828"/>
<path d="M29.2008 44.8851C28.8444 44.7663 28.4646 44.9589 28.3467 45.3117L27.7464 47.1117C27.6285 47.4654 27.8202 47.8479 28.173 47.9658C28.245 47.9892 28.317 48 28.3872 48C28.6698 48 28.9335 47.8209 29.0271 47.5383L29.6274 45.7383C29.7453 45.3846 29.5545 45.0021 29.2008 44.8851Z" fill="#C62828"/>
<path d="M21.4824 40.4787C21.1521 40.404 20.8362 40.5948 20.7192 40.9017C20.7075 40.9332 20.6868 40.9593 20.6787 40.9935L20.6562 41.088C20.4087 42.0879 19.5942 44.1291 19.5861 44.1498C19.4475 44.4954 19.6158 44.8887 19.9623 45.0273C20.0442 45.0606 20.1297 45.0759 20.2125 45.0759C20.4798 45.0759 20.7336 44.9157 20.8389 44.652C20.8722 44.5683 21.621 42.6891 21.9225 41.5704C21.936 41.5191 21.954 41.4606 21.9666 41.4129L21.9972 41.2824C22.0764 40.9179 21.846 40.5579 21.4824 40.4787Z" fill="#C62828"/>
<path d="M45.8139 35.9373C45.7995 35.5647 45.4998 35.2686 45.1137 35.2884C45.1056 35.2884 45.0984 35.2938 45.0903 35.2938C44.7294 35.3208 44.4513 35.6241 44.4648 35.9877C44.4675 36.048 44.4675 36.1128 44.4702 36.1731C44.4963 36.9273 44.5125 37.7166 44.5125 38.5491C44.5125 38.9217 44.8149 39.2241 45.1875 39.2241C45.5601 39.2241 45.8625 38.9217 45.8625 38.5491C45.8625 37.6329 45.8445 36.7608 45.8139 35.9373Z" fill="#C62828"/>
<path d="M47.8362 27.8022C47.7183 26.8752 47.5374 25.9671 47.2845 25.0851C47.0514 25.8933 46.7652 26.6772 46.4268 27.435C46.5672 28.3107 46.6491 29.2044 46.6491 30.1152V30.225C46.6491 30.5472 46.8804 30.8046 47.1828 30.8712C47.2305 30.882 47.2746 30.9 47.325 30.9C47.6976 30.9 48 30.5976 48 30.225V30.1152C48 29.3313 47.9334 28.5618 47.8362 27.8022Z" fill="#C2185B"/>
<path d="M13.5714 27.4314C13.2366 26.6817 12.9522 25.9059 12.7209 25.1058C12.7047 25.14 12.6804 25.1679 12.6696 25.2057C12.4365 26.04 12.2673 26.8905 12.1557 27.7518C12.3717 29.4771 12.8235 31.1286 13.4922 32.6667C13.3968 31.908 13.35 31.0674 13.35 30.1152C13.35 29.2125 13.4301 28.3161 13.5714 27.4314Z" fill="#C2185B"/>
<path d="M44.2479 32.6496C44.2803 32.9997 44.5746 33.2625 44.9193 33.2625C44.94 33.2625 44.9616 33.2616 44.9823 33.2598C45.354 33.2256 45.6267 32.8962 45.5916 32.5254C45.489 31.4238 45.3675 30.4725 45.2433 29.6418C44.8905 30.2052 44.5116 30.7497 44.1003 31.2681C44.1525 31.7028 44.202 32.1609 44.2479 32.6496Z" fill="#C2185B"/>
<path d="M16.5765 33.7899C16.4919 33.1608 16.4091 32.5137 16.3506 31.8144C15.8376 31.2168 15.3624 30.5886 14.9295 29.9271C14.9286 29.9892 14.9241 30.0504 14.9241 30.1116C14.9241 31.6317 15.0834 32.8197 15.2382 33.969C15.3354 34.6908 15.4254 35.3766 15.4695 36.093C15.8889 36.6672 16.3398 37.2135 16.8222 37.7328C16.9023 36.2559 16.7457 35.0427 16.5765 33.7899Z" fill="#C2185B"/>
<path d="M42.6729 32.8773C42.2661 33.2814 41.8404 33.6657 41.3958 34.0293C41.4768 35.5755 41.4939 37.3746 41.3985 39.4266C41.8863 39.027 42.3516 38.6004 42.7944 38.1531C42.8448 36.1317 42.7863 34.3749 42.6729 32.8773Z" fill="#C2185B"/>
<path d="M19.6896 34.842C19.1667 34.4757 18.669 34.0797 18.1884 33.6612C18.4044 35.1984 18.5646 36.7437 18.1533 39.0297C18.5349 39.3636 18.9309 39.6786 19.3395 39.9801C19.8039 37.8201 19.8165 36.2325 19.6896 34.842Z" fill="#C2185B"/>
<path d="M40.0278 35.0481C39.5949 35.3388 39.1467 35.6088 38.6877 35.8626C38.712 37.6365 38.6265 39.549 38.3763 41.4264C38.8803 41.1609 39.369 40.8711 39.8433 40.5606C40.0395 38.667 40.0836 36.7815 40.0278 35.0481Z" fill="#C2185B"/>
<path d="M21.225 37.8768C21.225 38.2494 21.5274 38.55 21.9 38.55C21.9 38.55 21.9009 38.55 21.9018 38.55C22.2744 38.5491 22.5759 38.2467 22.575 37.8732C22.5741 37.3584 22.5669 36.9048 22.5579 36.4755C22.0917 36.2631 21.6336 36.0372 21.1899 35.7879C21.2097 36.3864 21.2223 37.0704 21.225 37.8768Z" fill="#C2185B"/>
<path d="M35.6052 37.1982C35.5323 39.1368 35.319 41.0052 34.9635 42.7908C35.4621 42.6477 35.949 42.4803 36.4287 42.2967C36.7437 40.5012 36.9246 38.6319 36.9714 36.6978C36.5268 36.885 36.0678 37.0461 35.6052 37.1982Z" fill="#C2185B"/>
<path d="M24.1527 37.11C24.105 38.6526 23.8872 40.3653 23.3535 42.2175C23.7729 42.384 24.1941 42.5487 24.6279 42.6837C25.1787 40.809 25.419 39.0774 25.4901 37.5078C25.0374 37.3899 24.591 37.2603 24.1527 37.11Z" fill="#C2185B"/>
<path d="M26.9832 37.8273C26.8707 39.4095 26.5962 41.1645 26.0427 43.0491C26.4828 43.1481 26.9301 43.2219 27.3819 43.2876C27.93 41.3859 28.2072 39.6156 28.326 38.0145C27.8715 37.9731 27.4269 37.9029 26.9832 37.8273Z" fill="#C2185B"/>
<path d="M33.3021 39.0009C32.9178 38.9748 32.6109 39.2628 32.5884 39.6345C32.5866 39.6579 32.484 41.2302 31.9746 43.3857C32.4606 43.3326 32.9394 43.257 33.4128 43.1661C33.8403 41.1969 33.9303 39.8073 33.9357 39.7137C33.9582 39.3429 33.6747 39.0234 33.3021 39.0009Z" fill="#C2185B"/>
<path d="M29.7939 38.0892C29.7048 39.4311 29.5329 40.8693 29.226 42.3507C29.1504 42.7161 29.3853 43.0725 29.7507 43.1481C29.7966 43.158 29.8425 43.1625 29.8884 43.1625C30.2016 43.1625 30.4824 42.9429 30.5481 42.6243C30.8793 41.0223 31.0638 39.4743 31.1556 38.0415C30.7722 38.0658 30.3906 38.1 30 38.1C29.9307 38.1 29.8632 38.0901 29.7939 38.0892Z" fill="#C2185B"/>
<path d="M46.4277 27.435C46.7661 26.6772 47.0532 25.8933 47.2854 25.0851C47.0163 24.1464 46.6797 23.2347 46.2693 22.3626C46.0209 22.8891 45.7482 23.4012 45.4521 23.898C45.8994 25.0257 46.2306 26.2083 46.4277 27.435Z" fill="#D81B60"/>
<path d="M13.5003 24.7377C13.1781 24.6468 12.8577 24.8142 12.72 25.1058C12.9513 25.9059 13.2357 26.6817 13.5705 27.4314C13.6713 26.8032 13.7982 26.1804 13.9683 25.5693C14.07 25.2102 13.8594 24.8376 13.5003 24.7377Z" fill="#D81B60"/>
<path d="M44.3604 25.5207C44.0328 25.9545 43.6872 26.3712 43.3227 26.7735C43.4838 27.4224 43.824 28.9551 44.1003 31.2681C44.5116 30.7488 44.8905 30.2043 45.2433 29.6418C44.958 27.7302 44.6592 26.526 44.5467 26.112C44.4918 25.9104 44.4216 25.7178 44.3604 25.5207Z" fill="#D81B60"/>
<path d="M16.6845 26.7816C16.3173 26.3766 15.9681 25.9563 15.6387 25.5189C15.1923 26.931 14.9493 28.416 14.9313 29.928C15.3633 30.5895 15.8385 31.2177 16.3524 31.8153C16.3065 31.2852 16.275 30.729 16.275 30.1125C16.275 28.9785 16.4172 27.8607 16.6845 26.7816Z" fill="#D81B60"/>
<path d="M40.836 29.0487C41.0538 30.2079 41.2842 31.872 41.3967 34.0293C41.8404 33.6657 42.2661 33.2814 42.6738 32.8773C42.5118 30.729 42.2409 29.1243 42.015 28.0758C41.6352 28.4169 41.2428 28.7409 40.836 29.0487Z" fill="#D81B60"/>
<path d="M19.2 30.1125C19.2 29.775 19.2207 29.4429 19.2504 29.1126C18.8274 28.7967 18.4197 28.4637 18.0264 28.1127C17.9193 28.7652 17.85 29.4294 17.85 30.1116C17.85 31.2933 17.9949 32.3022 18.1344 33.2769C18.1524 33.4047 18.1713 33.5325 18.1884 33.6603C18.6681 34.0788 19.1667 34.4748 19.6896 34.8411C19.6338 34.23 19.5519 33.6558 19.4709 33.0861C19.3314 32.1159 19.2 31.1979 19.2 30.1125Z" fill="#D81B60"/>
<path d="M38.2854 30.6696C38.4987 32.052 38.6607 33.8637 38.6877 35.8626C39.1467 35.6097 39.5949 35.3397 40.0278 35.0481C39.9639 33.0636 39.774 31.2879 39.5355 29.9469C39.1287 30.2025 38.7138 30.4464 38.2854 30.6696Z" fill="#D81B60"/>
<path d="M22.1493 30.8784C21.6795 30.6498 21.2214 30.4023 20.7759 30.1359C20.7777 30.9927 20.8479 31.6173 20.9307 32.3373C21.0243 33.1554 21.135 34.1274 21.1899 35.787C21.6336 36.0372 22.0917 36.2631 22.5579 36.4746C22.5129 34.3083 22.3815 33.1401 22.2717 32.1825C22.2186 31.7217 22.1745 31.3176 22.1493 30.8784Z" fill="#D81B60"/>
<path d="M36.975 34.4811C36.9408 33.2562 36.8571 32.2374 36.7572 31.377C36.3288 31.5507 35.8959 31.7136 35.4522 31.8549C35.5323 32.6109 35.598 33.4866 35.6268 34.5189C35.652 35.427 35.6403 36.318 35.607 37.1982C36.0696 37.047 36.5277 36.885 36.9732 36.6978C36.9894 35.967 36.9957 35.2299 36.975 34.4811Z" fill="#D81B60"/>
<path d="M25.2192 32.1537C25.2147 32.1123 25.2102 32.0754 25.2057 32.034C24.7287 31.9026 24.2616 31.7496 23.8008 31.5804C23.826 31.818 23.8476 32.0457 23.8773 32.3049C24.0267 33.6279 24.2094 35.2452 24.1518 37.1091C24.5901 37.2594 25.0365 37.3899 25.4892 37.5069C25.5846 35.4171 25.3848 33.6126 25.2192 32.1537Z" fill="#D81B60"/>
<path d="M28.2162 32.61C27.75 32.5641 27.2928 32.4858 26.8374 32.4057C26.9877 33.8097 27.138 35.6529 26.9832 37.8282C27.4269 37.9029 27.8715 37.974 28.326 38.0163C28.4853 35.877 28.362 34.0455 28.2162 32.61Z" fill="#D81B60"/>
<path d="M32.8125 36.1902C32.8143 36.5619 33.1158 36.8625 33.4875 36.8625C33.4884 36.8625 33.4893 36.8625 33.4902 36.8625C33.8637 36.8607 34.1643 36.5574 34.1625 36.1848C34.1562 34.9194 34.0509 33.5163 33.8988 32.2653C33.4605 32.3625 33.0141 32.4327 32.565 32.4975C32.7018 33.6306 32.8062 34.9374 32.8125 36.1902Z" fill="#D81B60"/>
<path d="M31.0998 32.6442C30.7344 32.6667 30.3717 32.7 30 32.7C29.9136 32.7 29.8299 32.6883 29.7435 32.6874C29.8614 34.0599 29.937 35.9436 29.7948 38.0901C29.8632 38.0901 29.9307 38.1 30 38.1C30.3906 38.1 30.7722 38.0658 31.1556 38.0415C31.2924 35.904 31.2186 34.0356 31.0998 32.6442Z" fill="#D81B60"/>
<path d="M43.4865 20.2926C44.283 21.4023 44.9427 22.6119 45.4521 23.8971C45.7482 23.4003 46.0209 22.8882 46.2693 22.3617C45.7437 21.2448 45.0975 20.1963 44.3631 19.2162C44.0841 19.5861 43.7934 19.9461 43.4865 20.2926Z" fill="#EC407A"/>
<path d="M13.9071 21.9936L13.8792 22.0485C13.7127 22.3815 13.8756 22.7298 14.2086 22.8972C14.2923 22.9395 14.3832 22.9584 14.4741 22.9584C14.7432 22.9584 15.0168 22.7892 15.1419 22.5408C15.5424 21.7461 16.005 20.9991 16.5117 20.2926C16.2057 19.9461 15.9159 19.5879 15.6369 19.218C14.9916 20.0811 14.4057 21.0036 13.9071 21.9936Z" fill="#EC407A"/>
<path d="M41.3634 22.3536C42.1968 23.5902 42.8403 24.9771 43.2462 26.4783C43.2624 26.5359 43.2894 26.6421 43.3218 26.7735C43.6863 26.3712 44.0319 25.9545 44.3595 25.5207C43.8951 24.0456 43.2255 22.6767 42.375 21.4482C42.0474 21.7596 41.7153 22.0674 41.3634 22.3536Z" fill="#EC407A"/>
<path d="M18.6402 22.3563C18.2892 22.0701 17.9562 21.7623 17.6277 21.4509C16.7682 22.6992 16.0968 24.0699 15.6387 25.518C15.969 25.9554 16.3173 26.3757 16.6845 26.7807C17.0751 25.2003 17.7375 23.7018 18.6402 22.3563Z" fill="#EC407A"/>
<path d="M40.0953 23.3031C39.7227 23.556 39.3321 23.7837 38.9406 24.0087C39.6255 25.0347 40.1511 26.1795 40.4715 27.426C40.5615 27.7527 40.6956 28.2999 40.836 29.0487C41.2428 28.7409 41.6352 28.4169 42.015 28.0767C41.9169 27.624 41.8278 27.264 41.7603 27.0192C41.4147 25.6773 40.8423 24.4299 40.0953 23.3031Z" fill="#EC407A"/>
<path d="M19.9038 23.3013C18.9597 24.7233 18.3135 26.3577 18.0264 28.1127C18.4197 28.4637 18.8274 28.7967 19.2504 29.1126C19.4205 27.2334 20.0595 25.4892 21.0549 24.0051C20.6643 23.781 20.2746 23.5542 19.9038 23.3013Z" fill="#EC407A"/>
<path d="M38.9298 27.5322C38.8101 27.1785 38.4249 26.9904 38.073 27.111C37.7202 27.2316 37.5312 27.615 37.6518 27.9678C37.8345 28.5033 37.9893 29.0811 38.1135 29.6859C38.1738 29.9793 38.2305 30.315 38.2854 30.6696C38.7138 30.4464 39.1278 30.2025 39.5355 29.9469C39.5031 29.7633 39.4698 29.5806 39.4356 29.4141C39.3006 28.7544 39.1305 28.1208 38.9298 27.5322Z" fill="#EC407A"/>
<path d="M23.7558 25.2642C23.3193 25.1022 22.8909 24.9276 22.4715 24.7341C21.4068 26.256 20.775 28.1091 20.775 30.1125C20.775 30.1206 20.7759 30.1278 20.7759 30.1359C21.2223 30.4032 21.6795 30.6498 22.1493 30.8784C22.1349 30.639 22.125 30.3915 22.125 30.1125C22.125 28.2882 22.7379 26.6106 23.7558 25.2642Z" fill="#EC407A"/>
<path d="M34.7115 25.7556C34.1787 25.8996 33.6378 26.0211 33.087 26.1165C33.9195 26.7501 34.5657 27.624 34.8726 28.6419C34.95 28.8876 35.2488 29.9433 35.4504 31.8549C35.8941 31.7136 36.3279 31.5507 36.7554 31.377C36.5502 29.6193 36.2694 28.5852 36.1578 28.2306C35.8743 27.2865 35.3658 26.4513 34.7115 25.7556Z" fill="#EC407A"/>
<path d="M30 26.625C28.1388 26.625 26.625 28.1892 26.625 30.1125C26.625 30.5157 26.6853 31.0449 26.7609 31.7154C26.7852 31.9305 26.8113 32.1636 26.8374 32.4048C27.2928 32.4858 27.7491 32.5632 28.2162 32.6091C28.1784 32.2347 28.1388 31.881 28.1028 31.5624C28.0317 30.9342 27.975 30.4383 27.975 30.1116C27.975 28.9326 28.8831 27.9741 30 27.9741C30.9144 27.9741 31.4706 28.3737 31.9836 29.4006C32.1231 29.6796 32.3751 30.9198 32.565 32.4948C33.0141 32.4309 33.4605 32.3598 33.8988 32.2626C33.7017 30.6354 33.4272 29.2665 33.1914 28.7958C32.7252 27.8652 31.8873 26.625 30 26.625Z" fill="#EC407A"/>
<path d="M29.982 29.5626C29.6166 29.6346 29.3781 29.9892 29.4501 30.3546C29.4546 30.3762 29.6202 31.2555 29.7435 32.6865C29.8299 32.6883 29.9136 32.7 30 32.7C30.3717 32.7 30.7344 32.6667 31.0998 32.6442C30.9711 31.1376 30.7929 30.189 30.774 30.0945C30.7038 29.73 30.351 29.4906 29.982 29.5626Z" fill="#EC407A"/>
<path d="M26.0391 25.9833C25.9968 25.95 25.9482 25.9356 25.9014 25.9131C25.8276 25.8816 25.743 25.8627 25.6611 25.851C25.4487 25.8384 25.2336 25.914 25.0905 26.0931C24.1941 27.2271 23.7 28.6545 23.7 30.1125C23.7 30.54 23.7459 31.0431 23.8017 31.5813C24.2625 31.7505 24.7287 31.9026 25.2066 32.0349C25.122 31.2816 25.05 30.6246 25.05 30.1125C25.05 28.9407 25.4298 27.8409 26.1498 26.931C26.3811 26.6394 26.3307 26.2146 26.0391 25.9833Z" fill="#EC407A"/>
<path d="M43.4865 20.2926C43.7925 19.9452 44.0841 19.5861 44.3631 19.2162C43.4892 18.0489 42.4803 16.9896 41.3499 16.0635C40.989 16.3569 40.6146 16.6341 40.2312 16.8996C41.4723 17.8743 42.5685 19.0146 43.4865 20.2926Z" fill="#E040FB"/>
<path d="M19.7634 16.8969C19.3818 16.6323 19.0083 16.356 18.6483 16.0626C17.5314 16.9788 16.5225 18.0372 15.6387 19.218C15.9177 19.587 16.2075 19.9461 16.5135 20.2926C17.4405 18.9984 18.5367 17.8599 19.7634 16.8969Z" fill="#E040FB"/>
<path d="M41.3634 22.3536C41.7144 22.0674 42.0465 21.7596 42.375 21.4482C41.3922 20.028 40.1763 18.7986 38.7939 17.7969C38.3502 18.0462 37.893 18.2712 37.4268 18.4827C38.9748 19.488 40.3185 20.8029 41.3634 22.3536Z" fill="#E040FB"/>
<path d="M36.435 19.7094C36.12 19.5105 35.7033 19.6041 35.5035 19.92C35.3046 20.235 35.3991 20.6517 35.7141 20.8515C37.0137 21.6723 38.0991 22.7496 38.9397 24.0096C39.3321 23.7846 39.7218 23.5569 40.0944 23.304C39.1494 21.8748 37.9164 20.6445 36.435 19.7094Z" fill="#E040FB"/>
<path d="M19.9038 23.3013C20.2755 23.5533 20.6643 23.781 21.0549 24.0051C22.3743 22.0377 24.3156 20.5338 26.5881 19.767C25.8582 19.6266 25.1445 19.443 24.4488 19.218C22.6137 20.1738 21.0468 21.5805 19.9038 23.3013Z" fill="#E040FB"/>
<path d="M37.2162 24.2949C35.454 22.0575 32.8233 20.775 30 20.775C26.8923 20.775 24.1446 22.3428 22.4715 24.7341C22.8909 24.9276 23.3193 25.1031 23.7558 25.2642C25.1967 23.3598 27.4557 22.125 30 22.125C32.4075 22.125 34.6503 23.2203 36.1551 25.1301C36.1938 25.1787 36.2442 25.2111 36.2928 25.2462C36.5322 25.4208 36.8598 25.4334 37.1037 25.2426C37.2414 25.1337 37.3206 24.9816 37.3467 24.8214C37.3764 24.6405 37.3386 24.4497 37.2162 24.2949Z" fill="#E040FB"/>
<path d="M30 23.7C29.3088 23.7 28.6293 23.8134 27.984 24.0357L27.8562 24.0807C27.5061 24.2085 27.3252 24.5955 27.453 24.9456C27.5808 25.2966 27.9696 25.4766 28.3179 25.3488L28.4187 25.3128C28.9272 25.1391 29.4582 25.05 30 25.05C31.1268 25.05 32.2104 25.4496 33.0879 26.1165C33.6388 26.0211 34.1796 25.8996 34.7125 25.7556C33.5181 24.4857 31.8243 23.7 30 23.7Z" fill="#E040FB"/>
<path d="M22.1808 17.9049C21.9639 17.6034 21.5427 17.535 21.2385 17.7519C21.2223 17.7636 21.207 17.7762 21.1917 17.7879C19.7895 18.8076 18.5916 20.0514 17.6286 21.4509C17.9571 21.7623 18.2892 22.0701 18.6411 22.3563C19.5447 21.009 20.685 19.8156 22.0287 18.8472C22.197 18.7257 22.2843 18.5421 22.2987 18.3504C22.3086 18.1965 22.2771 18.039 22.1808 17.9049Z" fill="#E040FB"/>
<path d="M32.4867 12.8424C32.4183 13.2087 32.6613 13.5606 33.0276 13.629C35.7348 14.1294 38.1783 15.2859 40.2321 16.9005C40.6155 16.635 40.9899 16.3578 41.3508 16.0644C39.0729 14.1987 36.327 12.8667 33.2733 12.3015C32.9061 12.2286 32.5533 12.4752 32.4867 12.8424Z" fill="#D500F9"/>
<path d="M29.784 13.3536C30.1566 13.3491 30.4554 13.0431 30.45 12.6696C30.4455 12.2997 30.144 12.0036 29.775 12.0036C29.7723 12.0036 29.7696 12.0036 29.766 12.0036C25.6287 12.0567 21.7434 13.5228 18.6474 16.0626C19.0074 16.3551 19.3809 16.6314 19.7625 16.8969C22.5777 14.6847 26.0697 13.4013 29.784 13.3536Z" fill="#D500F9"/>
<path d="M29.9999 14.925C28.0865 14.925 26.2208 15.2814 24.455 15.9852C24.1086 16.1229 23.9403 16.5162 24.078 16.8627C24.2166 17.2092 24.6089 17.3766 24.9554 17.2398C26.561 16.599 28.2575 16.275 29.9999 16.275C32.7017 16.275 35.264 17.0769 37.4276 18.4827C37.8938 18.2712 38.351 18.0462 38.7947 17.7969C36.2909 15.9834 33.2399 14.925 29.9999 14.925Z" fill="#D500F9"/>
<path d="M30 19.2C30.9333 19.2 31.8585 19.3197 32.7522 19.5573C33.1149 19.6536 33.483 19.4385 33.5775 19.0776C33.672 18.7167 33.4587 18.3477 33.0978 18.2523C32.0925 17.985 31.0503 17.85 30 17.85C27.9993 17.85 26.1147 18.3495 24.4479 19.218C25.1436 19.4439 25.8573 19.6275 26.5872 19.767C27.6618 19.4043 28.8066 19.2 30 19.2Z" fill="#D500F9"/>
</svg>
