<svg width="60" height="60" viewBox="0 0 60 60" fill="none" xmlns="http://www.w3.org/2000/svg">
<path d="M43.5768 18.6322C43.025 17.427 41.9023 16.2 40.7152 16.2H15.9488C13.4054 16.2 12.6 17.0054 12.6 19.5455V37.9455C12.6 37.9455 12.6 39.6182 14.2744 39.6182C15.9488 39.6182 44.4131 39.6182 46.0884 39.6182C47.7628 39.6182 47.7628 37.9455 47.7628 37.9455C47.7628 37.9455 47.7628 41.1864 47.7628 33.2928C47.7628 25.3992 43.5768 18.6322 43.5768 18.6322Z" fill="#FFC107"/>
<path d="M23.4837 27.491C23.4837 28.1835 22.9219 28.7455 22.2279 28.7455H15.5302C14.8362 28.7455 14.2744 28.1835 14.2744 27.491V19.9637C14.2744 19.2712 14.8362 18.7091 15.5302 18.7091H22.2279C22.9219 18.7091 23.4837 19.2712 23.4837 19.9637V27.491Z" fill="#795548"/>
<path d="M34.3674 27.491C34.3674 28.1835 33.8047 28.7455 33.1115 28.7455H26.4139C25.7198 28.7455 25.1581 28.1835 25.1581 27.491V19.9637C25.1581 19.2712 25.7198 18.7091 26.4139 18.7091H33.1115C33.8047 18.7091 34.3674 19.2712 34.3674 19.9637V27.491Z" fill="#795548"/>
<path d="M37.2977 18.7091C36.6028 18.7091 36.0418 19.2695 36.0418 19.9637V27.491C36.0418 28.1851 36.6028 28.7455 37.2977 28.7455H43.9953C44.6902 28.7455 45.2511 28.1851 45.2511 27.491V26.8821C44.2189 22.8792 42.5503 20.1008 42.151 19.5095C41.6637 18.7861 40.8315 18.7133 40.4238 18.7091H37.2977Z" fill="#795548"/>
<path d="M43.5768 39.6182C43.5768 41.9274 41.7031 43.8 39.3908 43.8C37.0784 43.8 35.2047 41.9274 35.2047 39.6182C35.2047 37.309 37.0784 35.4364 39.3908 35.4364C41.7031 35.4364 43.5768 37.309 43.5768 39.6182Z" fill="#455A64"/>
<path d="M24.321 39.6182C24.321 41.9274 22.4465 43.8 20.1349 43.8C17.8234 43.8 15.9489 41.9274 15.9489 39.6182C15.9489 37.309 17.8234 35.4364 20.1349 35.4364C22.4465 35.4364 24.321 37.309 24.321 39.6182Z" fill="#455A64"/>
<path d="M41.0651 39.6182C41.0651 40.5424 40.3158 41.2909 39.3907 41.2909C38.4656 41.2909 37.7163 40.5424 37.7163 39.6182C37.7163 38.694 38.4656 37.9455 39.3907 37.9455C40.3158 37.9455 41.0651 38.694 41.0651 39.6182Z" fill="#B0BEC5"/>
<path d="M21.8093 39.6182C21.8093 40.5424 21.06 41.2909 20.1349 41.2909C19.2098 41.2909 18.4605 40.5424 18.4605 39.6182C18.4605 38.694 19.2098 37.9455 20.1349 37.9455C21.06 37.9455 21.8093 38.694 21.8093 39.6182Z" fill="#B0BEC5"/>
<path d="M13.0186 33.7637H12.6V37.1091H13.0186C13.7127 37.1091 14.2744 36.5471 14.2744 35.8546V35.0182C14.2744 34.3257 13.7127 33.7637 13.0186 33.7637Z" fill="#FF3D00"/>
<path d="M48.6 34.1818C48.6 33.4893 48.0374 32.9273 47.3442 32.9273H46.9256C46.2324 32.9273 45.6698 33.4893 45.6698 34.1818V35.8546C45.6698 36.5471 46.2324 37.1091 46.9256 37.1091H47.3442C48.0374 37.1091 48.6 36.5471 48.6 35.8546V34.1818Z" fill="#F57C00"/>
</svg>
