<svg width="60" height="60" viewBox="0 0 60 60" fill="none" xmlns="http://www.w3.org/2000/svg">
<path d="M48 18.429C46.677 19.015 45.254 19.406 43.753 19.591C45.279 18.685 46.453 17.24 47.004 15.533C45.576 16.37 43.994 16.985 42.311 17.309C40.967 15.884 39.05 15 36.926 15C32.846 15 29.539 18.278 29.539 22.32C29.539 22.892 29.606 23.449 29.732 23.99C23.594 23.682 18.15 20.764 14.508 16.336C13.868 17.418 13.508 18.685 13.508 20.022C13.508 22.563 14.809 24.8 16.793 26.118C15.582 26.081 14.442 25.744 13.444 25.204C13.444 25.226 13.444 25.259 13.444 25.29C13.444 28.841 15.991 31.798 19.367 32.471C18.75 32.64 18.098 32.734 17.426 32.734C16.949 32.734 16.484 32.68 16.034 32.599C16.974 35.501 19.701 37.622 22.932 37.685C20.404 39.645 17.22 40.819 13.758 40.819C13.16 40.819 12.575 40.785 11.997 40.715C15.268 42.786 19.152 44 23.321 44C36.906 44 44.338 32.844 44.338 23.166C44.338 22.849 44.328 22.533 44.313 22.221C45.763 21.197 47.013 19.905 48 18.429Z" fill="#03A9F4"/>
</svg>
