<svg width="60" height="60" viewBox="0 0 60 60" fill="none" xmlns="http://www.w3.org/2000/svg">
<path d="M30 9C24.486 9 20 13.486 20 19V26H24V19C24 15.691 26.691 13 30 13C33.309 13 36 15.691 36 19H40C40 13.486 35.514 9 30 9Z" fill="#424242"/>
<path d="M30 51C38.2843 51 45 44.2843 45 36C45 27.7157 38.2843 21 30 21C21.7157 21 15 27.7157 15 36C15 44.2843 21.7157 51 30 51Z" fill="#B0BEC5"/>
<path d="M30 45C34.9706 45 39 40.9706 39 36C39 31.0294 34.9706 27 30 27C25.0294 27 21 31.0294 21 36C21 40.9706 25.0294 45 30 45Z" fill="#2196F3"/>
<path d="M30 40C32.2092 40 34 38.2091 34 36C34 33.7909 32.2092 32 30 32C27.7909 32 26 33.7909 26 36C26 38.2091 27.7909 40 30 40Z" fill="#42A5F5"/>
</svg>
