<svg width="60" height="60" viewBox="0 0 60 60" fill="none" xmlns="http://www.w3.org/2000/svg">
<path d="M46 46H14C13.283 46 12.623 45.617 12.266 44.996C11.91 44.375 11.912 43.611 12.273 42.992L28.273 14.992C28.631 14.378 29.289 14 30 14C30.711 14 31.369 14.378 31.728 14.992L47.728 42.992C48.089 43.611 48.091 44.375 47.735 44.996C47.379 45.617 46.716 46 46 46Z" fill="#FFC107"/>
<path d="M28 40.142C28 39.873 28.047 39.627 28.143 39.396C28.237 39.168 28.372 38.97 28.546 38.804C28.717 38.636 28.928 38.505 29.17 38.411C29.414 38.319 29.688 38.27 29.994 38.27C30.3 38.27 30.576 38.319 30.822 38.411C31.072 38.505 31.283 38.636 31.454 38.804C31.629 38.97 31.764 39.168 31.857 39.396C31.953 39.627 32 39.873 32 40.142C32 40.412 31.953 40.658 31.857 40.882C31.763 41.107 31.628 41.301 31.454 41.47C31.283 41.636 31.072 41.766 30.822 41.862C30.576 41.954 30.3 42 29.994 42C29.687 42 29.414 41.954 29.17 41.861C28.928 41.765 28.717 41.635 28.546 41.469C28.371 41.3 28.236 41.106 28.143 40.881C28.047 40.657 28 40.411 28 40.142ZM31.48 36H28.507L28.086 24H31.9L31.48 36Z" fill="#5D4037"/>
</svg>
