<svg width="60" height="60" viewBox="0 0 60 60" fill="none" xmlns="http://www.w3.org/2000/svg">
<path d="M48 30C48 39.9396 39.9396 48 30 48C20.0604 48 12 39.9396 12 30C12 20.0604 20.0604 12 30 12C39.9396 12 48 20.0604 48 30Z" fill="#00ACC1"/>
<path d="M44.4 30C44.4 37.9542 37.9542 44.4 30 44.4C22.0458 44.4 15.6 37.9542 15.6 30C15.6 22.0458 22.0467 15.6 30 15.6C37.9533 15.6 44.4 22.0467 44.4 30Z" fill="#EEEEEE"/>
<path d="M29.1 44.355C29.3988 44.373 29.6958 44.4 30 44.4C30.3042 44.4 30.6012 44.373 30.9 44.355V40.8H29.1V44.355Z" fill="#78909C"/>
<path d="M40.8 30.9H44.355C44.373 30.6012 44.4 30.3042 44.4 30C44.4 29.6958 44.373 29.3988 44.355 29.1H40.8V30.9Z" fill="#78909C"/>
<path d="M15.645 30.9H19.2V29.1H15.645C15.627 29.3988 15.6 29.6958 15.6 30C15.6 30.3042 15.627 30.6012 15.645 30.9Z" fill="#78909C"/>
<path d="M36.8976 35.643L35.3406 37.2L29.2233 31.0827L30.7803 29.5257L36.8976 35.643Z" fill="black"/>
<path d="M32.7 30C32.7 31.4904 31.4904 32.7 30 32.7C28.5096 32.7 27.3 31.4904 27.3 30C27.3 28.5096 28.5096 27.3 30 27.3C31.4904 27.3 32.7 28.5096 32.7 30Z" fill="black"/>
<path d="M29.1 18.3H30.9V27.6024H29.1V18.3Z" fill="black"/>
<path d="M30.9 30C30.9 30.4959 30.4959 30.9 30 30.9C29.5041 30.9 29.1 30.4959 29.1 30C29.1 29.5041 29.5041 29.1 30 29.1C30.4959 29.1 30.9 29.5041 30.9 30Z" fill="#00ACC1"/>
</svg>
