<svg width="60" height="60" viewBox="0 0 60 60" fill="none" xmlns="http://www.w3.org/2000/svg">
<path d="M12 43.5846V20.6923H48V43.5846C48 45.6917 46.3033 47.4 44.2105 47.4H15.7895C13.6967 47.4 12 45.6917 12 43.5846Z" fill="#BBDEFB"/>
<path d="M48 16.8769V22.6H12V16.8769C12 14.7699 13.6967 13.0615 15.7895 13.0615H44.2105C46.3033 13.0615 48 14.7699 48 16.8769Z" fill="#2196F3"/>
<path d="M41.3683 16.8769C41.3683 18.4574 40.096 19.7385 38.5262 19.7385C36.9565 19.7385 35.6841 18.4574 35.6841 16.8769C35.6841 15.2964 36.9565 14.0154 38.5262 14.0154C40.096 14.0154 41.3683 15.2964 41.3683 16.8769Z" fill="#1565C0"/>
<path d="M24.3157 16.8769C24.3157 18.4574 23.0434 19.7385 21.4736 19.7385C19.9038 19.7385 18.6315 18.4574 18.6315 16.8769C18.6315 15.2964 19.9038 14.0154 21.4736 14.0154C23.0434 14.0154 24.3157 15.2964 24.3157 16.8769Z" fill="#1565C0"/>
<path d="M38.5263 10.2C37.4804 10.2 36.6315 11.0547 36.6315 12.1077V16.8769C36.6315 17.93 37.4804 18.7846 38.5263 18.7846C39.5722 18.7846 40.421 17.93 40.421 16.8769V12.1077C40.421 11.0547 39.5722 10.2 38.5263 10.2Z" fill="#B0BEC5"/>
<path d="M21.4737 10.2C20.4278 10.2 19.5789 11.0547 19.5789 12.1077V16.8769C19.5789 17.93 20.4278 18.7846 21.4737 18.7846C22.5195 18.7846 23.3684 17.93 23.3684 16.8769V12.1077C23.3684 11.0547 22.5195 10.2 21.4737 10.2Z" fill="#B0BEC5"/>
<path d="M27.8229 36.696L29.3444 28.3231H32.5152L29.6997 41.677H26.3839L24.6076 34.0643L22.8672 41.677H19.56L16.7368 28.3231H19.9152L21.4367 36.696L23.2585 28.3231H25.9727L27.8229 36.696Z" fill="#1565C0"/>
<path fill-rule="evenodd" clip-rule="evenodd" d="M36.011 40.4141C36.8769 41.2563 38.0128 41.6769 39.414 41.6769C40.1624 41.6769 40.8616 41.531 41.5115 41.2382C42.1614 40.9473 42.6635 40.5552 43.0187 40.0611L41.718 38.513C41.2102 39.1493 40.5063 39.4659 39.6072 39.4659C39.0616 39.4659 38.6154 39.319 38.2733 39.0233C37.9304 38.7296 37.7078 38.3242 37.6064 37.8091H43.2631V36.695C43.2631 35.2604 42.8918 34.1435 42.149 33.3413C41.4054 32.5401 40.3926 32.1385 39.1089 32.1385C38.1976 32.1385 37.4084 32.3359 36.7462 32.7299C36.0821 33.1238 35.5762 33.6799 35.2304 34.401C34.8837 35.1212 34.7112 35.9501 34.7112 36.8915V37.13C34.7112 38.4787 35.1451 39.5728 36.011 40.4141ZM37.6073 36.0149C37.7646 34.9037 38.2601 34.3485 39.0928 34.3485C39.5428 34.3485 39.8905 34.4754 40.1321 34.7272C40.3736 34.979 40.4892 35.3348 40.4779 35.7936V36.0149H37.6073Z" fill="#1565C0"/>
</svg>
