<svg width="60" height="60" viewBox="0 0 60 60" fill="none" xmlns="http://www.w3.org/2000/svg">
<circle cx="29.7" cy="29.7" r="18.3" fill="#BBDEFB"/>
<path fill-rule="evenodd" clip-rule="evenodd" d="M30.6 10.2H28.8V10.2204C18.4482 10.6907 10.2 19.2321 10.2 29.7C10.2 40.4696 18.9305 49.2 29.7 49.2C40.4696 49.2 49.2 40.4696 49.2 29.7C49.2 19.2321 40.9518 10.6907 30.6 10.2204V10.2ZM28.8 39.6V47.2942C27.1283 46.9038 25.3601 45.4208 23.8602 42.6352C23.3704 41.7256 22.929 40.708 22.5478 39.6H28.8ZM30.6 39.6V47.2942C32.2718 46.9038 34.0399 45.4208 35.5398 42.6352C36.0296 41.7256 36.471 40.708 36.8522 39.6H30.6ZM37.3966 37.8H30.6V30.6H38.3885C38.3217 33.1975 37.9678 35.6321 37.3966 37.8ZM38.7481 39.6C37.8237 42.5076 36.5045 44.9309 34.9275 46.6154C38.8212 45.4135 42.1412 42.9041 44.3746 39.6H38.7481ZM45.442 37.8H39.2541C39.7981 35.5905 40.1264 33.1596 40.189 30.6H47.3775C47.2481 33.185 46.5641 35.6238 45.442 37.8ZM28.8 37.8H22.0034C21.4322 35.6321 21.0783 33.1975 21.0116 30.6H28.8V37.8ZM20.1459 37.8C19.6019 35.5905 19.2736 33.1596 19.211 30.6H12.0225C12.152 33.185 12.836 35.6238 13.958 37.8H20.1459ZM15.0254 39.6C17.2589 42.9041 20.5788 45.4135 24.4726 46.6154C22.8955 44.9309 21.5763 42.5076 20.6519 39.6H15.0254ZM38.3885 28.8H30.6V22.2H37.5475C38.03 24.2136 38.3278 26.4396 38.3885 28.8ZM30.6 12.1058V20.4H37.05C36.6265 19.0576 36.1167 17.8363 35.5398 16.7648C34.0399 13.9793 32.2718 12.4962 30.6 12.1058ZM40.189 28.8C40.132 26.4701 39.8549 24.2467 39.3953 22.2H45.7371C46.6838 24.2209 47.2598 26.4501 47.3775 28.8H40.189ZM38.9312 20.4H44.7628C42.5354 16.8001 39.0536 14.0583 34.9275 12.7846C36.6118 14.5837 38.002 17.2255 38.9312 20.4ZM22.3501 20.4H28.8V12.1058C27.1283 12.4962 25.3601 13.9793 23.8602 16.7648C23.2833 17.8363 22.7735 19.0576 22.3501 20.4ZM28.8 22.2H21.8525C21.37 24.2136 21.0722 26.4396 21.0116 28.8H28.8V22.2ZM24.4726 12.7846C22.7883 14.5837 21.3981 17.2255 20.4688 20.4H14.6372C16.8646 16.8001 20.3464 14.0583 24.4726 12.7846ZM20.0047 22.2H13.6629C12.7162 24.2209 12.1402 26.4501 12.0225 28.8H19.211C19.268 26.4701 19.5451 24.2467 20.0047 22.2Z" fill="#42A5F5"/>
</svg>
