<svg width="60" height="60" viewBox="0 0 60 60" fill="none" xmlns="http://www.w3.org/2000/svg">
<path fill-rule="evenodd" clip-rule="evenodd" d="M21.4695 35.7833C12.5478 33.355 13.6434 22.4667 13.6434 22.4667C14.8876 24.4986 16.4606 25.1045 20.884 26.8085C21.747 27.141 22.7186 27.5152 23.8173 27.95C28.8016 29.9224 29.8372 32.7969 30.0391 35.7782C29.985 36.5769 29.9908 37.3833 29.9965 38.182C29.998 38.3934 29.9995 38.6042 29.9999 38.8142C29.7013 38.5268 28.2726 37.6118 21.4695 35.7833ZM30.0391 38.8554C30.0036 38.8969 30 38.9167 30 38.9167C30 38.8825 29.9999 38.8484 29.9999 38.8142C30.016 38.8298 30.0289 38.8435 30.0391 38.8554ZM30.0391 38.8554C30.0493 38.8435 30.0621 38.8298 30.0783 38.8142C30.0782 38.8484 30.0782 38.8825 30.0782 38.9167C30.0782 38.9167 30.0746 38.8969 30.0391 38.8554ZM30.0783 38.8142C30.0787 38.6042 30.0802 38.3934 30.0817 38.182C30.0874 37.3833 30.0932 36.5769 30.0391 35.7782C30.241 32.7969 31.2766 29.9224 36.2608 27.95C37.3596 27.5152 38.3312 27.141 39.1942 26.8085C43.6176 25.1045 45.1906 24.4986 46.4348 22.4667C46.4348 22.4667 47.5304 33.355 38.6087 35.7833C31.8056 37.6118 30.3769 38.5268 30.0783 38.8142Z" fill="#FF4081"/>
<path fill-rule="evenodd" clip-rule="evenodd" d="M30 36.5667C25.3826 36.5667 19.8261 32.5717 19.8261 27.1667C19.8261 21.7617 21.3913 19.3334 21.3913 19.3334C21.9731 20.9744 23.1446 22.0163 24.4409 23.1691C26.9798 25.4269 29.9973 28.1104 30 36.5554C30.0027 28.1104 33.0202 25.4269 35.5591 23.1691C36.8554 22.0163 38.0269 20.9744 38.6087 19.3334C38.6087 19.3334 40.1739 21.7617 40.1739 27.1667C40.1739 32.5717 34.6174 36.5667 30 36.5667Z" fill="#F50057"/>
<path d="M30 16.2C30 16.2 25.3044 21.9967 25.3044 27.95C25.3044 33.9033 30 35.7833 30 35.7833C30 35.7833 34.6957 33.9033 34.6957 27.95C34.6957 21.9967 30 16.2 30 16.2Z" fill="#D50000"/>
<path d="M30 29.5167H25.3044C25.3044 29.5167 25.3044 31.8667 27.6522 34.2167C29.3739 35.94 30 38.1333 30 38.1333C30 38.1333 30.6261 35.94 32.3479 34.2167C34.6957 31.8667 34.6957 29.5167 34.6957 29.5167H30Z" fill="#FFC400"/>
<path d="M34.6957 29.5167C34.6957 28.655 32.5826 27.95 30 27.95C27.4174 27.95 25.3044 28.655 25.3044 29.5167C25.3044 30.3783 27.4174 31.0833 30 31.0833C32.5826 31.0833 34.6957 30.3783 34.6957 29.5167Z" fill="#FFEA00"/>
<path d="M28.4347 28.7333C28.4347 29.2033 28.1217 29.5167 27.6521 29.5167C27.1826 29.5167 26.8695 29.2033 26.8695 28.7333C26.8695 28.2633 27.1826 27.95 27.6521 27.95C28.1217 27.95 28.4347 28.2633 28.4347 28.7333Z" fill="#FFC400"/>
<path d="M30.7826 27.95C30.7826 28.42 30.4696 28.7333 30 28.7333C29.5305 28.7333 29.2174 28.42 29.2174 27.95C29.2174 27.48 29.5305 27.1667 30 27.1667C30.4696 27.1667 30.7826 27.48 30.7826 27.95Z" fill="#FFC400"/>
<path d="M33.1305 28.7333C33.1305 29.2033 32.8174 29.5167 32.3479 29.5167C31.8783 29.5167 31.5652 29.2033 31.5652 28.7333C31.5652 28.2633 31.8783 27.95 32.3479 27.95C32.8174 27.95 33.1305 28.2633 33.1305 28.7333Z" fill="#FFC400"/>
<path d="M30 38.9167C29.5305 38.9167 29.2174 38.525 29.2174 38.1333C29.2174 37.0367 30.3913 36.175 31.8783 35.1567C33.8348 33.7467 36.2609 32.0233 36.2609 29.5167C36.2609 29.0467 36.5739 28.7333 37.0435 28.7333C37.5131 28.7333 37.8261 29.0467 37.8261 29.5167C37.8261 32.8067 34.9305 34.9217 32.7391 36.41C31.9565 36.9583 30.7826 37.82 30.7826 38.1333C30.7826 38.6033 30.4696 38.9167 30 38.9167Z" fill="#FFEA00"/>
<path d="M30 38.9167C29.6087 38.9167 29.2174 38.6033 29.2174 38.1333C29.1391 37.82 27.9652 36.9583 27.2608 36.41C25.0695 34.9217 22.1739 32.8067 22.1739 29.5167C22.1739 29.0467 22.4869 28.7333 22.9565 28.7333C23.4261 28.7333 23.7391 29.0467 23.7391 29.5167C23.7391 32.0233 26.1652 33.7467 28.1217 35.1567C29.6087 36.175 30.7826 37.0367 30.7826 38.1333C30.7826 38.6033 30.4695 38.9167 30 38.9167Z" fill="#FFEA00"/>
<path fill-rule="evenodd" clip-rule="evenodd" d="M20.6087 32.65C25.3826 32.885 30 38.1333 30 38.1333C30 38.1333 26.7913 40.4833 20.6087 40.4833C14.4261 40.4833 12 32.5717 12 30.3C14.113 32.1017 15.8348 32.415 20.6087 32.65ZM30 38.1333C30 38.1333 33.2087 40.4833 39.3913 40.4833C45.5739 40.4833 48 32.5717 48 30.3C45.887 32.1017 44.1652 32.415 39.3913 32.65C34.6174 32.885 30 38.1333 30 38.1333Z" fill="#FF80AB"/>
<path fill-rule="evenodd" clip-rule="evenodd" d="M30.0001 38.6694C30.0329 38.3584 30.0266 38.16 30.0001 38.1334C30.8207 37.312 32.6572 37.328 34.622 37.3451C34.9056 37.3475 35.192 37.35 35.4783 37.35C36.2704 37.35 37.2818 37.579 38.3927 37.8306C40.4647 38.2997 42.8827 38.8473 44.8696 38.1334C44.4001 39.8567 40.5653 44.4 35.4783 44.4C31.2554 44.4 30.1606 40.1894 30.0001 38.6694ZM30.0001 38.6694C29.8395 40.1894 28.7447 44.4 24.5218 44.4C19.4348 44.4 15.6001 39.935 15.1305 38.1334C17.1174 38.8473 19.5354 38.2997 21.6074 37.8306C22.7183 37.579 23.7297 37.35 24.5218 37.35C24.8081 37.35 25.0945 37.3475 25.3782 37.3451C27.3429 37.328 29.1794 37.312 30.0001 38.1334C29.9735 38.16 29.9672 38.3584 30.0001 38.6694Z" fill="#FCB4D2"/>
</svg>
