<svg width="60" height="60" viewBox="0 0 60 60" fill="none" xmlns="http://www.w3.org/2000/svg">
<path fill-rule="evenodd" clip-rule="evenodd" d="M30.3011 21.5812C36.1338 21.5814 41.7434 23.8177 45.9706 27.8276C46.2889 28.1372 46.7977 28.1333 47.1112 27.8189L50.1541 24.7548C50.3128 24.5953 50.4013 24.3792 50.4 24.1545C50.3987 23.9297 50.3076 23.7147 50.147 23.5571C39.0521 12.9476 21.5484 12.9476 10.4534 23.5571C10.2927 23.7146 10.2015 23.9295 10.2 24.1543C10.1985 24.3791 10.2869 24.5952 10.4455 24.7548L13.4892 27.8189C13.8025 28.1338 14.3117 28.1377 14.6298 27.8276C18.8576 23.8174 24.4679 21.5812 30.3011 21.5812ZM30.3011 31.5501C33.5058 31.5499 36.5961 32.7385 38.9716 34.8848C39.2929 35.1894 39.799 35.1828 40.1122 34.8699L43.1515 31.8058C43.3116 31.645 43.4004 31.427 43.3981 31.2004C43.3958 30.9739 43.3025 30.7577 43.1392 30.6003C35.9054 23.8862 24.7029 23.8862 17.4691 30.6003C17.3057 30.7577 17.2125 30.974 17.2103 31.2006C17.2082 31.4273 17.2973 31.6453 17.4577 31.8058L20.4962 34.8699C20.8094 35.1828 21.3155 35.1894 21.6368 34.8848C24.0107 32.7399 27.0985 31.5515 30.3011 31.5501ZM36.3894 38.2575C36.394 38.4847 36.3045 38.7037 36.1419 38.8629L30.8846 44.1568C30.7304 44.3124 30.5203 44.4 30.3011 44.4C30.0818 44.4 29.8717 44.3124 29.7176 44.1568L24.4593 38.8629C24.2969 38.7036 24.2075 38.4845 24.2124 38.2573C24.2172 38.0301 24.3157 37.8149 24.4848 37.6626C27.8423 34.8291 32.7598 34.8291 36.1174 37.6626C36.2863 37.8151 36.3847 38.0303 36.3894 38.2575Z" fill="#00C4AE"/>
</svg>
