<svg width="60" height="60" viewBox="0 0 60 60" fill="none" xmlns="http://www.w3.org/2000/svg">
<g clip-path="url(#clip0)">
<path d="M46.9128 13.0875L30.0002 29.9999L46.9128 46.9127C47.5846 46.2409 48.0001 45.3127 48.0001 44.2874V15.7124C48.0001 14.6874 47.5846 13.7593 46.9128 13.0875Z" fill="#FCCE2D"/>
<path d="M46.9127 13.0875C46.2408 12.4155 45.3127 12 44.2875 12H15.7125C14.6873 12 13.7593 12.4155 13.0874 13.0873L30 29.9999L46.9127 13.0875Z" fill="#D81E4F"/>
<path d="M13.0874 46.9127C13.7592 47.5845 14.6871 48 15.7121 48H37.4539H37.4541H44.2878C45.3129 48 46.2409 47.5845 46.9127 46.9127L30 30.0001L13.0874 46.9127Z" fill="#93B2D3"/>
<path d="M13.0874 13.0873C12.4156 13.759 12.0002 14.687 12 15.7117V44.2883C12.0002 45.3132 12.4156 46.2409 13.0873 46.9127L29.9999 29.9999L13.0874 13.0873Z" fill="#1E5193"/>
</g>
<defs>
<clipPath id="clip0">
<path d="M12 12H48V48H12V12Z" fill="white"/>
</clipPath>
</defs>
</svg>
