<svg width="60" height="60" viewBox="0 0 60 60" fill="none" xmlns="http://www.w3.org/2000/svg">
<path d="M29.5098 47.219C28.8819 47.219 28.2879 46.8456 28.0403 46.2344C26.3644 42.089 26.3454 31.9933 26.3454 31.5652C26.3454 30.7012 27.0541 30 27.9272 30C28.8004 30 31.0909 29.9186 31.0909 30.7826C31.0917 32.2085 29.2868 36.5058 30.2019 41.8847C30.4186 43.1596 30.6598 44.2842 30.9778 45.0715C31.302 45.8752 30.9074 46.7854 30.0967 47.1078C29.9037 47.1822 29.7052 47.219 29.5098 47.219Z" fill="#BA68C8"/>
<path d="M30.3 15.9131C32.0471 15.9131 33.4636 17.3147 33.4636 19.0435C33.4636 20.7715 32.0471 22.1739 30.3 22.1739C28.5529 22.1739 27.1364 20.7715 27.1364 19.0435C27.1364 17.3147 28.5529 15.9131 30.3 15.9131Z" fill="#FFB74D"/>
<path d="M32.6735 40.174C32.2092 40.174 31.7497 39.972 31.4373 39.587C30.8916 38.9116 31.0023 37.9271 31.6848 37.3863L34.1469 35.4376L30.3 33.1305C29.6364 32.5678 29.3216 30.4219 29.8895 29.7645C30.4589 29.1086 32.0107 28.6547 32.6727 29.2174L37.657 34.2903C38.0145 34.5947 38.217 35.0393 38.209 35.5057C38.2003 35.9721 37.9836 36.4104 37.6151 36.7007L33.6605 39.8312C33.3695 40.0613 33.0199 40.174 32.6735 40.174Z" fill="#BA68C8"/>
<path d="M28.7182 26.8696H26.3454L22.3885 20.4444C22.1924 20.1039 22.1797 19.6884 22.3577 19.3362L25.6787 13.4306C25.9713 12.8531 26.6839 12.6175 27.2708 12.9063C27.8569 13.1966 28.0941 13.901 27.8015 14.4825L24.7636 19.8261L28.7182 24.5218V26.8696Z" fill="#FFB74D"/>
<path d="M31.8818 26.8696H34.2545L38.2114 20.4451C38.4076 20.1039 38.4202 19.6884 38.2423 19.337L35.0233 13.3547C34.7306 12.7771 34.018 12.5416 33.4312 12.8304C32.8451 13.1207 32.6078 13.8251 32.9005 14.4065L35.8363 19.8261L31.8818 24.5218V26.8696Z" fill="#FFB74D"/>
<path d="M34.2545 30.7826L26.3454 32.3478V26.8696C27.2186 26.8696 27.9272 26.1684 27.9272 25.3044V23.7391H32.6727V25.3044C32.6727 26.1691 33.3806 26.8696 34.2545 26.8696V30.7826Z" fill="#FF66A1"/>
</svg>
