<svg width="26" height="26" viewBox="0 0 26 26" fill="none" xmlns="http://www.w3.org/2000/svg">
<path d="M1 12.4051C1 11.5148 1.39547 10.6704 2.07945 10.1005L11.7196 2.06697C12.4613 1.4489 13.5387 1.4489 14.2804 2.06697L23.9206 10.1005C24.6045 10.6704 25 11.5148 25 12.4051V23C25 24.1046 24.1046 25 23 25H17.5C16.9477 25 16.5 24.5523 16.5 24V17.5C16.5 16.9477 16.0523 16.5 15.5 16.5H10.5C9.94771 16.5 9.5 16.9477 9.5 17.5V24C9.5 24.5523 9.05229 25 8.5 25H3C1.89543 25 1 24.1046 1 23V12.4051Z" fill="#1E5193"/>
</svg>
