<?xml version="1.0" standalone="no"?>
<!DOCTYPE svg PUBLIC "-//W3C//DTD SVG 20010904//EN"
 "http://www.w3.org/TR/2001/REC-SVG-20010904/DTD/svg10.dtd">
<svg version="1.0" xmlns="http://www.w3.org/2000/svg"
 width="40.000000pt" height="40.000000pt" viewBox="0 0 40.000000 40.000000"
 preserveAspectRatio="xMidYMid meet">

<g transform="translate(0.000000,40.000000) scale(0.100000,-0.100000)"
fill="#000000" stroke="none">
<path d="M151 304 c-12 -15 -21 -35 -21 -45 0 -11 -5 -19 -10 -19 -7 0 -10
-30 -8 -82 l3 -83 85 0 85 0 3 83 c2 52 -1 82 -8 82 -5 0 -10 8 -10 19 0 10
-9 30 -21 45 -28 35 -70 35 -98 0z m84 -10 c9 -9 15 -24 13 -33 -5 -23 -91
-23 -96 0 -4 21 24 49 48 49 10 0 26 -7 35 -16z m-17 -142 c3 -27 0 -32 -17
-32 -16 0 -21 6 -21 28 0 53 33 56 38 4z"/>
</g>
</svg>
