<svg width="26" height="26" viewBox="0 0 26 26" fill="none" xmlns="http://www.w3.org/2000/svg">
<path d="M11.7256 0L11.3707 3.90379C10.4884 4.15517 9.60607 4.42626 8.847 4.92902L5.81073 2.76025L3.52366 4.92902L5.69243 7.92587C5.18967 8.80816 4.91857 9.59681 4.66719 10.6073L1 11.0804V14.235L4.66719 14.8659C4.91857 15.7482 5.31289 16.6305 5.69243 17.3896L3.52366 20.4259L5.81073 22.7129L8.847 20.5442C9.60607 21.0469 10.4884 21.318 11.3707 21.5694L12.0016 25.2366H15.1562L15.7871 21.5694C16.6694 21.318 17.5517 20.9237 18.3107 20.5442L21.4653 22.7129L23.7129 20.4259L21.5836 17.3896C22.0864 16.6305 22.318 15.7482 22.5694 14.8659L26 14.235V11.0804L22.2145 10.4495C21.9631 9.56723 21.5688 8.68494 21.1893 7.92587L23.358 4.77129L21.071 2.52366L18.0347 4.653C17.2756 4.15024 16.3933 3.91857 15.511 3.66719L14.8801 0H11.7256ZM13.5 8.32019C15.8955 8.32019 17.9164 10.3411 17.9164 12.7366C17.9164 15.1321 15.8955 17.153 13.5 17.153C11.1045 17.153 9.0836 15.1321 9.0836 12.7366C9.0836 10.3411 11.1045 8.32019 13.5 8.32019Z" fill="#D2D2D2"/>
</svg>
