<svg width="40" height="40" viewBox="0 0 40 40" fill="none" xmlns="http://www.w3.org/2000/svg">
<path fill-rule="evenodd" clip-rule="evenodd" d="M20 8.39998C13.5935 8.39998 8.39997 13.5935 8.39997 20C8.39997 26.4065 13.5935 31.6 20 31.6C26.4065 31.6 31.6 26.4065 31.6 20C31.6 13.5935 26.4065 8.39998 20 8.39998ZM18.8 24.4C18.8 23.7372 19.3372 23.2 20 23.2C20.6627 23.2 21.2 23.7372 21.2 24.4C21.2 25.0627 20.6627 25.6 20 25.6C19.3372 25.6 18.8 25.0627 18.8 24.4ZM21.2 20C21.2 20.6627 20.6627 21.2 20 21.2C19.3372 21.2 18.8 20.6627 18.8 20L18.8 15.6C18.8 14.9372 19.3372 14.4 20 14.4C20.6627 14.4 21.2 14.9372 21.2 15.6L21.2 20Z" fill="black"/>
</svg>
