<svg width="40" height="40" viewBox="0 0 40 40" fill="none" xmlns="http://www.w3.org/2000/svg">
<path fill-rule="evenodd" clip-rule="evenodd" d="M30.4579 9.99778C30.5531 9.72584 30.4841 9.42342 30.2803 9.21969C30.0766 9.01596 29.7742 8.94695 29.5022 9.04213L9.50224 16.0421C9.21199 16.1437 9.01316 16.4122 9.00063 16.7194C8.98809 17.0267 9.16439 17.3105 9.4454 17.4354L17.4475 20.9919L25.4697 12.9697C25.7626 12.6768 26.2374 12.6768 26.5303 12.9697C26.8232 13.2626 26.8232 13.7374 26.5303 14.0303L18.5081 22.0525L22.0646 30.0546C22.1895 30.3356 22.4733 30.5119 22.7806 30.4994C23.0878 30.4869 23.3563 30.288 23.4579 29.9978L30.4579 9.99778Z" fill="black"/>
</svg>
