<svg width="40" height="40" viewBox="0 0 40 40" fill="none" xmlns="http://www.w3.org/2000/svg">
<path fill-rule="evenodd" clip-rule="evenodd" d="M30.2803 9.21969C30.4479 9.3873 30.5196 9.61451 30.4954 9.83311C30.4886 9.8944 30.4743 9.95502 30.4524 10.0135L23.4579 29.9978C23.3563 30.288 23.0878 30.4869 22.7806 30.4994C22.4733 30.5119 22.1895 30.3356 22.0646 30.0546L18.1818 21.3182L9.4454 17.4354C9.16439 17.3105 8.98809 17.0267 9.00063 16.7194C9.01316 16.4122 9.21199 16.1437 9.50224 16.0421L29.4866 9.04761C29.5454 9.0256 29.6064 9.01123 29.668 9.00449C29.7133 8.99951 29.7587 8.9987 29.8036 9.00193C29.9773 9.0143 30.1475 9.08689 30.2803 9.21969ZM26.8957 11.5436L11.7833 16.833L18.5839 19.8555L26.8957 11.5436ZM19.6446 20.9161L27.9564 12.6043L22.6671 27.7167L19.6446 20.9161Z" fill="black"/>
</svg>
