<svg width="60" height="60" viewBox="0 0 60 60" fill="none" xmlns="http://www.w3.org/2000/svg">
<path d="M34 16.1538C34 13.8606 32.1394 12 29.8462 12C27.5529 12 25.6923 13.8606 25.6923 16.1538C25.6923 18.4471 27.5529 20.3077 29.8462 20.3077C32.1394 20.3077 34 18.4471 34 16.1538ZM34 30C34 27.7067 32.1394 25.8462 29.8462 25.8462C27.5529 25.8462 25.6923 27.7067 25.6923 30C25.6923 32.2933 27.5529 34.1538 29.8462 34.1538C32.1394 34.1538 34 32.2933 34 30ZM34 43.8462C34 41.5529 32.1394 39.6923 29.8462 39.6923C27.5529 39.6923 25.6923 41.5529 25.6923 43.8462C25.6923 46.1394 27.5529 48 29.8462 48C32.1394 48 34 46.1394 34 43.8462Z" fill="#A0A0A0"/>
</svg>
