<svg width="60" height="60" viewBox="0 0 60 60" fill="none" xmlns="http://www.w3.org/2000/svg">
<path d="M19.2 15.6C18.5635 15.6 17.9531 15.8529 17.503 16.3029C17.0529 16.753 16.8 17.3635 16.8 18V25.2C16.8008 25.6971 16.9559 26.1817 17.2439 26.5868C17.5319 26.9919 17.9386 27.2977 18.4079 27.4617C18.6623 27.552 18.9301 27.5988 19.2 27.6C19.2086 27.6001 19.2172 27.6001 19.2258 27.6L33.6 30L19.2258 32.4023C19.2172 32.4015 19.2086 32.4007 19.2 32.4C18.9293 32.401 18.6607 32.4477 18.4055 32.5383C17.9367 32.7028 17.5305 33.0086 17.243 33.4137C16.9554 33.8188 16.8007 34.3032 16.8 34.8V42C16.8 42.6365 17.0529 43.247 17.503 43.6971C17.9531 44.1471 18.5635 44.4 19.2 44.4C19.6179 44.3992 20.0283 44.2893 20.3907 44.0813H20.393L44.8688 31.1063L44.8711 31.1016C45.0871 31.0094 45.2712 30.8559 45.4008 30.6601C45.5304 30.4643 45.5996 30.2348 45.6 30C45.6004 29.7642 45.5312 29.5334 45.4011 29.3367C45.2711 29.1399 45.0859 28.9859 44.8688 28.8938L20.393 15.9188C20.03 15.7103 19.6187 15.6004 19.2 15.6V15.6Z" fill="#1E5193"/>
</svg>
