<svg width="60" height="60" viewBox="0 0 60 60" fill="none" xmlns="http://www.w3.org/2000/svg">
<path d="M49.2712 26.7154L44.1317 25.8753C43.8308 24.8439 43.4194 23.8525 42.9046 22.9142L45.9049 18.6381C46.1475 18.2929 46.1057 17.8224 45.8075 17.5233L42.4254 14.143C42.1237 13.8421 41.6488 13.8029 41.3027 14.0525L37.091 17.0797C36.144 16.5562 35.1439 16.1405 34.1064 15.8388L33.2098 10.7201C33.1368 10.3044 32.7759 10 32.3532 10H27.5702C27.1441 10 26.7806 10.3087 26.7119 10.7296L25.8805 15.8205C24.8369 16.1205 23.8351 16.5319 22.8916 17.0484L18.6912 14.0482C18.3442 13.8003 17.872 13.8403 17.5702 14.1404L14.1899 17.5207C13.8916 17.8189 13.8499 18.2885 14.0925 18.6338L17.0484 22.8629C16.5223 23.8151 16.1031 24.823 15.7979 25.8718L10.727 26.7162C10.3079 26.7858 10 27.1493 10 27.5737V32.3567C10 32.7785 10.3026 33.1394 10.7175 33.2133L15.7883 34.1125C16.0918 35.1587 16.511 36.1666 17.0389 37.1215L14.0464 41.3071C13.7995 41.6523 13.8386 42.1263 14.1386 42.428L17.5198 45.8118C17.8181 46.1101 18.2885 46.1518 18.6338 45.9092L22.8689 42.9429C23.8195 43.4655 24.8239 43.8803 25.8649 44.1812L26.7136 49.2782C26.7823 49.6965 27.145 50.0035 27.5702 50.0035H32.3532C32.775 50.0035 33.1359 49.7008 33.209 49.286L34.1177 44.1638C35.1604 43.8569 36.1597 43.4394 37.1006 42.9159L41.3662 45.9083C41.7123 46.1527 42.1819 46.1101 42.4811 45.8118L45.8622 42.428C46.1631 42.1263 46.2023 41.6506 45.9527 41.3045L42.9107 37.0806C43.4264 36.1414 43.836 35.1483 44.1343 34.1169L49.2808 33.2133C49.6974 33.1403 50 32.7785 50 32.3567V27.5737C50.0009 27.1476 49.6921 26.7841 49.2712 26.7154ZM30 36.0892C26.638 36.0892 23.9125 33.3638 23.9125 30.0017C23.9125 26.6397 26.638 23.9143 30 23.9143C33.362 23.9143 36.0875 26.6397 36.0875 30.0017C36.0875 33.3638 33.362 36.0892 30 36.0892Z" fill="#A0A0A0"/>
</svg>
