<svg width="60" height="60" viewBox="0 0 60 60" fill="none" xmlns="http://www.w3.org/2000/svg">
<path fill-rule="evenodd" clip-rule="evenodd" d="M20.9542 17.4185C19.9779 16.4422 18.3949 16.4422 17.4186 17.4185C16.4423 18.3948 16.4423 19.9777 17.4186 20.9541L26.9646 30.5L17.4186 40.0459C16.4423 41.0223 16.4423 42.6052 17.4186 43.5815C18.3949 44.5578 19.9779 44.5578 20.9542 43.5815L30.5001 34.0355L40.0461 43.5815C41.0224 44.5578 42.6053 44.5578 43.5816 43.5815C44.5579 42.6052 44.5579 41.0223 43.5816 40.0459L34.0356 30.5L43.5816 20.9541C44.5579 19.9777 44.5579 18.3948 43.5816 17.4185C42.6053 16.4422 41.0224 16.4422 40.0461 17.4185L30.5001 26.9645L20.9542 17.4185Z" fill="#A0A0A0"/>
</svg>
