<svg width="30" height="30" viewBox="0 0 30 30" fill="none" xmlns="http://www.w3.org/2000/svg">
<path fill-rule="evenodd" clip-rule="evenodd" d="M6.40165 1.09835C4.93718 -0.366117 2.56282 -0.366117 1.09835 1.09835C-0.366117 2.56282 -0.366117 4.93718 1.09835 6.40165L9.6967 15L1.09835 23.5984C-0.366117 25.0628 -0.366117 27.4372 1.09835 28.9017C2.56282 30.3661 4.93718 30.3661 6.40165 28.9017L15 20.3033L23.5984 28.9017C25.0628 30.3661 27.4372 30.3661 28.9017 28.9017C30.3661 27.4372 30.3661 25.0628 28.9017 23.5984L20.3033 15L28.9017 6.40165C30.3661 4.93718 30.3661 2.56282 28.9017 1.09835C27.4372 -0.366117 25.0628 -0.366117 23.5984 1.09835L15 9.6967L6.40165 1.09835Z" fill="#D2D2D2"/>
</svg>
