<svg width="40" height="40" viewBox="0 0 40 40" fill="none" xmlns="http://www.w3.org/2000/svg">
<path fill-rule="evenodd" clip-rule="evenodd" d="M20 31.6C26.4065 31.6 31.6 26.4065 31.6 20C31.6 13.5935 26.4065 8.40002 20 8.40002C13.5935 8.40002 8.40002 13.5935 8.40002 20C8.40002 26.4065 13.5935 31.6 20 31.6ZM21.2 15.6C21.2 16.2628 20.6628 16.8 20 16.8C19.3373 16.8 18.8 16.2628 18.8 15.6C18.8 14.9373 19.3373 14.4 20 14.4C20.6628 14.4 21.2 14.9373 21.2 15.6ZM18.8 20C18.8 19.3373 19.3373 18.8 20 18.8C20.6628 18.8 21.2 19.3373 21.2 20V24.4C21.2 25.0628 20.6628 25.6 20 25.6C19.3373 25.6 18.8 25.0628 18.8 24.4V20Z" fill="black"/>
</svg>
