<svg width="60" height="60" viewBox="0 0 60 60" fill="none" xmlns="http://www.w3.org/2000/svg">
<rect width="60" height="60" fill="#00E0FF"/>
<g clip-path="url(#clip0)">
<path d="M38.732 13.7998C33.4 20.0408 24.3 17.1818 18.45 24.8498C12.209 33.0408 22.091 38.7588 24.3 38.3678C20.791 41.4908 13.9 42.3998 13.9 42.3998C13.768 43.9588 14.809 44.9998 15.591 44.9998C18.059 44.4818 32.1 39.1498 37.3 22.8998C37.3 31.8678 26.9 41.0998 26.9 41.0998C26.9 41.0998 28.459 43.6998 32.491 43.6998C38.082 43.6998 42.5 39.2818 42.5 28.7498C42.5 20.2998 38.732 13.7998 38.732 13.7998Z" fill="white"/>
</g>
<defs>
<clipPath id="clip0">
<rect x="14.4" y="14.3999" width="31.2" height="31.2" fill="white"/>
</clipPath>
</defs>
</svg>
