<svg width="40" height="40" viewBox="0 0 40 40" fill="none" xmlns="http://www.w3.org/2000/svg">
<path fill-rule="evenodd" clip-rule="evenodd" d="M20 8.40002C13.5935 8.40002 8.40002 13.5935 8.40002 20C8.40002 26.4065 13.5935 31.6 20 31.6C26.4065 31.6 31.6 26.4065 31.6 20C31.6 13.5935 26.4065 8.40002 20 8.40002ZM19.9397 23.8794C19.5878 24.2313 19.0716 24.319 18.6379 24.1423L18.3338 23.9618C18.3024 23.9361 18.2719 23.9087 18.2426 23.8794L14.8485 20.4853C14.3799 20.0167 14.3799 19.2569 14.8485 18.7882C15.3172 18.3196 16.077 18.3196 16.5456 18.7882L19.0912 21.3338L24.1823 16.2426C24.651 15.774 25.4108 15.774 25.8794 16.2426C26.348 16.7113 26.348 17.4711 25.8794 17.9397L19.9397 23.8794Z" fill="black"/>
</svg>
