<svg width="40" height="40" viewBox="0 0 40 40" fill="none" xmlns="http://www.w3.org/2000/svg">
<path fill-rule="evenodd" clip-rule="evenodd" d="M19.5395 10.408C19.8104 10.1973 20.1896 10.1973 20.4605 10.408L29.4605 17.408C29.6431 17.5501 29.75 17.7686 29.75 18V28C29.75 28.7293 29.4603 29.4288 28.9445 29.9445C28.4288 30.4603 27.7293 30.75 27 30.75H23.5C23.0858 30.75 22.75 30.4142 22.75 30V22.75H17.25V30C17.25 30.4142 16.9142 30.75 16.5 30.75H13C12.2707 30.75 11.5712 30.4603 11.0555 29.9445C10.5397 29.4288 10.25 28.7293 10.25 28V18C10.25 17.7686 10.3569 17.5501 10.5395 17.408L19.5395 10.408Z" fill="black"/>
</svg>
