<svg width="40" height="40" viewBox="0 0 40 40" fill="none" xmlns="http://www.w3.org/2000/svg">
<path d="M19.2838 7.41238C19.7051 7.08471 20.295 7.08471 20.7163 7.41238L31.2163 15.579C31.5005 15.8001 31.6667 16.1399 31.6667 16.5V29.3333C31.6667 30.2616 31.298 31.1518 30.6416 31.8082C29.9852 32.4645 29.095 32.8333 28.1667 32.8333H25C24.3557 32.8333 23.8334 32.311 23.8334 31.6666V23.1666H16.1667V31.6666C16.1667 32.311 15.6444 32.8333 15 32.8333H11.8334C10.9051 32.8333 10.0149 32.4645 9.3585 31.8082C8.70212 31.1518 8.33337 30.2615 8.33337 29.3333V16.5C8.33337 16.1399 8.49959 15.8001 8.78378 15.579L19.2838 7.41238Z" fill="black"/>
</svg>
