<svg width="110" height="33" viewBox="0 0 110 33" fill="none" xmlns="http://www.w3.org/2000/svg">
<g clip-path="url(#clip0)">
<path d="M45.4414 11.0489H50.0627V23.895H52.2936V11.0489H56.9222V9.13135H45.4414V11.0489Z" fill="black"/>
<path d="M63.5386 23.895H65.7768V18.3082H68.819C68.8697 18.3082 68.9132 18.3082 68.9639 18.3082L71.9772 23.895H74.5268L71.2383 17.9189C73.0564 17.2485 73.9618 15.7418 73.9618 13.7594C73.9618 11.0417 72.2669 9.13135 68.8263 9.13135H63.5386V23.895ZM65.7768 16.3906V11.0417H68.5873C70.7965 11.0417 71.7092 12.087 71.7092 13.7594C71.7092 15.4246 70.7965 16.3906 68.6162 16.3906H65.7768Z" fill="black"/>
<path d="M80.7648 23.895H90.1522V21.9774H83.003V17.4575H89.58V15.5472H83.003V11.0489H90.0653V9.13135H80.7648V23.895Z" fill="black"/>
<path d="M97.1345 23.895H106.522V21.9774H99.3727V17.4575H105.95V15.5472H99.3727V11.0489H106.435V9.13135H97.1345V23.895Z" fill="black"/>
<path fill-rule="evenodd" clip-rule="evenodd" d="M25.6169 6.45453L31.7872 21.3282C31.8032 21.3669 31.8193 21.4058 31.8355 21.4447C32.1473 22.1959 32.4703 22.974 32.6779 23.6452C32.8903 24.3323 33.1825 25.4931 32.8486 26.7973C32.4465 28.3681 31.386 29.6729 29.9633 30.4097C28.7911 31.0167 27.6114 31.0228 26.8874 30.9888C26.1779 30.9555 25.3328 30.8397 24.5051 30.7262C24.4638 30.7206 24.4226 30.7149 24.3814 30.7093L8.07035 28.4767C8.02906 28.4711 7.9877 28.4654 7.94631 28.4597C7.11879 28.3466 6.27358 28.2311 5.58186 28.0726C4.87847 27.9114 3.73736 27.5878 2.77202 26.6799C1.59878 25.5764 0.945368 24.0219 1.00359 22.3983C1.05175 21.055 1.65985 20.0219 2.05528 19.4234C2.44346 18.8358 2.97273 18.1763 3.48565 17.5372C3.51197 17.5044 3.53825 17.4717 3.56446 17.439L13.7052 4.79792C13.7313 4.76543 13.7574 4.73287 13.7836 4.70026C14.2967 4.06037 14.8253 3.40108 15.3159 2.89303C15.8222 2.36871 16.6845 1.56959 17.9607 1.21319C19.4972 0.7841 21.1511 1.00762 22.5183 1.83963C23.6565 2.53231 24.2656 3.54337 24.6055 4.18642C24.9346 4.80889 25.2571 5.58675 25.5688 6.33859C25.5849 6.37731 25.6009 6.41597 25.6169 6.45453ZM18.9444 4.69285C18.2949 4.87423 17.7127 5.5999 16.5485 7.05125L6.40768 19.6924C5.2434 21.1437 4.66125 21.8694 4.63767 22.527C4.61711 23.1006 4.84742 23.6558 5.27135 24.0545C5.75736 24.5116 6.69371 24.6398 8.56643 24.8961L24.8775 27.1287C26.7502 27.385 27.6865 27.5132 28.2831 27.2042C28.8034 26.9348 29.182 26.4629 29.3245 25.906C29.488 25.2676 29.1338 24.4137 28.4253 22.706L22.2551 7.83235C21.5467 6.12467 21.1924 5.27083 20.6195 4.92213C20.1197 4.61798 19.5109 4.53464 18.9444 4.69285Z" fill="url(#paint0_linear)"/>
</g>
<defs>
<linearGradient id="paint0_linear" x1="17" y1="1" x2="17" y2="31" gradientUnits="userSpaceOnUse">
<stop stop-color="#EE0077"/>
<stop offset="1" stop-color="#FF9900"/>
</linearGradient>
<clipPath id="clip0">
<path d="M0 0H110V33H0V0Z" fill="white"/>
</clipPath>
</defs>
</svg>
