<svg width="100" height="100" viewBox="0 0 100 100" fill="none" xmlns="http://www.w3.org/2000/svg">
<path fill-rule="evenodd" clip-rule="evenodd" d="M73.6958 23.0911L90.6639 64.2423C90.7081 64.3495 90.7524 64.4569 90.7968 64.5645C91.6543 66.6429 92.5425 68.7956 93.1133 70.6528C93.6974 72.5537 94.5011 75.7654 93.5829 79.3738C92.477 83.7197 89.5608 87.3298 85.6483 89.3682C82.4249 91.0475 79.1808 91.0644 77.1896 90.9704C75.2385 90.8783 72.9147 90.5578 70.6385 90.2439C70.5249 90.2283 70.4115 90.2126 70.2982 90.1971L25.4432 84.0201C25.3297 84.0045 25.216 83.9889 25.1021 83.9732C22.8265 83.6603 20.5022 83.3406 18.6 82.902C16.6657 82.456 13.5277 81.5608 10.873 79.0488C7.64659 75.9959 5.84973 71.6951 6.00983 67.2029C6.14228 63.4864 7.81455 60.6283 8.90196 58.9723C9.96945 57.3466 11.4249 55.522 12.8354 53.7538C12.9078 53.6631 12.9801 53.5725 13.0522 53.4821L40.9391 18.5078C41.0107 18.4179 41.0825 18.3278 41.1544 18.2376C42.5655 16.4672 44.0193 14.6431 45.3684 13.2375C46.7607 11.7869 49.132 9.57593 52.6416 8.58986C56.8668 7.4027 61.4151 8.02111 65.1747 10.323C68.3048 12.2395 69.9798 15.0368 70.9146 16.8159C71.8195 18.5381 72.7064 20.6903 73.5636 22.7704C73.6077 22.8775 73.6518 22.9845 73.6958 23.0911ZM55.3465 18.2171C53.5605 18.7189 51.9596 20.7266 48.7578 24.7421L20.8709 59.7164C17.6692 63.7318 16.0683 65.7396 16.0035 67.559C15.9469 69.1461 16.5803 70.6821 17.7461 71.7852C19.0826 73.0498 21.6575 73.4044 26.8075 74.1136L71.6624 80.2905C76.8123 80.9997 79.3873 81.3543 81.0278 80.4996C82.4587 79.7541 83.4996 78.4487 83.8917 76.9078C84.3412 75.1413 83.3671 72.779 81.419 68.0544L64.4509 26.9032C62.5027 22.1785 61.5287 19.8162 59.953 18.8514C58.5786 18.0099 56.9044 17.7794 55.3465 18.2171Z" fill="url(#paint0_linear)"/>
<defs>
<linearGradient id="paint0_linear" x1="49.9996" y1="8.00003" x2="49.9996" y2="91.0014" gradientUnits="userSpaceOnUse">
<stop stop-color="#EE0077"/>
<stop offset="1" stop-color="#FF9900"/>
</linearGradient>
</defs>
</svg>
